%TF.GenerationSoftware,KiCad,Pcbnew,7.0.6-7.0.6~ubuntu22.10.1*%
%TF.CreationDate,2023-08-25T09:43:34+03:00*%
%TF.ProjectId,Power Supply Module,506f7765-7220-4537-9570-706c79204d6f,rev?*%
%TF.SameCoordinates,Original*%
%TF.FileFunction,Legend,Top*%
%TF.FilePolarity,Positive*%
%FSLAX46Y46*%
G04 Gerber Fmt 4.6, Leading zero omitted, Abs format (unit mm)*
G04 Created by KiCad (PCBNEW 7.0.6-7.0.6~ubuntu22.10.1) date 2023-08-25 09:43:34*
%MOMM*%
%LPD*%
G01*
G04 APERTURE LIST*
%ADD10C,0.200000*%
%ADD11C,0.150000*%
%ADD12C,0.120000*%
%ADD13C,0.100000*%
G04 APERTURE END LIST*
D10*
X183060149Y-75117219D02*
X183250625Y-75117219D01*
X183250625Y-75117219D02*
X183345863Y-75164838D01*
X183345863Y-75164838D02*
X183441101Y-75260076D01*
X183441101Y-75260076D02*
X183488720Y-75450552D01*
X183488720Y-75450552D02*
X183488720Y-75783885D01*
X183488720Y-75783885D02*
X183441101Y-75974361D01*
X183441101Y-75974361D02*
X183345863Y-76069600D01*
X183345863Y-76069600D02*
X183250625Y-76117219D01*
X183250625Y-76117219D02*
X183060149Y-76117219D01*
X183060149Y-76117219D02*
X182964911Y-76069600D01*
X182964911Y-76069600D02*
X182869673Y-75974361D01*
X182869673Y-75974361D02*
X182822054Y-75783885D01*
X182822054Y-75783885D02*
X182822054Y-75450552D01*
X182822054Y-75450552D02*
X182869673Y-75260076D01*
X182869673Y-75260076D02*
X182964911Y-75164838D01*
X182964911Y-75164838D02*
X183060149Y-75117219D01*
X184250625Y-75593409D02*
X183917292Y-75593409D01*
X183917292Y-76117219D02*
X183917292Y-75117219D01*
X183917292Y-75117219D02*
X184393482Y-75117219D01*
X185107768Y-75593409D02*
X184774435Y-75593409D01*
X184774435Y-76117219D02*
X184774435Y-75117219D01*
X184774435Y-75117219D02*
X185250625Y-75117219D01*
X190369673Y-88736266D02*
X191131578Y-88736266D01*
X189869673Y-81486266D02*
X190631578Y-81486266D01*
X190250625Y-81867219D02*
X190250625Y-81105314D01*
X170524435Y-105367219D02*
X171143482Y-105367219D01*
X171143482Y-105367219D02*
X170810149Y-105748171D01*
X170810149Y-105748171D02*
X170953006Y-105748171D01*
X170953006Y-105748171D02*
X171048244Y-105795790D01*
X171048244Y-105795790D02*
X171095863Y-105843409D01*
X171095863Y-105843409D02*
X171143482Y-105938647D01*
X171143482Y-105938647D02*
X171143482Y-106176742D01*
X171143482Y-106176742D02*
X171095863Y-106271980D01*
X171095863Y-106271980D02*
X171048244Y-106319600D01*
X171048244Y-106319600D02*
X170953006Y-106367219D01*
X170953006Y-106367219D02*
X170667292Y-106367219D01*
X170667292Y-106367219D02*
X170572054Y-106319600D01*
X170572054Y-106319600D02*
X170524435Y-106271980D01*
X171572054Y-106271980D02*
X171619673Y-106319600D01*
X171619673Y-106319600D02*
X171572054Y-106367219D01*
X171572054Y-106367219D02*
X171524435Y-106319600D01*
X171524435Y-106319600D02*
X171572054Y-106271980D01*
X171572054Y-106271980D02*
X171572054Y-106367219D01*
X171953006Y-105367219D02*
X172572053Y-105367219D01*
X172572053Y-105367219D02*
X172238720Y-105748171D01*
X172238720Y-105748171D02*
X172381577Y-105748171D01*
X172381577Y-105748171D02*
X172476815Y-105795790D01*
X172476815Y-105795790D02*
X172524434Y-105843409D01*
X172524434Y-105843409D02*
X172572053Y-105938647D01*
X172572053Y-105938647D02*
X172572053Y-106176742D01*
X172572053Y-106176742D02*
X172524434Y-106271980D01*
X172524434Y-106271980D02*
X172476815Y-106319600D01*
X172476815Y-106319600D02*
X172381577Y-106367219D01*
X172381577Y-106367219D02*
X172095863Y-106367219D01*
X172095863Y-106367219D02*
X172000625Y-106319600D01*
X172000625Y-106319600D02*
X171953006Y-106271980D01*
X172857768Y-105367219D02*
X173191101Y-106367219D01*
X173191101Y-106367219D02*
X173524434Y-105367219D01*
X170274435Y-61617219D02*
X170893482Y-61617219D01*
X170893482Y-61617219D02*
X170560149Y-61998171D01*
X170560149Y-61998171D02*
X170703006Y-61998171D01*
X170703006Y-61998171D02*
X170798244Y-62045790D01*
X170798244Y-62045790D02*
X170845863Y-62093409D01*
X170845863Y-62093409D02*
X170893482Y-62188647D01*
X170893482Y-62188647D02*
X170893482Y-62426742D01*
X170893482Y-62426742D02*
X170845863Y-62521980D01*
X170845863Y-62521980D02*
X170798244Y-62569600D01*
X170798244Y-62569600D02*
X170703006Y-62617219D01*
X170703006Y-62617219D02*
X170417292Y-62617219D01*
X170417292Y-62617219D02*
X170322054Y-62569600D01*
X170322054Y-62569600D02*
X170274435Y-62521980D01*
X171322054Y-62521980D02*
X171369673Y-62569600D01*
X171369673Y-62569600D02*
X171322054Y-62617219D01*
X171322054Y-62617219D02*
X171274435Y-62569600D01*
X171274435Y-62569600D02*
X171322054Y-62521980D01*
X171322054Y-62521980D02*
X171322054Y-62617219D01*
X171703006Y-61617219D02*
X172322053Y-61617219D01*
X172322053Y-61617219D02*
X171988720Y-61998171D01*
X171988720Y-61998171D02*
X172131577Y-61998171D01*
X172131577Y-61998171D02*
X172226815Y-62045790D01*
X172226815Y-62045790D02*
X172274434Y-62093409D01*
X172274434Y-62093409D02*
X172322053Y-62188647D01*
X172322053Y-62188647D02*
X172322053Y-62426742D01*
X172322053Y-62426742D02*
X172274434Y-62521980D01*
X172274434Y-62521980D02*
X172226815Y-62569600D01*
X172226815Y-62569600D02*
X172131577Y-62617219D01*
X172131577Y-62617219D02*
X171845863Y-62617219D01*
X171845863Y-62617219D02*
X171750625Y-62569600D01*
X171750625Y-62569600D02*
X171703006Y-62521980D01*
X172607768Y-61617219D02*
X172941101Y-62617219D01*
X172941101Y-62617219D02*
X173274434Y-61617219D01*
X179345863Y-63867219D02*
X178869673Y-63867219D01*
X178869673Y-63867219D02*
X178822054Y-64343409D01*
X178822054Y-64343409D02*
X178869673Y-64295790D01*
X178869673Y-64295790D02*
X178964911Y-64248171D01*
X178964911Y-64248171D02*
X179203006Y-64248171D01*
X179203006Y-64248171D02*
X179298244Y-64295790D01*
X179298244Y-64295790D02*
X179345863Y-64343409D01*
X179345863Y-64343409D02*
X179393482Y-64438647D01*
X179393482Y-64438647D02*
X179393482Y-64676742D01*
X179393482Y-64676742D02*
X179345863Y-64771980D01*
X179345863Y-64771980D02*
X179298244Y-64819600D01*
X179298244Y-64819600D02*
X179203006Y-64867219D01*
X179203006Y-64867219D02*
X178964911Y-64867219D01*
X178964911Y-64867219D02*
X178869673Y-64819600D01*
X178869673Y-64819600D02*
X178822054Y-64771980D01*
X179679197Y-63867219D02*
X180012530Y-64867219D01*
X180012530Y-64867219D02*
X180345863Y-63867219D01*
X180345863Y-102117219D02*
X179869673Y-102117219D01*
X179869673Y-102117219D02*
X179822054Y-102593409D01*
X179822054Y-102593409D02*
X179869673Y-102545790D01*
X179869673Y-102545790D02*
X179964911Y-102498171D01*
X179964911Y-102498171D02*
X180203006Y-102498171D01*
X180203006Y-102498171D02*
X180298244Y-102545790D01*
X180298244Y-102545790D02*
X180345863Y-102593409D01*
X180345863Y-102593409D02*
X180393482Y-102688647D01*
X180393482Y-102688647D02*
X180393482Y-102926742D01*
X180393482Y-102926742D02*
X180345863Y-103021980D01*
X180345863Y-103021980D02*
X180298244Y-103069600D01*
X180298244Y-103069600D02*
X180203006Y-103117219D01*
X180203006Y-103117219D02*
X179964911Y-103117219D01*
X179964911Y-103117219D02*
X179869673Y-103069600D01*
X179869673Y-103069600D02*
X179822054Y-103021980D01*
X180679197Y-102117219D02*
X181012530Y-103117219D01*
X181012530Y-103117219D02*
X181345863Y-102117219D01*
X193914838Y-103106517D02*
X193867219Y-103201755D01*
X193867219Y-103201755D02*
X193867219Y-103344612D01*
X193867219Y-103344612D02*
X193914838Y-103487469D01*
X193914838Y-103487469D02*
X194010076Y-103582707D01*
X194010076Y-103582707D02*
X194105314Y-103630326D01*
X194105314Y-103630326D02*
X194295790Y-103677945D01*
X194295790Y-103677945D02*
X194438647Y-103677945D01*
X194438647Y-103677945D02*
X194629123Y-103630326D01*
X194629123Y-103630326D02*
X194724361Y-103582707D01*
X194724361Y-103582707D02*
X194819600Y-103487469D01*
X194819600Y-103487469D02*
X194867219Y-103344612D01*
X194867219Y-103344612D02*
X194867219Y-103249374D01*
X194867219Y-103249374D02*
X194819600Y-103106517D01*
X194819600Y-103106517D02*
X194771980Y-103058898D01*
X194771980Y-103058898D02*
X194438647Y-103058898D01*
X194438647Y-103058898D02*
X194438647Y-103249374D01*
X194867219Y-102630326D02*
X193867219Y-102630326D01*
X193867219Y-102630326D02*
X194867219Y-102058898D01*
X194867219Y-102058898D02*
X193867219Y-102058898D01*
X194867219Y-101582707D02*
X193867219Y-101582707D01*
X193867219Y-101582707D02*
X193867219Y-101344612D01*
X193867219Y-101344612D02*
X193914838Y-101201755D01*
X193914838Y-101201755D02*
X194010076Y-101106517D01*
X194010076Y-101106517D02*
X194105314Y-101058898D01*
X194105314Y-101058898D02*
X194295790Y-101011279D01*
X194295790Y-101011279D02*
X194438647Y-101011279D01*
X194438647Y-101011279D02*
X194629123Y-101058898D01*
X194629123Y-101058898D02*
X194724361Y-101106517D01*
X194724361Y-101106517D02*
X194819600Y-101201755D01*
X194819600Y-101201755D02*
X194867219Y-101344612D01*
X194867219Y-101344612D02*
X194867219Y-101582707D01*
X185143482Y-97414838D02*
X185048244Y-97367219D01*
X185048244Y-97367219D02*
X184905387Y-97367219D01*
X184905387Y-97367219D02*
X184762530Y-97414838D01*
X184762530Y-97414838D02*
X184667292Y-97510076D01*
X184667292Y-97510076D02*
X184619673Y-97605314D01*
X184619673Y-97605314D02*
X184572054Y-97795790D01*
X184572054Y-97795790D02*
X184572054Y-97938647D01*
X184572054Y-97938647D02*
X184619673Y-98129123D01*
X184619673Y-98129123D02*
X184667292Y-98224361D01*
X184667292Y-98224361D02*
X184762530Y-98319600D01*
X184762530Y-98319600D02*
X184905387Y-98367219D01*
X184905387Y-98367219D02*
X185000625Y-98367219D01*
X185000625Y-98367219D02*
X185143482Y-98319600D01*
X185143482Y-98319600D02*
X185191101Y-98271980D01*
X185191101Y-98271980D02*
X185191101Y-97938647D01*
X185191101Y-97938647D02*
X185000625Y-97938647D01*
X185619673Y-98367219D02*
X185619673Y-97367219D01*
X185619673Y-97367219D02*
X186191101Y-98367219D01*
X186191101Y-98367219D02*
X186191101Y-97367219D01*
X186667292Y-98367219D02*
X186667292Y-97367219D01*
X186667292Y-97367219D02*
X186905387Y-97367219D01*
X186905387Y-97367219D02*
X187048244Y-97414838D01*
X187048244Y-97414838D02*
X187143482Y-97510076D01*
X187143482Y-97510076D02*
X187191101Y-97605314D01*
X187191101Y-97605314D02*
X187238720Y-97795790D01*
X187238720Y-97795790D02*
X187238720Y-97938647D01*
X187238720Y-97938647D02*
X187191101Y-98129123D01*
X187191101Y-98129123D02*
X187143482Y-98224361D01*
X187143482Y-98224361D02*
X187048244Y-98319600D01*
X187048244Y-98319600D02*
X186905387Y-98367219D01*
X186905387Y-98367219D02*
X186667292Y-98367219D01*
X193914838Y-63106517D02*
X193867219Y-63201755D01*
X193867219Y-63201755D02*
X193867219Y-63344612D01*
X193867219Y-63344612D02*
X193914838Y-63487469D01*
X193914838Y-63487469D02*
X194010076Y-63582707D01*
X194010076Y-63582707D02*
X194105314Y-63630326D01*
X194105314Y-63630326D02*
X194295790Y-63677945D01*
X194295790Y-63677945D02*
X194438647Y-63677945D01*
X194438647Y-63677945D02*
X194629123Y-63630326D01*
X194629123Y-63630326D02*
X194724361Y-63582707D01*
X194724361Y-63582707D02*
X194819600Y-63487469D01*
X194819600Y-63487469D02*
X194867219Y-63344612D01*
X194867219Y-63344612D02*
X194867219Y-63249374D01*
X194867219Y-63249374D02*
X194819600Y-63106517D01*
X194819600Y-63106517D02*
X194771980Y-63058898D01*
X194771980Y-63058898D02*
X194438647Y-63058898D01*
X194438647Y-63058898D02*
X194438647Y-63249374D01*
X194867219Y-62630326D02*
X193867219Y-62630326D01*
X193867219Y-62630326D02*
X194867219Y-62058898D01*
X194867219Y-62058898D02*
X193867219Y-62058898D01*
X194867219Y-61582707D02*
X193867219Y-61582707D01*
X193867219Y-61582707D02*
X193867219Y-61344612D01*
X193867219Y-61344612D02*
X193914838Y-61201755D01*
X193914838Y-61201755D02*
X194010076Y-61106517D01*
X194010076Y-61106517D02*
X194105314Y-61058898D01*
X194105314Y-61058898D02*
X194295790Y-61011279D01*
X194295790Y-61011279D02*
X194438647Y-61011279D01*
X194438647Y-61011279D02*
X194629123Y-61058898D01*
X194629123Y-61058898D02*
X194724361Y-61106517D01*
X194724361Y-61106517D02*
X194819600Y-61201755D01*
X194819600Y-61201755D02*
X194867219Y-61344612D01*
X194867219Y-61344612D02*
X194867219Y-61582707D01*
X184893482Y-68664838D02*
X184798244Y-68617219D01*
X184798244Y-68617219D02*
X184655387Y-68617219D01*
X184655387Y-68617219D02*
X184512530Y-68664838D01*
X184512530Y-68664838D02*
X184417292Y-68760076D01*
X184417292Y-68760076D02*
X184369673Y-68855314D01*
X184369673Y-68855314D02*
X184322054Y-69045790D01*
X184322054Y-69045790D02*
X184322054Y-69188647D01*
X184322054Y-69188647D02*
X184369673Y-69379123D01*
X184369673Y-69379123D02*
X184417292Y-69474361D01*
X184417292Y-69474361D02*
X184512530Y-69569600D01*
X184512530Y-69569600D02*
X184655387Y-69617219D01*
X184655387Y-69617219D02*
X184750625Y-69617219D01*
X184750625Y-69617219D02*
X184893482Y-69569600D01*
X184893482Y-69569600D02*
X184941101Y-69521980D01*
X184941101Y-69521980D02*
X184941101Y-69188647D01*
X184941101Y-69188647D02*
X184750625Y-69188647D01*
X185369673Y-69617219D02*
X185369673Y-68617219D01*
X185369673Y-68617219D02*
X185941101Y-69617219D01*
X185941101Y-69617219D02*
X185941101Y-68617219D01*
X186417292Y-69617219D02*
X186417292Y-68617219D01*
X186417292Y-68617219D02*
X186655387Y-68617219D01*
X186655387Y-68617219D02*
X186798244Y-68664838D01*
X186798244Y-68664838D02*
X186893482Y-68760076D01*
X186893482Y-68760076D02*
X186941101Y-68855314D01*
X186941101Y-68855314D02*
X186988720Y-69045790D01*
X186988720Y-69045790D02*
X186988720Y-69188647D01*
X186988720Y-69188647D02*
X186941101Y-69379123D01*
X186941101Y-69379123D02*
X186893482Y-69474361D01*
X186893482Y-69474361D02*
X186798244Y-69569600D01*
X186798244Y-69569600D02*
X186655387Y-69617219D01*
X186655387Y-69617219D02*
X186417292Y-69617219D01*
D11*
X182438095Y-76954819D02*
X182438095Y-77764342D01*
X182438095Y-77764342D02*
X182485714Y-77859580D01*
X182485714Y-77859580D02*
X182533333Y-77907200D01*
X182533333Y-77907200D02*
X182628571Y-77954819D01*
X182628571Y-77954819D02*
X182819047Y-77954819D01*
X182819047Y-77954819D02*
X182914285Y-77907200D01*
X182914285Y-77907200D02*
X182961904Y-77859580D01*
X182961904Y-77859580D02*
X183009523Y-77764342D01*
X183009523Y-77764342D02*
X183009523Y-76954819D01*
X183438095Y-77050057D02*
X183485714Y-77002438D01*
X183485714Y-77002438D02*
X183580952Y-76954819D01*
X183580952Y-76954819D02*
X183819047Y-76954819D01*
X183819047Y-76954819D02*
X183914285Y-77002438D01*
X183914285Y-77002438D02*
X183961904Y-77050057D01*
X183961904Y-77050057D02*
X184009523Y-77145295D01*
X184009523Y-77145295D02*
X184009523Y-77240533D01*
X184009523Y-77240533D02*
X183961904Y-77383390D01*
X183961904Y-77383390D02*
X183390476Y-77954819D01*
X183390476Y-77954819D02*
X184009523Y-77954819D01*
X190738095Y-75907200D02*
X190880952Y-75954819D01*
X190880952Y-75954819D02*
X191119047Y-75954819D01*
X191119047Y-75954819D02*
X191214285Y-75907200D01*
X191214285Y-75907200D02*
X191261904Y-75859580D01*
X191261904Y-75859580D02*
X191309523Y-75764342D01*
X191309523Y-75764342D02*
X191309523Y-75669104D01*
X191309523Y-75669104D02*
X191261904Y-75573866D01*
X191261904Y-75573866D02*
X191214285Y-75526247D01*
X191214285Y-75526247D02*
X191119047Y-75478628D01*
X191119047Y-75478628D02*
X190928571Y-75431009D01*
X190928571Y-75431009D02*
X190833333Y-75383390D01*
X190833333Y-75383390D02*
X190785714Y-75335771D01*
X190785714Y-75335771D02*
X190738095Y-75240533D01*
X190738095Y-75240533D02*
X190738095Y-75145295D01*
X190738095Y-75145295D02*
X190785714Y-75050057D01*
X190785714Y-75050057D02*
X190833333Y-75002438D01*
X190833333Y-75002438D02*
X190928571Y-74954819D01*
X190928571Y-74954819D02*
X191166666Y-74954819D01*
X191166666Y-74954819D02*
X191309523Y-75002438D01*
X192261904Y-75954819D02*
X191690476Y-75954819D01*
X191976190Y-75954819D02*
X191976190Y-74954819D01*
X191976190Y-74954819D02*
X191880952Y-75097676D01*
X191880952Y-75097676D02*
X191785714Y-75192914D01*
X191785714Y-75192914D02*
X191690476Y-75240533D01*
X186954819Y-87988094D02*
X185954819Y-87988094D01*
X185954819Y-87988094D02*
X185954819Y-87749999D01*
X185954819Y-87749999D02*
X186002438Y-87607142D01*
X186002438Y-87607142D02*
X186097676Y-87511904D01*
X186097676Y-87511904D02*
X186192914Y-87464285D01*
X186192914Y-87464285D02*
X186383390Y-87416666D01*
X186383390Y-87416666D02*
X186526247Y-87416666D01*
X186526247Y-87416666D02*
X186716723Y-87464285D01*
X186716723Y-87464285D02*
X186811961Y-87511904D01*
X186811961Y-87511904D02*
X186907200Y-87607142D01*
X186907200Y-87607142D02*
X186954819Y-87749999D01*
X186954819Y-87749999D02*
X186954819Y-87988094D01*
X186954819Y-86464285D02*
X186954819Y-87035713D01*
X186954819Y-86749999D02*
X185954819Y-86749999D01*
X185954819Y-86749999D02*
X186097676Y-86845237D01*
X186097676Y-86845237D02*
X186192914Y-86940475D01*
X186192914Y-86940475D02*
X186240533Y-87035713D01*
X192107142Y-81704819D02*
X191630952Y-81704819D01*
X191630952Y-81704819D02*
X191630952Y-80704819D01*
X192440476Y-81181009D02*
X192773809Y-81181009D01*
X192916666Y-81704819D02*
X192440476Y-81704819D01*
X192440476Y-81704819D02*
X192440476Y-80704819D01*
X192440476Y-80704819D02*
X192916666Y-80704819D01*
X193345238Y-81704819D02*
X193345238Y-80704819D01*
X193345238Y-80704819D02*
X193583333Y-80704819D01*
X193583333Y-80704819D02*
X193726190Y-80752438D01*
X193726190Y-80752438D02*
X193821428Y-80847676D01*
X193821428Y-80847676D02*
X193869047Y-80942914D01*
X193869047Y-80942914D02*
X193916666Y-81133390D01*
X193916666Y-81133390D02*
X193916666Y-81276247D01*
X193916666Y-81276247D02*
X193869047Y-81466723D01*
X193869047Y-81466723D02*
X193821428Y-81561961D01*
X193821428Y-81561961D02*
X193726190Y-81657200D01*
X193726190Y-81657200D02*
X193583333Y-81704819D01*
X193583333Y-81704819D02*
X193345238Y-81704819D01*
X174233333Y-99759580D02*
X174185714Y-99807200D01*
X174185714Y-99807200D02*
X174042857Y-99854819D01*
X174042857Y-99854819D02*
X173947619Y-99854819D01*
X173947619Y-99854819D02*
X173804762Y-99807200D01*
X173804762Y-99807200D02*
X173709524Y-99711961D01*
X173709524Y-99711961D02*
X173661905Y-99616723D01*
X173661905Y-99616723D02*
X173614286Y-99426247D01*
X173614286Y-99426247D02*
X173614286Y-99283390D01*
X173614286Y-99283390D02*
X173661905Y-99092914D01*
X173661905Y-99092914D02*
X173709524Y-98997676D01*
X173709524Y-98997676D02*
X173804762Y-98902438D01*
X173804762Y-98902438D02*
X173947619Y-98854819D01*
X173947619Y-98854819D02*
X174042857Y-98854819D01*
X174042857Y-98854819D02*
X174185714Y-98902438D01*
X174185714Y-98902438D02*
X174233333Y-98950057D01*
X174614286Y-98950057D02*
X174661905Y-98902438D01*
X174661905Y-98902438D02*
X174757143Y-98854819D01*
X174757143Y-98854819D02*
X174995238Y-98854819D01*
X174995238Y-98854819D02*
X175090476Y-98902438D01*
X175090476Y-98902438D02*
X175138095Y-98950057D01*
X175138095Y-98950057D02*
X175185714Y-99045295D01*
X175185714Y-99045295D02*
X175185714Y-99140533D01*
X175185714Y-99140533D02*
X175138095Y-99283390D01*
X175138095Y-99283390D02*
X174566667Y-99854819D01*
X174566667Y-99854819D02*
X175185714Y-99854819D01*
X178833333Y-101454819D02*
X178261905Y-101454819D01*
X178547619Y-101454819D02*
X178547619Y-100454819D01*
X178547619Y-100454819D02*
X178452381Y-100597676D01*
X178452381Y-100597676D02*
X178357143Y-100692914D01*
X178357143Y-100692914D02*
X178261905Y-100740533D01*
X179690476Y-100788152D02*
X179690476Y-101454819D01*
X179261905Y-100788152D02*
X179261905Y-101311961D01*
X179261905Y-101311961D02*
X179309524Y-101407200D01*
X179309524Y-101407200D02*
X179404762Y-101454819D01*
X179404762Y-101454819D02*
X179547619Y-101454819D01*
X179547619Y-101454819D02*
X179642857Y-101407200D01*
X179642857Y-101407200D02*
X179690476Y-101359580D01*
X188643333Y-77784819D02*
X188310000Y-77308628D01*
X188071905Y-77784819D02*
X188071905Y-76784819D01*
X188071905Y-76784819D02*
X188452857Y-76784819D01*
X188452857Y-76784819D02*
X188548095Y-76832438D01*
X188548095Y-76832438D02*
X188595714Y-76880057D01*
X188595714Y-76880057D02*
X188643333Y-76975295D01*
X188643333Y-76975295D02*
X188643333Y-77118152D01*
X188643333Y-77118152D02*
X188595714Y-77213390D01*
X188595714Y-77213390D02*
X188548095Y-77261009D01*
X188548095Y-77261009D02*
X188452857Y-77308628D01*
X188452857Y-77308628D02*
X188071905Y-77308628D01*
X189595714Y-77784819D02*
X189024286Y-77784819D01*
X189310000Y-77784819D02*
X189310000Y-76784819D01*
X189310000Y-76784819D02*
X189214762Y-76927676D01*
X189214762Y-76927676D02*
X189119524Y-77022914D01*
X189119524Y-77022914D02*
X189024286Y-77070533D01*
X184714286Y-80624819D02*
X185333333Y-80624819D01*
X185333333Y-80624819D02*
X185000000Y-81005771D01*
X185000000Y-81005771D02*
X185142857Y-81005771D01*
X185142857Y-81005771D02*
X185238095Y-81053390D01*
X185238095Y-81053390D02*
X185285714Y-81101009D01*
X185285714Y-81101009D02*
X185333333Y-81196247D01*
X185333333Y-81196247D02*
X185333333Y-81434342D01*
X185333333Y-81434342D02*
X185285714Y-81529580D01*
X185285714Y-81529580D02*
X185238095Y-81577200D01*
X185238095Y-81577200D02*
X185142857Y-81624819D01*
X185142857Y-81624819D02*
X184857143Y-81624819D01*
X184857143Y-81624819D02*
X184761905Y-81577200D01*
X184761905Y-81577200D02*
X184714286Y-81529580D01*
X185666667Y-80624819D02*
X186285714Y-80624819D01*
X186285714Y-80624819D02*
X185952381Y-81005771D01*
X185952381Y-81005771D02*
X186095238Y-81005771D01*
X186095238Y-81005771D02*
X186190476Y-81053390D01*
X186190476Y-81053390D02*
X186238095Y-81101009D01*
X186238095Y-81101009D02*
X186285714Y-81196247D01*
X186285714Y-81196247D02*
X186285714Y-81434342D01*
X186285714Y-81434342D02*
X186238095Y-81529580D01*
X186238095Y-81529580D02*
X186190476Y-81577200D01*
X186190476Y-81577200D02*
X186095238Y-81624819D01*
X186095238Y-81624819D02*
X185809524Y-81624819D01*
X185809524Y-81624819D02*
X185714286Y-81577200D01*
X185714286Y-81577200D02*
X185666667Y-81529580D01*
X186904762Y-80624819D02*
X187000000Y-80624819D01*
X187000000Y-80624819D02*
X187095238Y-80672438D01*
X187095238Y-80672438D02*
X187142857Y-80720057D01*
X187142857Y-80720057D02*
X187190476Y-80815295D01*
X187190476Y-80815295D02*
X187238095Y-81005771D01*
X187238095Y-81005771D02*
X187238095Y-81243866D01*
X187238095Y-81243866D02*
X187190476Y-81434342D01*
X187190476Y-81434342D02*
X187142857Y-81529580D01*
X187142857Y-81529580D02*
X187095238Y-81577200D01*
X187095238Y-81577200D02*
X187000000Y-81624819D01*
X187000000Y-81624819D02*
X186904762Y-81624819D01*
X186904762Y-81624819D02*
X186809524Y-81577200D01*
X186809524Y-81577200D02*
X186761905Y-81529580D01*
X186761905Y-81529580D02*
X186714286Y-81434342D01*
X186714286Y-81434342D02*
X186666667Y-81243866D01*
X186666667Y-81243866D02*
X186666667Y-81005771D01*
X186666667Y-81005771D02*
X186714286Y-80815295D01*
X186714286Y-80815295D02*
X186761905Y-80720057D01*
X186761905Y-80720057D02*
X186809524Y-80672438D01*
X186809524Y-80672438D02*
X186904762Y-80624819D01*
X188238095Y-81624819D02*
X187904762Y-81148628D01*
X187666667Y-81624819D02*
X187666667Y-80624819D01*
X187666667Y-80624819D02*
X188047619Y-80624819D01*
X188047619Y-80624819D02*
X188142857Y-80672438D01*
X188142857Y-80672438D02*
X188190476Y-80720057D01*
X188190476Y-80720057D02*
X188238095Y-80815295D01*
X188238095Y-80815295D02*
X188238095Y-80958152D01*
X188238095Y-80958152D02*
X188190476Y-81053390D01*
X188190476Y-81053390D02*
X188142857Y-81101009D01*
X188142857Y-81101009D02*
X188047619Y-81148628D01*
X188047619Y-81148628D02*
X187666667Y-81148628D01*
X171466666Y-90204819D02*
X171466666Y-90919104D01*
X171466666Y-90919104D02*
X171419047Y-91061961D01*
X171419047Y-91061961D02*
X171323809Y-91157200D01*
X171323809Y-91157200D02*
X171180952Y-91204819D01*
X171180952Y-91204819D02*
X171085714Y-91204819D01*
X172466666Y-91204819D02*
X171895238Y-91204819D01*
X172180952Y-91204819D02*
X172180952Y-90204819D01*
X172180952Y-90204819D02*
X172085714Y-90347676D01*
X172085714Y-90347676D02*
X171990476Y-90442914D01*
X171990476Y-90442914D02*
X171895238Y-90490533D01*
X176238095Y-92184819D02*
X176238095Y-92994342D01*
X176238095Y-92994342D02*
X176285714Y-93089580D01*
X176285714Y-93089580D02*
X176333333Y-93137200D01*
X176333333Y-93137200D02*
X176428571Y-93184819D01*
X176428571Y-93184819D02*
X176619047Y-93184819D01*
X176619047Y-93184819D02*
X176714285Y-93137200D01*
X176714285Y-93137200D02*
X176761904Y-93089580D01*
X176761904Y-93089580D02*
X176809523Y-92994342D01*
X176809523Y-92994342D02*
X176809523Y-92184819D01*
X177809523Y-93184819D02*
X177238095Y-93184819D01*
X177523809Y-93184819D02*
X177523809Y-92184819D01*
X177523809Y-92184819D02*
X177428571Y-92327676D01*
X177428571Y-92327676D02*
X177333333Y-92422914D01*
X177333333Y-92422914D02*
X177238095Y-92470533D01*
X193954819Y-65833333D02*
X194669104Y-65833333D01*
X194669104Y-65833333D02*
X194811961Y-65880952D01*
X194811961Y-65880952D02*
X194907200Y-65976190D01*
X194907200Y-65976190D02*
X194954819Y-66119047D01*
X194954819Y-66119047D02*
X194954819Y-66214285D01*
X193954819Y-64928571D02*
X193954819Y-65119047D01*
X193954819Y-65119047D02*
X194002438Y-65214285D01*
X194002438Y-65214285D02*
X194050057Y-65261904D01*
X194050057Y-65261904D02*
X194192914Y-65357142D01*
X194192914Y-65357142D02*
X194383390Y-65404761D01*
X194383390Y-65404761D02*
X194764342Y-65404761D01*
X194764342Y-65404761D02*
X194859580Y-65357142D01*
X194859580Y-65357142D02*
X194907200Y-65309523D01*
X194907200Y-65309523D02*
X194954819Y-65214285D01*
X194954819Y-65214285D02*
X194954819Y-65023809D01*
X194954819Y-65023809D02*
X194907200Y-64928571D01*
X194907200Y-64928571D02*
X194859580Y-64880952D01*
X194859580Y-64880952D02*
X194764342Y-64833333D01*
X194764342Y-64833333D02*
X194526247Y-64833333D01*
X194526247Y-64833333D02*
X194431009Y-64880952D01*
X194431009Y-64880952D02*
X194383390Y-64928571D01*
X194383390Y-64928571D02*
X194335771Y-65023809D01*
X194335771Y-65023809D02*
X194335771Y-65214285D01*
X194335771Y-65214285D02*
X194383390Y-65309523D01*
X194383390Y-65309523D02*
X194431009Y-65357142D01*
X194431009Y-65357142D02*
X194526247Y-65404761D01*
X193954819Y-106333333D02*
X194669104Y-106333333D01*
X194669104Y-106333333D02*
X194811961Y-106380952D01*
X194811961Y-106380952D02*
X194907200Y-106476190D01*
X194907200Y-106476190D02*
X194954819Y-106619047D01*
X194954819Y-106619047D02*
X194954819Y-106714285D01*
X194288152Y-105428571D02*
X194954819Y-105428571D01*
X193907200Y-105666666D02*
X194621485Y-105904761D01*
X194621485Y-105904761D02*
X194621485Y-105285714D01*
X176566666Y-63854819D02*
X176566666Y-64569104D01*
X176566666Y-64569104D02*
X176519047Y-64711961D01*
X176519047Y-64711961D02*
X176423809Y-64807200D01*
X176423809Y-64807200D02*
X176280952Y-64854819D01*
X176280952Y-64854819D02*
X176185714Y-64854819D01*
X176947619Y-63854819D02*
X177566666Y-63854819D01*
X177566666Y-63854819D02*
X177233333Y-64235771D01*
X177233333Y-64235771D02*
X177376190Y-64235771D01*
X177376190Y-64235771D02*
X177471428Y-64283390D01*
X177471428Y-64283390D02*
X177519047Y-64331009D01*
X177519047Y-64331009D02*
X177566666Y-64426247D01*
X177566666Y-64426247D02*
X177566666Y-64664342D01*
X177566666Y-64664342D02*
X177519047Y-64759580D01*
X177519047Y-64759580D02*
X177471428Y-64807200D01*
X177471428Y-64807200D02*
X177376190Y-64854819D01*
X177376190Y-64854819D02*
X177090476Y-64854819D01*
X177090476Y-64854819D02*
X176995238Y-64807200D01*
X176995238Y-64807200D02*
X176947619Y-64759580D01*
X188916666Y-97454819D02*
X188916666Y-98169104D01*
X188916666Y-98169104D02*
X188869047Y-98311961D01*
X188869047Y-98311961D02*
X188773809Y-98407200D01*
X188773809Y-98407200D02*
X188630952Y-98454819D01*
X188630952Y-98454819D02*
X188535714Y-98454819D01*
X189869047Y-97454819D02*
X189392857Y-97454819D01*
X189392857Y-97454819D02*
X189345238Y-97931009D01*
X189345238Y-97931009D02*
X189392857Y-97883390D01*
X189392857Y-97883390D02*
X189488095Y-97835771D01*
X189488095Y-97835771D02*
X189726190Y-97835771D01*
X189726190Y-97835771D02*
X189821428Y-97883390D01*
X189821428Y-97883390D02*
X189869047Y-97931009D01*
X189869047Y-97931009D02*
X189916666Y-98026247D01*
X189916666Y-98026247D02*
X189916666Y-98264342D01*
X189916666Y-98264342D02*
X189869047Y-98359580D01*
X189869047Y-98359580D02*
X189821428Y-98407200D01*
X189821428Y-98407200D02*
X189726190Y-98454819D01*
X189726190Y-98454819D02*
X189488095Y-98454819D01*
X189488095Y-98454819D02*
X189392857Y-98407200D01*
X189392857Y-98407200D02*
X189345238Y-98359580D01*
X192083333Y-93954819D02*
X191750000Y-93478628D01*
X191511905Y-93954819D02*
X191511905Y-92954819D01*
X191511905Y-92954819D02*
X191892857Y-92954819D01*
X191892857Y-92954819D02*
X191988095Y-93002438D01*
X191988095Y-93002438D02*
X192035714Y-93050057D01*
X192035714Y-93050057D02*
X192083333Y-93145295D01*
X192083333Y-93145295D02*
X192083333Y-93288152D01*
X192083333Y-93288152D02*
X192035714Y-93383390D01*
X192035714Y-93383390D02*
X191988095Y-93431009D01*
X191988095Y-93431009D02*
X191892857Y-93478628D01*
X191892857Y-93478628D02*
X191511905Y-93478628D01*
X192464286Y-93050057D02*
X192511905Y-93002438D01*
X192511905Y-93002438D02*
X192607143Y-92954819D01*
X192607143Y-92954819D02*
X192845238Y-92954819D01*
X192845238Y-92954819D02*
X192940476Y-93002438D01*
X192940476Y-93002438D02*
X192988095Y-93050057D01*
X192988095Y-93050057D02*
X193035714Y-93145295D01*
X193035714Y-93145295D02*
X193035714Y-93240533D01*
X193035714Y-93240533D02*
X192988095Y-93383390D01*
X192988095Y-93383390D02*
X192416667Y-93954819D01*
X192416667Y-93954819D02*
X193035714Y-93954819D01*
X190964286Y-96704819D02*
X191583333Y-96704819D01*
X191583333Y-96704819D02*
X191250000Y-97085771D01*
X191250000Y-97085771D02*
X191392857Y-97085771D01*
X191392857Y-97085771D02*
X191488095Y-97133390D01*
X191488095Y-97133390D02*
X191535714Y-97181009D01*
X191535714Y-97181009D02*
X191583333Y-97276247D01*
X191583333Y-97276247D02*
X191583333Y-97514342D01*
X191583333Y-97514342D02*
X191535714Y-97609580D01*
X191535714Y-97609580D02*
X191488095Y-97657200D01*
X191488095Y-97657200D02*
X191392857Y-97704819D01*
X191392857Y-97704819D02*
X191107143Y-97704819D01*
X191107143Y-97704819D02*
X191011905Y-97657200D01*
X191011905Y-97657200D02*
X190964286Y-97609580D01*
X191916667Y-96704819D02*
X192535714Y-96704819D01*
X192535714Y-96704819D02*
X192202381Y-97085771D01*
X192202381Y-97085771D02*
X192345238Y-97085771D01*
X192345238Y-97085771D02*
X192440476Y-97133390D01*
X192440476Y-97133390D02*
X192488095Y-97181009D01*
X192488095Y-97181009D02*
X192535714Y-97276247D01*
X192535714Y-97276247D02*
X192535714Y-97514342D01*
X192535714Y-97514342D02*
X192488095Y-97609580D01*
X192488095Y-97609580D02*
X192440476Y-97657200D01*
X192440476Y-97657200D02*
X192345238Y-97704819D01*
X192345238Y-97704819D02*
X192059524Y-97704819D01*
X192059524Y-97704819D02*
X191964286Y-97657200D01*
X191964286Y-97657200D02*
X191916667Y-97609580D01*
X193154762Y-96704819D02*
X193250000Y-96704819D01*
X193250000Y-96704819D02*
X193345238Y-96752438D01*
X193345238Y-96752438D02*
X193392857Y-96800057D01*
X193392857Y-96800057D02*
X193440476Y-96895295D01*
X193440476Y-96895295D02*
X193488095Y-97085771D01*
X193488095Y-97085771D02*
X193488095Y-97323866D01*
X193488095Y-97323866D02*
X193440476Y-97514342D01*
X193440476Y-97514342D02*
X193392857Y-97609580D01*
X193392857Y-97609580D02*
X193345238Y-97657200D01*
X193345238Y-97657200D02*
X193250000Y-97704819D01*
X193250000Y-97704819D02*
X193154762Y-97704819D01*
X193154762Y-97704819D02*
X193059524Y-97657200D01*
X193059524Y-97657200D02*
X193011905Y-97609580D01*
X193011905Y-97609580D02*
X192964286Y-97514342D01*
X192964286Y-97514342D02*
X192916667Y-97323866D01*
X192916667Y-97323866D02*
X192916667Y-97085771D01*
X192916667Y-97085771D02*
X192964286Y-96895295D01*
X192964286Y-96895295D02*
X193011905Y-96800057D01*
X193011905Y-96800057D02*
X193059524Y-96752438D01*
X193059524Y-96752438D02*
X193154762Y-96704819D01*
X194488095Y-97704819D02*
X194154762Y-97228628D01*
X193916667Y-97704819D02*
X193916667Y-96704819D01*
X193916667Y-96704819D02*
X194297619Y-96704819D01*
X194297619Y-96704819D02*
X194392857Y-96752438D01*
X194392857Y-96752438D02*
X194440476Y-96800057D01*
X194440476Y-96800057D02*
X194488095Y-96895295D01*
X194488095Y-96895295D02*
X194488095Y-97038152D01*
X194488095Y-97038152D02*
X194440476Y-97133390D01*
X194440476Y-97133390D02*
X194392857Y-97181009D01*
X194392857Y-97181009D02*
X194297619Y-97228628D01*
X194297619Y-97228628D02*
X193916667Y-97228628D01*
X181654819Y-66033333D02*
X182369104Y-66033333D01*
X182369104Y-66033333D02*
X182511961Y-66080952D01*
X182511961Y-66080952D02*
X182607200Y-66176190D01*
X182607200Y-66176190D02*
X182654819Y-66319047D01*
X182654819Y-66319047D02*
X182654819Y-66414285D01*
X181750057Y-65604761D02*
X181702438Y-65557142D01*
X181702438Y-65557142D02*
X181654819Y-65461904D01*
X181654819Y-65461904D02*
X181654819Y-65223809D01*
X181654819Y-65223809D02*
X181702438Y-65128571D01*
X181702438Y-65128571D02*
X181750057Y-65080952D01*
X181750057Y-65080952D02*
X181845295Y-65033333D01*
X181845295Y-65033333D02*
X181940533Y-65033333D01*
X181940533Y-65033333D02*
X182083390Y-65080952D01*
X182083390Y-65080952D02*
X182654819Y-65652380D01*
X182654819Y-65652380D02*
X182654819Y-65033333D01*
X189083333Y-93454819D02*
X188750000Y-92978628D01*
X188511905Y-93454819D02*
X188511905Y-92454819D01*
X188511905Y-92454819D02*
X188892857Y-92454819D01*
X188892857Y-92454819D02*
X188988095Y-92502438D01*
X188988095Y-92502438D02*
X189035714Y-92550057D01*
X189035714Y-92550057D02*
X189083333Y-92645295D01*
X189083333Y-92645295D02*
X189083333Y-92788152D01*
X189083333Y-92788152D02*
X189035714Y-92883390D01*
X189035714Y-92883390D02*
X188988095Y-92931009D01*
X188988095Y-92931009D02*
X188892857Y-92978628D01*
X188892857Y-92978628D02*
X188511905Y-92978628D01*
X189416667Y-92454819D02*
X190035714Y-92454819D01*
X190035714Y-92454819D02*
X189702381Y-92835771D01*
X189702381Y-92835771D02*
X189845238Y-92835771D01*
X189845238Y-92835771D02*
X189940476Y-92883390D01*
X189940476Y-92883390D02*
X189988095Y-92931009D01*
X189988095Y-92931009D02*
X190035714Y-93026247D01*
X190035714Y-93026247D02*
X190035714Y-93264342D01*
X190035714Y-93264342D02*
X189988095Y-93359580D01*
X189988095Y-93359580D02*
X189940476Y-93407200D01*
X189940476Y-93407200D02*
X189845238Y-93454819D01*
X189845238Y-93454819D02*
X189559524Y-93454819D01*
X189559524Y-93454819D02*
X189464286Y-93407200D01*
X189464286Y-93407200D02*
X189416667Y-93359580D01*
X189035714Y-88954819D02*
X188559524Y-88954819D01*
X188559524Y-88954819D02*
X188511905Y-89431009D01*
X188511905Y-89431009D02*
X188559524Y-89383390D01*
X188559524Y-89383390D02*
X188654762Y-89335771D01*
X188654762Y-89335771D02*
X188892857Y-89335771D01*
X188892857Y-89335771D02*
X188988095Y-89383390D01*
X188988095Y-89383390D02*
X189035714Y-89431009D01*
X189035714Y-89431009D02*
X189083333Y-89526247D01*
X189083333Y-89526247D02*
X189083333Y-89764342D01*
X189083333Y-89764342D02*
X189035714Y-89859580D01*
X189035714Y-89859580D02*
X188988095Y-89907200D01*
X188988095Y-89907200D02*
X188892857Y-89954819D01*
X188892857Y-89954819D02*
X188654762Y-89954819D01*
X188654762Y-89954819D02*
X188559524Y-89907200D01*
X188559524Y-89907200D02*
X188511905Y-89859580D01*
X189940476Y-88954819D02*
X189750000Y-88954819D01*
X189750000Y-88954819D02*
X189654762Y-89002438D01*
X189654762Y-89002438D02*
X189607143Y-89050057D01*
X189607143Y-89050057D02*
X189511905Y-89192914D01*
X189511905Y-89192914D02*
X189464286Y-89383390D01*
X189464286Y-89383390D02*
X189464286Y-89764342D01*
X189464286Y-89764342D02*
X189511905Y-89859580D01*
X189511905Y-89859580D02*
X189559524Y-89907200D01*
X189559524Y-89907200D02*
X189654762Y-89954819D01*
X189654762Y-89954819D02*
X189845238Y-89954819D01*
X189845238Y-89954819D02*
X189940476Y-89907200D01*
X189940476Y-89907200D02*
X189988095Y-89859580D01*
X189988095Y-89859580D02*
X190035714Y-89764342D01*
X190035714Y-89764342D02*
X190035714Y-89526247D01*
X190035714Y-89526247D02*
X189988095Y-89431009D01*
X189988095Y-89431009D02*
X189940476Y-89383390D01*
X189940476Y-89383390D02*
X189845238Y-89335771D01*
X189845238Y-89335771D02*
X189654762Y-89335771D01*
X189654762Y-89335771D02*
X189559524Y-89383390D01*
X189559524Y-89383390D02*
X189511905Y-89431009D01*
X189511905Y-89431009D02*
X189464286Y-89526247D01*
X190654762Y-88954819D02*
X190750000Y-88954819D01*
X190750000Y-88954819D02*
X190845238Y-89002438D01*
X190845238Y-89002438D02*
X190892857Y-89050057D01*
X190892857Y-89050057D02*
X190940476Y-89145295D01*
X190940476Y-89145295D02*
X190988095Y-89335771D01*
X190988095Y-89335771D02*
X190988095Y-89573866D01*
X190988095Y-89573866D02*
X190940476Y-89764342D01*
X190940476Y-89764342D02*
X190892857Y-89859580D01*
X190892857Y-89859580D02*
X190845238Y-89907200D01*
X190845238Y-89907200D02*
X190750000Y-89954819D01*
X190750000Y-89954819D02*
X190654762Y-89954819D01*
X190654762Y-89954819D02*
X190559524Y-89907200D01*
X190559524Y-89907200D02*
X190511905Y-89859580D01*
X190511905Y-89859580D02*
X190464286Y-89764342D01*
X190464286Y-89764342D02*
X190416667Y-89573866D01*
X190416667Y-89573866D02*
X190416667Y-89335771D01*
X190416667Y-89335771D02*
X190464286Y-89145295D01*
X190464286Y-89145295D02*
X190511905Y-89050057D01*
X190511905Y-89050057D02*
X190559524Y-89002438D01*
X190559524Y-89002438D02*
X190654762Y-88954819D01*
X191988095Y-89954819D02*
X191654762Y-89478628D01*
X191416667Y-89954819D02*
X191416667Y-88954819D01*
X191416667Y-88954819D02*
X191797619Y-88954819D01*
X191797619Y-88954819D02*
X191892857Y-89002438D01*
X191892857Y-89002438D02*
X191940476Y-89050057D01*
X191940476Y-89050057D02*
X191988095Y-89145295D01*
X191988095Y-89145295D02*
X191988095Y-89288152D01*
X191988095Y-89288152D02*
X191940476Y-89383390D01*
X191940476Y-89383390D02*
X191892857Y-89431009D01*
X191892857Y-89431009D02*
X191797619Y-89478628D01*
X191797619Y-89478628D02*
X191416667Y-89478628D01*
X177833333Y-72609580D02*
X177785714Y-72657200D01*
X177785714Y-72657200D02*
X177642857Y-72704819D01*
X177642857Y-72704819D02*
X177547619Y-72704819D01*
X177547619Y-72704819D02*
X177404762Y-72657200D01*
X177404762Y-72657200D02*
X177309524Y-72561961D01*
X177309524Y-72561961D02*
X177261905Y-72466723D01*
X177261905Y-72466723D02*
X177214286Y-72276247D01*
X177214286Y-72276247D02*
X177214286Y-72133390D01*
X177214286Y-72133390D02*
X177261905Y-71942914D01*
X177261905Y-71942914D02*
X177309524Y-71847676D01*
X177309524Y-71847676D02*
X177404762Y-71752438D01*
X177404762Y-71752438D02*
X177547619Y-71704819D01*
X177547619Y-71704819D02*
X177642857Y-71704819D01*
X177642857Y-71704819D02*
X177785714Y-71752438D01*
X177785714Y-71752438D02*
X177833333Y-71800057D01*
X178785714Y-72704819D02*
X178214286Y-72704819D01*
X178500000Y-72704819D02*
X178500000Y-71704819D01*
X178500000Y-71704819D02*
X178404762Y-71847676D01*
X178404762Y-71847676D02*
X178309524Y-71942914D01*
X178309524Y-71942914D02*
X178214286Y-71990533D01*
X179957142Y-69004819D02*
X179385714Y-69004819D01*
X179671428Y-69004819D02*
X179671428Y-68004819D01*
X179671428Y-68004819D02*
X179576190Y-68147676D01*
X179576190Y-68147676D02*
X179480952Y-68242914D01*
X179480952Y-68242914D02*
X179385714Y-68290533D01*
X180576190Y-68004819D02*
X180671428Y-68004819D01*
X180671428Y-68004819D02*
X180766666Y-68052438D01*
X180766666Y-68052438D02*
X180814285Y-68100057D01*
X180814285Y-68100057D02*
X180861904Y-68195295D01*
X180861904Y-68195295D02*
X180909523Y-68385771D01*
X180909523Y-68385771D02*
X180909523Y-68623866D01*
X180909523Y-68623866D02*
X180861904Y-68814342D01*
X180861904Y-68814342D02*
X180814285Y-68909580D01*
X180814285Y-68909580D02*
X180766666Y-68957200D01*
X180766666Y-68957200D02*
X180671428Y-69004819D01*
X180671428Y-69004819D02*
X180576190Y-69004819D01*
X180576190Y-69004819D02*
X180480952Y-68957200D01*
X180480952Y-68957200D02*
X180433333Y-68909580D01*
X180433333Y-68909580D02*
X180385714Y-68814342D01*
X180385714Y-68814342D02*
X180338095Y-68623866D01*
X180338095Y-68623866D02*
X180338095Y-68385771D01*
X180338095Y-68385771D02*
X180385714Y-68195295D01*
X180385714Y-68195295D02*
X180433333Y-68100057D01*
X180433333Y-68100057D02*
X180480952Y-68052438D01*
X180480952Y-68052438D02*
X180576190Y-68004819D01*
X181766666Y-68338152D02*
X181766666Y-69004819D01*
X181338095Y-68338152D02*
X181338095Y-68861961D01*
X181338095Y-68861961D02*
X181385714Y-68957200D01*
X181385714Y-68957200D02*
X181480952Y-69004819D01*
X181480952Y-69004819D02*
X181623809Y-69004819D01*
X181623809Y-69004819D02*
X181719047Y-68957200D01*
X181719047Y-68957200D02*
X181766666Y-68909580D01*
X172583333Y-72609580D02*
X172535714Y-72657200D01*
X172535714Y-72657200D02*
X172392857Y-72704819D01*
X172392857Y-72704819D02*
X172297619Y-72704819D01*
X172297619Y-72704819D02*
X172154762Y-72657200D01*
X172154762Y-72657200D02*
X172059524Y-72561961D01*
X172059524Y-72561961D02*
X172011905Y-72466723D01*
X172011905Y-72466723D02*
X171964286Y-72276247D01*
X171964286Y-72276247D02*
X171964286Y-72133390D01*
X171964286Y-72133390D02*
X172011905Y-71942914D01*
X172011905Y-71942914D02*
X172059524Y-71847676D01*
X172059524Y-71847676D02*
X172154762Y-71752438D01*
X172154762Y-71752438D02*
X172297619Y-71704819D01*
X172297619Y-71704819D02*
X172392857Y-71704819D01*
X172392857Y-71704819D02*
X172535714Y-71752438D01*
X172535714Y-71752438D02*
X172583333Y-71800057D01*
X172916667Y-71704819D02*
X173535714Y-71704819D01*
X173535714Y-71704819D02*
X173202381Y-72085771D01*
X173202381Y-72085771D02*
X173345238Y-72085771D01*
X173345238Y-72085771D02*
X173440476Y-72133390D01*
X173440476Y-72133390D02*
X173488095Y-72181009D01*
X173488095Y-72181009D02*
X173535714Y-72276247D01*
X173535714Y-72276247D02*
X173535714Y-72514342D01*
X173535714Y-72514342D02*
X173488095Y-72609580D01*
X173488095Y-72609580D02*
X173440476Y-72657200D01*
X173440476Y-72657200D02*
X173345238Y-72704819D01*
X173345238Y-72704819D02*
X173059524Y-72704819D01*
X173059524Y-72704819D02*
X172964286Y-72657200D01*
X172964286Y-72657200D02*
X172916667Y-72609580D01*
X172785714Y-67704819D02*
X172880952Y-67704819D01*
X172880952Y-67704819D02*
X172976190Y-67752438D01*
X172976190Y-67752438D02*
X173023809Y-67800057D01*
X173023809Y-67800057D02*
X173071428Y-67895295D01*
X173071428Y-67895295D02*
X173119047Y-68085771D01*
X173119047Y-68085771D02*
X173119047Y-68323866D01*
X173119047Y-68323866D02*
X173071428Y-68514342D01*
X173071428Y-68514342D02*
X173023809Y-68609580D01*
X173023809Y-68609580D02*
X172976190Y-68657200D01*
X172976190Y-68657200D02*
X172880952Y-68704819D01*
X172880952Y-68704819D02*
X172785714Y-68704819D01*
X172785714Y-68704819D02*
X172690476Y-68657200D01*
X172690476Y-68657200D02*
X172642857Y-68609580D01*
X172642857Y-68609580D02*
X172595238Y-68514342D01*
X172595238Y-68514342D02*
X172547619Y-68323866D01*
X172547619Y-68323866D02*
X172547619Y-68085771D01*
X172547619Y-68085771D02*
X172595238Y-67895295D01*
X172595238Y-67895295D02*
X172642857Y-67800057D01*
X172642857Y-67800057D02*
X172690476Y-67752438D01*
X172690476Y-67752438D02*
X172785714Y-67704819D01*
X173547619Y-68609580D02*
X173595238Y-68657200D01*
X173595238Y-68657200D02*
X173547619Y-68704819D01*
X173547619Y-68704819D02*
X173500000Y-68657200D01*
X173500000Y-68657200D02*
X173547619Y-68609580D01*
X173547619Y-68609580D02*
X173547619Y-68704819D01*
X174547618Y-68704819D02*
X173976190Y-68704819D01*
X174261904Y-68704819D02*
X174261904Y-67704819D01*
X174261904Y-67704819D02*
X174166666Y-67847676D01*
X174166666Y-67847676D02*
X174071428Y-67942914D01*
X174071428Y-67942914D02*
X173976190Y-67990533D01*
X175404761Y-68038152D02*
X175404761Y-68704819D01*
X174976190Y-68038152D02*
X174976190Y-68561961D01*
X174976190Y-68561961D02*
X175023809Y-68657200D01*
X175023809Y-68657200D02*
X175119047Y-68704819D01*
X175119047Y-68704819D02*
X175261904Y-68704819D01*
X175261904Y-68704819D02*
X175357142Y-68657200D01*
X175357142Y-68657200D02*
X175404761Y-68609580D01*
X172166666Y-103704819D02*
X172166666Y-104419104D01*
X172166666Y-104419104D02*
X172119047Y-104561961D01*
X172119047Y-104561961D02*
X172023809Y-104657200D01*
X172023809Y-104657200D02*
X171880952Y-104704819D01*
X171880952Y-104704819D02*
X171785714Y-104704819D01*
X172547619Y-103704819D02*
X173214285Y-103704819D01*
X173214285Y-103704819D02*
X172785714Y-104704819D01*
D12*
%TO.C,U2*%
X182120000Y-78075000D02*
X182120000Y-73434000D01*
X182120000Y-78075000D02*
X171880000Y-78075000D01*
X182120000Y-76565000D02*
X171880000Y-76565000D01*
X182120000Y-73434000D02*
X171880000Y-73434000D01*
X178850000Y-78075000D02*
X178850000Y-76565000D01*
X175149000Y-78075000D02*
X175149000Y-76565000D01*
X171880000Y-78075000D02*
X171880000Y-73434000D01*
D13*
%TO.C,S1*%
X194850000Y-74600000D02*
X194850000Y-74100000D01*
X194850000Y-74600000D02*
X194350000Y-74600000D01*
X194850000Y-70400000D02*
X194850000Y-70900000D01*
X194850000Y-70400000D02*
X194350000Y-70400000D01*
X182950000Y-74600000D02*
X183450000Y-74600000D01*
X182950000Y-74600000D02*
X182950000Y-74100000D01*
X182950000Y-70400000D02*
X183450000Y-70400000D01*
X182950000Y-70400000D02*
X182950000Y-70900000D01*
D12*
%TO.C,D1*%
X188955000Y-87815000D02*
X192045000Y-87815000D01*
X190500462Y-82265001D02*
G75*
G03*
X188955170Y-87814999I-462J-2989999D01*
G01*
X192044830Y-87815000D02*
G75*
G03*
X190499538Y-82265000I-1544830J2560000D01*
G01*
X193000000Y-85255000D02*
G75*
G03*
X193000000Y-85255000I-2500000J0D01*
G01*
%TO.C,C2*%
X176379000Y-102120000D02*
X175121000Y-102120000D01*
X176379000Y-100280000D02*
X175121000Y-100280000D01*
%TO.C,R1*%
X185940000Y-79250000D02*
X186890000Y-79250000D01*
X186890000Y-78330000D02*
X186890000Y-80170000D01*
X186890000Y-80170000D02*
X190730000Y-80170000D01*
X190730000Y-78330000D02*
X186890000Y-78330000D01*
X190730000Y-80170000D02*
X190730000Y-78330000D01*
X191680000Y-79250000D02*
X190730000Y-79250000D01*
%TO.C,J1*%
X181350000Y-81250000D02*
X181350000Y-80200000D01*
X181150000Y-89600000D02*
X179250000Y-89600000D01*
X181150000Y-86900000D02*
X181150000Y-89600000D01*
X181150000Y-80400000D02*
X181150000Y-83000000D01*
X180300000Y-80200000D02*
X181350000Y-80200000D01*
X175250000Y-89600000D02*
X166450000Y-89600000D01*
X166450000Y-89600000D02*
X166450000Y-80400000D01*
X166450000Y-80400000D02*
X181150000Y-80400000D01*
%TO.C,U1*%
X171880000Y-93730000D02*
X171880000Y-98371000D01*
X171880000Y-93730000D02*
X182120000Y-93730000D01*
X171880000Y-95240000D02*
X182120000Y-95240000D01*
X171880000Y-98371000D02*
X182120000Y-98371000D01*
X175150000Y-93730000D02*
X175150000Y-95240000D01*
X178851000Y-93730000D02*
X178851000Y-95240000D01*
X182120000Y-93730000D02*
X182120000Y-98371000D01*
%TO.C,J6*%
X195770000Y-60470000D02*
X197100000Y-60470000D01*
X195770000Y-61800000D02*
X195770000Y-60470000D01*
X195770000Y-63070000D02*
X195770000Y-65670000D01*
X195770000Y-63070000D02*
X198430000Y-63070000D01*
X195770000Y-65670000D02*
X198430000Y-65670000D01*
X198430000Y-63070000D02*
X198430000Y-65670000D01*
%TO.C,J4*%
X195670000Y-101195000D02*
X197000000Y-101195000D01*
X195670000Y-102525000D02*
X195670000Y-101195000D01*
X195670000Y-103795000D02*
X195670000Y-106395000D01*
X195670000Y-103795000D02*
X198330000Y-103795000D01*
X195670000Y-106395000D02*
X198330000Y-106395000D01*
X198330000Y-103795000D02*
X198330000Y-106395000D01*
%TO.C,J3*%
X174070000Y-63130000D02*
X174070000Y-61800000D01*
X175400000Y-63130000D02*
X174070000Y-63130000D01*
X176670000Y-63130000D02*
X181810000Y-63130000D01*
X176670000Y-63130000D02*
X176670000Y-60470000D01*
X181810000Y-63130000D02*
X181810000Y-60470000D01*
X176670000Y-60470000D02*
X181810000Y-60470000D01*
%TO.C,J5*%
X193180000Y-106810000D02*
X193180000Y-99190000D01*
X193180000Y-105540000D02*
X183020000Y-105540000D01*
X193180000Y-99190000D02*
X183020000Y-99190000D01*
X183020000Y-106810000D02*
X193180000Y-106810000D01*
X183020000Y-99190000D02*
X183020000Y-106810000D01*
%TO.C,R2*%
X192620000Y-95250000D02*
X191670000Y-95250000D01*
X191670000Y-96170000D02*
X191670000Y-94330000D01*
X191670000Y-94330000D02*
X187830000Y-94330000D01*
X187830000Y-96170000D02*
X191670000Y-96170000D01*
X187830000Y-94330000D02*
X187830000Y-96170000D01*
X186880000Y-95250000D02*
X187830000Y-95250000D01*
%TO.C,J2*%
X193180000Y-67810000D02*
X193180000Y-60190000D01*
X193180000Y-66540000D02*
X183020000Y-66540000D01*
X193180000Y-60190000D02*
X183020000Y-60190000D01*
X183020000Y-67810000D02*
X193180000Y-67810000D01*
X183020000Y-60190000D02*
X183020000Y-67810000D01*
%TO.C,R3*%
X186820000Y-91250000D02*
X187770000Y-91250000D01*
X187770000Y-90330000D02*
X187770000Y-92170000D01*
X187770000Y-92170000D02*
X191610000Y-92170000D01*
X191610000Y-90330000D02*
X187770000Y-90330000D01*
X191610000Y-92170000D02*
X191610000Y-90330000D01*
X192560000Y-91250000D02*
X191610000Y-91250000D01*
%TO.C,C1*%
X180379000Y-71170000D02*
X179121000Y-71170000D01*
X180379000Y-69330000D02*
X179121000Y-69330000D01*
%TO.C,C3*%
X174629000Y-71170000D02*
X173371000Y-71170000D01*
X174629000Y-69330000D02*
X173371000Y-69330000D01*
%TO.C,J7*%
X174070000Y-106530000D02*
X174070000Y-105200000D01*
X175400000Y-106530000D02*
X174070000Y-106530000D01*
X176670000Y-106530000D02*
X181810000Y-106530000D01*
X176670000Y-106530000D02*
X176670000Y-103870000D01*
X181810000Y-106530000D02*
X181810000Y-103870000D01*
X176670000Y-103870000D02*
X181810000Y-103870000D01*
%TD*%
M02*
