%TF.GenerationSoftware,KiCad,Pcbnew,7.0.6-7.0.6~ubuntu22.10.1*%
%TF.CreationDate,2023-08-25T09:43:34+03:00*%
%TF.ProjectId,Power Supply Module,506f7765-7220-4537-9570-706c79204d6f,rev?*%
%TF.SameCoordinates,Original*%
%TF.FileFunction,Copper,L1,Top*%
%TF.FilePolarity,Positive*%
%FSLAX46Y46*%
G04 Gerber Fmt 4.6, Leading zero omitted, Abs format (unit mm)*
G04 Created by KiCad (PCBNEW 7.0.6-7.0.6~ubuntu22.10.1) date 2023-08-25 09:43:34*
%MOMM*%
%LPD*%
G01*
G04 APERTURE LIST*
G04 Aperture macros list*
%AMRoundRect*
0 Rectangle with rounded corners*
0 $1 Rounding radius*
0 $2 $3 $4 $5 $6 $7 $8 $9 X,Y pos of 4 corners*
0 Add a 4 corners polygon primitive as box body*
4,1,4,$2,$3,$4,$5,$6,$7,$8,$9,$2,$3,0*
0 Add four circle primitives for the rounded corners*
1,1,$1+$1,$2,$3*
1,1,$1+$1,$4,$5*
1,1,$1+$1,$6,$7*
1,1,$1+$1,$8,$9*
0 Add four rect primitives between the rounded corners*
20,1,$1+$1,$2,$3,$4,$5,0*
20,1,$1+$1,$4,$5,$6,$7,0*
20,1,$1+$1,$6,$7,$8,$9,0*
20,1,$1+$1,$8,$9,$2,$3,0*%
G04 Aperture macros list end*
%TA.AperFunction,ComponentPad*%
%ADD10R,1.905000X2.000000*%
%TD*%
%TA.AperFunction,ComponentPad*%
%ADD11O,1.905000X2.000000*%
%TD*%
%TA.AperFunction,ComponentPad*%
%ADD12R,1.900000X1.900000*%
%TD*%
%TA.AperFunction,ComponentPad*%
%ADD13C,1.900000*%
%TD*%
%TA.AperFunction,ComponentPad*%
%ADD14R,1.800000X1.800000*%
%TD*%
%TA.AperFunction,ComponentPad*%
%ADD15C,1.800000*%
%TD*%
%TA.AperFunction,ComponentPad*%
%ADD16C,1.600000*%
%TD*%
%TA.AperFunction,ComponentPad*%
%ADD17C,1.400000*%
%TD*%
%TA.AperFunction,ComponentPad*%
%ADD18O,1.400000X1.400000*%
%TD*%
%TA.AperFunction,ComponentPad*%
%ADD19RoundRect,0.875000X-0.875000X-0.875000X0.875000X-0.875000X0.875000X0.875000X-0.875000X0.875000X0*%
%TD*%
%TA.AperFunction,ComponentPad*%
%ADD20RoundRect,0.750000X-0.750000X-1.000000X0.750000X-1.000000X0.750000X1.000000X-0.750000X1.000000X0*%
%TD*%
%TA.AperFunction,ComponentPad*%
%ADD21R,3.500000X3.500000*%
%TD*%
%TA.AperFunction,ComponentPad*%
%ADD22R,1.700000X1.700000*%
%TD*%
%TA.AperFunction,ComponentPad*%
%ADD23O,1.700000X1.700000*%
%TD*%
%TA.AperFunction,ComponentPad*%
%ADD24C,3.000000*%
%TD*%
%TA.AperFunction,ComponentPad*%
%ADD25R,3.000000X3.000000*%
%TD*%
%TA.AperFunction,ViaPad*%
%ADD26C,0.800000*%
%TD*%
%TA.AperFunction,Conductor*%
%ADD27C,0.250000*%
%TD*%
G04 APERTURE END LIST*
D10*
%TO.P,U2,1,VI*%
%TO.N,/12V*%
X179540000Y-74805000D03*
D11*
%TO.P,U2,2,GND*%
%TO.N,GND*%
X177000000Y-74805000D03*
%TO.P,U2,3,VO*%
%TO.N,/5V*%
X174460000Y-74805000D03*
%TD*%
D12*
%TO.P,S1,1*%
%TO.N,/12V*%
X191250000Y-72500000D03*
D13*
%TO.P,S1,2*%
%TO.N,/PWR_input*%
X188750000Y-72500000D03*
%TO.P,S1,3*%
%TO.N,unconnected-(S1-Pad3)*%
X186250000Y-72500000D03*
%TD*%
D14*
%TO.P,D1,1,K*%
%TO.N,GND*%
X190500000Y-86525000D03*
D15*
%TO.P,D1,2,A*%
%TO.N,Net-(D1-A)*%
X190500000Y-83985000D03*
%TD*%
D16*
%TO.P,C2,1*%
%TO.N,/3.3V*%
X177000000Y-101200000D03*
%TO.P,C2,2*%
%TO.N,GND*%
X174500000Y-101200000D03*
%TD*%
D17*
%TO.P,R1,1*%
%TO.N,Net-(D1-A)*%
X185000000Y-79250000D03*
D18*
%TO.P,R1,2*%
%TO.N,/12V*%
X192620000Y-79250000D03*
%TD*%
D19*
%TO.P,J1,3*%
%TO.N,GND*%
X177250000Y-89700000D03*
D20*
%TO.P,J1,2*%
X174250000Y-85000000D03*
D21*
%TO.P,J1,1*%
%TO.N,/PWR_input*%
X180250000Y-85000000D03*
%TD*%
D10*
%TO.P,U1,1,ADJ*%
%TO.N,Net-(U1-ADJ)*%
X174460000Y-97000000D03*
D11*
%TO.P,U1,2,VO*%
%TO.N,/3.3V*%
X177000000Y-97000000D03*
%TO.P,U1,3,VI*%
%TO.N,/12V*%
X179540000Y-97000000D03*
%TD*%
D22*
%TO.P,J6,1,Pin_1*%
%TO.N,GND*%
X197100000Y-61800000D03*
D23*
%TO.P,J6,2,Pin_2*%
%TO.N,/PWR_input*%
X197100000Y-64340000D03*
%TD*%
D22*
%TO.P,J4,1,Pin_1*%
%TO.N,GND*%
X197000000Y-102525000D03*
D23*
%TO.P,J4,2,Pin_2*%
%TO.N,/PWR_input*%
X197000000Y-105065000D03*
%TD*%
D22*
%TO.P,J3,1,Pin_1*%
%TO.N,/3.3V*%
X175400000Y-61800000D03*
D23*
%TO.P,J3,2,Pin_2*%
%TO.N,/PWR_input*%
X177940000Y-61800000D03*
%TO.P,J3,3,Pin_3*%
%TO.N,/5V*%
X180480000Y-61800000D03*
%TD*%
D24*
%TO.P,J5,2,Pin_2*%
%TO.N,/PWR_input*%
X190640000Y-103000000D03*
D25*
%TO.P,J5,1,Pin_1*%
%TO.N,GND*%
X185560000Y-103000000D03*
%TD*%
D17*
%TO.P,R2,1*%
%TO.N,Net-(U1-ADJ)*%
X193560000Y-95250000D03*
D18*
%TO.P,R2,2*%
%TO.N,/3.3V*%
X185940000Y-95250000D03*
%TD*%
D24*
%TO.P,J2,2,Pin_2*%
%TO.N,/PWR_input*%
X190640000Y-64000000D03*
D25*
%TO.P,J2,1,Pin_1*%
%TO.N,GND*%
X185560000Y-64000000D03*
%TD*%
D17*
%TO.P,R3,1*%
%TO.N,GND*%
X185880000Y-91250000D03*
D18*
%TO.P,R3,2*%
%TO.N,Net-(U1-ADJ)*%
X193500000Y-91250000D03*
%TD*%
D16*
%TO.P,C1,1*%
%TO.N,/12V*%
X181000000Y-70250000D03*
%TO.P,C1,2*%
%TO.N,GND*%
X178500000Y-70250000D03*
%TD*%
%TO.P,C3,1*%
%TO.N,/5V*%
X175250000Y-70250000D03*
%TO.P,C3,2*%
%TO.N,GND*%
X172750000Y-70250000D03*
%TD*%
D22*
%TO.P,J7,1,Pin_1*%
%TO.N,/3.3V*%
X175400000Y-105200000D03*
D23*
%TO.P,J7,2,Pin_2*%
%TO.N,/PWR_input*%
X177940000Y-105200000D03*
%TO.P,J7,3,Pin_3*%
%TO.N,/5V*%
X180480000Y-105200000D03*
%TD*%
D26*
%TO.N,GND*%
X189250000Y-100000000D03*
X194500000Y-100000000D03*
X177500000Y-69250000D03*
%TO.N,/PWR_input*%
X192500000Y-69250000D03*
%TO.N,/3.3V*%
X183250000Y-95250000D03*
%TD*%
D27*
%TO.N,GND*%
X190500000Y-86525000D02*
X190500000Y-86630000D01*
X190500000Y-86630000D02*
X185880000Y-91250000D01*
%TO.N,Net-(D1-A)*%
X184000000Y-80250000D02*
X184000000Y-82250000D01*
X185000000Y-79250000D02*
X184000000Y-80250000D01*
X184000000Y-82250000D02*
X188765000Y-82250000D01*
X188765000Y-82250000D02*
X190500000Y-83985000D01*
%TO.N,GND*%
X197000000Y-102525000D02*
X197000000Y-102500000D01*
X197000000Y-102500000D02*
X194500000Y-100000000D01*
X189250000Y-100000000D02*
X188000000Y-101250000D01*
X188000000Y-93370000D02*
X188000000Y-101250000D01*
X185880000Y-91250000D02*
X188000000Y-93370000D01*
X188000000Y-101250000D02*
X186250000Y-103000000D01*
X186250000Y-103000000D02*
X185560000Y-103000000D01*
X182700000Y-89700000D02*
X184250000Y-91250000D01*
X177250000Y-89700000D02*
X182700000Y-89700000D01*
X184250000Y-91250000D02*
X185880000Y-91250000D01*
X174250000Y-85000000D02*
X174250000Y-86700000D01*
X174250000Y-86700000D02*
X177250000Y-89700000D01*
X177000000Y-74805000D02*
X177000000Y-79250000D01*
X177000000Y-79250000D02*
X174250000Y-82000000D01*
X174250000Y-82000000D02*
X174250000Y-85000000D01*
X178500000Y-70250000D02*
X177500000Y-69250000D01*
X177750000Y-70250000D02*
X177000000Y-71000000D01*
X177000000Y-71000000D02*
X177000000Y-74805000D01*
X178500000Y-70250000D02*
X177750000Y-70250000D01*
X185560000Y-64000000D02*
X185560000Y-64940000D01*
X178500000Y-68250000D02*
X178500000Y-70250000D01*
X185560000Y-64940000D02*
X183000000Y-67500000D01*
X179250000Y-67500000D02*
X178500000Y-68250000D01*
X183000000Y-67500000D02*
X179250000Y-67500000D01*
%TO.N,/PWR_input*%
X193805000Y-67945000D02*
X194585000Y-67945000D01*
X192500000Y-69250000D02*
X193805000Y-67945000D01*
X188750000Y-72500000D02*
X188750000Y-75000000D01*
X188750000Y-75000000D02*
X187000000Y-76750000D01*
X187000000Y-76750000D02*
X184500000Y-76750000D01*
X184500000Y-76750000D02*
X180250000Y-81000000D01*
X180250000Y-81000000D02*
X180250000Y-85000000D01*
X177940000Y-105200000D02*
X179490000Y-106750000D01*
X179490000Y-106750000D02*
X186890000Y-106750000D01*
X186890000Y-106750000D02*
X190640000Y-103000000D01*
%TO.N,/12V*%
X191250000Y-72500000D02*
X191500000Y-72500000D01*
X193560000Y-74560000D02*
X193560000Y-78310000D01*
X191500000Y-72500000D02*
X193560000Y-74560000D01*
X193560000Y-78310000D02*
X192620000Y-79250000D01*
%TO.N,/PWR_input*%
X190640000Y-64000000D02*
X194585000Y-67945000D01*
X190640000Y-91610000D02*
X190640000Y-103000000D01*
X194585000Y-67945000D02*
X194585000Y-87665000D01*
X194585000Y-87665000D02*
X190640000Y-91610000D01*
X190640000Y-103000000D02*
X192705000Y-105065000D01*
X192705000Y-105065000D02*
X197000000Y-105065000D01*
%TO.N,/3.3V*%
X177000000Y-101200000D02*
X177000000Y-103600000D01*
X177000000Y-103600000D02*
X175400000Y-105200000D01*
X177000000Y-101200000D02*
X177000000Y-97000000D01*
X185940000Y-95250000D02*
X183250000Y-95250000D01*
%TO.N,/5V*%
X175750000Y-93750000D02*
X171500000Y-89500000D01*
X180250000Y-93750000D02*
X175750000Y-93750000D01*
X180480000Y-105200000D02*
X182325000Y-103355000D01*
X182325000Y-103355000D02*
X182325000Y-95825000D01*
X182325000Y-95825000D02*
X180250000Y-93750000D01*
X171500000Y-89500000D02*
X171500000Y-77765000D01*
X171500000Y-77765000D02*
X174460000Y-74805000D01*
%TO.N,Net-(U1-ADJ)*%
X193500000Y-91250000D02*
X193500000Y-95190000D01*
X193500000Y-95190000D02*
X193560000Y-95250000D01*
%TO.N,/5V*%
X175250000Y-70250000D02*
X175250000Y-74015000D01*
X175250000Y-74015000D02*
X174460000Y-74805000D01*
%TO.N,/12V*%
X181000000Y-70250000D02*
X181000000Y-73345000D01*
X181000000Y-73345000D02*
X179540000Y-74805000D01*
X181000000Y-70250000D02*
X189000000Y-70250000D01*
X189000000Y-70250000D02*
X191250000Y-72500000D01*
%TO.N,/PWR_input*%
X190640000Y-64000000D02*
X187265000Y-60625000D01*
X187265000Y-60625000D02*
X179115000Y-60625000D01*
X179115000Y-60625000D02*
X177940000Y-61800000D01*
%TO.N,/3.3V*%
X175400000Y-61800000D02*
X169750000Y-67450000D01*
X169750000Y-67450000D02*
X169750000Y-89750000D01*
X169750000Y-89750000D02*
X177000000Y-97000000D01*
%TO.N,/PWR_input*%
X197100000Y-64340000D02*
X190980000Y-64340000D01*
X190980000Y-64340000D02*
X190640000Y-64000000D01*
%TO.N,/5V*%
X180480000Y-61800000D02*
X180480000Y-65020000D01*
X180480000Y-65020000D02*
X175250000Y-70250000D01*
%TD*%
M02*
