%TF.GenerationSoftware,KiCad,Pcbnew,7.0.6-7.0.6~ubuntu22.10.1*%
%TF.CreationDate,2023-08-25T09:43:34+03:00*%
%TF.ProjectId,Power Supply Module,506f7765-7220-4537-9570-706c79204d6f,rev?*%
%TF.SameCoordinates,Original*%
%TF.FileFunction,Legend,Bot*%
%TF.FilePolarity,Positive*%
%FSLAX46Y46*%
G04 Gerber Fmt 4.6, Leading zero omitted, Abs format (unit mm)*
G04 Created by KiCad (PCBNEW 7.0.6-7.0.6~ubuntu22.10.1) date 2023-08-25 09:43:34*
%MOMM*%
%LPD*%
G01*
G04 APERTURE LIST*
%ADD10C,0.200000*%
%ADD11C,0.010000*%
G04 APERTURE END LIST*
D10*
X168581504Y-91601816D02*
X168581504Y-92078006D01*
X168867219Y-91470863D02*
X167867219Y-91929197D01*
X167867219Y-91929197D02*
X168867219Y-92137530D01*
X168867219Y-92470863D02*
X167867219Y-92595863D01*
X168867219Y-92899435D02*
X168343409Y-92964911D01*
X168343409Y-92964911D02*
X168248171Y-92929197D01*
X168248171Y-92929197D02*
X168200552Y-92839911D01*
X168200552Y-92839911D02*
X168200552Y-92697054D01*
X168200552Y-92697054D02*
X168248171Y-92595863D01*
X168248171Y-92595863D02*
X168295790Y-92542292D01*
X168867219Y-93375625D02*
X168200552Y-93458959D01*
X168295790Y-93447054D02*
X168248171Y-93500625D01*
X168248171Y-93500625D02*
X168200552Y-93601816D01*
X168200552Y-93601816D02*
X168200552Y-93744673D01*
X168200552Y-93744673D02*
X168248171Y-93833959D01*
X168248171Y-93833959D02*
X168343409Y-93869673D01*
X168343409Y-93869673D02*
X168867219Y-93804197D01*
X168343409Y-93869673D02*
X168248171Y-93929197D01*
X168248171Y-93929197D02*
X168200552Y-94030387D01*
X168200552Y-94030387D02*
X168200552Y-94173244D01*
X168200552Y-94173244D02*
X168248171Y-94262530D01*
X168248171Y-94262530D02*
X168343409Y-94298244D01*
X168343409Y-94298244D02*
X168867219Y-94232768D01*
X168819600Y-95095863D02*
X168867219Y-94994673D01*
X168867219Y-94994673D02*
X168867219Y-94804196D01*
X168867219Y-94804196D02*
X168819600Y-94714911D01*
X168819600Y-94714911D02*
X168724361Y-94679196D01*
X168724361Y-94679196D02*
X168343409Y-94726816D01*
X168343409Y-94726816D02*
X168248171Y-94786339D01*
X168248171Y-94786339D02*
X168200552Y-94887530D01*
X168200552Y-94887530D02*
X168200552Y-95078006D01*
X168200552Y-95078006D02*
X168248171Y-95167292D01*
X168248171Y-95167292D02*
X168343409Y-95203006D01*
X168343409Y-95203006D02*
X168438647Y-95191101D01*
X168438647Y-95191101D02*
X168533885Y-94703006D01*
X168200552Y-95506578D02*
X168200552Y-95887530D01*
X167867219Y-95691101D02*
X168724361Y-95583959D01*
X168724361Y-95583959D02*
X168819600Y-95619673D01*
X168819600Y-95619673D02*
X168867219Y-95708959D01*
X168867219Y-95708959D02*
X168867219Y-95804197D01*
X168771980Y-97482769D02*
X168819600Y-97429197D01*
X168819600Y-97429197D02*
X168867219Y-97280388D01*
X168867219Y-97280388D02*
X168867219Y-97185150D01*
X168867219Y-97185150D02*
X168819600Y-97048245D01*
X168819600Y-97048245D02*
X168724361Y-96964912D01*
X168724361Y-96964912D02*
X168629123Y-96929197D01*
X168629123Y-96929197D02*
X168438647Y-96905388D01*
X168438647Y-96905388D02*
X168295790Y-96923245D01*
X168295790Y-96923245D02*
X168105314Y-96994673D01*
X168105314Y-96994673D02*
X168010076Y-97054197D01*
X168010076Y-97054197D02*
X167914838Y-97161340D01*
X167914838Y-97161340D02*
X167867219Y-97310150D01*
X167867219Y-97310150D02*
X167867219Y-97405388D01*
X167867219Y-97405388D02*
X167914838Y-97542293D01*
X167914838Y-97542293D02*
X167962457Y-97583959D01*
X168867219Y-98328007D02*
X168343409Y-98393483D01*
X168343409Y-98393483D02*
X168248171Y-98357769D01*
X168248171Y-98357769D02*
X168200552Y-98268483D01*
X168200552Y-98268483D02*
X168200552Y-98078007D01*
X168200552Y-98078007D02*
X168248171Y-97976816D01*
X168819600Y-98333959D02*
X168867219Y-98232769D01*
X168867219Y-98232769D02*
X168867219Y-97994673D01*
X168867219Y-97994673D02*
X168819600Y-97905388D01*
X168819600Y-97905388D02*
X168724361Y-97869673D01*
X168724361Y-97869673D02*
X168629123Y-97881578D01*
X168629123Y-97881578D02*
X168533885Y-97941102D01*
X168533885Y-97941102D02*
X168486266Y-98042293D01*
X168486266Y-98042293D02*
X168486266Y-98280388D01*
X168486266Y-98280388D02*
X168438647Y-98381578D01*
X168200552Y-98887531D02*
X168867219Y-98804197D01*
X168295790Y-98875626D02*
X168248171Y-98929197D01*
X168248171Y-98929197D02*
X168200552Y-99030388D01*
X168200552Y-99030388D02*
X168200552Y-99173245D01*
X168200552Y-99173245D02*
X168248171Y-99262531D01*
X168248171Y-99262531D02*
X168343409Y-99298245D01*
X168343409Y-99298245D02*
X168867219Y-99232769D01*
X167914838Y-101113722D02*
X167867219Y-101024436D01*
X167867219Y-101024436D02*
X167867219Y-100881579D01*
X167867219Y-100881579D02*
X167914838Y-100732769D01*
X167914838Y-100732769D02*
X168010076Y-100625626D01*
X168010076Y-100625626D02*
X168105314Y-100566102D01*
X168105314Y-100566102D02*
X168295790Y-100494674D01*
X168295790Y-100494674D02*
X168438647Y-100476817D01*
X168438647Y-100476817D02*
X168629123Y-100500626D01*
X168629123Y-100500626D02*
X168724361Y-100536341D01*
X168724361Y-100536341D02*
X168819600Y-100619674D01*
X168819600Y-100619674D02*
X168867219Y-100756579D01*
X168867219Y-100756579D02*
X168867219Y-100851817D01*
X168867219Y-100851817D02*
X168819600Y-101000626D01*
X168819600Y-101000626D02*
X168771980Y-101054198D01*
X168771980Y-101054198D02*
X168438647Y-101095864D01*
X168438647Y-101095864D02*
X168438647Y-100905388D01*
X167867219Y-101595864D02*
X168676742Y-101494674D01*
X168676742Y-101494674D02*
X168771980Y-101530388D01*
X168771980Y-101530388D02*
X168819600Y-101572055D01*
X168819600Y-101572055D02*
X168867219Y-101661341D01*
X168867219Y-101661341D02*
X168867219Y-101851817D01*
X168867219Y-101851817D02*
X168819600Y-101953007D01*
X168819600Y-101953007D02*
X168771980Y-102006579D01*
X168771980Y-102006579D02*
X168676742Y-102066102D01*
X168676742Y-102066102D02*
X167867219Y-102167293D01*
X168867219Y-102994674D02*
X168867219Y-102518483D01*
X168867219Y-102518483D02*
X167867219Y-102643483D01*
X168867219Y-103328007D02*
X167867219Y-103453007D01*
X167867219Y-103453007D02*
X168581504Y-103697055D01*
X168581504Y-103697055D02*
X167867219Y-104119674D01*
X167867219Y-104119674D02*
X168867219Y-103994674D01*
X168343409Y-104536341D02*
X168343409Y-104869674D01*
X168867219Y-104947055D02*
X168867219Y-104470864D01*
X168867219Y-104470864D02*
X167867219Y-104595864D01*
X167867219Y-104595864D02*
X167867219Y-105072055D01*
X167867219Y-105405388D02*
X167867219Y-106072055D01*
X167867219Y-106072055D02*
X168867219Y-105280388D01*
X168867219Y-105280388D02*
X168867219Y-105947055D01*
%TO.C,REF\u002A\u002A*%
D11*
X169570158Y-84814732D02*
X169721594Y-84823311D01*
X169858283Y-84842167D01*
X169984276Y-84872163D01*
X170103625Y-84914164D01*
X170220381Y-84969031D01*
X170331179Y-85035833D01*
X170444739Y-85126637D01*
X170540211Y-85230292D01*
X170617073Y-85346113D01*
X170674797Y-85473414D01*
X170712858Y-85611511D01*
X170718666Y-85649207D01*
X170724396Y-85728248D01*
X170724583Y-85816371D01*
X170719539Y-85905764D01*
X170709578Y-85988616D01*
X170695012Y-86057113D01*
X170685364Y-86087965D01*
X170655123Y-86165270D01*
X170617617Y-86242321D01*
X170576614Y-86311800D01*
X170535879Y-86366385D01*
X170516505Y-86389084D01*
X170498662Y-86411799D01*
X170491778Y-86423221D01*
X170493424Y-86424463D01*
X170511205Y-86427272D01*
X170544370Y-86429224D01*
X170587733Y-86429955D01*
X170683689Y-86429955D01*
X170683689Y-87288104D01*
X170622974Y-87253839D01*
X170613868Y-87248645D01*
X170599249Y-87240285D01*
X170585173Y-87232712D01*
X170570540Y-87225888D01*
X170554249Y-87219773D01*
X170535198Y-87214327D01*
X170512286Y-87209513D01*
X170484413Y-87205292D01*
X170450478Y-87201623D01*
X170409379Y-87198469D01*
X170360015Y-87195789D01*
X170301286Y-87193546D01*
X170232090Y-87191701D01*
X170151326Y-87190213D01*
X170057894Y-87189045D01*
X169950692Y-87188156D01*
X169828620Y-87187509D01*
X169690576Y-87187064D01*
X169535459Y-87186782D01*
X169362168Y-87186625D01*
X169169603Y-87186552D01*
X168956662Y-87186526D01*
X168722245Y-87186507D01*
X167037378Y-87186311D01*
X167037378Y-86280983D01*
X167074067Y-86305415D01*
X167083647Y-86311682D01*
X167129981Y-86337792D01*
X167177102Y-86355531D01*
X167232251Y-86367092D01*
X167302667Y-86374669D01*
X167309650Y-86375161D01*
X167347641Y-86376938D01*
X167401576Y-86378556D01*
X167468703Y-86380001D01*
X167546271Y-86381260D01*
X167631528Y-86382320D01*
X167721724Y-86383171D01*
X167814107Y-86383797D01*
X167905925Y-86384188D01*
X167994427Y-86384330D01*
X168076862Y-86384210D01*
X168150479Y-86383817D01*
X168212526Y-86383138D01*
X168260251Y-86382159D01*
X168290904Y-86380868D01*
X168301733Y-86379253D01*
X168297333Y-86371043D01*
X168282362Y-86349353D01*
X168260448Y-86319986D01*
X168226236Y-86271121D01*
X168179714Y-86182875D01*
X168146046Y-86084084D01*
X168143231Y-86069557D01*
X168697465Y-86069557D01*
X168709389Y-86154681D01*
X168736040Y-86238867D01*
X168776962Y-86317392D01*
X168820530Y-86384800D01*
X169970721Y-86384800D01*
X170017089Y-86314244D01*
X170040791Y-86273583D01*
X170066639Y-86219454D01*
X170084829Y-86170311D01*
X170100551Y-86106835D01*
X170111541Y-86010669D01*
X170103365Y-85926100D01*
X170075805Y-85852781D01*
X170028642Y-85790363D01*
X169961658Y-85738498D01*
X169874633Y-85696840D01*
X169767350Y-85665038D01*
X169755009Y-85662455D01*
X169693772Y-85654000D01*
X169616692Y-85648337D01*
X169529002Y-85645424D01*
X169435934Y-85645217D01*
X169342720Y-85647670D01*
X169254594Y-85652739D01*
X169176788Y-85660381D01*
X169114533Y-85670552D01*
X169108666Y-85671833D01*
X168998121Y-85700874D01*
X168907575Y-85735390D01*
X168834953Y-85776544D01*
X168778181Y-85825501D01*
X168735184Y-85883426D01*
X168719615Y-85915380D01*
X168700722Y-85988216D01*
X168697465Y-86069557D01*
X168143231Y-86069557D01*
X168124231Y-85971490D01*
X168113265Y-85841836D01*
X168112219Y-85749330D01*
X168122014Y-85627989D01*
X168146174Y-85517901D01*
X168185785Y-85414611D01*
X168241932Y-85313662D01*
X168272883Y-85268497D01*
X168364115Y-85163089D01*
X168473106Y-85071462D01*
X168599726Y-84993668D01*
X168743845Y-84929759D01*
X168905332Y-84879786D01*
X169084059Y-84843802D01*
X169279895Y-84821857D01*
X169435934Y-84816100D01*
X169492711Y-84814006D01*
X169570158Y-84814732D01*
G36*
X169570158Y-84814732D02*
G01*
X169721594Y-84823311D01*
X169858283Y-84842167D01*
X169984276Y-84872163D01*
X170103625Y-84914164D01*
X170220381Y-84969031D01*
X170331179Y-85035833D01*
X170444739Y-85126637D01*
X170540211Y-85230292D01*
X170617073Y-85346113D01*
X170674797Y-85473414D01*
X170712858Y-85611511D01*
X170718666Y-85649207D01*
X170724396Y-85728248D01*
X170724583Y-85816371D01*
X170719539Y-85905764D01*
X170709578Y-85988616D01*
X170695012Y-86057113D01*
X170685364Y-86087965D01*
X170655123Y-86165270D01*
X170617617Y-86242321D01*
X170576614Y-86311800D01*
X170535879Y-86366385D01*
X170516505Y-86389084D01*
X170498662Y-86411799D01*
X170491778Y-86423221D01*
X170493424Y-86424463D01*
X170511205Y-86427272D01*
X170544370Y-86429224D01*
X170587733Y-86429955D01*
X170683689Y-86429955D01*
X170683689Y-87288104D01*
X170622974Y-87253839D01*
X170613868Y-87248645D01*
X170599249Y-87240285D01*
X170585173Y-87232712D01*
X170570540Y-87225888D01*
X170554249Y-87219773D01*
X170535198Y-87214327D01*
X170512286Y-87209513D01*
X170484413Y-87205292D01*
X170450478Y-87201623D01*
X170409379Y-87198469D01*
X170360015Y-87195789D01*
X170301286Y-87193546D01*
X170232090Y-87191701D01*
X170151326Y-87190213D01*
X170057894Y-87189045D01*
X169950692Y-87188156D01*
X169828620Y-87187509D01*
X169690576Y-87187064D01*
X169535459Y-87186782D01*
X169362168Y-87186625D01*
X169169603Y-87186552D01*
X168956662Y-87186526D01*
X168722245Y-87186507D01*
X167037378Y-87186311D01*
X167037378Y-86280983D01*
X167074067Y-86305415D01*
X167083647Y-86311682D01*
X167129981Y-86337792D01*
X167177102Y-86355531D01*
X167232251Y-86367092D01*
X167302667Y-86374669D01*
X167309650Y-86375161D01*
X167347641Y-86376938D01*
X167401576Y-86378556D01*
X167468703Y-86380001D01*
X167546271Y-86381260D01*
X167631528Y-86382320D01*
X167721724Y-86383171D01*
X167814107Y-86383797D01*
X167905925Y-86384188D01*
X167994427Y-86384330D01*
X168076862Y-86384210D01*
X168150479Y-86383817D01*
X168212526Y-86383138D01*
X168260251Y-86382159D01*
X168290904Y-86380868D01*
X168301733Y-86379253D01*
X168297333Y-86371043D01*
X168282362Y-86349353D01*
X168260448Y-86319986D01*
X168226236Y-86271121D01*
X168179714Y-86182875D01*
X168146046Y-86084084D01*
X168143231Y-86069557D01*
X168697465Y-86069557D01*
X168709389Y-86154681D01*
X168736040Y-86238867D01*
X168776962Y-86317392D01*
X168820530Y-86384800D01*
X169970721Y-86384800D01*
X170017089Y-86314244D01*
X170040791Y-86273583D01*
X170066639Y-86219454D01*
X170084829Y-86170311D01*
X170100551Y-86106835D01*
X170111541Y-86010669D01*
X170103365Y-85926100D01*
X170075805Y-85852781D01*
X170028642Y-85790363D01*
X169961658Y-85738498D01*
X169874633Y-85696840D01*
X169767350Y-85665038D01*
X169755009Y-85662455D01*
X169693772Y-85654000D01*
X169616692Y-85648337D01*
X169529002Y-85645424D01*
X169435934Y-85645217D01*
X169342720Y-85647670D01*
X169254594Y-85652739D01*
X169176788Y-85660381D01*
X169114533Y-85670552D01*
X169108666Y-85671833D01*
X168998121Y-85700874D01*
X168907575Y-85735390D01*
X168834953Y-85776544D01*
X168778181Y-85825501D01*
X168735184Y-85883426D01*
X168719615Y-85915380D01*
X168700722Y-85988216D01*
X168697465Y-86069557D01*
X168143231Y-86069557D01*
X168124231Y-85971490D01*
X168113265Y-85841836D01*
X168112219Y-85749330D01*
X168122014Y-85627989D01*
X168146174Y-85517901D01*
X168185785Y-85414611D01*
X168241932Y-85313662D01*
X168272883Y-85268497D01*
X168364115Y-85163089D01*
X168473106Y-85071462D01*
X168599726Y-84993668D01*
X168743845Y-84929759D01*
X168905332Y-84879786D01*
X169084059Y-84843802D01*
X169279895Y-84821857D01*
X169435934Y-84816100D01*
X169492711Y-84814006D01*
X169570158Y-84814732D01*
G37*
X171645178Y-85489083D02*
X171646631Y-85490443D01*
X171654992Y-85501646D01*
X171660547Y-85518748D01*
X171663840Y-85545918D01*
X171665418Y-85587322D01*
X171665822Y-85647127D01*
X171665822Y-85786489D01*
X171929589Y-85786489D01*
X172005417Y-85786564D01*
X172072083Y-85786972D01*
X172121867Y-85787954D01*
X172157784Y-85789750D01*
X172182850Y-85792601D01*
X172200081Y-85796747D01*
X172212492Y-85802429D01*
X172223100Y-85809886D01*
X172225906Y-85812176D01*
X172248548Y-85843354D01*
X172250112Y-85877734D01*
X172230267Y-85910666D01*
X172222191Y-85917645D01*
X172211593Y-85923117D01*
X172195749Y-85927137D01*
X172171773Y-85929928D01*
X172136774Y-85931712D01*
X172087864Y-85932711D01*
X172022154Y-85933148D01*
X171936756Y-85933244D01*
X171665822Y-85933244D01*
X171665822Y-86079180D01*
X171665821Y-86090280D01*
X171665596Y-86146798D01*
X171664457Y-86185642D01*
X171661657Y-86211035D01*
X171656450Y-86227196D01*
X171648089Y-86238348D01*
X171635826Y-86248711D01*
X171605138Y-86264559D01*
X171571358Y-86261457D01*
X171538822Y-86235813D01*
X171535105Y-86230871D01*
X171530269Y-86220662D01*
X171526506Y-86205236D01*
X171523683Y-86182114D01*
X171521670Y-86148817D01*
X171520333Y-86102863D01*
X171519542Y-86041772D01*
X171519163Y-85963065D01*
X171519067Y-85864260D01*
X171519068Y-85844233D01*
X171519158Y-85750110D01*
X171519498Y-85675595D01*
X171520239Y-85618189D01*
X171521535Y-85575389D01*
X171523537Y-85544696D01*
X171526396Y-85523609D01*
X171530266Y-85509627D01*
X171535298Y-85500250D01*
X171541645Y-85492978D01*
X171574362Y-85474172D01*
X171611939Y-85472725D01*
X171645178Y-85489083D01*
G36*
X171645178Y-85489083D02*
G01*
X171646631Y-85490443D01*
X171654992Y-85501646D01*
X171660547Y-85518748D01*
X171663840Y-85545918D01*
X171665418Y-85587322D01*
X171665822Y-85647127D01*
X171665822Y-85786489D01*
X171929589Y-85786489D01*
X172005417Y-85786564D01*
X172072083Y-85786972D01*
X172121867Y-85787954D01*
X172157784Y-85789750D01*
X172182850Y-85792601D01*
X172200081Y-85796747D01*
X172212492Y-85802429D01*
X172223100Y-85809886D01*
X172225906Y-85812176D01*
X172248548Y-85843354D01*
X172250112Y-85877734D01*
X172230267Y-85910666D01*
X172222191Y-85917645D01*
X172211593Y-85923117D01*
X172195749Y-85927137D01*
X172171773Y-85929928D01*
X172136774Y-85931712D01*
X172087864Y-85932711D01*
X172022154Y-85933148D01*
X171936756Y-85933244D01*
X171665822Y-85933244D01*
X171665822Y-86079180D01*
X171665821Y-86090280D01*
X171665596Y-86146798D01*
X171664457Y-86185642D01*
X171661657Y-86211035D01*
X171656450Y-86227196D01*
X171648089Y-86238348D01*
X171635826Y-86248711D01*
X171605138Y-86264559D01*
X171571358Y-86261457D01*
X171538822Y-86235813D01*
X171535105Y-86230871D01*
X171530269Y-86220662D01*
X171526506Y-86205236D01*
X171523683Y-86182114D01*
X171521670Y-86148817D01*
X171520333Y-86102863D01*
X171519542Y-86041772D01*
X171519163Y-85963065D01*
X171519067Y-85864260D01*
X171519068Y-85844233D01*
X171519158Y-85750110D01*
X171519498Y-85675595D01*
X171520239Y-85618189D01*
X171521535Y-85575389D01*
X171523537Y-85544696D01*
X171526396Y-85523609D01*
X171530266Y-85509627D01*
X171535298Y-85500250D01*
X171541645Y-85492978D01*
X171574362Y-85474172D01*
X171611939Y-85472725D01*
X171645178Y-85489083D01*
G37*
X171885956Y-74723378D02*
X171961617Y-74723417D01*
X172039526Y-74723672D01*
X172099536Y-74724316D01*
X172144264Y-74725520D01*
X172176326Y-74727457D01*
X172198340Y-74730297D01*
X172212924Y-74734212D01*
X172222694Y-74739374D01*
X172230267Y-74745955D01*
X172236501Y-74752923D01*
X172243801Y-74765921D01*
X172248554Y-74785069D01*
X172251292Y-74814472D01*
X172252545Y-74858238D01*
X172252845Y-74920472D01*
X172252469Y-74969418D01*
X172248041Y-75076278D01*
X172237953Y-75165506D01*
X172221365Y-75240304D01*
X172197435Y-75303875D01*
X172165321Y-75359421D01*
X172124182Y-75410146D01*
X172118330Y-75416134D01*
X172069821Y-75453001D01*
X172009013Y-75484101D01*
X171944769Y-75505583D01*
X171885956Y-75513600D01*
X171864739Y-75512321D01*
X171807323Y-75500009D01*
X171747413Y-75477480D01*
X171693363Y-75448250D01*
X171653532Y-75415833D01*
X171636510Y-75396292D01*
X171597322Y-75341580D01*
X171567193Y-75281277D01*
X171545232Y-75212081D01*
X171530550Y-75130689D01*
X171522259Y-75033800D01*
X171520148Y-74946333D01*
X171665808Y-74946333D01*
X171665817Y-74949361D01*
X171667782Y-75000481D01*
X171672507Y-75060584D01*
X171679035Y-75117292D01*
X171688331Y-75167250D01*
X171714600Y-75242002D01*
X171753899Y-75299511D01*
X171806933Y-75341012D01*
X171858200Y-75362229D01*
X171906026Y-75363647D01*
X171956961Y-75345365D01*
X172002878Y-75315695D01*
X172045287Y-75268998D01*
X172075090Y-75207608D01*
X172094226Y-75128462D01*
X172094464Y-75126972D01*
X172100256Y-75078001D01*
X172104396Y-75019307D01*
X172106004Y-74963266D01*
X172106089Y-74870133D01*
X171665822Y-74870133D01*
X171665808Y-74946333D01*
X171520148Y-74946333D01*
X171519467Y-74918111D01*
X171519066Y-74878629D01*
X171518653Y-74832918D01*
X171520457Y-74797117D01*
X171526739Y-74770026D01*
X171539759Y-74750444D01*
X171561778Y-74737170D01*
X171595055Y-74729002D01*
X171641851Y-74724740D01*
X171665822Y-74724143D01*
X171704427Y-74723183D01*
X171785041Y-74723130D01*
X171885956Y-74723378D01*
G36*
X171885956Y-74723378D02*
G01*
X171961617Y-74723417D01*
X172039526Y-74723672D01*
X172099536Y-74724316D01*
X172144264Y-74725520D01*
X172176326Y-74727457D01*
X172198340Y-74730297D01*
X172212924Y-74734212D01*
X172222694Y-74739374D01*
X172230267Y-74745955D01*
X172236501Y-74752923D01*
X172243801Y-74765921D01*
X172248554Y-74785069D01*
X172251292Y-74814472D01*
X172252545Y-74858238D01*
X172252845Y-74920472D01*
X172252469Y-74969418D01*
X172248041Y-75076278D01*
X172237953Y-75165506D01*
X172221365Y-75240304D01*
X172197435Y-75303875D01*
X172165321Y-75359421D01*
X172124182Y-75410146D01*
X172118330Y-75416134D01*
X172069821Y-75453001D01*
X172009013Y-75484101D01*
X171944769Y-75505583D01*
X171885956Y-75513600D01*
X171864739Y-75512321D01*
X171807323Y-75500009D01*
X171747413Y-75477480D01*
X171693363Y-75448250D01*
X171653532Y-75415833D01*
X171636510Y-75396292D01*
X171597322Y-75341580D01*
X171567193Y-75281277D01*
X171545232Y-75212081D01*
X171530550Y-75130689D01*
X171522259Y-75033800D01*
X171520148Y-74946333D01*
X171665808Y-74946333D01*
X171665817Y-74949361D01*
X171667782Y-75000481D01*
X171672507Y-75060584D01*
X171679035Y-75117292D01*
X171688331Y-75167250D01*
X171714600Y-75242002D01*
X171753899Y-75299511D01*
X171806933Y-75341012D01*
X171858200Y-75362229D01*
X171906026Y-75363647D01*
X171956961Y-75345365D01*
X172002878Y-75315695D01*
X172045287Y-75268998D01*
X172075090Y-75207608D01*
X172094226Y-75128462D01*
X172094464Y-75126972D01*
X172100256Y-75078001D01*
X172104396Y-75019307D01*
X172106004Y-74963266D01*
X172106089Y-74870133D01*
X171665822Y-74870133D01*
X171665808Y-74946333D01*
X171520148Y-74946333D01*
X171519467Y-74918111D01*
X171519066Y-74878629D01*
X171518653Y-74832918D01*
X171520457Y-74797117D01*
X171526739Y-74770026D01*
X171539759Y-74750444D01*
X171561778Y-74737170D01*
X171595055Y-74729002D01*
X171641851Y-74724740D01*
X171665822Y-74724143D01*
X171704427Y-74723183D01*
X171785041Y-74723130D01*
X171885956Y-74723378D01*
G37*
X171601915Y-83704772D02*
X171636481Y-83717636D01*
X171684826Y-83737395D01*
X171743825Y-83762619D01*
X171810355Y-83791881D01*
X171881291Y-83823750D01*
X171953507Y-83856799D01*
X172023880Y-83889599D01*
X172089285Y-83920720D01*
X172146597Y-83948735D01*
X172192692Y-83972214D01*
X172224446Y-83989728D01*
X172238733Y-83999849D01*
X172252102Y-84034257D01*
X172245741Y-84075954D01*
X172241044Y-84081319D01*
X172218893Y-84097148D01*
X172182132Y-84119350D01*
X172134415Y-84145767D01*
X172079393Y-84174240D01*
X171920150Y-84254014D01*
X172066742Y-84327201D01*
X172086032Y-84336897D01*
X172138380Y-84363875D01*
X172183170Y-84387904D01*
X172216154Y-84406668D01*
X172233089Y-84417854D01*
X172234332Y-84419000D01*
X172249619Y-84447121D01*
X172251302Y-84482183D01*
X172238733Y-84513224D01*
X172235884Y-84515650D01*
X172215259Y-84527910D01*
X172177708Y-84547648D01*
X172125880Y-84573552D01*
X172062423Y-84604315D01*
X171989985Y-84638625D01*
X171911216Y-84675175D01*
X171867093Y-84695415D01*
X171786365Y-84732188D01*
X171722687Y-84760645D01*
X171673752Y-84781669D01*
X171637257Y-84796146D01*
X171610895Y-84804961D01*
X171592361Y-84808996D01*
X171579352Y-84809138D01*
X171569561Y-84806270D01*
X171548678Y-84791613D01*
X171528377Y-84765010D01*
X171528035Y-84764255D01*
X171521034Y-84744665D01*
X171520504Y-84727210D01*
X171528478Y-84710298D01*
X171546989Y-84692337D01*
X171578071Y-84671737D01*
X171623756Y-84646905D01*
X171686078Y-84616250D01*
X171767071Y-84578180D01*
X171798454Y-84563546D01*
X171861638Y-84533797D01*
X171916244Y-84507703D01*
X171959290Y-84486708D01*
X171987793Y-84472261D01*
X171998770Y-84465809D01*
X171998189Y-84464450D01*
X171984242Y-84454458D01*
X171954704Y-84437167D01*
X171913087Y-84414570D01*
X171862903Y-84388662D01*
X171831414Y-84372689D01*
X171776061Y-84343739D01*
X171737044Y-84321251D01*
X171711566Y-84303035D01*
X171696831Y-84286904D01*
X171690042Y-84270670D01*
X171688400Y-84252143D01*
X171688875Y-84241640D01*
X171693082Y-84225524D01*
X171703946Y-84210210D01*
X171724219Y-84193612D01*
X171756654Y-84173643D01*
X171804004Y-84148217D01*
X171869022Y-84115248D01*
X171888277Y-84105515D01*
X171934946Y-84081057D01*
X171971109Y-84060822D01*
X171993497Y-84046689D01*
X171998845Y-84040540D01*
X171995573Y-84039173D01*
X171974664Y-84029798D01*
X171937725Y-84012938D01*
X171887874Y-83990021D01*
X171828226Y-83962480D01*
X171761898Y-83931745D01*
X171704677Y-83905030D01*
X171642688Y-83875407D01*
X171596949Y-83852336D01*
X171564908Y-83834357D01*
X171544014Y-83820010D01*
X171531718Y-83807834D01*
X171525466Y-83796368D01*
X171522574Y-83786958D01*
X171522425Y-83761853D01*
X171537768Y-83734710D01*
X171538753Y-83733410D01*
X171561388Y-83711326D01*
X171583613Y-83700277D01*
X171584253Y-83700231D01*
X171601915Y-83704772D01*
G36*
X171601915Y-83704772D02*
G01*
X171636481Y-83717636D01*
X171684826Y-83737395D01*
X171743825Y-83762619D01*
X171810355Y-83791881D01*
X171881291Y-83823750D01*
X171953507Y-83856799D01*
X172023880Y-83889599D01*
X172089285Y-83920720D01*
X172146597Y-83948735D01*
X172192692Y-83972214D01*
X172224446Y-83989728D01*
X172238733Y-83999849D01*
X172252102Y-84034257D01*
X172245741Y-84075954D01*
X172241044Y-84081319D01*
X172218893Y-84097148D01*
X172182132Y-84119350D01*
X172134415Y-84145767D01*
X172079393Y-84174240D01*
X171920150Y-84254014D01*
X172066742Y-84327201D01*
X172086032Y-84336897D01*
X172138380Y-84363875D01*
X172183170Y-84387904D01*
X172216154Y-84406668D01*
X172233089Y-84417854D01*
X172234332Y-84419000D01*
X172249619Y-84447121D01*
X172251302Y-84482183D01*
X172238733Y-84513224D01*
X172235884Y-84515650D01*
X172215259Y-84527910D01*
X172177708Y-84547648D01*
X172125880Y-84573552D01*
X172062423Y-84604315D01*
X171989985Y-84638625D01*
X171911216Y-84675175D01*
X171867093Y-84695415D01*
X171786365Y-84732188D01*
X171722687Y-84760645D01*
X171673752Y-84781669D01*
X171637257Y-84796146D01*
X171610895Y-84804961D01*
X171592361Y-84808996D01*
X171579352Y-84809138D01*
X171569561Y-84806270D01*
X171548678Y-84791613D01*
X171528377Y-84765010D01*
X171528035Y-84764255D01*
X171521034Y-84744665D01*
X171520504Y-84727210D01*
X171528478Y-84710298D01*
X171546989Y-84692337D01*
X171578071Y-84671737D01*
X171623756Y-84646905D01*
X171686078Y-84616250D01*
X171767071Y-84578180D01*
X171798454Y-84563546D01*
X171861638Y-84533797D01*
X171916244Y-84507703D01*
X171959290Y-84486708D01*
X171987793Y-84472261D01*
X171998770Y-84465809D01*
X171998189Y-84464450D01*
X171984242Y-84454458D01*
X171954704Y-84437167D01*
X171913087Y-84414570D01*
X171862903Y-84388662D01*
X171831414Y-84372689D01*
X171776061Y-84343739D01*
X171737044Y-84321251D01*
X171711566Y-84303035D01*
X171696831Y-84286904D01*
X171690042Y-84270670D01*
X171688400Y-84252143D01*
X171688875Y-84241640D01*
X171693082Y-84225524D01*
X171703946Y-84210210D01*
X171724219Y-84193612D01*
X171756654Y-84173643D01*
X171804004Y-84148217D01*
X171869022Y-84115248D01*
X171888277Y-84105515D01*
X171934946Y-84081057D01*
X171971109Y-84060822D01*
X171993497Y-84046689D01*
X171998845Y-84040540D01*
X171995573Y-84039173D01*
X171974664Y-84029798D01*
X171937725Y-84012938D01*
X171887874Y-83990021D01*
X171828226Y-83962480D01*
X171761898Y-83931745D01*
X171704677Y-83905030D01*
X171642688Y-83875407D01*
X171596949Y-83852336D01*
X171564908Y-83834357D01*
X171544014Y-83820010D01*
X171531718Y-83807834D01*
X171525466Y-83796368D01*
X171522574Y-83786958D01*
X171522425Y-83761853D01*
X171537768Y-83734710D01*
X171538753Y-83733410D01*
X171561388Y-83711326D01*
X171583613Y-83700277D01*
X171584253Y-83700231D01*
X171601915Y-83704772D01*
G37*
X169871295Y-74723313D02*
X170051535Y-74723407D01*
X170214015Y-74723605D01*
X170359670Y-74723937D01*
X170489434Y-74724431D01*
X170604243Y-74725117D01*
X170705030Y-74726024D01*
X170792730Y-74727183D01*
X170868279Y-74728622D01*
X170932611Y-74730371D01*
X170986661Y-74732460D01*
X171031363Y-74734917D01*
X171067652Y-74737773D01*
X171096463Y-74741057D01*
X171118731Y-74744798D01*
X171135390Y-74749026D01*
X171147375Y-74753771D01*
X171155621Y-74759061D01*
X171161062Y-74764927D01*
X171164634Y-74771398D01*
X171167270Y-74778503D01*
X171169906Y-74786272D01*
X171173477Y-74794734D01*
X171175145Y-74799092D01*
X171177111Y-74807605D01*
X171178911Y-74820306D01*
X171180555Y-74838115D01*
X171182047Y-74861951D01*
X171183397Y-74892734D01*
X171184611Y-74931383D01*
X171185697Y-74978818D01*
X171186661Y-75035957D01*
X171187511Y-75103721D01*
X171188253Y-75183029D01*
X171188897Y-75274801D01*
X171189447Y-75379956D01*
X171189913Y-75499413D01*
X171190300Y-75634092D01*
X171190616Y-75784912D01*
X171190869Y-75952794D01*
X171191066Y-76138655D01*
X171191213Y-76343417D01*
X171191318Y-76567998D01*
X171191389Y-76813318D01*
X171191432Y-77080296D01*
X171191437Y-77118679D01*
X171191480Y-77384078D01*
X171191525Y-77627950D01*
X171191548Y-77851217D01*
X171191524Y-78054804D01*
X171191430Y-78239633D01*
X171191243Y-78406627D01*
X171190939Y-78556710D01*
X171190494Y-78690804D01*
X171189885Y-78809834D01*
X171189089Y-78914721D01*
X171188080Y-79006390D01*
X171186837Y-79085763D01*
X171185335Y-79153763D01*
X171183551Y-79211314D01*
X171181461Y-79259338D01*
X171179042Y-79298760D01*
X171176270Y-79330501D01*
X171173121Y-79355486D01*
X171169572Y-79374636D01*
X171165598Y-79388877D01*
X171161178Y-79399129D01*
X171156286Y-79406318D01*
X171150900Y-79411365D01*
X171144996Y-79415195D01*
X171138549Y-79418729D01*
X171131537Y-79422892D01*
X171129687Y-79423975D01*
X171124180Y-79426187D01*
X171115868Y-79428214D01*
X171103809Y-79430062D01*
X171087063Y-79431739D01*
X171064687Y-79433255D01*
X171035740Y-79434617D01*
X170999280Y-79435833D01*
X170954367Y-79436911D01*
X170900057Y-79437860D01*
X170835410Y-79438688D01*
X170759484Y-79439403D01*
X170671338Y-79440013D01*
X170570029Y-79440526D01*
X170454617Y-79440950D01*
X170324160Y-79441294D01*
X170177716Y-79441566D01*
X170014344Y-79441773D01*
X169833101Y-79441924D01*
X169633048Y-79442028D01*
X169413241Y-79442092D01*
X169172739Y-79442124D01*
X168910602Y-79442133D01*
X166719031Y-79442133D01*
X166680649Y-79403751D01*
X166656911Y-79376645D01*
X166645111Y-79349747D01*
X166642267Y-79313440D01*
X166642267Y-79261511D01*
X166730206Y-79261511D01*
X166780102Y-79259573D01*
X166890523Y-79240801D01*
X166991987Y-79203783D01*
X167083152Y-79150631D01*
X167162673Y-79083454D01*
X167184249Y-79057805D01*
X168154978Y-79057805D01*
X169331845Y-79060880D01*
X170508711Y-79063955D01*
X170567622Y-79090593D01*
X170592183Y-79102515D01*
X170622434Y-79119754D01*
X170639560Y-79132926D01*
X170647591Y-79140924D01*
X170662493Y-79148622D01*
X170663765Y-79144740D01*
X170665791Y-79121480D01*
X170667626Y-79079126D01*
X170669227Y-79019868D01*
X170670549Y-78945893D01*
X170671548Y-78859390D01*
X170672180Y-78762548D01*
X170672400Y-78657555D01*
X170672349Y-78588644D01*
X170672091Y-78490393D01*
X170671637Y-78400970D01*
X170671010Y-78322667D01*
X170670235Y-78257777D01*
X170669335Y-78208589D01*
X170668334Y-78177396D01*
X170667257Y-78166489D01*
X170664037Y-78167678D01*
X170646452Y-78177824D01*
X170620158Y-78194960D01*
X170607691Y-78203460D01*
X170593622Y-78212671D01*
X170579351Y-78220767D01*
X170563479Y-78227815D01*
X170544609Y-78233883D01*
X170521341Y-78239039D01*
X170492278Y-78243349D01*
X170456021Y-78246881D01*
X170411170Y-78249703D01*
X170356328Y-78251882D01*
X170290097Y-78253486D01*
X170211077Y-78254581D01*
X170117871Y-78255235D01*
X170009079Y-78255516D01*
X169883303Y-78255491D01*
X169739145Y-78255228D01*
X169575207Y-78254794D01*
X169390089Y-78254255D01*
X169211232Y-78253721D01*
X169052374Y-78253195D01*
X168913316Y-78252650D01*
X168792665Y-78252055D01*
X168689028Y-78251381D01*
X168601011Y-78250597D01*
X168527223Y-78249674D01*
X168466269Y-78248581D01*
X168416757Y-78247288D01*
X168377293Y-78245765D01*
X168346484Y-78243981D01*
X168322938Y-78241908D01*
X168305260Y-78239514D01*
X168292059Y-78236770D01*
X168281940Y-78233644D01*
X168273511Y-78230108D01*
X168265375Y-78226209D01*
X168228544Y-78206562D01*
X168198391Y-78187775D01*
X168196908Y-78186728D01*
X168174659Y-78172398D01*
X168161702Y-78166489D01*
X168161249Y-78167496D01*
X168159803Y-78184695D01*
X168158480Y-78221344D01*
X168157316Y-78275038D01*
X168156347Y-78343370D01*
X168155611Y-78423936D01*
X168155142Y-78514330D01*
X168154978Y-78612147D01*
X168154978Y-79057805D01*
X167184249Y-79057805D01*
X167229205Y-79004362D01*
X167281406Y-78915466D01*
X167317930Y-78818875D01*
X167337434Y-78716700D01*
X167338573Y-78611050D01*
X167320005Y-78504036D01*
X167280384Y-78397768D01*
X167222516Y-78300781D01*
X167147684Y-78215707D01*
X167059615Y-78146985D01*
X166960616Y-78096082D01*
X166852993Y-78064465D01*
X166739054Y-78053600D01*
X166642267Y-78053600D01*
X166642267Y-76433247D01*
X166642280Y-76222103D01*
X166642330Y-76017980D01*
X166642430Y-75834314D01*
X166642592Y-75670009D01*
X166642829Y-75523971D01*
X166643153Y-75395106D01*
X166643575Y-75282317D01*
X166644109Y-75184512D01*
X166644767Y-75100596D01*
X166645561Y-75029473D01*
X166645588Y-75027803D01*
X167251867Y-75027803D01*
X167251867Y-76087686D01*
X167314966Y-76049689D01*
X167340005Y-76035007D01*
X167367586Y-76020469D01*
X167395700Y-76008373D01*
X167426551Y-75998468D01*
X167462344Y-75990506D01*
X167505283Y-75984239D01*
X167557574Y-75979418D01*
X167621419Y-75975794D01*
X167699025Y-75973119D01*
X167792594Y-75971143D01*
X167904333Y-75969618D01*
X168036445Y-75968296D01*
X168156434Y-75967387D01*
X168273063Y-75966980D01*
X168368531Y-75967233D01*
X168442556Y-75968143D01*
X168494855Y-75969707D01*
X168525149Y-75971921D01*
X168533156Y-75974780D01*
X168529858Y-75977839D01*
X168508408Y-75995994D01*
X168471889Y-76025725D01*
X168422442Y-76065361D01*
X168362207Y-76113229D01*
X168293327Y-76167657D01*
X168217943Y-76226973D01*
X168138196Y-76289505D01*
X168056228Y-76353579D01*
X167974180Y-76417525D01*
X167894194Y-76479669D01*
X167818411Y-76538339D01*
X167748973Y-76591863D01*
X167688021Y-76638570D01*
X167637696Y-76676786D01*
X167600140Y-76704839D01*
X167577495Y-76721057D01*
X167505212Y-76766365D01*
X167425463Y-76806339D01*
X167357188Y-76827870D01*
X167299844Y-76831173D01*
X167251867Y-76825884D01*
X167252117Y-77957644D01*
X167282722Y-77918133D01*
X167290089Y-77908752D01*
X167344438Y-77845817D01*
X167412259Y-77777003D01*
X167495516Y-77700404D01*
X167596178Y-77614112D01*
X167616847Y-77596948D01*
X167666409Y-77556167D01*
X167727326Y-77506412D01*
X167797898Y-77449045D01*
X167876424Y-77385431D01*
X167961204Y-77316931D01*
X168050537Y-77244910D01*
X168142722Y-77170730D01*
X168161702Y-77155483D01*
X168236060Y-77095754D01*
X168328848Y-77021347D01*
X168419388Y-76948869D01*
X168505978Y-76879686D01*
X168586918Y-76815159D01*
X168660506Y-76756653D01*
X168725044Y-76705530D01*
X168778829Y-76663153D01*
X168820162Y-76630885D01*
X168847342Y-76610090D01*
X168858668Y-76602131D01*
X168862771Y-76603889D01*
X168883334Y-76616770D01*
X168919561Y-76641115D01*
X168969824Y-76675753D01*
X169032492Y-76719514D01*
X169105936Y-76771225D01*
X169188527Y-76829716D01*
X169278636Y-76893816D01*
X169374631Y-76962354D01*
X169474885Y-77034157D01*
X169577768Y-77108056D01*
X169681650Y-77182879D01*
X169784901Y-77257455D01*
X169885892Y-77330613D01*
X169982994Y-77401181D01*
X170074577Y-77467989D01*
X170159011Y-77529865D01*
X170234667Y-77585639D01*
X170299916Y-77634138D01*
X170353128Y-77674193D01*
X170392673Y-77704631D01*
X170418026Y-77725056D01*
X170472295Y-77771101D01*
X170528775Y-77821388D01*
X170578669Y-77868185D01*
X170672400Y-77959349D01*
X170672400Y-76804910D01*
X170596200Y-76805544D01*
X170554160Y-76804426D01*
X170518334Y-76798696D01*
X170480772Y-76786110D01*
X170432577Y-76764432D01*
X170425897Y-76761211D01*
X170376359Y-76735812D01*
X170328369Y-76709004D01*
X170291466Y-76686083D01*
X170284834Y-76681515D01*
X170253593Y-76659484D01*
X170208654Y-76627307D01*
X170152147Y-76586543D01*
X170086204Y-76538755D01*
X170012957Y-76485502D01*
X169934536Y-76428345D01*
X169853072Y-76368845D01*
X169770698Y-76308563D01*
X169689544Y-76249060D01*
X169611742Y-76191895D01*
X169539423Y-76138630D01*
X169474718Y-76090826D01*
X169419759Y-76050043D01*
X169376676Y-76017842D01*
X169347602Y-75995784D01*
X169334667Y-75985429D01*
X169330351Y-75980956D01*
X169328312Y-75976764D01*
X169330926Y-75973357D01*
X169339986Y-75970675D01*
X169357285Y-75968659D01*
X169384614Y-75967252D01*
X169423765Y-75966395D01*
X169476533Y-75966030D01*
X169544707Y-75966097D01*
X169630082Y-75966540D01*
X169734449Y-75967298D01*
X169859600Y-75968315D01*
X169904300Y-75968692D01*
X170025395Y-75969831D01*
X170126688Y-75971028D01*
X170210262Y-75972364D01*
X170278204Y-75973923D01*
X170332599Y-75975785D01*
X170375532Y-75978034D01*
X170409089Y-75980752D01*
X170435355Y-75984021D01*
X170456416Y-75987922D01*
X170474357Y-75992539D01*
X170500770Y-76000808D01*
X170562772Y-76024417D01*
X170615573Y-76050315D01*
X170652645Y-76075465D01*
X170654075Y-76076661D01*
X170658424Y-76078832D01*
X170662026Y-76076672D01*
X170664951Y-76068356D01*
X170667269Y-76052060D01*
X170669051Y-76025959D01*
X170670367Y-75988229D01*
X170671286Y-75937044D01*
X170671878Y-75870580D01*
X170672215Y-75787013D01*
X170672365Y-75684517D01*
X170672400Y-75561268D01*
X170672400Y-75029704D01*
X170614783Y-75068477D01*
X170605893Y-75074568D01*
X170591069Y-75085024D01*
X170577422Y-75094421D01*
X170563765Y-75102817D01*
X170548911Y-75110267D01*
X170531670Y-75116827D01*
X170510855Y-75122554D01*
X170485280Y-75127505D01*
X170453755Y-75131734D01*
X170415093Y-75135299D01*
X170368107Y-75138256D01*
X170311608Y-75140660D01*
X170244409Y-75142569D01*
X170165322Y-75144038D01*
X170073160Y-75145124D01*
X169966734Y-75145882D01*
X169844857Y-75146370D01*
X169706341Y-75146642D01*
X169549999Y-75146757D01*
X169374642Y-75146769D01*
X169179082Y-75146735D01*
X168962133Y-75146711D01*
X168839513Y-75146720D01*
X168634447Y-75146757D01*
X168450116Y-75146773D01*
X168285334Y-75146712D01*
X168138916Y-75146516D01*
X168009674Y-75146130D01*
X167896422Y-75145495D01*
X167797975Y-75144556D01*
X167713144Y-75143255D01*
X167640744Y-75141536D01*
X167579589Y-75139341D01*
X167528492Y-75136615D01*
X167486267Y-75133299D01*
X167451727Y-75129338D01*
X167423686Y-75124675D01*
X167400958Y-75119253D01*
X167382356Y-75113014D01*
X167366693Y-75105903D01*
X167352784Y-75097862D01*
X167339441Y-75088834D01*
X167325479Y-75078764D01*
X167309711Y-75067593D01*
X167251867Y-75027803D01*
X166645588Y-75027803D01*
X166646504Y-74970050D01*
X166647608Y-74921232D01*
X166648884Y-74881923D01*
X166650347Y-74851031D01*
X166652007Y-74827459D01*
X166653878Y-74810114D01*
X166655972Y-74797901D01*
X166658300Y-74789725D01*
X166660876Y-74784492D01*
X166664445Y-74778496D01*
X166667978Y-74771721D01*
X166671488Y-74765522D01*
X166675918Y-74759874D01*
X166682208Y-74754753D01*
X166691301Y-74750131D01*
X166704139Y-74745985D01*
X166721662Y-74742287D01*
X166744813Y-74739013D01*
X166774534Y-74736137D01*
X166811765Y-74733633D01*
X166857449Y-74731476D01*
X166912527Y-74729640D01*
X166977941Y-74728100D01*
X167054633Y-74726830D01*
X167143544Y-74725805D01*
X167245617Y-74724999D01*
X167251867Y-74724966D01*
X167361792Y-74724386D01*
X167493011Y-74723941D01*
X167640216Y-74723638D01*
X167804349Y-74723452D01*
X167986352Y-74723358D01*
X168187165Y-74723329D01*
X168407732Y-74723339D01*
X168648992Y-74723364D01*
X168911889Y-74723378D01*
X168954040Y-74723378D01*
X169214668Y-74723354D01*
X169453796Y-74723315D01*
X169672360Y-74723292D01*
X169871295Y-74723313D01*
G36*
X169871295Y-74723313D02*
G01*
X170051535Y-74723407D01*
X170214015Y-74723605D01*
X170359670Y-74723937D01*
X170489434Y-74724431D01*
X170604243Y-74725117D01*
X170705030Y-74726024D01*
X170792730Y-74727183D01*
X170868279Y-74728622D01*
X170932611Y-74730371D01*
X170986661Y-74732460D01*
X171031363Y-74734917D01*
X171067652Y-74737773D01*
X171096463Y-74741057D01*
X171118731Y-74744798D01*
X171135390Y-74749026D01*
X171147375Y-74753771D01*
X171155621Y-74759061D01*
X171161062Y-74764927D01*
X171164634Y-74771398D01*
X171167270Y-74778503D01*
X171169906Y-74786272D01*
X171173477Y-74794734D01*
X171175145Y-74799092D01*
X171177111Y-74807605D01*
X171178911Y-74820306D01*
X171180555Y-74838115D01*
X171182047Y-74861951D01*
X171183397Y-74892734D01*
X171184611Y-74931383D01*
X171185697Y-74978818D01*
X171186661Y-75035957D01*
X171187511Y-75103721D01*
X171188253Y-75183029D01*
X171188897Y-75274801D01*
X171189447Y-75379956D01*
X171189913Y-75499413D01*
X171190300Y-75634092D01*
X171190616Y-75784912D01*
X171190869Y-75952794D01*
X171191066Y-76138655D01*
X171191213Y-76343417D01*
X171191318Y-76567998D01*
X171191389Y-76813318D01*
X171191432Y-77080296D01*
X171191437Y-77118679D01*
X171191480Y-77384078D01*
X171191525Y-77627950D01*
X171191548Y-77851217D01*
X171191524Y-78054804D01*
X171191430Y-78239633D01*
X171191243Y-78406627D01*
X171190939Y-78556710D01*
X171190494Y-78690804D01*
X171189885Y-78809834D01*
X171189089Y-78914721D01*
X171188080Y-79006390D01*
X171186837Y-79085763D01*
X171185335Y-79153763D01*
X171183551Y-79211314D01*
X171181461Y-79259338D01*
X171179042Y-79298760D01*
X171176270Y-79330501D01*
X171173121Y-79355486D01*
X171169572Y-79374636D01*
X171165598Y-79388877D01*
X171161178Y-79399129D01*
X171156286Y-79406318D01*
X171150900Y-79411365D01*
X171144996Y-79415195D01*
X171138549Y-79418729D01*
X171131537Y-79422892D01*
X171129687Y-79423975D01*
X171124180Y-79426187D01*
X171115868Y-79428214D01*
X171103809Y-79430062D01*
X171087063Y-79431739D01*
X171064687Y-79433255D01*
X171035740Y-79434617D01*
X170999280Y-79435833D01*
X170954367Y-79436911D01*
X170900057Y-79437860D01*
X170835410Y-79438688D01*
X170759484Y-79439403D01*
X170671338Y-79440013D01*
X170570029Y-79440526D01*
X170454617Y-79440950D01*
X170324160Y-79441294D01*
X170177716Y-79441566D01*
X170014344Y-79441773D01*
X169833101Y-79441924D01*
X169633048Y-79442028D01*
X169413241Y-79442092D01*
X169172739Y-79442124D01*
X168910602Y-79442133D01*
X166719031Y-79442133D01*
X166680649Y-79403751D01*
X166656911Y-79376645D01*
X166645111Y-79349747D01*
X166642267Y-79313440D01*
X166642267Y-79261511D01*
X166730206Y-79261511D01*
X166780102Y-79259573D01*
X166890523Y-79240801D01*
X166991987Y-79203783D01*
X167083152Y-79150631D01*
X167162673Y-79083454D01*
X167184249Y-79057805D01*
X168154978Y-79057805D01*
X169331845Y-79060880D01*
X170508711Y-79063955D01*
X170567622Y-79090593D01*
X170592183Y-79102515D01*
X170622434Y-79119754D01*
X170639560Y-79132926D01*
X170647591Y-79140924D01*
X170662493Y-79148622D01*
X170663765Y-79144740D01*
X170665791Y-79121480D01*
X170667626Y-79079126D01*
X170669227Y-79019868D01*
X170670549Y-78945893D01*
X170671548Y-78859390D01*
X170672180Y-78762548D01*
X170672400Y-78657555D01*
X170672349Y-78588644D01*
X170672091Y-78490393D01*
X170671637Y-78400970D01*
X170671010Y-78322667D01*
X170670235Y-78257777D01*
X170669335Y-78208589D01*
X170668334Y-78177396D01*
X170667257Y-78166489D01*
X170664037Y-78167678D01*
X170646452Y-78177824D01*
X170620158Y-78194960D01*
X170607691Y-78203460D01*
X170593622Y-78212671D01*
X170579351Y-78220767D01*
X170563479Y-78227815D01*
X170544609Y-78233883D01*
X170521341Y-78239039D01*
X170492278Y-78243349D01*
X170456021Y-78246881D01*
X170411170Y-78249703D01*
X170356328Y-78251882D01*
X170290097Y-78253486D01*
X170211077Y-78254581D01*
X170117871Y-78255235D01*
X170009079Y-78255516D01*
X169883303Y-78255491D01*
X169739145Y-78255228D01*
X169575207Y-78254794D01*
X169390089Y-78254255D01*
X169211232Y-78253721D01*
X169052374Y-78253195D01*
X168913316Y-78252650D01*
X168792665Y-78252055D01*
X168689028Y-78251381D01*
X168601011Y-78250597D01*
X168527223Y-78249674D01*
X168466269Y-78248581D01*
X168416757Y-78247288D01*
X168377293Y-78245765D01*
X168346484Y-78243981D01*
X168322938Y-78241908D01*
X168305260Y-78239514D01*
X168292059Y-78236770D01*
X168281940Y-78233644D01*
X168273511Y-78230108D01*
X168265375Y-78226209D01*
X168228544Y-78206562D01*
X168198391Y-78187775D01*
X168196908Y-78186728D01*
X168174659Y-78172398D01*
X168161702Y-78166489D01*
X168161249Y-78167496D01*
X168159803Y-78184695D01*
X168158480Y-78221344D01*
X168157316Y-78275038D01*
X168156347Y-78343370D01*
X168155611Y-78423936D01*
X168155142Y-78514330D01*
X168154978Y-78612147D01*
X168154978Y-79057805D01*
X167184249Y-79057805D01*
X167229205Y-79004362D01*
X167281406Y-78915466D01*
X167317930Y-78818875D01*
X167337434Y-78716700D01*
X167338573Y-78611050D01*
X167320005Y-78504036D01*
X167280384Y-78397768D01*
X167222516Y-78300781D01*
X167147684Y-78215707D01*
X167059615Y-78146985D01*
X166960616Y-78096082D01*
X166852993Y-78064465D01*
X166739054Y-78053600D01*
X166642267Y-78053600D01*
X166642267Y-76433247D01*
X166642280Y-76222103D01*
X166642330Y-76017980D01*
X166642430Y-75834314D01*
X166642592Y-75670009D01*
X166642829Y-75523971D01*
X166643153Y-75395106D01*
X166643575Y-75282317D01*
X166644109Y-75184512D01*
X166644767Y-75100596D01*
X166645561Y-75029473D01*
X166645588Y-75027803D01*
X167251867Y-75027803D01*
X167251867Y-76087686D01*
X167314966Y-76049689D01*
X167340005Y-76035007D01*
X167367586Y-76020469D01*
X167395700Y-76008373D01*
X167426551Y-75998468D01*
X167462344Y-75990506D01*
X167505283Y-75984239D01*
X167557574Y-75979418D01*
X167621419Y-75975794D01*
X167699025Y-75973119D01*
X167792594Y-75971143D01*
X167904333Y-75969618D01*
X168036445Y-75968296D01*
X168156434Y-75967387D01*
X168273063Y-75966980D01*
X168368531Y-75967233D01*
X168442556Y-75968143D01*
X168494855Y-75969707D01*
X168525149Y-75971921D01*
X168533156Y-75974780D01*
X168529858Y-75977839D01*
X168508408Y-75995994D01*
X168471889Y-76025725D01*
X168422442Y-76065361D01*
X168362207Y-76113229D01*
X168293327Y-76167657D01*
X168217943Y-76226973D01*
X168138196Y-76289505D01*
X168056228Y-76353579D01*
X167974180Y-76417525D01*
X167894194Y-76479669D01*
X167818411Y-76538339D01*
X167748973Y-76591863D01*
X167688021Y-76638570D01*
X167637696Y-76676786D01*
X167600140Y-76704839D01*
X167577495Y-76721057D01*
X167505212Y-76766365D01*
X167425463Y-76806339D01*
X167357188Y-76827870D01*
X167299844Y-76831173D01*
X167251867Y-76825884D01*
X167252117Y-77957644D01*
X167282722Y-77918133D01*
X167290089Y-77908752D01*
X167344438Y-77845817D01*
X167412259Y-77777003D01*
X167495516Y-77700404D01*
X167596178Y-77614112D01*
X167616847Y-77596948D01*
X167666409Y-77556167D01*
X167727326Y-77506412D01*
X167797898Y-77449045D01*
X167876424Y-77385431D01*
X167961204Y-77316931D01*
X168050537Y-77244910D01*
X168142722Y-77170730D01*
X168161702Y-77155483D01*
X168236060Y-77095754D01*
X168328848Y-77021347D01*
X168419388Y-76948869D01*
X168505978Y-76879686D01*
X168586918Y-76815159D01*
X168660506Y-76756653D01*
X168725044Y-76705530D01*
X168778829Y-76663153D01*
X168820162Y-76630885D01*
X168847342Y-76610090D01*
X168858668Y-76602131D01*
X168862771Y-76603889D01*
X168883334Y-76616770D01*
X168919561Y-76641115D01*
X168969824Y-76675753D01*
X169032492Y-76719514D01*
X169105936Y-76771225D01*
X169188527Y-76829716D01*
X169278636Y-76893816D01*
X169374631Y-76962354D01*
X169474885Y-77034157D01*
X169577768Y-77108056D01*
X169681650Y-77182879D01*
X169784901Y-77257455D01*
X169885892Y-77330613D01*
X169982994Y-77401181D01*
X170074577Y-77467989D01*
X170159011Y-77529865D01*
X170234667Y-77585639D01*
X170299916Y-77634138D01*
X170353128Y-77674193D01*
X170392673Y-77704631D01*
X170418026Y-77725056D01*
X170472295Y-77771101D01*
X170528775Y-77821388D01*
X170578669Y-77868185D01*
X170672400Y-77959349D01*
X170672400Y-76804910D01*
X170596200Y-76805544D01*
X170554160Y-76804426D01*
X170518334Y-76798696D01*
X170480772Y-76786110D01*
X170432577Y-76764432D01*
X170425897Y-76761211D01*
X170376359Y-76735812D01*
X170328369Y-76709004D01*
X170291466Y-76686083D01*
X170284834Y-76681515D01*
X170253593Y-76659484D01*
X170208654Y-76627307D01*
X170152147Y-76586543D01*
X170086204Y-76538755D01*
X170012957Y-76485502D01*
X169934536Y-76428345D01*
X169853072Y-76368845D01*
X169770698Y-76308563D01*
X169689544Y-76249060D01*
X169611742Y-76191895D01*
X169539423Y-76138630D01*
X169474718Y-76090826D01*
X169419759Y-76050043D01*
X169376676Y-76017842D01*
X169347602Y-75995784D01*
X169334667Y-75985429D01*
X169330351Y-75980956D01*
X169328312Y-75976764D01*
X169330926Y-75973357D01*
X169339986Y-75970675D01*
X169357285Y-75968659D01*
X169384614Y-75967252D01*
X169423765Y-75966395D01*
X169476533Y-75966030D01*
X169544707Y-75966097D01*
X169630082Y-75966540D01*
X169734449Y-75967298D01*
X169859600Y-75968315D01*
X169904300Y-75968692D01*
X170025395Y-75969831D01*
X170126688Y-75971028D01*
X170210262Y-75972364D01*
X170278204Y-75973923D01*
X170332599Y-75975785D01*
X170375532Y-75978034D01*
X170409089Y-75980752D01*
X170435355Y-75984021D01*
X170456416Y-75987922D01*
X170474357Y-75992539D01*
X170500770Y-76000808D01*
X170562772Y-76024417D01*
X170615573Y-76050315D01*
X170652645Y-76075465D01*
X170654075Y-76076661D01*
X170658424Y-76078832D01*
X170662026Y-76076672D01*
X170664951Y-76068356D01*
X170667269Y-76052060D01*
X170669051Y-76025959D01*
X170670367Y-75988229D01*
X170671286Y-75937044D01*
X170671878Y-75870580D01*
X170672215Y-75787013D01*
X170672365Y-75684517D01*
X170672400Y-75561268D01*
X170672400Y-75029704D01*
X170614783Y-75068477D01*
X170605893Y-75074568D01*
X170591069Y-75085024D01*
X170577422Y-75094421D01*
X170563765Y-75102817D01*
X170548911Y-75110267D01*
X170531670Y-75116827D01*
X170510855Y-75122554D01*
X170485280Y-75127505D01*
X170453755Y-75131734D01*
X170415093Y-75135299D01*
X170368107Y-75138256D01*
X170311608Y-75140660D01*
X170244409Y-75142569D01*
X170165322Y-75144038D01*
X170073160Y-75145124D01*
X169966734Y-75145882D01*
X169844857Y-75146370D01*
X169706341Y-75146642D01*
X169549999Y-75146757D01*
X169374642Y-75146769D01*
X169179082Y-75146735D01*
X168962133Y-75146711D01*
X168839513Y-75146720D01*
X168634447Y-75146757D01*
X168450116Y-75146773D01*
X168285334Y-75146712D01*
X168138916Y-75146516D01*
X168009674Y-75146130D01*
X167896422Y-75145495D01*
X167797975Y-75144556D01*
X167713144Y-75143255D01*
X167640744Y-75141536D01*
X167579589Y-75139341D01*
X167528492Y-75136615D01*
X167486267Y-75133299D01*
X167451727Y-75129338D01*
X167423686Y-75124675D01*
X167400958Y-75119253D01*
X167382356Y-75113014D01*
X167366693Y-75105903D01*
X167352784Y-75097862D01*
X167339441Y-75088834D01*
X167325479Y-75078764D01*
X167309711Y-75067593D01*
X167251867Y-75027803D01*
X166645588Y-75027803D01*
X166646504Y-74970050D01*
X166647608Y-74921232D01*
X166648884Y-74881923D01*
X166650347Y-74851031D01*
X166652007Y-74827459D01*
X166653878Y-74810114D01*
X166655972Y-74797901D01*
X166658300Y-74789725D01*
X166660876Y-74784492D01*
X166664445Y-74778496D01*
X166667978Y-74771721D01*
X166671488Y-74765522D01*
X166675918Y-74759874D01*
X166682208Y-74754753D01*
X166691301Y-74750131D01*
X166704139Y-74745985D01*
X166721662Y-74742287D01*
X166744813Y-74739013D01*
X166774534Y-74736137D01*
X166811765Y-74733633D01*
X166857449Y-74731476D01*
X166912527Y-74729640D01*
X166977941Y-74728100D01*
X167054633Y-74726830D01*
X167143544Y-74725805D01*
X167245617Y-74724999D01*
X167251867Y-74724966D01*
X167361792Y-74724386D01*
X167493011Y-74723941D01*
X167640216Y-74723638D01*
X167804349Y-74723452D01*
X167986352Y-74723358D01*
X168187165Y-74723329D01*
X168407732Y-74723339D01*
X168648992Y-74723364D01*
X168911889Y-74723378D01*
X168954040Y-74723378D01*
X169214668Y-74723354D01*
X169453796Y-74723315D01*
X169672360Y-74723292D01*
X169871295Y-74723313D01*
G37*
X166784307Y-78195331D02*
X166825450Y-78197540D01*
X166857582Y-78203106D01*
X166888122Y-78213414D01*
X166924489Y-78229852D01*
X166951728Y-78243800D01*
X167037429Y-78302335D01*
X167106617Y-78374381D01*
X167157741Y-78458053D01*
X167189250Y-78551469D01*
X167196225Y-78584566D01*
X167203094Y-78625040D01*
X167204919Y-78658001D01*
X167201947Y-78692302D01*
X167194426Y-78736800D01*
X167182002Y-78788066D01*
X167144112Y-78878566D01*
X167089836Y-78957655D01*
X167021770Y-79023472D01*
X166942511Y-79074160D01*
X166854654Y-79107860D01*
X166760795Y-79122714D01*
X166663530Y-79116864D01*
X166567220Y-79090601D01*
X166478494Y-79045582D01*
X166403419Y-78984627D01*
X166343641Y-78909816D01*
X166300809Y-78823232D01*
X166276571Y-78726957D01*
X166272576Y-78623072D01*
X166282850Y-78545438D01*
X166310053Y-78462687D01*
X166355484Y-78387594D01*
X166421302Y-78315702D01*
X166465567Y-78277154D01*
X166523961Y-78237744D01*
X166584586Y-78212554D01*
X166653865Y-78199139D01*
X166738222Y-78195052D01*
X166784307Y-78195331D01*
G36*
X166784307Y-78195331D02*
G01*
X166825450Y-78197540D01*
X166857582Y-78203106D01*
X166888122Y-78213414D01*
X166924489Y-78229852D01*
X166951728Y-78243800D01*
X167037429Y-78302335D01*
X167106617Y-78374381D01*
X167157741Y-78458053D01*
X167189250Y-78551469D01*
X167196225Y-78584566D01*
X167203094Y-78625040D01*
X167204919Y-78658001D01*
X167201947Y-78692302D01*
X167194426Y-78736800D01*
X167182002Y-78788066D01*
X167144112Y-78878566D01*
X167089836Y-78957655D01*
X167021770Y-79023472D01*
X166942511Y-79074160D01*
X166854654Y-79107860D01*
X166760795Y-79122714D01*
X166663530Y-79116864D01*
X166567220Y-79090601D01*
X166478494Y-79045582D01*
X166403419Y-78984627D01*
X166343641Y-78909816D01*
X166300809Y-78823232D01*
X166276571Y-78726957D01*
X166272576Y-78623072D01*
X166282850Y-78545438D01*
X166310053Y-78462687D01*
X166355484Y-78387594D01*
X166421302Y-78315702D01*
X166465567Y-78277154D01*
X166523961Y-78237744D01*
X166584586Y-78212554D01*
X166653865Y-78199139D01*
X166738222Y-78195052D01*
X166784307Y-78195331D01*
G37*
X171944486Y-79611489D02*
X172023573Y-79611708D01*
X172084516Y-79612317D01*
X172130062Y-79613508D01*
X172162963Y-79615471D01*
X172185968Y-79618397D01*
X172201826Y-79622477D01*
X172213286Y-79627903D01*
X172223100Y-79634864D01*
X172247493Y-79665292D01*
X172250372Y-79700235D01*
X172231282Y-79737216D01*
X172227807Y-79741400D01*
X172219279Y-79749576D01*
X172207728Y-79755636D01*
X172189896Y-79760019D01*
X172162524Y-79763161D01*
X172122354Y-79765498D01*
X172066128Y-79767469D01*
X171990589Y-79769511D01*
X171771458Y-79775155D01*
X172012099Y-80040444D01*
X172078875Y-80114278D01*
X172136991Y-80179458D01*
X172181949Y-80231652D01*
X172214871Y-80272727D01*
X172236879Y-80304545D01*
X172249094Y-80328974D01*
X172252639Y-80347876D01*
X172248636Y-80363117D01*
X172238207Y-80376561D01*
X172222474Y-80390073D01*
X172213991Y-80396318D01*
X172203413Y-80401950D01*
X172189255Y-80406161D01*
X172168803Y-80409113D01*
X172139342Y-80410968D01*
X172098161Y-80411887D01*
X172042544Y-80412032D01*
X171969779Y-80411565D01*
X171877151Y-80410648D01*
X171562199Y-80407333D01*
X171540633Y-80380682D01*
X171524441Y-80354617D01*
X171521670Y-80321759D01*
X171540623Y-80287228D01*
X171544208Y-80282916D01*
X171552737Y-80274784D01*
X171564329Y-80268755D01*
X171582235Y-80264394D01*
X171609706Y-80261266D01*
X171649994Y-80258937D01*
X171706351Y-80256971D01*
X171782029Y-80254933D01*
X172001878Y-80249289D01*
X171838084Y-80068666D01*
X171759451Y-79981928D01*
X171691058Y-79906157D01*
X171635708Y-79844020D01*
X171592338Y-79793922D01*
X171559881Y-79754265D01*
X171537273Y-79723452D01*
X171523448Y-79699886D01*
X171517343Y-79681970D01*
X171517892Y-79668107D01*
X171524029Y-79656699D01*
X171534691Y-79646150D01*
X171548811Y-79634864D01*
X171554772Y-79630411D01*
X171565268Y-79624412D01*
X171579093Y-79619833D01*
X171598998Y-79616481D01*
X171627732Y-79614167D01*
X171668045Y-79612699D01*
X171722687Y-79611887D01*
X171794407Y-79611540D01*
X171885956Y-79611466D01*
X171944486Y-79611489D01*
G36*
X171944486Y-79611489D02*
G01*
X172023573Y-79611708D01*
X172084516Y-79612317D01*
X172130062Y-79613508D01*
X172162963Y-79615471D01*
X172185968Y-79618397D01*
X172201826Y-79622477D01*
X172213286Y-79627903D01*
X172223100Y-79634864D01*
X172247493Y-79665292D01*
X172250372Y-79700235D01*
X172231282Y-79737216D01*
X172227807Y-79741400D01*
X172219279Y-79749576D01*
X172207728Y-79755636D01*
X172189896Y-79760019D01*
X172162524Y-79763161D01*
X172122354Y-79765498D01*
X172066128Y-79767469D01*
X171990589Y-79769511D01*
X171771458Y-79775155D01*
X172012099Y-80040444D01*
X172078875Y-80114278D01*
X172136991Y-80179458D01*
X172181949Y-80231652D01*
X172214871Y-80272727D01*
X172236879Y-80304545D01*
X172249094Y-80328974D01*
X172252639Y-80347876D01*
X172248636Y-80363117D01*
X172238207Y-80376561D01*
X172222474Y-80390073D01*
X172213991Y-80396318D01*
X172203413Y-80401950D01*
X172189255Y-80406161D01*
X172168803Y-80409113D01*
X172139342Y-80410968D01*
X172098161Y-80411887D01*
X172042544Y-80412032D01*
X171969779Y-80411565D01*
X171877151Y-80410648D01*
X171562199Y-80407333D01*
X171540633Y-80380682D01*
X171524441Y-80354617D01*
X171521670Y-80321759D01*
X171540623Y-80287228D01*
X171544208Y-80282916D01*
X171552737Y-80274784D01*
X171564329Y-80268755D01*
X171582235Y-80264394D01*
X171609706Y-80261266D01*
X171649994Y-80258937D01*
X171706351Y-80256971D01*
X171782029Y-80254933D01*
X172001878Y-80249289D01*
X171838084Y-80068666D01*
X171759451Y-79981928D01*
X171691058Y-79906157D01*
X171635708Y-79844020D01*
X171592338Y-79793922D01*
X171559881Y-79754265D01*
X171537273Y-79723452D01*
X171523448Y-79699886D01*
X171517343Y-79681970D01*
X171517892Y-79668107D01*
X171524029Y-79656699D01*
X171534691Y-79646150D01*
X171548811Y-79634864D01*
X171554772Y-79630411D01*
X171565268Y-79624412D01*
X171579093Y-79619833D01*
X171598998Y-79616481D01*
X171627732Y-79614167D01*
X171668045Y-79612699D01*
X171722687Y-79611887D01*
X171794407Y-79611540D01*
X171885956Y-79611466D01*
X171944486Y-79611489D01*
G37*
X171960713Y-75852303D02*
X172038889Y-75852552D01*
X172099103Y-75853188D01*
X172143982Y-75854385D01*
X172176152Y-75856316D01*
X172198239Y-75859154D01*
X172212870Y-75863073D01*
X172222670Y-75868245D01*
X172230267Y-75874844D01*
X172233444Y-75878178D01*
X172239554Y-75886700D01*
X172244229Y-75898702D01*
X172247659Y-75916913D01*
X172250036Y-75944060D01*
X172251552Y-75982871D01*
X172252398Y-76036076D01*
X172252765Y-76106402D01*
X172252845Y-76196578D01*
X172252833Y-76238686D01*
X172252651Y-76319833D01*
X172252098Y-76382325D01*
X172250982Y-76428891D01*
X172249113Y-76462259D01*
X172246298Y-76485156D01*
X172242346Y-76500312D01*
X172237066Y-76510454D01*
X172230267Y-76518311D01*
X172208667Y-76533037D01*
X172179467Y-76540889D01*
X172155560Y-76535390D01*
X172128667Y-76518311D01*
X172124059Y-76513332D01*
X172117772Y-76503557D01*
X172113146Y-76489441D01*
X172109930Y-76467946D01*
X172107870Y-76436032D01*
X172106712Y-76390658D01*
X172106202Y-76328787D01*
X172106089Y-76247378D01*
X172106089Y-75999022D01*
X171948045Y-75999022D01*
X171948045Y-76160199D01*
X171947899Y-76196017D01*
X171946176Y-76261641D01*
X171941741Y-76308882D01*
X171933637Y-76340617D01*
X171920906Y-76359723D01*
X171902592Y-76369077D01*
X171877738Y-76371555D01*
X171857482Y-76370758D01*
X171835656Y-76365506D01*
X171820304Y-76352712D01*
X171810309Y-76329372D01*
X171804553Y-76292483D01*
X171801919Y-76239041D01*
X171801289Y-76166042D01*
X171801289Y-75997895D01*
X171736378Y-76001281D01*
X171671467Y-76004666D01*
X171668418Y-76252383D01*
X171667539Y-76314974D01*
X171666095Y-76383435D01*
X171664164Y-76434339D01*
X171661514Y-76470592D01*
X171657910Y-76495099D01*
X171653121Y-76510765D01*
X171646913Y-76520494D01*
X171640510Y-76526509D01*
X171608828Y-76539518D01*
X171573142Y-76535957D01*
X171542084Y-76516182D01*
X171539161Y-76512931D01*
X171532810Y-76503951D01*
X171527957Y-76491847D01*
X171524403Y-76473841D01*
X171521946Y-76447153D01*
X171520385Y-76409003D01*
X171519518Y-76356614D01*
X171519146Y-76287206D01*
X171519067Y-76197999D01*
X171519083Y-76143266D01*
X171519275Y-76066169D01*
X171519860Y-76007223D01*
X171521051Y-75963636D01*
X171523064Y-75932617D01*
X171526112Y-75911375D01*
X171530409Y-75897118D01*
X171536172Y-75887055D01*
X171543612Y-75878394D01*
X171545293Y-75876609D01*
X171552832Y-75869365D01*
X171561850Y-75863723D01*
X171574984Y-75859483D01*
X171594872Y-75856444D01*
X171624151Y-75854406D01*
X171665458Y-75853170D01*
X171721431Y-75852535D01*
X171794707Y-75852300D01*
X171887923Y-75852266D01*
X171960713Y-75852303D01*
G36*
X171960713Y-75852303D02*
G01*
X172038889Y-75852552D01*
X172099103Y-75853188D01*
X172143982Y-75854385D01*
X172176152Y-75856316D01*
X172198239Y-75859154D01*
X172212870Y-75863073D01*
X172222670Y-75868245D01*
X172230267Y-75874844D01*
X172233444Y-75878178D01*
X172239554Y-75886700D01*
X172244229Y-75898702D01*
X172247659Y-75916913D01*
X172250036Y-75944060D01*
X172251552Y-75982871D01*
X172252398Y-76036076D01*
X172252765Y-76106402D01*
X172252845Y-76196578D01*
X172252833Y-76238686D01*
X172252651Y-76319833D01*
X172252098Y-76382325D01*
X172250982Y-76428891D01*
X172249113Y-76462259D01*
X172246298Y-76485156D01*
X172242346Y-76500312D01*
X172237066Y-76510454D01*
X172230267Y-76518311D01*
X172208667Y-76533037D01*
X172179467Y-76540889D01*
X172155560Y-76535390D01*
X172128667Y-76518311D01*
X172124059Y-76513332D01*
X172117772Y-76503557D01*
X172113146Y-76489441D01*
X172109930Y-76467946D01*
X172107870Y-76436032D01*
X172106712Y-76390658D01*
X172106202Y-76328787D01*
X172106089Y-76247378D01*
X172106089Y-75999022D01*
X171948045Y-75999022D01*
X171948045Y-76160199D01*
X171947899Y-76196017D01*
X171946176Y-76261641D01*
X171941741Y-76308882D01*
X171933637Y-76340617D01*
X171920906Y-76359723D01*
X171902592Y-76369077D01*
X171877738Y-76371555D01*
X171857482Y-76370758D01*
X171835656Y-76365506D01*
X171820304Y-76352712D01*
X171810309Y-76329372D01*
X171804553Y-76292483D01*
X171801919Y-76239041D01*
X171801289Y-76166042D01*
X171801289Y-75997895D01*
X171736378Y-76001281D01*
X171671467Y-76004666D01*
X171668418Y-76252383D01*
X171667539Y-76314974D01*
X171666095Y-76383435D01*
X171664164Y-76434339D01*
X171661514Y-76470592D01*
X171657910Y-76495099D01*
X171653121Y-76510765D01*
X171646913Y-76520494D01*
X171640510Y-76526509D01*
X171608828Y-76539518D01*
X171573142Y-76535957D01*
X171542084Y-76516182D01*
X171539161Y-76512931D01*
X171532810Y-76503951D01*
X171527957Y-76491847D01*
X171524403Y-76473841D01*
X171521946Y-76447153D01*
X171520385Y-76409003D01*
X171519518Y-76356614D01*
X171519146Y-76287206D01*
X171519067Y-76197999D01*
X171519083Y-76143266D01*
X171519275Y-76066169D01*
X171519860Y-76007223D01*
X171521051Y-75963636D01*
X171523064Y-75932617D01*
X171526112Y-75911375D01*
X171530409Y-75897118D01*
X171536172Y-75887055D01*
X171543612Y-75878394D01*
X171545293Y-75876609D01*
X171552832Y-75869365D01*
X171561850Y-75863723D01*
X171574984Y-75859483D01*
X171594872Y-75856444D01*
X171624151Y-75854406D01*
X171665458Y-75853170D01*
X171721431Y-75852535D01*
X171794707Y-75852300D01*
X171887923Y-75852266D01*
X171960713Y-75852303D01*
G37*
X171956911Y-80796829D02*
X172035228Y-80797061D01*
X172095496Y-80797681D01*
X172140393Y-80798874D01*
X172172602Y-80800821D01*
X172194800Y-80803706D01*
X172209669Y-80807712D01*
X172219889Y-80813021D01*
X172228138Y-80819817D01*
X172232795Y-80824332D01*
X172239282Y-80832562D01*
X172244194Y-80843922D01*
X172247749Y-80861190D01*
X172250167Y-80887145D01*
X172251667Y-80924564D01*
X172252467Y-80976227D01*
X172252787Y-81044911D01*
X172252845Y-81133394D01*
X172252838Y-81153069D01*
X172252572Y-81240094D01*
X172251806Y-81307746D01*
X172250392Y-81358701D01*
X172248180Y-81395633D01*
X172245022Y-81421217D01*
X172240769Y-81438129D01*
X172235271Y-81449043D01*
X172225285Y-81459536D01*
X172194168Y-81472797D01*
X172158280Y-81471614D01*
X172126733Y-81455450D01*
X172124457Y-81453261D01*
X172118189Y-81444573D01*
X172113523Y-81431231D01*
X172110227Y-81410248D01*
X172108068Y-81378637D01*
X172106814Y-81333410D01*
X172106231Y-81271580D01*
X172106089Y-81190161D01*
X172106089Y-80943555D01*
X171948045Y-80943555D01*
X171948045Y-81105994D01*
X171947964Y-81141662D01*
X171947167Y-81197432D01*
X171945162Y-81236570D01*
X171941521Y-81263024D01*
X171935812Y-81280741D01*
X171927607Y-81293671D01*
X171924423Y-81297314D01*
X171893448Y-81315722D01*
X171857112Y-81316356D01*
X171823493Y-81298817D01*
X171823424Y-81298755D01*
X171814798Y-81289084D01*
X171808742Y-81275791D01*
X171804811Y-81255083D01*
X171802556Y-81223172D01*
X171801531Y-81176266D01*
X171801289Y-81110576D01*
X171801289Y-80942429D01*
X171736378Y-80945814D01*
X171671467Y-80949200D01*
X171668414Y-81191277D01*
X171668086Y-81216293D01*
X171666606Y-81297913D01*
X171664222Y-81360232D01*
X171660227Y-81405846D01*
X171653913Y-81437348D01*
X171644574Y-81457333D01*
X171631503Y-81468396D01*
X171613992Y-81473131D01*
X171591335Y-81474133D01*
X171588970Y-81474127D01*
X171568939Y-81472973D01*
X171553146Y-81468176D01*
X171541090Y-81457368D01*
X171532267Y-81438183D01*
X171526175Y-81408255D01*
X171522311Y-81365217D01*
X171520174Y-81306701D01*
X171519260Y-81230343D01*
X171519067Y-81133774D01*
X171519067Y-80843594D01*
X171548811Y-80820197D01*
X171555495Y-80815248D01*
X171566066Y-80809404D01*
X171580153Y-80804943D01*
X171600478Y-80801679D01*
X171629765Y-80799426D01*
X171670737Y-80797998D01*
X171726117Y-80797208D01*
X171798628Y-80796871D01*
X171890994Y-80796800D01*
X171956911Y-80796829D01*
G36*
X171956911Y-80796829D02*
G01*
X172035228Y-80797061D01*
X172095496Y-80797681D01*
X172140393Y-80798874D01*
X172172602Y-80800821D01*
X172194800Y-80803706D01*
X172209669Y-80807712D01*
X172219889Y-80813021D01*
X172228138Y-80819817D01*
X172232795Y-80824332D01*
X172239282Y-80832562D01*
X172244194Y-80843922D01*
X172247749Y-80861190D01*
X172250167Y-80887145D01*
X172251667Y-80924564D01*
X172252467Y-80976227D01*
X172252787Y-81044911D01*
X172252845Y-81133394D01*
X172252838Y-81153069D01*
X172252572Y-81240094D01*
X172251806Y-81307746D01*
X172250392Y-81358701D01*
X172248180Y-81395633D01*
X172245022Y-81421217D01*
X172240769Y-81438129D01*
X172235271Y-81449043D01*
X172225285Y-81459536D01*
X172194168Y-81472797D01*
X172158280Y-81471614D01*
X172126733Y-81455450D01*
X172124457Y-81453261D01*
X172118189Y-81444573D01*
X172113523Y-81431231D01*
X172110227Y-81410248D01*
X172108068Y-81378637D01*
X172106814Y-81333410D01*
X172106231Y-81271580D01*
X172106089Y-81190161D01*
X172106089Y-80943555D01*
X171948045Y-80943555D01*
X171948045Y-81105994D01*
X171947964Y-81141662D01*
X171947167Y-81197432D01*
X171945162Y-81236570D01*
X171941521Y-81263024D01*
X171935812Y-81280741D01*
X171927607Y-81293671D01*
X171924423Y-81297314D01*
X171893448Y-81315722D01*
X171857112Y-81316356D01*
X171823493Y-81298817D01*
X171823424Y-81298755D01*
X171814798Y-81289084D01*
X171808742Y-81275791D01*
X171804811Y-81255083D01*
X171802556Y-81223172D01*
X171801531Y-81176266D01*
X171801289Y-81110576D01*
X171801289Y-80942429D01*
X171736378Y-80945814D01*
X171671467Y-80949200D01*
X171668414Y-81191277D01*
X171668086Y-81216293D01*
X171666606Y-81297913D01*
X171664222Y-81360232D01*
X171660227Y-81405846D01*
X171653913Y-81437348D01*
X171644574Y-81457333D01*
X171631503Y-81468396D01*
X171613992Y-81473131D01*
X171591335Y-81474133D01*
X171588970Y-81474127D01*
X171568939Y-81472973D01*
X171553146Y-81468176D01*
X171541090Y-81457368D01*
X171532267Y-81438183D01*
X171526175Y-81408255D01*
X171522311Y-81365217D01*
X171520174Y-81306701D01*
X171519260Y-81230343D01*
X171519067Y-81133774D01*
X171519067Y-80843594D01*
X171548811Y-80820197D01*
X171555495Y-80815248D01*
X171566066Y-80809404D01*
X171580153Y-80804943D01*
X171600478Y-80801679D01*
X171629765Y-80799426D01*
X171670737Y-80797998D01*
X171726117Y-80797208D01*
X171798628Y-80796871D01*
X171890994Y-80796800D01*
X171956911Y-80796829D01*
G37*
X172231264Y-85118873D02*
X172248739Y-85150233D01*
X172249575Y-85186034D01*
X172229082Y-85217472D01*
X172224416Y-85221348D01*
X172214949Y-85226814D01*
X172201267Y-85231021D01*
X172180748Y-85234133D01*
X172150768Y-85236313D01*
X172108704Y-85237724D01*
X172051932Y-85238529D01*
X171977830Y-85238893D01*
X171883773Y-85238978D01*
X171562227Y-85238978D01*
X171540647Y-85212327D01*
X171525877Y-85188614D01*
X171519067Y-85165600D01*
X171524949Y-85144594D01*
X171540647Y-85118873D01*
X171562227Y-85092222D01*
X172209684Y-85092222D01*
X172231264Y-85118873D01*
G36*
X172231264Y-85118873D02*
G01*
X172248739Y-85150233D01*
X172249575Y-85186034D01*
X172229082Y-85217472D01*
X172224416Y-85221348D01*
X172214949Y-85226814D01*
X172201267Y-85231021D01*
X172180748Y-85234133D01*
X172150768Y-85236313D01*
X172108704Y-85237724D01*
X172051932Y-85238529D01*
X171977830Y-85238893D01*
X171883773Y-85238978D01*
X171562227Y-85238978D01*
X171540647Y-85212327D01*
X171525877Y-85188614D01*
X171519067Y-85165600D01*
X171524949Y-85144594D01*
X171540647Y-85118873D01*
X171562227Y-85092222D01*
X172209684Y-85092222D01*
X172231264Y-85118873D01*
G37*
X171927631Y-86496891D02*
X172044000Y-86497375D01*
X172058175Y-86497443D01*
X172119937Y-86498029D01*
X172163620Y-86499352D01*
X172193001Y-86501897D01*
X172211855Y-86506152D01*
X172223959Y-86512604D01*
X172233089Y-86521738D01*
X172250506Y-86555196D01*
X172247604Y-86590144D01*
X172223100Y-86621047D01*
X172209897Y-86630056D01*
X172191361Y-86637508D01*
X172165333Y-86641876D01*
X172126787Y-86643931D01*
X172070700Y-86644444D01*
X171948045Y-86644444D01*
X171948045Y-87141155D01*
X172082871Y-87141155D01*
X172118662Y-87141228D01*
X172164992Y-87141991D01*
X172195526Y-87144167D01*
X172214557Y-87148464D01*
X172226374Y-87155588D01*
X172235271Y-87166245D01*
X172250341Y-87198496D01*
X172247673Y-87233783D01*
X172223100Y-87264514D01*
X172216845Y-87269169D01*
X172206321Y-87275105D01*
X172192391Y-87279636D01*
X172172317Y-87282952D01*
X172143360Y-87285241D01*
X172102780Y-87286692D01*
X172047840Y-87287495D01*
X171975799Y-87287838D01*
X171883920Y-87287911D01*
X171574485Y-87287911D01*
X171546776Y-87260202D01*
X171524533Y-87228823D01*
X171521844Y-87195594D01*
X171541645Y-87163733D01*
X171551415Y-87155447D01*
X171567307Y-87148035D01*
X171591275Y-87143698D01*
X171628148Y-87141662D01*
X171682756Y-87141155D01*
X171801289Y-87141155D01*
X171801289Y-86644444D01*
X171685776Y-86644444D01*
X171634078Y-86644006D01*
X171599554Y-86642042D01*
X171576978Y-86637526D01*
X171561126Y-86629433D01*
X171546776Y-86616735D01*
X171524533Y-86585357D01*
X171521844Y-86552128D01*
X171541645Y-86520266D01*
X171547835Y-86514634D01*
X171556041Y-86509544D01*
X171567817Y-86505457D01*
X171585276Y-86502279D01*
X171610530Y-86499913D01*
X171645690Y-86498262D01*
X171692869Y-86497231D01*
X171754177Y-86496723D01*
X171831727Y-86496641D01*
X171927631Y-86496891D01*
G36*
X171927631Y-86496891D02*
G01*
X172044000Y-86497375D01*
X172058175Y-86497443D01*
X172119937Y-86498029D01*
X172163620Y-86499352D01*
X172193001Y-86501897D01*
X172211855Y-86506152D01*
X172223959Y-86512604D01*
X172233089Y-86521738D01*
X172250506Y-86555196D01*
X172247604Y-86590144D01*
X172223100Y-86621047D01*
X172209897Y-86630056D01*
X172191361Y-86637508D01*
X172165333Y-86641876D01*
X172126787Y-86643931D01*
X172070700Y-86644444D01*
X171948045Y-86644444D01*
X171948045Y-87141155D01*
X172082871Y-87141155D01*
X172118662Y-87141228D01*
X172164992Y-87141991D01*
X172195526Y-87144167D01*
X172214557Y-87148464D01*
X172226374Y-87155588D01*
X172235271Y-87166245D01*
X172250341Y-87198496D01*
X172247673Y-87233783D01*
X172223100Y-87264514D01*
X172216845Y-87269169D01*
X172206321Y-87275105D01*
X172192391Y-87279636D01*
X172172317Y-87282952D01*
X172143360Y-87285241D01*
X172102780Y-87286692D01*
X172047840Y-87287495D01*
X171975799Y-87287838D01*
X171883920Y-87287911D01*
X171574485Y-87287911D01*
X171546776Y-87260202D01*
X171524533Y-87228823D01*
X171521844Y-87195594D01*
X171541645Y-87163733D01*
X171551415Y-87155447D01*
X171567307Y-87148035D01*
X171591275Y-87143698D01*
X171628148Y-87141662D01*
X171682756Y-87141155D01*
X171801289Y-87141155D01*
X171801289Y-86644444D01*
X171685776Y-86644444D01*
X171634078Y-86644006D01*
X171599554Y-86642042D01*
X171576978Y-86637526D01*
X171561126Y-86629433D01*
X171546776Y-86616735D01*
X171524533Y-86585357D01*
X171521844Y-86552128D01*
X171541645Y-86520266D01*
X171547835Y-86514634D01*
X171556041Y-86509544D01*
X171567817Y-86505457D01*
X171585276Y-86502279D01*
X171610530Y-86499913D01*
X171645690Y-86498262D01*
X171692869Y-86497231D01*
X171754177Y-86496723D01*
X171831727Y-86496641D01*
X171927631Y-86496891D01*
G37*
X171904259Y-78427702D02*
X171955592Y-78440643D01*
X172012118Y-78463806D01*
X172066035Y-78493698D01*
X172109539Y-78526827D01*
X172119887Y-78537023D01*
X172171662Y-78604108D01*
X172211554Y-78684234D01*
X172235956Y-78770444D01*
X172244068Y-78825408D01*
X172250673Y-78918861D01*
X172248586Y-79008642D01*
X172238340Y-79091131D01*
X172220470Y-79162714D01*
X172195508Y-79219772D01*
X172163988Y-79258689D01*
X172162012Y-79260064D01*
X172136786Y-79267152D01*
X172089535Y-79271391D01*
X172020071Y-79272800D01*
X171957838Y-79271940D01*
X171910456Y-79267220D01*
X171878353Y-79255530D01*
X171858800Y-79233761D01*
X171849070Y-79198802D01*
X171846433Y-79147544D01*
X171848161Y-79076877D01*
X171851173Y-79028257D01*
X171859366Y-78978061D01*
X171873419Y-78945567D01*
X171894654Y-78928108D01*
X171924394Y-78923017D01*
X171928936Y-78923123D01*
X171963730Y-78931825D01*
X171987147Y-78955835D01*
X172000347Y-78997100D01*
X172004489Y-79057569D01*
X172004489Y-79126044D01*
X172042841Y-79126044D01*
X172051976Y-79125994D01*
X172069227Y-79123773D01*
X172079521Y-79114506D01*
X172086459Y-79093125D01*
X172093641Y-79054564D01*
X172094575Y-79049090D01*
X172104478Y-78952140D01*
X172101559Y-78862148D01*
X172086829Y-78781240D01*
X172061299Y-78711541D01*
X172025978Y-78655176D01*
X171981879Y-78614271D01*
X171930012Y-78590949D01*
X171871388Y-78587337D01*
X171842494Y-78592855D01*
X171786604Y-78619539D01*
X171740945Y-78665727D01*
X171706108Y-78730709D01*
X171682690Y-78813771D01*
X171678241Y-78838445D01*
X171667742Y-78927774D01*
X171668971Y-79007581D01*
X171681906Y-79085674D01*
X171688696Y-79120817D01*
X171689713Y-79166255D01*
X171677182Y-79197570D01*
X171650395Y-79217723D01*
X171622148Y-79224107D01*
X171590924Y-79214621D01*
X171577499Y-79205292D01*
X171553967Y-79171057D01*
X171536095Y-79118435D01*
X171524599Y-79049919D01*
X171520192Y-78968000D01*
X171524179Y-78870850D01*
X171540494Y-78764843D01*
X171568545Y-78671031D01*
X171607452Y-78592235D01*
X171656334Y-78531281D01*
X171689195Y-78505211D01*
X171738394Y-78475703D01*
X171792252Y-78450432D01*
X171843419Y-78432782D01*
X171884544Y-78426142D01*
X171904259Y-78427702D01*
G36*
X171904259Y-78427702D02*
G01*
X171955592Y-78440643D01*
X172012118Y-78463806D01*
X172066035Y-78493698D01*
X172109539Y-78526827D01*
X172119887Y-78537023D01*
X172171662Y-78604108D01*
X172211554Y-78684234D01*
X172235956Y-78770444D01*
X172244068Y-78825408D01*
X172250673Y-78918861D01*
X172248586Y-79008642D01*
X172238340Y-79091131D01*
X172220470Y-79162714D01*
X172195508Y-79219772D01*
X172163988Y-79258689D01*
X172162012Y-79260064D01*
X172136786Y-79267152D01*
X172089535Y-79271391D01*
X172020071Y-79272800D01*
X171957838Y-79271940D01*
X171910456Y-79267220D01*
X171878353Y-79255530D01*
X171858800Y-79233761D01*
X171849070Y-79198802D01*
X171846433Y-79147544D01*
X171848161Y-79076877D01*
X171851173Y-79028257D01*
X171859366Y-78978061D01*
X171873419Y-78945567D01*
X171894654Y-78928108D01*
X171924394Y-78923017D01*
X171928936Y-78923123D01*
X171963730Y-78931825D01*
X171987147Y-78955835D01*
X172000347Y-78997100D01*
X172004489Y-79057569D01*
X172004489Y-79126044D01*
X172042841Y-79126044D01*
X172051976Y-79125994D01*
X172069227Y-79123773D01*
X172079521Y-79114506D01*
X172086459Y-79093125D01*
X172093641Y-79054564D01*
X172094575Y-79049090D01*
X172104478Y-78952140D01*
X172101559Y-78862148D01*
X172086829Y-78781240D01*
X172061299Y-78711541D01*
X172025978Y-78655176D01*
X171981879Y-78614271D01*
X171930012Y-78590949D01*
X171871388Y-78587337D01*
X171842494Y-78592855D01*
X171786604Y-78619539D01*
X171740945Y-78665727D01*
X171706108Y-78730709D01*
X171682690Y-78813771D01*
X171678241Y-78838445D01*
X171667742Y-78927774D01*
X171668971Y-79007581D01*
X171681906Y-79085674D01*
X171688696Y-79120817D01*
X171689713Y-79166255D01*
X171677182Y-79197570D01*
X171650395Y-79217723D01*
X171622148Y-79224107D01*
X171590924Y-79214621D01*
X171577499Y-79205292D01*
X171553967Y-79171057D01*
X171536095Y-79118435D01*
X171524599Y-79049919D01*
X171520192Y-78968000D01*
X171524179Y-78870850D01*
X171540494Y-78764843D01*
X171568545Y-78671031D01*
X171607452Y-78592235D01*
X171656334Y-78531281D01*
X171689195Y-78505211D01*
X171738394Y-78475703D01*
X171792252Y-78450432D01*
X171843419Y-78432782D01*
X171884544Y-78426142D01*
X171904259Y-78427702D01*
G37*
X171945526Y-81812825D02*
X172024311Y-81813050D01*
X172085021Y-81813668D01*
X172106089Y-81814225D01*
X172130396Y-81814867D01*
X172163175Y-81816837D01*
X172186095Y-81819765D01*
X172201897Y-81823842D01*
X172213319Y-81829257D01*
X172223100Y-81836197D01*
X172252845Y-81859594D01*
X172252251Y-82025286D01*
X172251953Y-82060082D01*
X172248522Y-82158565D01*
X172240839Y-82239527D01*
X172228282Y-82306621D01*
X172210227Y-82363504D01*
X172186052Y-82413831D01*
X172184135Y-82417190D01*
X172147417Y-82475002D01*
X172110451Y-82517356D01*
X172066966Y-82550172D01*
X172010689Y-82579372D01*
X172001073Y-82583654D01*
X171937887Y-82606231D01*
X171882509Y-82613203D01*
X171827483Y-82604601D01*
X171765351Y-82580459D01*
X171763658Y-82579663D01*
X171694236Y-82539212D01*
X171637638Y-82488527D01*
X171593070Y-82425802D01*
X171559741Y-82349226D01*
X171536861Y-82256991D01*
X171523636Y-82147288D01*
X171519275Y-82018309D01*
X171519270Y-82014737D01*
X171519372Y-81970844D01*
X171665822Y-81970844D01*
X171666270Y-82058333D01*
X171668746Y-82125253D01*
X171679998Y-82217651D01*
X171699537Y-82296966D01*
X171726511Y-82358940D01*
X171747240Y-82389880D01*
X171777006Y-82418000D01*
X171819434Y-82441340D01*
X171835400Y-82448467D01*
X171867902Y-82460291D01*
X171892333Y-82462721D01*
X171917061Y-82457108D01*
X171932939Y-82451382D01*
X171992847Y-82418452D01*
X172038600Y-82371114D01*
X172071736Y-82307348D01*
X172093790Y-82225139D01*
X172094292Y-82222345D01*
X172100255Y-82176060D01*
X172104483Y-82119664D01*
X172106089Y-82064726D01*
X172106089Y-81970844D01*
X171665822Y-81970844D01*
X171519372Y-81970844D01*
X171519410Y-81954717D01*
X171520446Y-81912786D01*
X171523040Y-81884672D01*
X171527853Y-81866103D01*
X171535544Y-81852806D01*
X171546776Y-81840509D01*
X171574485Y-81812800D01*
X171883920Y-81812800D01*
X171945526Y-81812825D01*
G36*
X171945526Y-81812825D02*
G01*
X172024311Y-81813050D01*
X172085021Y-81813668D01*
X172106089Y-81814225D01*
X172130396Y-81814867D01*
X172163175Y-81816837D01*
X172186095Y-81819765D01*
X172201897Y-81823842D01*
X172213319Y-81829257D01*
X172223100Y-81836197D01*
X172252845Y-81859594D01*
X172252251Y-82025286D01*
X172251953Y-82060082D01*
X172248522Y-82158565D01*
X172240839Y-82239527D01*
X172228282Y-82306621D01*
X172210227Y-82363504D01*
X172186052Y-82413831D01*
X172184135Y-82417190D01*
X172147417Y-82475002D01*
X172110451Y-82517356D01*
X172066966Y-82550172D01*
X172010689Y-82579372D01*
X172001073Y-82583654D01*
X171937887Y-82606231D01*
X171882509Y-82613203D01*
X171827483Y-82604601D01*
X171765351Y-82580459D01*
X171763658Y-82579663D01*
X171694236Y-82539212D01*
X171637638Y-82488527D01*
X171593070Y-82425802D01*
X171559741Y-82349226D01*
X171536861Y-82256991D01*
X171523636Y-82147288D01*
X171519275Y-82018309D01*
X171519270Y-82014737D01*
X171519372Y-81970844D01*
X171665822Y-81970844D01*
X171666270Y-82058333D01*
X171668746Y-82125253D01*
X171679998Y-82217651D01*
X171699537Y-82296966D01*
X171726511Y-82358940D01*
X171747240Y-82389880D01*
X171777006Y-82418000D01*
X171819434Y-82441340D01*
X171835400Y-82448467D01*
X171867902Y-82460291D01*
X171892333Y-82462721D01*
X171917061Y-82457108D01*
X171932939Y-82451382D01*
X171992847Y-82418452D01*
X172038600Y-82371114D01*
X172071736Y-82307348D01*
X172093790Y-82225139D01*
X172094292Y-82222345D01*
X172100255Y-82176060D01*
X172104483Y-82119664D01*
X172106089Y-82064726D01*
X172106089Y-81970844D01*
X171665822Y-81970844D01*
X171519372Y-81970844D01*
X171519410Y-81954717D01*
X171520446Y-81912786D01*
X171523040Y-81884672D01*
X171527853Y-81866103D01*
X171535544Y-81852806D01*
X171546776Y-81840509D01*
X171574485Y-81812800D01*
X171883920Y-81812800D01*
X171945526Y-81812825D01*
G37*
X169071325Y-79682449D02*
X169272581Y-79699209D01*
X169467128Y-79732708D01*
X169650756Y-79782956D01*
X169768053Y-79826810D01*
X169930951Y-79904652D01*
X170084866Y-79998172D01*
X170226671Y-80105178D01*
X170353239Y-80223481D01*
X170461441Y-80350889D01*
X170514120Y-80428394D01*
X170583750Y-80555275D01*
X170642468Y-80692757D01*
X170687587Y-80834284D01*
X170716422Y-80973298D01*
X170718106Y-80987403D01*
X170721434Y-81030847D01*
X170724275Y-81088277D01*
X170726373Y-81153878D01*
X170727468Y-81221833D01*
X170725140Y-81348622D01*
X170712136Y-81496327D01*
X170687133Y-81634221D01*
X170649318Y-81767986D01*
X170640889Y-81791438D01*
X170621408Y-81839388D01*
X170596473Y-81895860D01*
X170567722Y-81957621D01*
X170536790Y-82021437D01*
X170505315Y-82084074D01*
X170474934Y-82142297D01*
X170447283Y-82192873D01*
X170423999Y-82232567D01*
X170406718Y-82258146D01*
X170397079Y-82266375D01*
X170393984Y-82264924D01*
X170374079Y-82253750D01*
X170338420Y-82232866D01*
X170289459Y-82203735D01*
X170229646Y-82167819D01*
X170161433Y-82126580D01*
X170087271Y-82081483D01*
X169790008Y-81900215D01*
X169834539Y-81853685D01*
X169912865Y-81762277D01*
X169987439Y-81648666D01*
X170041474Y-81530878D01*
X170074290Y-81410441D01*
X170085211Y-81288883D01*
X170083868Y-81247415D01*
X170065612Y-81129920D01*
X170026617Y-81019911D01*
X169967670Y-80918570D01*
X169889557Y-80827079D01*
X169793064Y-80746620D01*
X169678978Y-80678373D01*
X169644724Y-80662092D01*
X169521240Y-80616018D01*
X169382918Y-80580894D01*
X169233561Y-80556803D01*
X169076973Y-80543827D01*
X168916956Y-80542051D01*
X168757314Y-80551557D01*
X168601850Y-80572428D01*
X168454366Y-80604748D01*
X168318667Y-80648601D01*
X168232076Y-80686018D01*
X168118688Y-80750815D01*
X168025070Y-80826228D01*
X167950959Y-80912582D01*
X167896094Y-81010205D01*
X167860212Y-81119423D01*
X167843051Y-81240561D01*
X167841880Y-81309962D01*
X167856141Y-81432832D01*
X167891241Y-81548336D01*
X167946682Y-81655047D01*
X168021964Y-81751536D01*
X168036440Y-81767280D01*
X168062962Y-81797850D01*
X168080138Y-81820191D01*
X168084787Y-81830309D01*
X168082597Y-81832294D01*
X168063721Y-81846759D01*
X168030397Y-81870600D01*
X167985380Y-81901971D01*
X167931425Y-81939026D01*
X167871285Y-81979917D01*
X167807718Y-82022798D01*
X167743476Y-82065822D01*
X167681315Y-82107143D01*
X167623991Y-82144914D01*
X167574257Y-82177288D01*
X167534868Y-82202418D01*
X167508580Y-82218458D01*
X167498147Y-82223561D01*
X167493941Y-82218950D01*
X167488933Y-82199733D01*
X167486386Y-82190162D01*
X167475249Y-82162191D01*
X167456802Y-82120552D01*
X167432725Y-82069005D01*
X167404699Y-82011310D01*
X167399154Y-82000043D01*
X167319889Y-81822313D01*
X167260385Y-81652510D01*
X167220245Y-81488570D01*
X167199071Y-81328429D01*
X167196466Y-81170023D01*
X167212033Y-81011289D01*
X167229523Y-80915732D01*
X167274564Y-80751442D01*
X167337656Y-80597411D01*
X167419915Y-80451491D01*
X167522457Y-80311534D01*
X167646399Y-80175392D01*
X167691661Y-80131527D01*
X167823865Y-80019242D01*
X167961832Y-79926028D01*
X168109750Y-79849281D01*
X168271803Y-79786397D01*
X168283391Y-79782580D01*
X168469392Y-79732493D01*
X168665521Y-79699101D01*
X168867568Y-79682416D01*
X169071325Y-79682449D01*
G36*
X169071325Y-79682449D02*
G01*
X169272581Y-79699209D01*
X169467128Y-79732708D01*
X169650756Y-79782956D01*
X169768053Y-79826810D01*
X169930951Y-79904652D01*
X170084866Y-79998172D01*
X170226671Y-80105178D01*
X170353239Y-80223481D01*
X170461441Y-80350889D01*
X170514120Y-80428394D01*
X170583750Y-80555275D01*
X170642468Y-80692757D01*
X170687587Y-80834284D01*
X170716422Y-80973298D01*
X170718106Y-80987403D01*
X170721434Y-81030847D01*
X170724275Y-81088277D01*
X170726373Y-81153878D01*
X170727468Y-81221833D01*
X170725140Y-81348622D01*
X170712136Y-81496327D01*
X170687133Y-81634221D01*
X170649318Y-81767986D01*
X170640889Y-81791438D01*
X170621408Y-81839388D01*
X170596473Y-81895860D01*
X170567722Y-81957621D01*
X170536790Y-82021437D01*
X170505315Y-82084074D01*
X170474934Y-82142297D01*
X170447283Y-82192873D01*
X170423999Y-82232567D01*
X170406718Y-82258146D01*
X170397079Y-82266375D01*
X170393984Y-82264924D01*
X170374079Y-82253750D01*
X170338420Y-82232866D01*
X170289459Y-82203735D01*
X170229646Y-82167819D01*
X170161433Y-82126580D01*
X170087271Y-82081483D01*
X169790008Y-81900215D01*
X169834539Y-81853685D01*
X169912865Y-81762277D01*
X169987439Y-81648666D01*
X170041474Y-81530878D01*
X170074290Y-81410441D01*
X170085211Y-81288883D01*
X170083868Y-81247415D01*
X170065612Y-81129920D01*
X170026617Y-81019911D01*
X169967670Y-80918570D01*
X169889557Y-80827079D01*
X169793064Y-80746620D01*
X169678978Y-80678373D01*
X169644724Y-80662092D01*
X169521240Y-80616018D01*
X169382918Y-80580894D01*
X169233561Y-80556803D01*
X169076973Y-80543827D01*
X168916956Y-80542051D01*
X168757314Y-80551557D01*
X168601850Y-80572428D01*
X168454366Y-80604748D01*
X168318667Y-80648601D01*
X168232076Y-80686018D01*
X168118688Y-80750815D01*
X168025070Y-80826228D01*
X167950959Y-80912582D01*
X167896094Y-81010205D01*
X167860212Y-81119423D01*
X167843051Y-81240561D01*
X167841880Y-81309962D01*
X167856141Y-81432832D01*
X167891241Y-81548336D01*
X167946682Y-81655047D01*
X168021964Y-81751536D01*
X168036440Y-81767280D01*
X168062962Y-81797850D01*
X168080138Y-81820191D01*
X168084787Y-81830309D01*
X168082597Y-81832294D01*
X168063721Y-81846759D01*
X168030397Y-81870600D01*
X167985380Y-81901971D01*
X167931425Y-81939026D01*
X167871285Y-81979917D01*
X167807718Y-82022798D01*
X167743476Y-82065822D01*
X167681315Y-82107143D01*
X167623991Y-82144914D01*
X167574257Y-82177288D01*
X167534868Y-82202418D01*
X167508580Y-82218458D01*
X167498147Y-82223561D01*
X167493941Y-82218950D01*
X167488933Y-82199733D01*
X167486386Y-82190162D01*
X167475249Y-82162191D01*
X167456802Y-82120552D01*
X167432725Y-82069005D01*
X167404699Y-82011310D01*
X167399154Y-82000043D01*
X167319889Y-81822313D01*
X167260385Y-81652510D01*
X167220245Y-81488570D01*
X167199071Y-81328429D01*
X167196466Y-81170023D01*
X167212033Y-81011289D01*
X167229523Y-80915732D01*
X167274564Y-80751442D01*
X167337656Y-80597411D01*
X167419915Y-80451491D01*
X167522457Y-80311534D01*
X167646399Y-80175392D01*
X167691661Y-80131527D01*
X167823865Y-80019242D01*
X167961832Y-79926028D01*
X168109750Y-79849281D01*
X168271803Y-79786397D01*
X168283391Y-79782580D01*
X168469392Y-79732493D01*
X168665521Y-79699101D01*
X168867568Y-79682416D01*
X169071325Y-79682449D01*
G37*
X171971567Y-77952041D02*
X172045789Y-77952299D01*
X172102541Y-77952970D01*
X172144512Y-77954248D01*
X172174389Y-77956327D01*
X172194861Y-77959401D01*
X172208614Y-77963666D01*
X172218337Y-77969316D01*
X172226717Y-77976545D01*
X172248181Y-78008009D01*
X172249947Y-78043174D01*
X172230267Y-78076178D01*
X172224398Y-78081484D01*
X172215314Y-78086934D01*
X172201973Y-78091100D01*
X172181757Y-78094154D01*
X172152049Y-78096268D01*
X172110232Y-78097614D01*
X172053689Y-78098362D01*
X171979802Y-78098686D01*
X171885956Y-78098755D01*
X171810294Y-78098716D01*
X171732385Y-78098461D01*
X171672375Y-78097817D01*
X171627648Y-78096613D01*
X171595585Y-78094676D01*
X171573571Y-78091836D01*
X171558987Y-78087921D01*
X171549218Y-78082758D01*
X171541645Y-78076178D01*
X171522623Y-78046994D01*
X171523463Y-78013863D01*
X171546776Y-77979709D01*
X171574485Y-77952000D01*
X171887537Y-77952000D01*
X171971567Y-77952041D01*
G36*
X171971567Y-77952041D02*
G01*
X172045789Y-77952299D01*
X172102541Y-77952970D01*
X172144512Y-77954248D01*
X172174389Y-77956327D01*
X172194861Y-77959401D01*
X172208614Y-77963666D01*
X172218337Y-77969316D01*
X172226717Y-77976545D01*
X172248181Y-78008009D01*
X172249947Y-78043174D01*
X172230267Y-78076178D01*
X172224398Y-78081484D01*
X172215314Y-78086934D01*
X172201973Y-78091100D01*
X172181757Y-78094154D01*
X172152049Y-78096268D01*
X172110232Y-78097614D01*
X172053689Y-78098362D01*
X171979802Y-78098686D01*
X171885956Y-78098755D01*
X171810294Y-78098716D01*
X171732385Y-78098461D01*
X171672375Y-78097817D01*
X171627648Y-78096613D01*
X171595585Y-78094676D01*
X171573571Y-78091836D01*
X171558987Y-78087921D01*
X171549218Y-78082758D01*
X171541645Y-78076178D01*
X171522623Y-78046994D01*
X171523463Y-78013863D01*
X171546776Y-77979709D01*
X171574485Y-77952000D01*
X171887537Y-77952000D01*
X171971567Y-77952041D01*
G37*
X169927363Y-82272739D02*
X170002202Y-82276368D01*
X170064401Y-82283978D01*
X170120984Y-82296312D01*
X170247076Y-82340687D01*
X170361679Y-82403600D01*
X170462568Y-82483762D01*
X170548924Y-82580260D01*
X170619932Y-82692178D01*
X170674776Y-82818603D01*
X170712638Y-82958622D01*
X170718351Y-82994851D01*
X170724313Y-83073845D01*
X170724646Y-83162159D01*
X170719659Y-83251925D01*
X170709666Y-83335278D01*
X170694978Y-83404349D01*
X170664749Y-83490813D01*
X170610057Y-83600714D01*
X170542543Y-83698044D01*
X170491556Y-83760133D01*
X170587622Y-83763395D01*
X170683689Y-83766657D01*
X170683689Y-84189550D01*
X170683686Y-84200457D01*
X170683380Y-84294944D01*
X170682616Y-84381669D01*
X170681451Y-84458163D01*
X170679942Y-84521957D01*
X170678147Y-84570582D01*
X170676121Y-84601567D01*
X170673922Y-84612444D01*
X170673463Y-84612422D01*
X170657910Y-84605386D01*
X170635071Y-84589566D01*
X170629638Y-84585266D01*
X170615606Y-84574223D01*
X170602186Y-84564689D01*
X170587722Y-84556539D01*
X170570556Y-84549648D01*
X170549034Y-84543889D01*
X170521498Y-84539138D01*
X170486292Y-84535269D01*
X170441760Y-84532156D01*
X170386246Y-84529675D01*
X170318093Y-84527700D01*
X170235645Y-84526106D01*
X170137246Y-84524766D01*
X170021239Y-84523556D01*
X169885968Y-84522351D01*
X169729778Y-84521025D01*
X169587012Y-84519772D01*
X169441942Y-84518349D01*
X169316027Y-84516824D01*
X169207436Y-84515067D01*
X169114334Y-84512949D01*
X169034891Y-84510340D01*
X168967273Y-84507110D01*
X168909649Y-84503131D01*
X168860185Y-84498272D01*
X168817050Y-84492403D01*
X168778410Y-84485396D01*
X168742434Y-84477120D01*
X168707289Y-84467446D01*
X168671142Y-84456244D01*
X168632161Y-84443384D01*
X168589091Y-84427910D01*
X168496871Y-84385006D01*
X168417099Y-84331265D01*
X168342965Y-84262424D01*
X168279405Y-84184815D01*
X168217725Y-84080239D01*
X168170202Y-83960756D01*
X168136567Y-83825492D01*
X168116552Y-83673574D01*
X168109889Y-83504128D01*
X168110287Y-83446110D01*
X168112335Y-83380602D01*
X168116704Y-83319307D01*
X168124035Y-83257903D01*
X168134969Y-83192068D01*
X168150147Y-83117480D01*
X168170209Y-83029816D01*
X168195797Y-82924755D01*
X168202820Y-82896194D01*
X168220776Y-82820946D01*
X168236820Y-82750612D01*
X168250028Y-82689433D01*
X168259474Y-82641646D01*
X168264231Y-82611489D01*
X168267910Y-82583217D01*
X168273187Y-82556940D01*
X168277942Y-82546941D01*
X168286781Y-82550048D01*
X168314072Y-82560806D01*
X168356906Y-82578136D01*
X168412425Y-82600874D01*
X168477772Y-82627853D01*
X168550089Y-82657910D01*
X168565879Y-82664507D01*
X168656484Y-82703093D01*
X168726217Y-82734232D01*
X168775405Y-82758083D01*
X168804374Y-82774802D01*
X168813452Y-82784546D01*
X168811405Y-82792234D01*
X168801760Y-82818585D01*
X168786190Y-82857018D01*
X168766815Y-82902178D01*
X168728814Y-82996707D01*
X168687780Y-83133520D01*
X168662612Y-83274711D01*
X168658611Y-83312686D01*
X168656447Y-83415941D01*
X168669622Y-83503048D01*
X168698756Y-83574871D01*
X168744466Y-83632269D01*
X168807372Y-83676104D01*
X168888092Y-83707238D01*
X168987245Y-83726530D01*
X169046224Y-83733950D01*
X169039445Y-83572064D01*
X169039110Y-83546106D01*
X169561842Y-83546106D01*
X169561857Y-83554993D01*
X169562655Y-83610340D01*
X169564488Y-83657264D01*
X169567111Y-83691047D01*
X169570274Y-83706972D01*
X169576741Y-83711057D01*
X169598875Y-83715428D01*
X169637988Y-83718396D01*
X169695939Y-83720086D01*
X169774586Y-83720622D01*
X169970462Y-83720622D01*
X170026973Y-83675952D01*
X170042212Y-83663215D01*
X170084844Y-83616396D01*
X170120672Y-83555745D01*
X170125850Y-83545103D01*
X170142745Y-83506324D01*
X170152909Y-83471308D01*
X170158325Y-83431278D01*
X170160978Y-83377459D01*
X170161383Y-83359352D01*
X170158540Y-83283989D01*
X170146620Y-83223257D01*
X170124037Y-83171548D01*
X170089211Y-83123254D01*
X170084798Y-83118197D01*
X170029160Y-83069728D01*
X169965333Y-83041541D01*
X169890282Y-83032248D01*
X169818693Y-83039480D01*
X169755645Y-83064204D01*
X169697758Y-83108751D01*
X169650808Y-83163681D01*
X169610961Y-83236106D01*
X169583263Y-83322660D01*
X169567096Y-83425330D01*
X169561842Y-83546106D01*
X169039110Y-83546106D01*
X169037813Y-83445505D01*
X169044194Y-83294049D01*
X169058777Y-83145604D01*
X169080882Y-83009422D01*
X169095821Y-82944755D01*
X169138741Y-82812510D01*
X169195340Y-82690238D01*
X169264017Y-82580315D01*
X169343170Y-82485117D01*
X169431196Y-82407020D01*
X169526493Y-82348401D01*
X169578864Y-82324405D01*
X169649590Y-82298768D01*
X169720812Y-82282522D01*
X169799712Y-82274178D01*
X169890282Y-82272310D01*
X169893467Y-82272245D01*
X169927363Y-82272739D01*
G36*
X169927363Y-82272739D02*
G01*
X170002202Y-82276368D01*
X170064401Y-82283978D01*
X170120984Y-82296312D01*
X170247076Y-82340687D01*
X170361679Y-82403600D01*
X170462568Y-82483762D01*
X170548924Y-82580260D01*
X170619932Y-82692178D01*
X170674776Y-82818603D01*
X170712638Y-82958622D01*
X170718351Y-82994851D01*
X170724313Y-83073845D01*
X170724646Y-83162159D01*
X170719659Y-83251925D01*
X170709666Y-83335278D01*
X170694978Y-83404349D01*
X170664749Y-83490813D01*
X170610057Y-83600714D01*
X170542543Y-83698044D01*
X170491556Y-83760133D01*
X170587622Y-83763395D01*
X170683689Y-83766657D01*
X170683689Y-84189550D01*
X170683686Y-84200457D01*
X170683380Y-84294944D01*
X170682616Y-84381669D01*
X170681451Y-84458163D01*
X170679942Y-84521957D01*
X170678147Y-84570582D01*
X170676121Y-84601567D01*
X170673922Y-84612444D01*
X170673463Y-84612422D01*
X170657910Y-84605386D01*
X170635071Y-84589566D01*
X170629638Y-84585266D01*
X170615606Y-84574223D01*
X170602186Y-84564689D01*
X170587722Y-84556539D01*
X170570556Y-84549648D01*
X170549034Y-84543889D01*
X170521498Y-84539138D01*
X170486292Y-84535269D01*
X170441760Y-84532156D01*
X170386246Y-84529675D01*
X170318093Y-84527700D01*
X170235645Y-84526106D01*
X170137246Y-84524766D01*
X170021239Y-84523556D01*
X169885968Y-84522351D01*
X169729778Y-84521025D01*
X169587012Y-84519772D01*
X169441942Y-84518349D01*
X169316027Y-84516824D01*
X169207436Y-84515067D01*
X169114334Y-84512949D01*
X169034891Y-84510340D01*
X168967273Y-84507110D01*
X168909649Y-84503131D01*
X168860185Y-84498272D01*
X168817050Y-84492403D01*
X168778410Y-84485396D01*
X168742434Y-84477120D01*
X168707289Y-84467446D01*
X168671142Y-84456244D01*
X168632161Y-84443384D01*
X168589091Y-84427910D01*
X168496871Y-84385006D01*
X168417099Y-84331265D01*
X168342965Y-84262424D01*
X168279405Y-84184815D01*
X168217725Y-84080239D01*
X168170202Y-83960756D01*
X168136567Y-83825492D01*
X168116552Y-83673574D01*
X168109889Y-83504128D01*
X168110287Y-83446110D01*
X168112335Y-83380602D01*
X168116704Y-83319307D01*
X168124035Y-83257903D01*
X168134969Y-83192068D01*
X168150147Y-83117480D01*
X168170209Y-83029816D01*
X168195797Y-82924755D01*
X168202820Y-82896194D01*
X168220776Y-82820946D01*
X168236820Y-82750612D01*
X168250028Y-82689433D01*
X168259474Y-82641646D01*
X168264231Y-82611489D01*
X168267910Y-82583217D01*
X168273187Y-82556940D01*
X168277942Y-82546941D01*
X168286781Y-82550048D01*
X168314072Y-82560806D01*
X168356906Y-82578136D01*
X168412425Y-82600874D01*
X168477772Y-82627853D01*
X168550089Y-82657910D01*
X168565879Y-82664507D01*
X168656484Y-82703093D01*
X168726217Y-82734232D01*
X168775405Y-82758083D01*
X168804374Y-82774802D01*
X168813452Y-82784546D01*
X168811405Y-82792234D01*
X168801760Y-82818585D01*
X168786190Y-82857018D01*
X168766815Y-82902178D01*
X168728814Y-82996707D01*
X168687780Y-83133520D01*
X168662612Y-83274711D01*
X168658611Y-83312686D01*
X168656447Y-83415941D01*
X168669622Y-83503048D01*
X168698756Y-83574871D01*
X168744466Y-83632269D01*
X168807372Y-83676104D01*
X168888092Y-83707238D01*
X168987245Y-83726530D01*
X169046224Y-83733950D01*
X169039445Y-83572064D01*
X169039110Y-83546106D01*
X169561842Y-83546106D01*
X169561857Y-83554993D01*
X169562655Y-83610340D01*
X169564488Y-83657264D01*
X169567111Y-83691047D01*
X169570274Y-83706972D01*
X169576741Y-83711057D01*
X169598875Y-83715428D01*
X169637988Y-83718396D01*
X169695939Y-83720086D01*
X169774586Y-83720622D01*
X169970462Y-83720622D01*
X170026973Y-83675952D01*
X170042212Y-83663215D01*
X170084844Y-83616396D01*
X170120672Y-83555745D01*
X170125850Y-83545103D01*
X170142745Y-83506324D01*
X170152909Y-83471308D01*
X170158325Y-83431278D01*
X170160978Y-83377459D01*
X170161383Y-83359352D01*
X170158540Y-83283989D01*
X170146620Y-83223257D01*
X170124037Y-83171548D01*
X170089211Y-83123254D01*
X170084798Y-83118197D01*
X170029160Y-83069728D01*
X169965333Y-83041541D01*
X169890282Y-83032248D01*
X169818693Y-83039480D01*
X169755645Y-83064204D01*
X169697758Y-83108751D01*
X169650808Y-83163681D01*
X169610961Y-83236106D01*
X169583263Y-83322660D01*
X169567096Y-83425330D01*
X169561842Y-83546106D01*
X169039110Y-83546106D01*
X169037813Y-83445505D01*
X169044194Y-83294049D01*
X169058777Y-83145604D01*
X169080882Y-83009422D01*
X169095821Y-82944755D01*
X169138741Y-82812510D01*
X169195340Y-82690238D01*
X169264017Y-82580315D01*
X169343170Y-82485117D01*
X169431196Y-82407020D01*
X169526493Y-82348401D01*
X169578864Y-82324405D01*
X169649590Y-82298768D01*
X169720812Y-82282522D01*
X169799712Y-82274178D01*
X169890282Y-82272310D01*
X169893467Y-82272245D01*
X169927363Y-82272739D01*
G37*
X171770232Y-76824048D02*
X171795029Y-76829840D01*
X171816699Y-76844647D01*
X171844049Y-76872620D01*
X171851378Y-76880598D01*
X171872281Y-76904308D01*
X171889251Y-76926702D01*
X171903205Y-76950735D01*
X171915056Y-76979363D01*
X171925720Y-77015540D01*
X171936111Y-77062220D01*
X171947146Y-77122359D01*
X171959738Y-77198910D01*
X171974804Y-77294829D01*
X171977838Y-77313192D01*
X171991458Y-77375522D01*
X172007192Y-77420740D01*
X172024263Y-77447024D01*
X172041897Y-77452553D01*
X172046168Y-77449932D01*
X172061233Y-77432000D01*
X172077867Y-77403874D01*
X172083857Y-77391074D01*
X172091050Y-77369776D01*
X172095827Y-77343390D01*
X172098646Y-77307546D01*
X172099964Y-77257872D01*
X172100237Y-77190000D01*
X172100164Y-77172215D01*
X172099053Y-77104594D01*
X172096828Y-77039655D01*
X172093762Y-76984030D01*
X172090127Y-76944349D01*
X172086059Y-76908838D01*
X172085276Y-76879585D01*
X172089876Y-76860685D01*
X172100551Y-76845571D01*
X172104144Y-76841915D01*
X172135918Y-76825573D01*
X172171572Y-76826893D01*
X172202190Y-76845850D01*
X172213796Y-76866220D01*
X172226491Y-76902204D01*
X172236541Y-76944628D01*
X172237140Y-76948078D01*
X172242356Y-76990748D01*
X172246730Y-77048134D01*
X172249818Y-77113151D01*
X172251177Y-77178711D01*
X172251218Y-77194943D01*
X172248741Y-77293256D01*
X172240735Y-77373308D01*
X172226203Y-77438487D01*
X172204149Y-77492183D01*
X172173576Y-77537784D01*
X172133486Y-77578677D01*
X172107259Y-77598798D01*
X172077712Y-77610424D01*
X172037995Y-77613333D01*
X172026026Y-77613192D01*
X171993345Y-77609319D01*
X171966819Y-77596935D01*
X171935971Y-77571770D01*
X171913831Y-77550558D01*
X171891285Y-77524162D01*
X171872917Y-77494445D01*
X171857661Y-77458215D01*
X171844449Y-77412283D01*
X171832214Y-77353456D01*
X171819889Y-77278544D01*
X171806406Y-77184355D01*
X171799396Y-77139043D01*
X171784837Y-77071089D01*
X171768337Y-77021953D01*
X171750439Y-76992386D01*
X171731685Y-76983136D01*
X171712615Y-76994952D01*
X171693771Y-77028584D01*
X171692557Y-77031630D01*
X171680479Y-77077989D01*
X171672279Y-77140639D01*
X171668119Y-77214073D01*
X171668161Y-77292783D01*
X171672569Y-77371261D01*
X171681505Y-77444000D01*
X171682154Y-77447927D01*
X171689861Y-77496743D01*
X171693473Y-77528995D01*
X171692876Y-77549992D01*
X171687954Y-77565046D01*
X171678596Y-77579466D01*
X171677725Y-77580636D01*
X171647351Y-77605153D01*
X171611850Y-77609946D01*
X171577269Y-77594140D01*
X171572813Y-77589594D01*
X171557673Y-77559980D01*
X171544550Y-77512998D01*
X171533750Y-77452694D01*
X171525581Y-77383112D01*
X171520351Y-77308297D01*
X171518367Y-77232294D01*
X171519936Y-77159147D01*
X171525366Y-77092900D01*
X171534964Y-77037600D01*
X171549825Y-76986717D01*
X171582958Y-76915405D01*
X171625640Y-76864248D01*
X171677705Y-76833425D01*
X171738983Y-76823111D01*
X171770232Y-76824048D01*
G36*
X171770232Y-76824048D02*
G01*
X171795029Y-76829840D01*
X171816699Y-76844647D01*
X171844049Y-76872620D01*
X171851378Y-76880598D01*
X171872281Y-76904308D01*
X171889251Y-76926702D01*
X171903205Y-76950735D01*
X171915056Y-76979363D01*
X171925720Y-77015540D01*
X171936111Y-77062220D01*
X171947146Y-77122359D01*
X171959738Y-77198910D01*
X171974804Y-77294829D01*
X171977838Y-77313192D01*
X171991458Y-77375522D01*
X172007192Y-77420740D01*
X172024263Y-77447024D01*
X172041897Y-77452553D01*
X172046168Y-77449932D01*
X172061233Y-77432000D01*
X172077867Y-77403874D01*
X172083857Y-77391074D01*
X172091050Y-77369776D01*
X172095827Y-77343390D01*
X172098646Y-77307546D01*
X172099964Y-77257872D01*
X172100237Y-77190000D01*
X172100164Y-77172215D01*
X172099053Y-77104594D01*
X172096828Y-77039655D01*
X172093762Y-76984030D01*
X172090127Y-76944349D01*
X172086059Y-76908838D01*
X172085276Y-76879585D01*
X172089876Y-76860685D01*
X172100551Y-76845571D01*
X172104144Y-76841915D01*
X172135918Y-76825573D01*
X172171572Y-76826893D01*
X172202190Y-76845850D01*
X172213796Y-76866220D01*
X172226491Y-76902204D01*
X172236541Y-76944628D01*
X172237140Y-76948078D01*
X172242356Y-76990748D01*
X172246730Y-77048134D01*
X172249818Y-77113151D01*
X172251177Y-77178711D01*
X172251218Y-77194943D01*
X172248741Y-77293256D01*
X172240735Y-77373308D01*
X172226203Y-77438487D01*
X172204149Y-77492183D01*
X172173576Y-77537784D01*
X172133486Y-77578677D01*
X172107259Y-77598798D01*
X172077712Y-77610424D01*
X172037995Y-77613333D01*
X172026026Y-77613192D01*
X171993345Y-77609319D01*
X171966819Y-77596935D01*
X171935971Y-77571770D01*
X171913831Y-77550558D01*
X171891285Y-77524162D01*
X171872917Y-77494445D01*
X171857661Y-77458215D01*
X171844449Y-77412283D01*
X171832214Y-77353456D01*
X171819889Y-77278544D01*
X171806406Y-77184355D01*
X171799396Y-77139043D01*
X171784837Y-77071089D01*
X171768337Y-77021953D01*
X171750439Y-76992386D01*
X171731685Y-76983136D01*
X171712615Y-76994952D01*
X171693771Y-77028584D01*
X171692557Y-77031630D01*
X171680479Y-77077989D01*
X171672279Y-77140639D01*
X171668119Y-77214073D01*
X171668161Y-77292783D01*
X171672569Y-77371261D01*
X171681505Y-77444000D01*
X171682154Y-77447927D01*
X171689861Y-77496743D01*
X171693473Y-77528995D01*
X171692876Y-77549992D01*
X171687954Y-77565046D01*
X171678596Y-77579466D01*
X171677725Y-77580636D01*
X171647351Y-77605153D01*
X171611850Y-77609946D01*
X171577269Y-77594140D01*
X171572813Y-77589594D01*
X171557673Y-77559980D01*
X171544550Y-77512998D01*
X171533750Y-77452694D01*
X171525581Y-77383112D01*
X171520351Y-77308297D01*
X171518367Y-77232294D01*
X171519936Y-77159147D01*
X171525366Y-77092900D01*
X171534964Y-77037600D01*
X171549825Y-76986717D01*
X171582958Y-76915405D01*
X171625640Y-76864248D01*
X171677705Y-76833425D01*
X171738983Y-76823111D01*
X171770232Y-76824048D01*
G37*
%TD*%
M02*
