%TF.GenerationSoftware,KiCad,Pcbnew,7.0.6-7.0.6~ubuntu22.10.1*%
%TF.CreationDate,2023-08-25T09:43:34+03:00*%
%TF.ProjectId,Power Supply Module,506f7765-7220-4537-9570-706c79204d6f,rev?*%
%TF.SameCoordinates,Original*%
%TF.FileFunction,Soldermask,Bot*%
%TF.FilePolarity,Negative*%
%FSLAX46Y46*%
G04 Gerber Fmt 4.6, Leading zero omitted, Abs format (unit mm)*
G04 Created by KiCad (PCBNEW 7.0.6-7.0.6~ubuntu22.10.1) date 2023-08-25 09:43:34*
%MOMM*%
%LPD*%
G01*
G04 APERTURE LIST*
G04 Aperture macros list*
%AMRoundRect*
0 Rectangle with rounded corners*
0 $1 Rounding radius*
0 $2 $3 $4 $5 $6 $7 $8 $9 X,Y pos of 4 corners*
0 Add a 4 corners polygon primitive as box body*
4,1,4,$2,$3,$4,$5,$6,$7,$8,$9,$2,$3,0*
0 Add four circle primitives for the rounded corners*
1,1,$1+$1,$2,$3*
1,1,$1+$1,$4,$5*
1,1,$1+$1,$6,$7*
1,1,$1+$1,$8,$9*
0 Add four rect primitives between the rounded corners*
20,1,$1+$1,$2,$3,$4,$5,0*
20,1,$1+$1,$4,$5,$6,$7,0*
20,1,$1+$1,$6,$7,$8,$9,0*
20,1,$1+$1,$8,$9,$2,$3,0*%
G04 Aperture macros list end*
%ADD10R,1.905000X2.000000*%
%ADD11O,1.905000X2.000000*%
%ADD12R,1.900000X1.900000*%
%ADD13C,1.900000*%
%ADD14R,1.800000X1.800000*%
%ADD15C,1.800000*%
%ADD16C,1.600000*%
%ADD17C,1.400000*%
%ADD18O,1.400000X1.400000*%
%ADD19RoundRect,0.875000X-0.875000X-0.875000X0.875000X-0.875000X0.875000X0.875000X-0.875000X0.875000X0*%
%ADD20RoundRect,0.750000X-0.750000X-1.000000X0.750000X-1.000000X0.750000X1.000000X-0.750000X1.000000X0*%
%ADD21R,3.500000X3.500000*%
%ADD22R,1.700000X1.700000*%
%ADD23O,1.700000X1.700000*%
%ADD24C,3.000000*%
%ADD25R,3.000000X3.000000*%
G04 APERTURE END LIST*
D10*
%TO.C,U2*%
X179540000Y-74805000D03*
D11*
X177000000Y-74805000D03*
X174460000Y-74805000D03*
%TD*%
D12*
%TO.C,S1*%
X191250000Y-72500000D03*
D13*
X188750000Y-72500000D03*
X186250000Y-72500000D03*
%TD*%
D14*
%TO.C,D1*%
X190500000Y-86525000D03*
D15*
X190500000Y-83985000D03*
%TD*%
D16*
%TO.C,C2*%
X177000000Y-101200000D03*
X174500000Y-101200000D03*
%TD*%
D17*
%TO.C,R1*%
X185000000Y-79250000D03*
D18*
X192620000Y-79250000D03*
%TD*%
D19*
%TO.C,J1*%
X177250000Y-89700000D03*
D20*
X174250000Y-85000000D03*
D21*
X180250000Y-85000000D03*
%TD*%
D10*
%TO.C,U1*%
X174460000Y-97000000D03*
D11*
X177000000Y-97000000D03*
X179540000Y-97000000D03*
%TD*%
D22*
%TO.C,J6*%
X197100000Y-61800000D03*
D23*
X197100000Y-64340000D03*
%TD*%
D22*
%TO.C,J4*%
X197000000Y-102525000D03*
D23*
X197000000Y-105065000D03*
%TD*%
D22*
%TO.C,J3*%
X175400000Y-61800000D03*
D23*
X177940000Y-61800000D03*
X180480000Y-61800000D03*
%TD*%
D24*
%TO.C,J5*%
X190640000Y-103000000D03*
D25*
X185560000Y-103000000D03*
%TD*%
D17*
%TO.C,R2*%
X193560000Y-95250000D03*
D18*
X185940000Y-95250000D03*
%TD*%
D24*
%TO.C,J2*%
X190640000Y-64000000D03*
D25*
X185560000Y-64000000D03*
%TD*%
D17*
%TO.C,R3*%
X185880000Y-91250000D03*
D18*
X193500000Y-91250000D03*
%TD*%
D16*
%TO.C,C1*%
X181000000Y-70250000D03*
X178500000Y-70250000D03*
%TD*%
%TO.C,C3*%
X175250000Y-70250000D03*
X172750000Y-70250000D03*
%TD*%
D22*
%TO.C,J7*%
X175400000Y-105200000D03*
D23*
X177940000Y-105200000D03*
X180480000Y-105200000D03*
%TD*%
M02*
