%TF.GenerationSoftware,KiCad,Pcbnew,7.0.6-7.0.6~ubuntu22.10.1*%
%TF.CreationDate,2023-08-23T17:57:52+03:00*%
%TF.ProjectId,Prj1 - LED torch,50726a31-202d-4204-9c45-4420746f7263,rev?*%
%TF.SameCoordinates,Original*%
%TF.FileFunction,Legend,Bot*%
%TF.FilePolarity,Positive*%
%FSLAX46Y46*%
G04 Gerber Fmt 4.6, Leading zero omitted, Abs format (unit mm)*
G04 Created by KiCad (PCBNEW 7.0.6-7.0.6~ubuntu22.10.1) date 2023-08-23 17:57:52*
%MOMM*%
%LPD*%
G01*
G04 APERTURE LIST*
%ADD10C,0.150000*%
%ADD11C,0.010000*%
G04 APERTURE END LIST*
D10*
X199306077Y-105669819D02*
X198972744Y-106669819D01*
X198972744Y-106669819D02*
X198639411Y-105669819D01*
X197782268Y-106669819D02*
X198353696Y-106669819D01*
X198067982Y-106669819D02*
X198067982Y-105669819D01*
X198067982Y-105669819D02*
X198163220Y-105812676D01*
X198163220Y-105812676D02*
X198258458Y-105907914D01*
X198258458Y-105907914D02*
X198353696Y-105955533D01*
X197353696Y-106574580D02*
X197306077Y-106622200D01*
X197306077Y-106622200D02*
X197353696Y-106669819D01*
X197353696Y-106669819D02*
X197401315Y-106622200D01*
X197401315Y-106622200D02*
X197353696Y-106574580D01*
X197353696Y-106574580D02*
X197353696Y-106669819D01*
X196687030Y-105669819D02*
X196591792Y-105669819D01*
X196591792Y-105669819D02*
X196496554Y-105717438D01*
X196496554Y-105717438D02*
X196448935Y-105765057D01*
X196448935Y-105765057D02*
X196401316Y-105860295D01*
X196401316Y-105860295D02*
X196353697Y-106050771D01*
X196353697Y-106050771D02*
X196353697Y-106288866D01*
X196353697Y-106288866D02*
X196401316Y-106479342D01*
X196401316Y-106479342D02*
X196448935Y-106574580D01*
X196448935Y-106574580D02*
X196496554Y-106622200D01*
X196496554Y-106622200D02*
X196591792Y-106669819D01*
X196591792Y-106669819D02*
X196687030Y-106669819D01*
X196687030Y-106669819D02*
X196782268Y-106622200D01*
X196782268Y-106622200D02*
X196829887Y-106574580D01*
X196829887Y-106574580D02*
X196877506Y-106479342D01*
X196877506Y-106479342D02*
X196925125Y-106288866D01*
X196925125Y-106288866D02*
X196925125Y-106050771D01*
X196925125Y-106050771D02*
X196877506Y-105860295D01*
X196877506Y-105860295D02*
X196829887Y-105765057D01*
X196829887Y-105765057D02*
X196782268Y-105717438D01*
X196782268Y-105717438D02*
X196687030Y-105669819D01*
%TO.C,REF\u002A\u002A*%
D11*
X192107002Y-116514242D02*
X192141247Y-116535142D01*
X192176729Y-116563873D01*
X192176729Y-117425871D01*
X192141247Y-117454602D01*
X192099495Y-117477867D01*
X192051832Y-117478980D01*
X192009976Y-117451696D01*
X192004815Y-117445486D01*
X191997538Y-117432881D01*
X191991937Y-117414666D01*
X191987794Y-117387347D01*
X191984892Y-117347433D01*
X191983014Y-117291430D01*
X191981941Y-117215847D01*
X191981457Y-117117190D01*
X191981344Y-116991966D01*
X191981344Y-116563873D01*
X192016826Y-116535142D01*
X192048396Y-116515477D01*
X192079037Y-116506410D01*
X192107002Y-116514242D01*
G36*
X192107002Y-116514242D02*
G01*
X192141247Y-116535142D01*
X192176729Y-116563873D01*
X192176729Y-117425871D01*
X192141247Y-117454602D01*
X192099495Y-117477867D01*
X192051832Y-117478980D01*
X192009976Y-117451696D01*
X192004815Y-117445486D01*
X191997538Y-117432881D01*
X191991937Y-117414666D01*
X191987794Y-117387347D01*
X191984892Y-117347433D01*
X191983014Y-117291430D01*
X191981941Y-117215847D01*
X191981457Y-117117190D01*
X191981344Y-116991966D01*
X191981344Y-116563873D01*
X192016826Y-116535142D01*
X192048396Y-116515477D01*
X192079037Y-116506410D01*
X192107002Y-116514242D01*
G37*
X201600579Y-116512264D02*
X201646051Y-116543301D01*
X201682942Y-116580192D01*
X201682942Y-116996978D01*
X201682887Y-117108852D01*
X201682543Y-117207668D01*
X201681650Y-117283226D01*
X201679949Y-117339104D01*
X201677181Y-117378882D01*
X201673088Y-117406136D01*
X201667409Y-117424447D01*
X201659888Y-117437391D01*
X201650263Y-117448548D01*
X201608374Y-117477125D01*
X201561556Y-117479476D01*
X201517617Y-117453274D01*
X201510551Y-117445461D01*
X201503296Y-117433367D01*
X201497750Y-117415605D01*
X201493683Y-117388690D01*
X201490869Y-117349138D01*
X201489077Y-117293465D01*
X201488081Y-117218185D01*
X201487650Y-117119816D01*
X201487557Y-116994872D01*
X201487610Y-116894140D01*
X201487949Y-116790414D01*
X201488807Y-116710519D01*
X201490410Y-116650971D01*
X201492988Y-116608284D01*
X201496769Y-116578975D01*
X201501982Y-116559559D01*
X201508855Y-116546552D01*
X201517617Y-116536470D01*
X201556470Y-116511145D01*
X201600579Y-116512264D01*
G36*
X201600579Y-116512264D02*
G01*
X201646051Y-116543301D01*
X201682942Y-116580192D01*
X201682942Y-116996978D01*
X201682887Y-117108852D01*
X201682543Y-117207668D01*
X201681650Y-117283226D01*
X201679949Y-117339104D01*
X201677181Y-117378882D01*
X201673088Y-117406136D01*
X201667409Y-117424447D01*
X201659888Y-117437391D01*
X201650263Y-117448548D01*
X201608374Y-117477125D01*
X201561556Y-117479476D01*
X201517617Y-117453274D01*
X201510551Y-117445461D01*
X201503296Y-117433367D01*
X201497750Y-117415605D01*
X201493683Y-117388690D01*
X201490869Y-117349138D01*
X201489077Y-117293465D01*
X201488081Y-117218185D01*
X201487650Y-117119816D01*
X201487557Y-116994872D01*
X201487610Y-116894140D01*
X201487949Y-116790414D01*
X201488807Y-116710519D01*
X201490410Y-116650971D01*
X201492988Y-116608284D01*
X201496769Y-116578975D01*
X201501982Y-116559559D01*
X201508855Y-116546552D01*
X201517617Y-116536470D01*
X201556470Y-116511145D01*
X201600579Y-116512264D01*
G37*
X201686337Y-107970839D02*
X201825779Y-108005005D01*
X201957955Y-108066325D01*
X202078699Y-108154810D01*
X202183846Y-108270470D01*
X202269230Y-108413313D01*
X202292121Y-108463633D01*
X202310666Y-108514636D01*
X202321072Y-108565624D01*
X202325633Y-108628691D01*
X202326643Y-108715929D01*
X202326032Y-108788539D01*
X202322350Y-108855270D01*
X202313322Y-108907334D01*
X202296694Y-108956686D01*
X202270212Y-109015286D01*
X202262552Y-109030902D01*
X202172006Y-109173893D01*
X202058125Y-109291543D01*
X201924141Y-109381089D01*
X201773286Y-109439772D01*
X201695881Y-109456147D01*
X201538849Y-109463810D01*
X201386753Y-109439016D01*
X201244054Y-109384306D01*
X201115212Y-109302223D01*
X201004686Y-109195309D01*
X200916936Y-109066107D01*
X200856423Y-108917158D01*
X200834283Y-108795265D01*
X200832288Y-108660751D01*
X200850295Y-108529908D01*
X200887446Y-108416572D01*
X200930372Y-108335543D01*
X201025933Y-108206987D01*
X201139221Y-108105527D01*
X201266071Y-108031172D01*
X201402318Y-107983933D01*
X201543795Y-107963818D01*
X201686337Y-107970839D01*
G36*
X201686337Y-107970839D02*
G01*
X201825779Y-108005005D01*
X201957955Y-108066325D01*
X202078699Y-108154810D01*
X202183846Y-108270470D01*
X202269230Y-108413313D01*
X202292121Y-108463633D01*
X202310666Y-108514636D01*
X202321072Y-108565624D01*
X202325633Y-108628691D01*
X202326643Y-108715929D01*
X202326032Y-108788539D01*
X202322350Y-108855270D01*
X202313322Y-108907334D01*
X202296694Y-108956686D01*
X202270212Y-109015286D01*
X202262552Y-109030902D01*
X202172006Y-109173893D01*
X202058125Y-109291543D01*
X201924141Y-109381089D01*
X201773286Y-109439772D01*
X201695881Y-109456147D01*
X201538849Y-109463810D01*
X201386753Y-109439016D01*
X201244054Y-109384306D01*
X201115212Y-109302223D01*
X201004686Y-109195309D01*
X200916936Y-109066107D01*
X200856423Y-108917158D01*
X200834283Y-108795265D01*
X200832288Y-108660751D01*
X200850295Y-108529908D01*
X200887446Y-108416572D01*
X200930372Y-108335543D01*
X201025933Y-108206987D01*
X201139221Y-108105527D01*
X201266071Y-108031172D01*
X201402318Y-107983933D01*
X201543795Y-107963818D01*
X201686337Y-107970839D01*
G37*
X191175531Y-116506412D02*
X191300843Y-116506532D01*
X191400048Y-116506984D01*
X191476478Y-116507972D01*
X191533459Y-116509697D01*
X191574323Y-116512361D01*
X191602397Y-116516169D01*
X191621012Y-116521321D01*
X191633496Y-116528020D01*
X191643179Y-116536470D01*
X191668216Y-116580029D01*
X191670142Y-116630057D01*
X191648364Y-116674310D01*
X191646553Y-116676245D01*
X191631638Y-116687376D01*
X191608868Y-116694771D01*
X191572696Y-116699157D01*
X191517573Y-116701256D01*
X191437950Y-116701795D01*
X191252409Y-116701795D01*
X191252409Y-117052963D01*
X191252309Y-117153918D01*
X191251766Y-117242674D01*
X191250458Y-117308955D01*
X191248067Y-117356773D01*
X191244271Y-117390146D01*
X191238752Y-117413086D01*
X191231188Y-117429610D01*
X191221259Y-117443733D01*
X191218210Y-117447469D01*
X191176700Y-117477614D01*
X191130929Y-117479696D01*
X191087084Y-117453274D01*
X191077793Y-117442523D01*
X191070508Y-117428412D01*
X191065156Y-117407319D01*
X191061440Y-117375398D01*
X191059064Y-117328802D01*
X191057734Y-117263685D01*
X191057153Y-117176201D01*
X191057025Y-117062505D01*
X191057025Y-116701795D01*
X190862731Y-116701795D01*
X190847953Y-116701794D01*
X190772708Y-116701494D01*
X190720992Y-116699977D01*
X190687185Y-116696250D01*
X190665668Y-116689318D01*
X190650821Y-116678186D01*
X190637024Y-116661860D01*
X190615926Y-116621003D01*
X190620056Y-116576029D01*
X190654197Y-116532712D01*
X190660775Y-116527763D01*
X190674369Y-116521325D01*
X190694906Y-116516314D01*
X190725689Y-116512557D01*
X190770020Y-116509876D01*
X190831201Y-116508096D01*
X190912535Y-116507043D01*
X191017323Y-116506539D01*
X191148867Y-116506410D01*
X191175531Y-116506412D01*
G36*
X191175531Y-116506412D02*
G01*
X191300843Y-116506532D01*
X191400048Y-116506984D01*
X191476478Y-116507972D01*
X191533459Y-116509697D01*
X191574323Y-116512361D01*
X191602397Y-116516169D01*
X191621012Y-116521321D01*
X191633496Y-116528020D01*
X191643179Y-116536470D01*
X191668216Y-116580029D01*
X191670142Y-116630057D01*
X191648364Y-116674310D01*
X191646553Y-116676245D01*
X191631638Y-116687376D01*
X191608868Y-116694771D01*
X191572696Y-116699157D01*
X191517573Y-116701256D01*
X191437950Y-116701795D01*
X191252409Y-116701795D01*
X191252409Y-117052963D01*
X191252309Y-117153918D01*
X191251766Y-117242674D01*
X191250458Y-117308955D01*
X191248067Y-117356773D01*
X191244271Y-117390146D01*
X191238752Y-117413086D01*
X191231188Y-117429610D01*
X191221259Y-117443733D01*
X191218210Y-117447469D01*
X191176700Y-117477614D01*
X191130929Y-117479696D01*
X191087084Y-117453274D01*
X191077793Y-117442523D01*
X191070508Y-117428412D01*
X191065156Y-117407319D01*
X191061440Y-117375398D01*
X191059064Y-117328802D01*
X191057734Y-117263685D01*
X191057153Y-117176201D01*
X191057025Y-117062505D01*
X191057025Y-116701795D01*
X190862731Y-116701795D01*
X190847953Y-116701794D01*
X190772708Y-116701494D01*
X190720992Y-116699977D01*
X190687185Y-116696250D01*
X190665668Y-116689318D01*
X190650821Y-116678186D01*
X190637024Y-116661860D01*
X190615926Y-116621003D01*
X190620056Y-116576029D01*
X190654197Y-116532712D01*
X190660775Y-116527763D01*
X190674369Y-116521325D01*
X190694906Y-116516314D01*
X190725689Y-116512557D01*
X190770020Y-116509876D01*
X190831201Y-116508096D01*
X190912535Y-116507043D01*
X191017323Y-116506539D01*
X191148867Y-116506410D01*
X191175531Y-116506412D01*
G37*
X190275486Y-116536470D02*
X190282985Y-116544711D01*
X190289762Y-116555636D01*
X190295202Y-116571315D01*
X190299434Y-116594559D01*
X190302584Y-116628181D01*
X190304782Y-116674992D01*
X190306155Y-116737803D01*
X190306832Y-116819427D01*
X190306940Y-116922674D01*
X190306608Y-117050357D01*
X190305964Y-117205286D01*
X190305872Y-117224158D01*
X190305092Y-117306386D01*
X190303331Y-117364544D01*
X190299942Y-117403660D01*
X190294277Y-117428761D01*
X190285688Y-117444876D01*
X190273527Y-117457032D01*
X190228983Y-117480220D01*
X190182454Y-117476357D01*
X190141311Y-117443733D01*
X190129316Y-117426155D01*
X190119396Y-117401477D01*
X190113581Y-117366824D01*
X190110845Y-117315505D01*
X190110161Y-117240833D01*
X190110161Y-117077535D01*
X189448859Y-117077535D01*
X189448859Y-117257038D01*
X189448762Y-117304688D01*
X189447747Y-117366370D01*
X189444849Y-117407022D01*
X189439128Y-117432358D01*
X189429644Y-117448092D01*
X189415456Y-117459937D01*
X189372518Y-117480000D01*
X189325539Y-117476449D01*
X189284625Y-117443733D01*
X189278426Y-117435405D01*
X189270524Y-117421394D01*
X189264491Y-117402848D01*
X189260077Y-117376123D01*
X189257029Y-117337570D01*
X189255097Y-117283544D01*
X189254028Y-117210398D01*
X189253571Y-117114486D01*
X189253475Y-116992162D01*
X189253475Y-116580192D01*
X189290365Y-116543301D01*
X189332141Y-116513688D01*
X189376381Y-116510107D01*
X189418800Y-116536470D01*
X189429831Y-116549478D01*
X189439699Y-116570636D01*
X189445474Y-116602545D01*
X189448184Y-116651636D01*
X189448859Y-116724339D01*
X189448859Y-116882150D01*
X190110161Y-116882150D01*
X190110161Y-116728360D01*
X190110744Y-116659533D01*
X190113359Y-116613568D01*
X190119371Y-116583511D01*
X190130147Y-116562407D01*
X190147052Y-116543301D01*
X190188828Y-116513688D01*
X190233067Y-116510107D01*
X190275486Y-116536470D01*
G36*
X190275486Y-116536470D02*
G01*
X190282985Y-116544711D01*
X190289762Y-116555636D01*
X190295202Y-116571315D01*
X190299434Y-116594559D01*
X190302584Y-116628181D01*
X190304782Y-116674992D01*
X190306155Y-116737803D01*
X190306832Y-116819427D01*
X190306940Y-116922674D01*
X190306608Y-117050357D01*
X190305964Y-117205286D01*
X190305872Y-117224158D01*
X190305092Y-117306386D01*
X190303331Y-117364544D01*
X190299942Y-117403660D01*
X190294277Y-117428761D01*
X190285688Y-117444876D01*
X190273527Y-117457032D01*
X190228983Y-117480220D01*
X190182454Y-117476357D01*
X190141311Y-117443733D01*
X190129316Y-117426155D01*
X190119396Y-117401477D01*
X190113581Y-117366824D01*
X190110845Y-117315505D01*
X190110161Y-117240833D01*
X190110161Y-117077535D01*
X189448859Y-117077535D01*
X189448859Y-117257038D01*
X189448762Y-117304688D01*
X189447747Y-117366370D01*
X189444849Y-117407022D01*
X189439128Y-117432358D01*
X189429644Y-117448092D01*
X189415456Y-117459937D01*
X189372518Y-117480000D01*
X189325539Y-117476449D01*
X189284625Y-117443733D01*
X189278426Y-117435405D01*
X189270524Y-117421394D01*
X189264491Y-117402848D01*
X189260077Y-117376123D01*
X189257029Y-117337570D01*
X189255097Y-117283544D01*
X189254028Y-117210398D01*
X189253571Y-117114486D01*
X189253475Y-116992162D01*
X189253475Y-116580192D01*
X189290365Y-116543301D01*
X189332141Y-116513688D01*
X189376381Y-116510107D01*
X189418800Y-116536470D01*
X189429831Y-116549478D01*
X189439699Y-116570636D01*
X189445474Y-116602545D01*
X189448184Y-116651636D01*
X189448859Y-116724339D01*
X189448859Y-116882150D01*
X190110161Y-116882150D01*
X190110161Y-116728360D01*
X190110744Y-116659533D01*
X190113359Y-116613568D01*
X190119371Y-116583511D01*
X190130147Y-116562407D01*
X190147052Y-116543301D01*
X190188828Y-116513688D01*
X190233067Y-116510107D01*
X190275486Y-116536470D01*
G37*
X196540071Y-117320311D02*
X196537449Y-117363950D01*
X196533550Y-117394466D01*
X196528122Y-117415504D01*
X196520914Y-117430711D01*
X196511674Y-117443733D01*
X196480524Y-117483334D01*
X196259928Y-117482543D01*
X196213602Y-117482146D01*
X196082485Y-117477579D01*
X195974696Y-117467351D01*
X195885369Y-117450632D01*
X195809637Y-117426595D01*
X195742634Y-117394409D01*
X195738162Y-117391857D01*
X195661194Y-117342972D01*
X195604805Y-117293757D01*
X195561115Y-117235862D01*
X195522239Y-117160937D01*
X195516539Y-117148135D01*
X195486480Y-117064012D01*
X195478845Y-117003362D01*
X195677544Y-117003362D01*
X195685017Y-117036284D01*
X195692640Y-117057424D01*
X195736482Y-117137183D01*
X195799506Y-117198097D01*
X195884401Y-117242212D01*
X195993851Y-117271575D01*
X195997570Y-117272243D01*
X196059193Y-117280181D01*
X196134277Y-117285810D01*
X196207418Y-117287949D01*
X196332409Y-117287949D01*
X196332409Y-116701795D01*
X196215930Y-116702392D01*
X196126836Y-116705688D01*
X196003821Y-116720668D01*
X195898224Y-116746682D01*
X195815713Y-116782594D01*
X195774521Y-116810191D01*
X195737083Y-116849820D01*
X195706010Y-116906307D01*
X195696521Y-116927564D01*
X195680779Y-116970836D01*
X195677544Y-117003362D01*
X195478845Y-117003362D01*
X195477199Y-116990284D01*
X195488651Y-116917024D01*
X195520792Y-116834304D01*
X195521851Y-116832050D01*
X195575707Y-116739624D01*
X195643186Y-116664271D01*
X195726697Y-116604935D01*
X195828647Y-116560563D01*
X195951445Y-116530101D01*
X196097499Y-116512493D01*
X196269217Y-116506687D01*
X196273972Y-116506681D01*
X196353881Y-116506867D01*
X196409706Y-116508247D01*
X196447135Y-116511701D01*
X196471857Y-116518108D01*
X196489560Y-116528348D01*
X196505933Y-116543301D01*
X196542824Y-116580192D01*
X196542824Y-116992162D01*
X196542790Y-117074181D01*
X196542490Y-117179072D01*
X196541668Y-117259900D01*
X196540926Y-117287949D01*
X196540071Y-117320311D01*
G36*
X196540071Y-117320311D02*
G01*
X196537449Y-117363950D01*
X196533550Y-117394466D01*
X196528122Y-117415504D01*
X196520914Y-117430711D01*
X196511674Y-117443733D01*
X196480524Y-117483334D01*
X196259928Y-117482543D01*
X196213602Y-117482146D01*
X196082485Y-117477579D01*
X195974696Y-117467351D01*
X195885369Y-117450632D01*
X195809637Y-117426595D01*
X195742634Y-117394409D01*
X195738162Y-117391857D01*
X195661194Y-117342972D01*
X195604805Y-117293757D01*
X195561115Y-117235862D01*
X195522239Y-117160937D01*
X195516539Y-117148135D01*
X195486480Y-117064012D01*
X195478845Y-117003362D01*
X195677544Y-117003362D01*
X195685017Y-117036284D01*
X195692640Y-117057424D01*
X195736482Y-117137183D01*
X195799506Y-117198097D01*
X195884401Y-117242212D01*
X195993851Y-117271575D01*
X195997570Y-117272243D01*
X196059193Y-117280181D01*
X196134277Y-117285810D01*
X196207418Y-117287949D01*
X196332409Y-117287949D01*
X196332409Y-116701795D01*
X196215930Y-116702392D01*
X196126836Y-116705688D01*
X196003821Y-116720668D01*
X195898224Y-116746682D01*
X195815713Y-116782594D01*
X195774521Y-116810191D01*
X195737083Y-116849820D01*
X195706010Y-116906307D01*
X195696521Y-116927564D01*
X195680779Y-116970836D01*
X195677544Y-117003362D01*
X195478845Y-117003362D01*
X195477199Y-116990284D01*
X195488651Y-116917024D01*
X195520792Y-116834304D01*
X195521851Y-116832050D01*
X195575707Y-116739624D01*
X195643186Y-116664271D01*
X195726697Y-116604935D01*
X195828647Y-116560563D01*
X195951445Y-116530101D01*
X196097499Y-116512493D01*
X196269217Y-116506687D01*
X196273972Y-116506681D01*
X196353881Y-116506867D01*
X196409706Y-116508247D01*
X196447135Y-116511701D01*
X196471857Y-116518108D01*
X196489560Y-116528348D01*
X196505933Y-116543301D01*
X196542824Y-116580192D01*
X196542824Y-116992162D01*
X196542790Y-117074181D01*
X196542490Y-117179072D01*
X196541668Y-117259900D01*
X196540926Y-117287949D01*
X196540071Y-117320311D01*
G37*
X205981662Y-116753192D02*
X205981734Y-116860519D01*
X205981403Y-116994872D01*
X205981351Y-117095605D01*
X205981011Y-117199330D01*
X205980154Y-117279225D01*
X205978551Y-117338773D01*
X205975973Y-117381460D01*
X205972192Y-117410769D01*
X205966979Y-117430185D01*
X205960106Y-117443192D01*
X205951344Y-117453274D01*
X205942068Y-117461574D01*
X205924763Y-117471293D01*
X205899270Y-117477622D01*
X205860123Y-117481266D01*
X205801855Y-117482935D01*
X205719000Y-117483334D01*
X205653834Y-117482834D01*
X205511566Y-117476938D01*
X205392771Y-117463508D01*
X205293188Y-117441423D01*
X205208552Y-117409563D01*
X205134600Y-117366808D01*
X205067067Y-117312038D01*
X205059095Y-117304246D01*
X205010011Y-117239663D01*
X204968607Y-117158705D01*
X204940005Y-117073174D01*
X204932974Y-117021593D01*
X205128974Y-117021593D01*
X205153314Y-117089406D01*
X205192816Y-117150538D01*
X205254986Y-117207000D01*
X205336717Y-117246678D01*
X205442090Y-117272155D01*
X205444074Y-117272472D01*
X205509272Y-117280183D01*
X205587415Y-117285696D01*
X205662025Y-117287835D01*
X205786019Y-117287949D01*
X205786019Y-116701795D01*
X205684569Y-116701776D01*
X205680538Y-116701788D01*
X205612479Y-116704404D01*
X205532461Y-116710694D01*
X205456961Y-116719386D01*
X205390449Y-116731763D01*
X205290927Y-116766735D01*
X205214362Y-116819056D01*
X205159109Y-116889665D01*
X205130861Y-116957919D01*
X205128974Y-117021593D01*
X204932974Y-117021593D01*
X204929332Y-116994872D01*
X204931035Y-116966625D01*
X204947427Y-116890184D01*
X204977421Y-116810421D01*
X205016337Y-116738462D01*
X205059495Y-116685433D01*
X205085512Y-116662769D01*
X205158353Y-116610597D01*
X205238638Y-116570483D01*
X205330763Y-116541246D01*
X205439125Y-116521699D01*
X205568119Y-116510660D01*
X205722143Y-116506944D01*
X205774708Y-116506409D01*
X205835566Y-116505859D01*
X205883229Y-116508261D01*
X205919297Y-116516625D01*
X205945368Y-116533960D01*
X205963041Y-116563275D01*
X205973915Y-116607579D01*
X205979590Y-116669881D01*
X205980384Y-116701795D01*
X205981662Y-116753192D01*
G36*
X205981662Y-116753192D02*
G01*
X205981734Y-116860519D01*
X205981403Y-116994872D01*
X205981351Y-117095605D01*
X205981011Y-117199330D01*
X205980154Y-117279225D01*
X205978551Y-117338773D01*
X205975973Y-117381460D01*
X205972192Y-117410769D01*
X205966979Y-117430185D01*
X205960106Y-117443192D01*
X205951344Y-117453274D01*
X205942068Y-117461574D01*
X205924763Y-117471293D01*
X205899270Y-117477622D01*
X205860123Y-117481266D01*
X205801855Y-117482935D01*
X205719000Y-117483334D01*
X205653834Y-117482834D01*
X205511566Y-117476938D01*
X205392771Y-117463508D01*
X205293188Y-117441423D01*
X205208552Y-117409563D01*
X205134600Y-117366808D01*
X205067067Y-117312038D01*
X205059095Y-117304246D01*
X205010011Y-117239663D01*
X204968607Y-117158705D01*
X204940005Y-117073174D01*
X204932974Y-117021593D01*
X205128974Y-117021593D01*
X205153314Y-117089406D01*
X205192816Y-117150538D01*
X205254986Y-117207000D01*
X205336717Y-117246678D01*
X205442090Y-117272155D01*
X205444074Y-117272472D01*
X205509272Y-117280183D01*
X205587415Y-117285696D01*
X205662025Y-117287835D01*
X205786019Y-117287949D01*
X205786019Y-116701795D01*
X205684569Y-116701776D01*
X205680538Y-116701788D01*
X205612479Y-116704404D01*
X205532461Y-116710694D01*
X205456961Y-116719386D01*
X205390449Y-116731763D01*
X205290927Y-116766735D01*
X205214362Y-116819056D01*
X205159109Y-116889665D01*
X205130861Y-116957919D01*
X205128974Y-117021593D01*
X204932974Y-117021593D01*
X204929332Y-116994872D01*
X204931035Y-116966625D01*
X204947427Y-116890184D01*
X204977421Y-116810421D01*
X205016337Y-116738462D01*
X205059495Y-116685433D01*
X205085512Y-116662769D01*
X205158353Y-116610597D01*
X205238638Y-116570483D01*
X205330763Y-116541246D01*
X205439125Y-116521699D01*
X205568119Y-116510660D01*
X205722143Y-116506944D01*
X205774708Y-116506409D01*
X205835566Y-116505859D01*
X205883229Y-116508261D01*
X205919297Y-116516625D01*
X205945368Y-116533960D01*
X205963041Y-116563275D01*
X205973915Y-116607579D01*
X205979590Y-116669881D01*
X205980384Y-116701795D01*
X205981662Y-116753192D01*
G37*
X199398184Y-116504846D02*
X199413372Y-116513017D01*
X199427416Y-116527212D01*
X199442443Y-116546011D01*
X199448371Y-116553948D01*
X199456357Y-116567920D01*
X199462454Y-116586327D01*
X199466916Y-116612827D01*
X199469997Y-116651083D01*
X199471951Y-116704755D01*
X199473033Y-116777503D01*
X199473495Y-116872988D01*
X199473593Y-116994872D01*
X199473562Y-117072797D01*
X199473272Y-117178091D01*
X199472461Y-117259227D01*
X199470875Y-117319866D01*
X199468262Y-117363669D01*
X199464366Y-117394296D01*
X199458933Y-117415409D01*
X199451710Y-117430667D01*
X199442443Y-117443733D01*
X199401931Y-117476209D01*
X199355410Y-117480042D01*
X199306175Y-117454626D01*
X199300605Y-117450000D01*
X199289720Y-117438646D01*
X199281651Y-117423268D01*
X199275816Y-117399526D01*
X199271633Y-117363084D01*
X199268521Y-117309604D01*
X199265897Y-117234747D01*
X199263179Y-117134177D01*
X199255664Y-116842435D01*
X198902469Y-117162814D01*
X198804169Y-117251718D01*
X198717391Y-117329091D01*
X198647902Y-117388946D01*
X198593217Y-117432777D01*
X198550854Y-117462077D01*
X198518332Y-117478340D01*
X198493166Y-117483060D01*
X198472875Y-117477731D01*
X198454976Y-117463846D01*
X198436987Y-117442899D01*
X198428672Y-117431605D01*
X198421174Y-117417523D01*
X198415568Y-117398673D01*
X198411638Y-117371443D01*
X198409168Y-117332221D01*
X198407944Y-117277394D01*
X198407751Y-117203348D01*
X198408373Y-117106471D01*
X198409594Y-116983150D01*
X198414007Y-116563835D01*
X198449489Y-116535123D01*
X198484191Y-116513566D01*
X198527937Y-116509877D01*
X198573910Y-116535110D01*
X198579651Y-116539882D01*
X198590478Y-116551238D01*
X198598505Y-116566671D01*
X198604310Y-116590510D01*
X198608474Y-116627084D01*
X198611576Y-116680722D01*
X198614193Y-116755754D01*
X198616906Y-116856508D01*
X198624421Y-117149207D01*
X198864895Y-116931138D01*
X198980374Y-116826448D01*
X199081253Y-116735392D01*
X199163979Y-116661702D01*
X199230678Y-116603960D01*
X199283476Y-116560749D01*
X199324499Y-116530649D01*
X199355874Y-116512244D01*
X199379727Y-116504116D01*
X199398184Y-116504846D01*
G36*
X199398184Y-116504846D02*
G01*
X199413372Y-116513017D01*
X199427416Y-116527212D01*
X199442443Y-116546011D01*
X199448371Y-116553948D01*
X199456357Y-116567920D01*
X199462454Y-116586327D01*
X199466916Y-116612827D01*
X199469997Y-116651083D01*
X199471951Y-116704755D01*
X199473033Y-116777503D01*
X199473495Y-116872988D01*
X199473593Y-116994872D01*
X199473562Y-117072797D01*
X199473272Y-117178091D01*
X199472461Y-117259227D01*
X199470875Y-117319866D01*
X199468262Y-117363669D01*
X199464366Y-117394296D01*
X199458933Y-117415409D01*
X199451710Y-117430667D01*
X199442443Y-117443733D01*
X199401931Y-117476209D01*
X199355410Y-117480042D01*
X199306175Y-117454626D01*
X199300605Y-117450000D01*
X199289720Y-117438646D01*
X199281651Y-117423268D01*
X199275816Y-117399526D01*
X199271633Y-117363084D01*
X199268521Y-117309604D01*
X199265897Y-117234747D01*
X199263179Y-117134177D01*
X199255664Y-116842435D01*
X198902469Y-117162814D01*
X198804169Y-117251718D01*
X198717391Y-117329091D01*
X198647902Y-117388946D01*
X198593217Y-117432777D01*
X198550854Y-117462077D01*
X198518332Y-117478340D01*
X198493166Y-117483060D01*
X198472875Y-117477731D01*
X198454976Y-117463846D01*
X198436987Y-117442899D01*
X198428672Y-117431605D01*
X198421174Y-117417523D01*
X198415568Y-117398673D01*
X198411638Y-117371443D01*
X198409168Y-117332221D01*
X198407944Y-117277394D01*
X198407751Y-117203348D01*
X198408373Y-117106471D01*
X198409594Y-116983150D01*
X198414007Y-116563835D01*
X198449489Y-116535123D01*
X198484191Y-116513566D01*
X198527937Y-116509877D01*
X198573910Y-116535110D01*
X198579651Y-116539882D01*
X198590478Y-116551238D01*
X198598505Y-116566671D01*
X198604310Y-116590510D01*
X198608474Y-116627084D01*
X198611576Y-116680722D01*
X198614193Y-116755754D01*
X198616906Y-116856508D01*
X198624421Y-117149207D01*
X198864895Y-116931138D01*
X198980374Y-116826448D01*
X199081253Y-116735392D01*
X199163979Y-116661702D01*
X199230678Y-116603960D01*
X199283476Y-116560749D01*
X199324499Y-116530649D01*
X199355874Y-116512244D01*
X199379727Y-116504116D01*
X199398184Y-116504846D01*
G37*
X200459621Y-116513217D02*
X200600754Y-116534938D01*
X200725652Y-116572285D01*
X200830557Y-116624083D01*
X200911709Y-116689162D01*
X200946418Y-116732913D01*
X200985703Y-116798414D01*
X201019349Y-116870119D01*
X201042847Y-116938241D01*
X201051688Y-116992993D01*
X201049611Y-117019241D01*
X201032381Y-117087583D01*
X201001543Y-117162840D01*
X200961746Y-117234622D01*
X200917640Y-117292542D01*
X200904065Y-117306319D01*
X200814750Y-117375250D01*
X200708074Y-117428362D01*
X200593297Y-117460849D01*
X200520120Y-117471649D01*
X200395700Y-117480442D01*
X200276170Y-117477663D01*
X200166346Y-117464023D01*
X200071044Y-117440232D01*
X199995079Y-117406998D01*
X199943267Y-117365033D01*
X199941436Y-117362403D01*
X199932000Y-117328818D01*
X199926356Y-117265910D01*
X199924480Y-117173428D01*
X199925625Y-117090574D01*
X199931909Y-117027491D01*
X199947472Y-116984750D01*
X199976455Y-116958719D01*
X200022998Y-116945764D01*
X200091241Y-116942253D01*
X200185324Y-116944554D01*
X200250055Y-116948564D01*
X200316884Y-116959471D01*
X200360145Y-116978181D01*
X200383389Y-117006453D01*
X200390167Y-117046048D01*
X200390026Y-117052094D01*
X200378440Y-117098417D01*
X200346475Y-117129594D01*
X200291536Y-117147168D01*
X200211031Y-117152683D01*
X200119865Y-117152683D01*
X200119865Y-117203743D01*
X200119932Y-117215906D01*
X200122888Y-117238873D01*
X200135226Y-117252578D01*
X200163692Y-117261814D01*
X200215031Y-117271376D01*
X200222319Y-117272620D01*
X200351395Y-117285805D01*
X200471206Y-117281918D01*
X200578924Y-117262307D01*
X200671718Y-117228317D01*
X200746760Y-117181293D01*
X200801220Y-117122581D01*
X200832270Y-117053527D01*
X200837079Y-116975478D01*
X200829732Y-116937008D01*
X200794207Y-116862599D01*
X200732713Y-116801810D01*
X200646199Y-116755431D01*
X200535614Y-116724252D01*
X200502763Y-116718329D01*
X200383834Y-116704351D01*
X200277582Y-116705987D01*
X200173613Y-116723209D01*
X200126824Y-116732248D01*
X200066330Y-116733603D01*
X200024639Y-116716919D01*
X199997807Y-116681256D01*
X199989308Y-116643649D01*
X200001938Y-116602078D01*
X200014358Y-116584204D01*
X200059936Y-116552875D01*
X200129995Y-116529082D01*
X200221216Y-116513776D01*
X200330279Y-116507909D01*
X200459621Y-116513217D01*
G36*
X200459621Y-116513217D02*
G01*
X200600754Y-116534938D01*
X200725652Y-116572285D01*
X200830557Y-116624083D01*
X200911709Y-116689162D01*
X200946418Y-116732913D01*
X200985703Y-116798414D01*
X201019349Y-116870119D01*
X201042847Y-116938241D01*
X201051688Y-116992993D01*
X201049611Y-117019241D01*
X201032381Y-117087583D01*
X201001543Y-117162840D01*
X200961746Y-117234622D01*
X200917640Y-117292542D01*
X200904065Y-117306319D01*
X200814750Y-117375250D01*
X200708074Y-117428362D01*
X200593297Y-117460849D01*
X200520120Y-117471649D01*
X200395700Y-117480442D01*
X200276170Y-117477663D01*
X200166346Y-117464023D01*
X200071044Y-117440232D01*
X199995079Y-117406998D01*
X199943267Y-117365033D01*
X199941436Y-117362403D01*
X199932000Y-117328818D01*
X199926356Y-117265910D01*
X199924480Y-117173428D01*
X199925625Y-117090574D01*
X199931909Y-117027491D01*
X199947472Y-116984750D01*
X199976455Y-116958719D01*
X200022998Y-116945764D01*
X200091241Y-116942253D01*
X200185324Y-116944554D01*
X200250055Y-116948564D01*
X200316884Y-116959471D01*
X200360145Y-116978181D01*
X200383389Y-117006453D01*
X200390167Y-117046048D01*
X200390026Y-117052094D01*
X200378440Y-117098417D01*
X200346475Y-117129594D01*
X200291536Y-117147168D01*
X200211031Y-117152683D01*
X200119865Y-117152683D01*
X200119865Y-117203743D01*
X200119932Y-117215906D01*
X200122888Y-117238873D01*
X200135226Y-117252578D01*
X200163692Y-117261814D01*
X200215031Y-117271376D01*
X200222319Y-117272620D01*
X200351395Y-117285805D01*
X200471206Y-117281918D01*
X200578924Y-117262307D01*
X200671718Y-117228317D01*
X200746760Y-117181293D01*
X200801220Y-117122581D01*
X200832270Y-117053527D01*
X200837079Y-116975478D01*
X200829732Y-116937008D01*
X200794207Y-116862599D01*
X200732713Y-116801810D01*
X200646199Y-116755431D01*
X200535614Y-116724252D01*
X200502763Y-116718329D01*
X200383834Y-116704351D01*
X200277582Y-116705987D01*
X200173613Y-116723209D01*
X200126824Y-116732248D01*
X200066330Y-116733603D01*
X200024639Y-116716919D01*
X199997807Y-116681256D01*
X199989308Y-116643649D01*
X200001938Y-116602078D01*
X200014358Y-116584204D01*
X200059936Y-116552875D01*
X200129995Y-116529082D01*
X200221216Y-116513776D01*
X200330279Y-116507909D01*
X200459621Y-116513217D01*
G37*
X197864336Y-116546011D02*
X197870925Y-116554910D01*
X197878706Y-116568984D01*
X197884645Y-116587739D01*
X197888991Y-116614799D01*
X197891990Y-116653790D01*
X197893892Y-116708339D01*
X197894943Y-116782069D01*
X197895392Y-116878608D01*
X197895486Y-117001580D01*
X197895448Y-117089339D01*
X197895139Y-117193607D01*
X197894313Y-117273845D01*
X197892725Y-117333621D01*
X197890132Y-117376502D01*
X197886291Y-117406056D01*
X197880958Y-117425852D01*
X197873890Y-117439457D01*
X197864842Y-117450440D01*
X197858831Y-117456641D01*
X197847874Y-117465277D01*
X197832750Y-117471816D01*
X197809760Y-117476550D01*
X197775204Y-117479769D01*
X197725386Y-117481766D01*
X197656604Y-117482831D01*
X197565161Y-117483256D01*
X197447357Y-117483334D01*
X197421163Y-117483325D01*
X197305302Y-117482970D01*
X197215232Y-117481951D01*
X197147393Y-117480068D01*
X197098224Y-117477123D01*
X197064162Y-117472919D01*
X197041646Y-117467256D01*
X197027115Y-117459937D01*
X197013145Y-117446642D01*
X196995490Y-117405214D01*
X196997064Y-117357434D01*
X197018585Y-117315434D01*
X197021500Y-117312404D01*
X197033066Y-117304059D01*
X197050829Y-117297847D01*
X197078765Y-117293458D01*
X197120851Y-117290584D01*
X197181065Y-117288914D01*
X197263382Y-117288139D01*
X197371780Y-117287949D01*
X197700102Y-117287949D01*
X197700102Y-117077535D01*
X197483838Y-117077535D01*
X197436350Y-117077428D01*
X197362100Y-117076366D01*
X197309993Y-117073697D01*
X197274774Y-117068849D01*
X197251185Y-117061249D01*
X197233971Y-117050325D01*
X197229121Y-117046086D01*
X197204614Y-117004847D01*
X197203770Y-116956471D01*
X197227120Y-116911711D01*
X197227203Y-116911620D01*
X197240078Y-116900135D01*
X197257777Y-116892073D01*
X197285346Y-116886839D01*
X197327831Y-116883837D01*
X197390279Y-116882473D01*
X197477737Y-116882150D01*
X197701602Y-116882150D01*
X197697094Y-116795730D01*
X197692587Y-116709310D01*
X197370295Y-116705245D01*
X197336989Y-116704809D01*
X197228324Y-116702839D01*
X197145354Y-116699665D01*
X197084626Y-116694345D01*
X197042685Y-116685940D01*
X197016078Y-116673506D01*
X197001349Y-116656103D01*
X196995045Y-116632790D01*
X196993711Y-116602626D01*
X196993719Y-116599476D01*
X196995255Y-116572808D01*
X197001643Y-116551782D01*
X197016032Y-116535731D01*
X197041573Y-116523984D01*
X197081419Y-116515874D01*
X197138718Y-116510730D01*
X197216623Y-116507884D01*
X197318284Y-116506667D01*
X197446852Y-116506410D01*
X197833186Y-116506410D01*
X197864336Y-116546011D01*
G36*
X197864336Y-116546011D02*
G01*
X197870925Y-116554910D01*
X197878706Y-116568984D01*
X197884645Y-116587739D01*
X197888991Y-116614799D01*
X197891990Y-116653790D01*
X197893892Y-116708339D01*
X197894943Y-116782069D01*
X197895392Y-116878608D01*
X197895486Y-117001580D01*
X197895448Y-117089339D01*
X197895139Y-117193607D01*
X197894313Y-117273845D01*
X197892725Y-117333621D01*
X197890132Y-117376502D01*
X197886291Y-117406056D01*
X197880958Y-117425852D01*
X197873890Y-117439457D01*
X197864842Y-117450440D01*
X197858831Y-117456641D01*
X197847874Y-117465277D01*
X197832750Y-117471816D01*
X197809760Y-117476550D01*
X197775204Y-117479769D01*
X197725386Y-117481766D01*
X197656604Y-117482831D01*
X197565161Y-117483256D01*
X197447357Y-117483334D01*
X197421163Y-117483325D01*
X197305302Y-117482970D01*
X197215232Y-117481951D01*
X197147393Y-117480068D01*
X197098224Y-117477123D01*
X197064162Y-117472919D01*
X197041646Y-117467256D01*
X197027115Y-117459937D01*
X197013145Y-117446642D01*
X196995490Y-117405214D01*
X196997064Y-117357434D01*
X197018585Y-117315434D01*
X197021500Y-117312404D01*
X197033066Y-117304059D01*
X197050829Y-117297847D01*
X197078765Y-117293458D01*
X197120851Y-117290584D01*
X197181065Y-117288914D01*
X197263382Y-117288139D01*
X197371780Y-117287949D01*
X197700102Y-117287949D01*
X197700102Y-117077535D01*
X197483838Y-117077535D01*
X197436350Y-117077428D01*
X197362100Y-117076366D01*
X197309993Y-117073697D01*
X197274774Y-117068849D01*
X197251185Y-117061249D01*
X197233971Y-117050325D01*
X197229121Y-117046086D01*
X197204614Y-117004847D01*
X197203770Y-116956471D01*
X197227120Y-116911711D01*
X197227203Y-116911620D01*
X197240078Y-116900135D01*
X197257777Y-116892073D01*
X197285346Y-116886839D01*
X197327831Y-116883837D01*
X197390279Y-116882473D01*
X197477737Y-116882150D01*
X197701602Y-116882150D01*
X197697094Y-116795730D01*
X197692587Y-116709310D01*
X197370295Y-116705245D01*
X197336989Y-116704809D01*
X197228324Y-116702839D01*
X197145354Y-116699665D01*
X197084626Y-116694345D01*
X197042685Y-116685940D01*
X197016078Y-116673506D01*
X197001349Y-116656103D01*
X196995045Y-116632790D01*
X196993711Y-116602626D01*
X196993719Y-116599476D01*
X196995255Y-116572808D01*
X197001643Y-116551782D01*
X197016032Y-116535731D01*
X197041573Y-116523984D01*
X197081419Y-116515874D01*
X197138718Y-116510730D01*
X197216623Y-116507884D01*
X197318284Y-116506667D01*
X197446852Y-116506410D01*
X197833186Y-116506410D01*
X197864336Y-116546011D01*
G37*
X204091020Y-116506432D02*
X204193663Y-116506688D01*
X204272142Y-116507466D01*
X204330172Y-116509052D01*
X204371469Y-116511732D01*
X204399750Y-116515790D01*
X204418732Y-116521512D01*
X204432129Y-116529183D01*
X204443660Y-116539090D01*
X204446036Y-116541327D01*
X204455680Y-116551364D01*
X204463191Y-116563370D01*
X204468837Y-116580857D01*
X204472883Y-116607334D01*
X204475596Y-116646315D01*
X204477242Y-116701310D01*
X204478088Y-116775830D01*
X204478400Y-116873387D01*
X204478445Y-116997492D01*
X204478396Y-117094401D01*
X204478065Y-117198481D01*
X204477218Y-117278648D01*
X204475624Y-117338398D01*
X204473053Y-117381228D01*
X204469275Y-117410634D01*
X204464058Y-117430112D01*
X204457171Y-117443160D01*
X204448386Y-117453274D01*
X204443947Y-117457504D01*
X204432601Y-117465640D01*
X204416622Y-117471863D01*
X204392377Y-117476430D01*
X204356235Y-117479595D01*
X204304563Y-117481613D01*
X204233728Y-117482739D01*
X204140098Y-117483227D01*
X204020043Y-117483334D01*
X203963981Y-117483318D01*
X203855945Y-117483075D01*
X203772745Y-117482339D01*
X203710749Y-117480854D01*
X203666325Y-117478365D01*
X203635840Y-117474618D01*
X203615662Y-117469357D01*
X203602159Y-117462327D01*
X203591699Y-117453274D01*
X203572093Y-117424518D01*
X203561640Y-117385641D01*
X203568961Y-117353813D01*
X203591699Y-117318008D01*
X203598328Y-117311873D01*
X203611342Y-117303503D01*
X203630135Y-117297345D01*
X203658753Y-117293063D01*
X203701243Y-117290320D01*
X203761651Y-117288778D01*
X203844024Y-117288100D01*
X203952409Y-117287949D01*
X204283060Y-117287949D01*
X204283060Y-117077535D01*
X204068475Y-117077535D01*
X204020789Y-117077341D01*
X203933420Y-117075048D01*
X203870525Y-117069143D01*
X203828274Y-117058353D01*
X203802837Y-117041404D01*
X203790384Y-117017021D01*
X203787084Y-116983931D01*
X203788146Y-116956963D01*
X203795138Y-116927905D01*
X203812171Y-116907467D01*
X203843245Y-116894159D01*
X203892357Y-116886496D01*
X203963508Y-116882989D01*
X204060696Y-116882150D01*
X204284560Y-116882150D01*
X204275546Y-116709310D01*
X203945745Y-116705251D01*
X203862414Y-116704081D01*
X203771268Y-116702158D01*
X203703496Y-116699588D01*
X203655230Y-116696059D01*
X203622602Y-116691261D01*
X203601746Y-116684885D01*
X203588793Y-116676620D01*
X203580784Y-116668095D01*
X203563465Y-116625916D01*
X203568205Y-116578404D01*
X203594533Y-116537055D01*
X203598863Y-116533163D01*
X203610818Y-116524707D01*
X203626932Y-116518247D01*
X203650905Y-116513515D01*
X203686437Y-116510244D01*
X203737227Y-116508165D01*
X203806976Y-116507012D01*
X203899384Y-116506516D01*
X204018150Y-116506410D01*
X204091020Y-116506432D01*
G36*
X204091020Y-116506432D02*
G01*
X204193663Y-116506688D01*
X204272142Y-116507466D01*
X204330172Y-116509052D01*
X204371469Y-116511732D01*
X204399750Y-116515790D01*
X204418732Y-116521512D01*
X204432129Y-116529183D01*
X204443660Y-116539090D01*
X204446036Y-116541327D01*
X204455680Y-116551364D01*
X204463191Y-116563370D01*
X204468837Y-116580857D01*
X204472883Y-116607334D01*
X204475596Y-116646315D01*
X204477242Y-116701310D01*
X204478088Y-116775830D01*
X204478400Y-116873387D01*
X204478445Y-116997492D01*
X204478396Y-117094401D01*
X204478065Y-117198481D01*
X204477218Y-117278648D01*
X204475624Y-117338398D01*
X204473053Y-117381228D01*
X204469275Y-117410634D01*
X204464058Y-117430112D01*
X204457171Y-117443160D01*
X204448386Y-117453274D01*
X204443947Y-117457504D01*
X204432601Y-117465640D01*
X204416622Y-117471863D01*
X204392377Y-117476430D01*
X204356235Y-117479595D01*
X204304563Y-117481613D01*
X204233728Y-117482739D01*
X204140098Y-117483227D01*
X204020043Y-117483334D01*
X203963981Y-117483318D01*
X203855945Y-117483075D01*
X203772745Y-117482339D01*
X203710749Y-117480854D01*
X203666325Y-117478365D01*
X203635840Y-117474618D01*
X203615662Y-117469357D01*
X203602159Y-117462327D01*
X203591699Y-117453274D01*
X203572093Y-117424518D01*
X203561640Y-117385641D01*
X203568961Y-117353813D01*
X203591699Y-117318008D01*
X203598328Y-117311873D01*
X203611342Y-117303503D01*
X203630135Y-117297345D01*
X203658753Y-117293063D01*
X203701243Y-117290320D01*
X203761651Y-117288778D01*
X203844024Y-117288100D01*
X203952409Y-117287949D01*
X204283060Y-117287949D01*
X204283060Y-117077535D01*
X204068475Y-117077535D01*
X204020789Y-117077341D01*
X203933420Y-117075048D01*
X203870525Y-117069143D01*
X203828274Y-117058353D01*
X203802837Y-117041404D01*
X203790384Y-117017021D01*
X203787084Y-116983931D01*
X203788146Y-116956963D01*
X203795138Y-116927905D01*
X203812171Y-116907467D01*
X203843245Y-116894159D01*
X203892357Y-116886496D01*
X203963508Y-116882989D01*
X204060696Y-116882150D01*
X204284560Y-116882150D01*
X204275546Y-116709310D01*
X203945745Y-116705251D01*
X203862414Y-116704081D01*
X203771268Y-116702158D01*
X203703496Y-116699588D01*
X203655230Y-116696059D01*
X203622602Y-116691261D01*
X203601746Y-116684885D01*
X203588793Y-116676620D01*
X203580784Y-116668095D01*
X203563465Y-116625916D01*
X203568205Y-116578404D01*
X203594533Y-116537055D01*
X203598863Y-116533163D01*
X203610818Y-116524707D01*
X203626932Y-116518247D01*
X203650905Y-116513515D01*
X203686437Y-116510244D01*
X203737227Y-116508165D01*
X203806976Y-116507012D01*
X203899384Y-116506516D01*
X204018150Y-116506410D01*
X204091020Y-116506432D01*
G37*
X192685208Y-116518940D02*
X192709119Y-116543585D01*
X192736546Y-116584966D01*
X192769607Y-116645790D01*
X192810420Y-116728763D01*
X192861104Y-116836594D01*
X192880587Y-116878376D01*
X192920193Y-116962496D01*
X192954935Y-117035196D01*
X192982886Y-117092507D01*
X193002120Y-117130455D01*
X193010711Y-117145069D01*
X193012520Y-117144296D01*
X193025823Y-117125727D01*
X193048844Y-117086401D01*
X193078928Y-117030994D01*
X193113422Y-116964180D01*
X193134687Y-116922258D01*
X193173230Y-116848562D01*
X193203170Y-116796617D01*
X193227422Y-116762697D01*
X193248898Y-116743079D01*
X193270512Y-116734040D01*
X193295177Y-116731854D01*
X193309160Y-116732487D01*
X193330616Y-116738088D01*
X193351005Y-116752552D01*
X193373103Y-116779542D01*
X193399689Y-116822725D01*
X193433540Y-116885765D01*
X193477434Y-116972328D01*
X193490392Y-116997963D01*
X193522954Y-117060096D01*
X193549895Y-117108241D01*
X193568710Y-117138049D01*
X193576897Y-117145168D01*
X193578717Y-117140813D01*
X193591198Y-117112975D01*
X193613646Y-117063796D01*
X193644156Y-116997426D01*
X193680823Y-116918014D01*
X193721742Y-116829707D01*
X193757309Y-116753525D01*
X193796749Y-116670995D01*
X193827465Y-116610100D01*
X193851401Y-116567442D01*
X193870502Y-116539625D01*
X193886713Y-116523253D01*
X193901978Y-116514931D01*
X193914506Y-116511080D01*
X193947930Y-116510882D01*
X193984067Y-116531308D01*
X193985798Y-116532620D01*
X194015200Y-116562756D01*
X194029909Y-116592345D01*
X194029971Y-116593197D01*
X194023926Y-116616711D01*
X194006799Y-116662731D01*
X193980493Y-116727096D01*
X193946910Y-116805645D01*
X193907952Y-116894221D01*
X193865522Y-116988661D01*
X193821522Y-117084807D01*
X193777854Y-117178499D01*
X193736420Y-117265576D01*
X193699123Y-117341880D01*
X193667864Y-117403249D01*
X193644546Y-117445525D01*
X193631071Y-117464547D01*
X193585262Y-117482345D01*
X193529748Y-117473876D01*
X193522606Y-117467622D01*
X193501532Y-117438131D01*
X193471973Y-117389190D01*
X193436803Y-117325661D01*
X193398894Y-117252407D01*
X193292686Y-117040397D01*
X193195248Y-117235563D01*
X193182340Y-117261246D01*
X193146421Y-117330940D01*
X193114431Y-117390571D01*
X193089449Y-117434486D01*
X193074556Y-117457032D01*
X193073030Y-117458687D01*
X193035591Y-117479039D01*
X192988911Y-117481280D01*
X192947584Y-117464547D01*
X192944354Y-117460754D01*
X192928031Y-117433294D01*
X192901754Y-117383300D01*
X192867266Y-117314298D01*
X192826310Y-117229814D01*
X192780630Y-117133373D01*
X192731969Y-117028503D01*
X192705022Y-116969759D01*
X192656064Y-116862281D01*
X192618178Y-116777502D01*
X192590187Y-116712353D01*
X192570912Y-116663764D01*
X192559178Y-116628667D01*
X192553805Y-116603992D01*
X192553616Y-116586672D01*
X192557434Y-116573636D01*
X192576948Y-116545834D01*
X192612366Y-116518806D01*
X192613372Y-116518350D01*
X192639453Y-116509030D01*
X192662692Y-116508324D01*
X192685208Y-116518940D01*
G36*
X192685208Y-116518940D02*
G01*
X192709119Y-116543585D01*
X192736546Y-116584966D01*
X192769607Y-116645790D01*
X192810420Y-116728763D01*
X192861104Y-116836594D01*
X192880587Y-116878376D01*
X192920193Y-116962496D01*
X192954935Y-117035196D01*
X192982886Y-117092507D01*
X193002120Y-117130455D01*
X193010711Y-117145069D01*
X193012520Y-117144296D01*
X193025823Y-117125727D01*
X193048844Y-117086401D01*
X193078928Y-117030994D01*
X193113422Y-116964180D01*
X193134687Y-116922258D01*
X193173230Y-116848562D01*
X193203170Y-116796617D01*
X193227422Y-116762697D01*
X193248898Y-116743079D01*
X193270512Y-116734040D01*
X193295177Y-116731854D01*
X193309160Y-116732487D01*
X193330616Y-116738088D01*
X193351005Y-116752552D01*
X193373103Y-116779542D01*
X193399689Y-116822725D01*
X193433540Y-116885765D01*
X193477434Y-116972328D01*
X193490392Y-116997963D01*
X193522954Y-117060096D01*
X193549895Y-117108241D01*
X193568710Y-117138049D01*
X193576897Y-117145168D01*
X193578717Y-117140813D01*
X193591198Y-117112975D01*
X193613646Y-117063796D01*
X193644156Y-116997426D01*
X193680823Y-116918014D01*
X193721742Y-116829707D01*
X193757309Y-116753525D01*
X193796749Y-116670995D01*
X193827465Y-116610100D01*
X193851401Y-116567442D01*
X193870502Y-116539625D01*
X193886713Y-116523253D01*
X193901978Y-116514931D01*
X193914506Y-116511080D01*
X193947930Y-116510882D01*
X193984067Y-116531308D01*
X193985798Y-116532620D01*
X194015200Y-116562756D01*
X194029909Y-116592345D01*
X194029971Y-116593197D01*
X194023926Y-116616711D01*
X194006799Y-116662731D01*
X193980493Y-116727096D01*
X193946910Y-116805645D01*
X193907952Y-116894221D01*
X193865522Y-116988661D01*
X193821522Y-117084807D01*
X193777854Y-117178499D01*
X193736420Y-117265576D01*
X193699123Y-117341880D01*
X193667864Y-117403249D01*
X193644546Y-117445525D01*
X193631071Y-117464547D01*
X193585262Y-117482345D01*
X193529748Y-117473876D01*
X193522606Y-117467622D01*
X193501532Y-117438131D01*
X193471973Y-117389190D01*
X193436803Y-117325661D01*
X193398894Y-117252407D01*
X193292686Y-117040397D01*
X193195248Y-117235563D01*
X193182340Y-117261246D01*
X193146421Y-117330940D01*
X193114431Y-117390571D01*
X193089449Y-117434486D01*
X193074556Y-117457032D01*
X193073030Y-117458687D01*
X193035591Y-117479039D01*
X192988911Y-117481280D01*
X192947584Y-117464547D01*
X192944354Y-117460754D01*
X192928031Y-117433294D01*
X192901754Y-117383300D01*
X192867266Y-117314298D01*
X192826310Y-117229814D01*
X192780630Y-117133373D01*
X192731969Y-117028503D01*
X192705022Y-116969759D01*
X192656064Y-116862281D01*
X192618178Y-116777502D01*
X192590187Y-116712353D01*
X192570912Y-116663764D01*
X192559178Y-116628667D01*
X192553805Y-116603992D01*
X192553616Y-116586672D01*
X192557434Y-116573636D01*
X192576948Y-116545834D01*
X192612366Y-116518806D01*
X192613372Y-116518350D01*
X192639453Y-116509030D01*
X192662692Y-116508324D01*
X192685208Y-116518940D01*
G37*
X202738515Y-116507568D02*
X202826713Y-116514797D01*
X202900338Y-116527576D01*
X202968081Y-116547361D01*
X203063024Y-116591472D01*
X203131132Y-116648298D01*
X203172169Y-116717615D01*
X203185901Y-116799199D01*
X203184653Y-116840802D01*
X203176941Y-116873816D01*
X203157227Y-116902666D01*
X203119986Y-116939080D01*
X203109364Y-116948837D01*
X203077798Y-116976666D01*
X203047984Y-116999260D01*
X203015986Y-117017837D01*
X202977872Y-117033615D01*
X202929708Y-117047812D01*
X202867560Y-117061647D01*
X202787494Y-117076338D01*
X202685576Y-117093103D01*
X202557874Y-117113161D01*
X202533425Y-117117200D01*
X202450442Y-117135334D01*
X202390241Y-117156281D01*
X202355247Y-117179009D01*
X202347886Y-117202487D01*
X202351375Y-117208172D01*
X202375250Y-117228229D01*
X202412695Y-117250375D01*
X202429736Y-117258351D01*
X202458092Y-117267927D01*
X202493221Y-117274287D01*
X202540943Y-117278040D01*
X202607076Y-117279794D01*
X202697439Y-117280158D01*
X202721117Y-117280061D01*
X202811145Y-117278582D01*
X202897602Y-117275619D01*
X202971659Y-117271537D01*
X203024489Y-117266698D01*
X203071767Y-117261282D01*
X203110712Y-117260240D01*
X203135876Y-117266363D01*
X203155998Y-117280576D01*
X203160866Y-117285359D01*
X203182623Y-117327662D01*
X203180865Y-117375130D01*
X203155627Y-117415895D01*
X203128506Y-117431346D01*
X203080599Y-117448248D01*
X203024118Y-117461628D01*
X203019524Y-117462425D01*
X202962716Y-117469370D01*
X202886313Y-117475193D01*
X202799752Y-117479304D01*
X202712469Y-117481113D01*
X202690857Y-117481169D01*
X202559968Y-117477870D01*
X202453390Y-117467211D01*
X202366612Y-117447864D01*
X202295124Y-117418502D01*
X202234413Y-117377798D01*
X202179969Y-117324424D01*
X202153181Y-117289507D01*
X202137702Y-117250169D01*
X202133830Y-117197292D01*
X202134017Y-117181357D01*
X202139173Y-117137846D01*
X202155662Y-117102531D01*
X202189165Y-117061460D01*
X202217406Y-117031984D01*
X202252549Y-117001967D01*
X202292113Y-116977513D01*
X202340347Y-116957202D01*
X202401500Y-116939612D01*
X202479819Y-116923323D01*
X202579554Y-116906913D01*
X202704954Y-116888962D01*
X202765280Y-116879630D01*
X202855752Y-116860246D01*
X202921169Y-116838280D01*
X202960534Y-116814451D01*
X202972850Y-116789482D01*
X202957118Y-116764093D01*
X202912342Y-116739005D01*
X202908287Y-116737389D01*
X202846566Y-116721309D01*
X202763156Y-116710391D01*
X202665389Y-116704852D01*
X202560598Y-116704909D01*
X202456115Y-116710778D01*
X202359273Y-116722675D01*
X202354045Y-116723539D01*
X202289053Y-116733800D01*
X202246114Y-116738608D01*
X202218159Y-116737813D01*
X202198117Y-116731261D01*
X202178918Y-116718801D01*
X202177361Y-116717642D01*
X202144720Y-116677204D01*
X202138338Y-116629939D01*
X202159383Y-116583899D01*
X202165435Y-116577966D01*
X202204862Y-116557810D01*
X202267412Y-116540338D01*
X202347698Y-116525959D01*
X202440337Y-116515084D01*
X202539942Y-116508121D01*
X202641130Y-116505479D01*
X202738515Y-116507568D01*
G36*
X202738515Y-116507568D02*
G01*
X202826713Y-116514797D01*
X202900338Y-116527576D01*
X202968081Y-116547361D01*
X203063024Y-116591472D01*
X203131132Y-116648298D01*
X203172169Y-116717615D01*
X203185901Y-116799199D01*
X203184653Y-116840802D01*
X203176941Y-116873816D01*
X203157227Y-116902666D01*
X203119986Y-116939080D01*
X203109364Y-116948837D01*
X203077798Y-116976666D01*
X203047984Y-116999260D01*
X203015986Y-117017837D01*
X202977872Y-117033615D01*
X202929708Y-117047812D01*
X202867560Y-117061647D01*
X202787494Y-117076338D01*
X202685576Y-117093103D01*
X202557874Y-117113161D01*
X202533425Y-117117200D01*
X202450442Y-117135334D01*
X202390241Y-117156281D01*
X202355247Y-117179009D01*
X202347886Y-117202487D01*
X202351375Y-117208172D01*
X202375250Y-117228229D01*
X202412695Y-117250375D01*
X202429736Y-117258351D01*
X202458092Y-117267927D01*
X202493221Y-117274287D01*
X202540943Y-117278040D01*
X202607076Y-117279794D01*
X202697439Y-117280158D01*
X202721117Y-117280061D01*
X202811145Y-117278582D01*
X202897602Y-117275619D01*
X202971659Y-117271537D01*
X203024489Y-117266698D01*
X203071767Y-117261282D01*
X203110712Y-117260240D01*
X203135876Y-117266363D01*
X203155998Y-117280576D01*
X203160866Y-117285359D01*
X203182623Y-117327662D01*
X203180865Y-117375130D01*
X203155627Y-117415895D01*
X203128506Y-117431346D01*
X203080599Y-117448248D01*
X203024118Y-117461628D01*
X203019524Y-117462425D01*
X202962716Y-117469370D01*
X202886313Y-117475193D01*
X202799752Y-117479304D01*
X202712469Y-117481113D01*
X202690857Y-117481169D01*
X202559968Y-117477870D01*
X202453390Y-117467211D01*
X202366612Y-117447864D01*
X202295124Y-117418502D01*
X202234413Y-117377798D01*
X202179969Y-117324424D01*
X202153181Y-117289507D01*
X202137702Y-117250169D01*
X202133830Y-117197292D01*
X202134017Y-117181357D01*
X202139173Y-117137846D01*
X202155662Y-117102531D01*
X202189165Y-117061460D01*
X202217406Y-117031984D01*
X202252549Y-117001967D01*
X202292113Y-116977513D01*
X202340347Y-116957202D01*
X202401500Y-116939612D01*
X202479819Y-116923323D01*
X202579554Y-116906913D01*
X202704954Y-116888962D01*
X202765280Y-116879630D01*
X202855752Y-116860246D01*
X202921169Y-116838280D01*
X202960534Y-116814451D01*
X202972850Y-116789482D01*
X202957118Y-116764093D01*
X202912342Y-116739005D01*
X202908287Y-116737389D01*
X202846566Y-116721309D01*
X202763156Y-116710391D01*
X202665389Y-116704852D01*
X202560598Y-116704909D01*
X202456115Y-116710778D01*
X202359273Y-116722675D01*
X202354045Y-116723539D01*
X202289053Y-116733800D01*
X202246114Y-116738608D01*
X202218159Y-116737813D01*
X202198117Y-116731261D01*
X202178918Y-116718801D01*
X202177361Y-116717642D01*
X202144720Y-116677204D01*
X202138338Y-116629939D01*
X202159383Y-116583899D01*
X202165435Y-116577966D01*
X202204862Y-116557810D01*
X202267412Y-116540338D01*
X202347698Y-116525959D01*
X202440337Y-116515084D01*
X202539942Y-116508121D01*
X202641130Y-116505479D01*
X202738515Y-116507568D01*
G37*
X197573834Y-109466031D02*
X197817638Y-109488413D01*
X198044132Y-109533551D01*
X198261742Y-109603345D01*
X198478891Y-109699696D01*
X198693845Y-109822715D01*
X198924534Y-109990422D01*
X199138459Y-110184323D01*
X199330911Y-110399618D01*
X199497180Y-110631507D01*
X199632553Y-110875190D01*
X199644841Y-110901258D01*
X199747750Y-111152881D01*
X199825946Y-111414345D01*
X199880439Y-111690646D01*
X199912241Y-111986779D01*
X199922360Y-112307739D01*
X199910056Y-112639528D01*
X199871001Y-112966276D01*
X199804590Y-113272149D01*
X199710227Y-113559317D01*
X199587320Y-113829949D01*
X199435273Y-114086214D01*
X199292450Y-114282000D01*
X199095243Y-114502289D01*
X198880296Y-114690974D01*
X198647703Y-114847993D01*
X198397558Y-114973285D01*
X198129957Y-115066786D01*
X197844992Y-115128437D01*
X197841740Y-115128917D01*
X197786862Y-115133732D01*
X197704049Y-115137304D01*
X197600958Y-115139465D01*
X197485246Y-115140050D01*
X197364572Y-115138891D01*
X197279997Y-115137192D01*
X197154512Y-115133258D01*
X197053958Y-115127626D01*
X196971083Y-115119694D01*
X196898634Y-115108863D01*
X196829357Y-115094530D01*
X196751416Y-115076007D01*
X196670099Y-115054914D01*
X196596556Y-115032787D01*
X196524112Y-115007033D01*
X196446093Y-114975060D01*
X196355825Y-114934278D01*
X196246631Y-114882093D01*
X196111839Y-114815915D01*
X195739036Y-114631677D01*
X196037628Y-114141231D01*
X196076719Y-114077041D01*
X196146950Y-113961810D01*
X196209811Y-113858794D01*
X196263004Y-113771748D01*
X196304233Y-113704432D01*
X196331200Y-113660601D01*
X196341607Y-113644015D01*
X196344502Y-113644510D01*
X196367820Y-113660742D01*
X196408786Y-113694429D01*
X196460927Y-113740345D01*
X196553787Y-113819678D01*
X196719562Y-113936990D01*
X196880403Y-114018771D01*
X196996631Y-114059611D01*
X197193222Y-114101348D01*
X197386378Y-114108746D01*
X197573299Y-114082309D01*
X197751183Y-114022540D01*
X197917230Y-113929943D01*
X198068637Y-113805022D01*
X198152886Y-113713014D01*
X198271574Y-113542831D01*
X198368964Y-113345342D01*
X198445519Y-113119536D01*
X198501707Y-112864401D01*
X198504256Y-112848562D01*
X198516033Y-112745903D01*
X198524800Y-112618351D01*
X198530486Y-112474622D01*
X198533021Y-112323431D01*
X198532333Y-112173493D01*
X198528352Y-112033524D01*
X198521006Y-111912241D01*
X198510225Y-111818357D01*
X198468900Y-111605692D01*
X198399365Y-111357270D01*
X198311915Y-111139781D01*
X198206665Y-110953393D01*
X198083732Y-110798273D01*
X197943235Y-110674590D01*
X197785288Y-110582512D01*
X197610010Y-110522209D01*
X197571121Y-110514724D01*
X197473666Y-110504951D01*
X197359773Y-110501761D01*
X197242204Y-110504979D01*
X197133717Y-110514429D01*
X197047072Y-110529936D01*
X196902732Y-110579313D01*
X196735228Y-110669456D01*
X196586080Y-110788084D01*
X196559756Y-110813073D01*
X196512057Y-110857285D01*
X196478345Y-110887042D01*
X196464649Y-110896941D01*
X196461277Y-110892207D01*
X196440523Y-110862313D01*
X196403028Y-110808033D01*
X196351270Y-110732962D01*
X196287728Y-110640694D01*
X196214877Y-110534823D01*
X196135197Y-110418944D01*
X195809286Y-109944817D01*
X195882092Y-109923004D01*
X195889690Y-109920532D01*
X195939145Y-109900898D01*
X196010447Y-109869239D01*
X196095228Y-109829362D01*
X196185120Y-109785076D01*
X196224292Y-109765496D01*
X196441804Y-109664409D01*
X196642283Y-109586238D01*
X196833438Y-109528985D01*
X197022981Y-109490649D01*
X197218622Y-109469231D01*
X197428072Y-109462731D01*
X197573834Y-109466031D01*
G36*
X197573834Y-109466031D02*
G01*
X197817638Y-109488413D01*
X198044132Y-109533551D01*
X198261742Y-109603345D01*
X198478891Y-109699696D01*
X198693845Y-109822715D01*
X198924534Y-109990422D01*
X199138459Y-110184323D01*
X199330911Y-110399618D01*
X199497180Y-110631507D01*
X199632553Y-110875190D01*
X199644841Y-110901258D01*
X199747750Y-111152881D01*
X199825946Y-111414345D01*
X199880439Y-111690646D01*
X199912241Y-111986779D01*
X199922360Y-112307739D01*
X199910056Y-112639528D01*
X199871001Y-112966276D01*
X199804590Y-113272149D01*
X199710227Y-113559317D01*
X199587320Y-113829949D01*
X199435273Y-114086214D01*
X199292450Y-114282000D01*
X199095243Y-114502289D01*
X198880296Y-114690974D01*
X198647703Y-114847993D01*
X198397558Y-114973285D01*
X198129957Y-115066786D01*
X197844992Y-115128437D01*
X197841740Y-115128917D01*
X197786862Y-115133732D01*
X197704049Y-115137304D01*
X197600958Y-115139465D01*
X197485246Y-115140050D01*
X197364572Y-115138891D01*
X197279997Y-115137192D01*
X197154512Y-115133258D01*
X197053958Y-115127626D01*
X196971083Y-115119694D01*
X196898634Y-115108863D01*
X196829357Y-115094530D01*
X196751416Y-115076007D01*
X196670099Y-115054914D01*
X196596556Y-115032787D01*
X196524112Y-115007033D01*
X196446093Y-114975060D01*
X196355825Y-114934278D01*
X196246631Y-114882093D01*
X196111839Y-114815915D01*
X195739036Y-114631677D01*
X196037628Y-114141231D01*
X196076719Y-114077041D01*
X196146950Y-113961810D01*
X196209811Y-113858794D01*
X196263004Y-113771748D01*
X196304233Y-113704432D01*
X196331200Y-113660601D01*
X196341607Y-113644015D01*
X196344502Y-113644510D01*
X196367820Y-113660742D01*
X196408786Y-113694429D01*
X196460927Y-113740345D01*
X196553787Y-113819678D01*
X196719562Y-113936990D01*
X196880403Y-114018771D01*
X196996631Y-114059611D01*
X197193222Y-114101348D01*
X197386378Y-114108746D01*
X197573299Y-114082309D01*
X197751183Y-114022540D01*
X197917230Y-113929943D01*
X198068637Y-113805022D01*
X198152886Y-113713014D01*
X198271574Y-113542831D01*
X198368964Y-113345342D01*
X198445519Y-113119536D01*
X198501707Y-112864401D01*
X198504256Y-112848562D01*
X198516033Y-112745903D01*
X198524800Y-112618351D01*
X198530486Y-112474622D01*
X198533021Y-112323431D01*
X198532333Y-112173493D01*
X198528352Y-112033524D01*
X198521006Y-111912241D01*
X198510225Y-111818357D01*
X198468900Y-111605692D01*
X198399365Y-111357270D01*
X198311915Y-111139781D01*
X198206665Y-110953393D01*
X198083732Y-110798273D01*
X197943235Y-110674590D01*
X197785288Y-110582512D01*
X197610010Y-110522209D01*
X197571121Y-110514724D01*
X197473666Y-110504951D01*
X197359773Y-110501761D01*
X197242204Y-110504979D01*
X197133717Y-110514429D01*
X197047072Y-110529936D01*
X196902732Y-110579313D01*
X196735228Y-110669456D01*
X196586080Y-110788084D01*
X196559756Y-110813073D01*
X196512057Y-110857285D01*
X196478345Y-110887042D01*
X196464649Y-110896941D01*
X196461277Y-110892207D01*
X196440523Y-110862313D01*
X196403028Y-110808033D01*
X196351270Y-110732962D01*
X196287728Y-110640694D01*
X196214877Y-110534823D01*
X196135197Y-110418944D01*
X195809286Y-109944817D01*
X195882092Y-109923004D01*
X195889690Y-109920532D01*
X195939145Y-109900898D01*
X196010447Y-109869239D01*
X196095228Y-109829362D01*
X196185120Y-109785076D01*
X196224292Y-109765496D01*
X196441804Y-109664409D01*
X196642283Y-109586238D01*
X196833438Y-109528985D01*
X197022981Y-109490649D01*
X197218622Y-109469231D01*
X197428072Y-109462731D01*
X197573834Y-109466031D01*
G37*
X191647105Y-113246537D02*
X191643255Y-113414433D01*
X191632247Y-113562502D01*
X191613229Y-113698798D01*
X191585349Y-113831375D01*
X191547754Y-113968286D01*
X191490743Y-114131936D01*
X191386036Y-114352857D01*
X191257598Y-114550734D01*
X191107393Y-114723697D01*
X190937387Y-114869876D01*
X190749545Y-114987401D01*
X190545832Y-115074402D01*
X190328212Y-115129009D01*
X190325593Y-115129447D01*
X190166553Y-115144750D01*
X189991809Y-115142707D01*
X189813820Y-115124579D01*
X189645046Y-115091624D01*
X189497948Y-115045101D01*
X189435161Y-115016791D01*
X189353387Y-114973761D01*
X189269359Y-114924546D01*
X189191845Y-114874563D01*
X189129612Y-114829229D01*
X189091429Y-114793960D01*
X189082663Y-114784277D01*
X189072214Y-114780892D01*
X189065229Y-114797696D01*
X189060082Y-114840045D01*
X189055143Y-114913295D01*
X189046072Y-115065929D01*
X187656360Y-115075433D01*
X187704439Y-114993393D01*
X187707305Y-114988543D01*
X187721285Y-114965772D01*
X187733969Y-114945487D01*
X187745423Y-114925925D01*
X187755715Y-114905324D01*
X187764915Y-114881920D01*
X187773090Y-114853953D01*
X187780309Y-114819660D01*
X187786640Y-114777278D01*
X187792151Y-114725046D01*
X187796910Y-114661200D01*
X187800985Y-114583979D01*
X187804446Y-114491620D01*
X187807359Y-114382361D01*
X187809794Y-114254440D01*
X187811818Y-114106094D01*
X187813452Y-113940556D01*
X189136786Y-113940556D01*
X189227500Y-114000057D01*
X189262386Y-114021491D01*
X189342265Y-114064311D01*
X189418000Y-114098410D01*
X189451168Y-114109955D01*
X189556705Y-114133004D01*
X189690143Y-114144773D01*
X189757996Y-114147222D01*
X189820980Y-114146666D01*
X189867866Y-114140375D01*
X189909920Y-114126626D01*
X189958409Y-114103692D01*
X190051595Y-114042259D01*
X190132324Y-113955358D01*
X190196945Y-113843369D01*
X190246073Y-113704539D01*
X190280321Y-113537111D01*
X190300306Y-113339329D01*
X190306641Y-113109440D01*
X190306333Y-113057175D01*
X190297225Y-112815015D01*
X190275109Y-112604302D01*
X190239447Y-112422814D01*
X190189701Y-112268327D01*
X190125333Y-112138619D01*
X190045805Y-112031466D01*
X190012812Y-111998763D01*
X189910560Y-111930632D01*
X189790526Y-111889173D01*
X189657910Y-111874622D01*
X189517913Y-111887214D01*
X189375733Y-111927185D01*
X189236572Y-111994771D01*
X189136786Y-112054584D01*
X189136786Y-113940556D01*
X187813452Y-113940556D01*
X187813501Y-113935562D01*
X187814909Y-113741081D01*
X187816112Y-113520888D01*
X187817177Y-113273221D01*
X187818173Y-112996318D01*
X187819168Y-112688417D01*
X187820231Y-112347756D01*
X187821429Y-111972572D01*
X187830500Y-109205786D01*
X188551679Y-109201042D01*
X188604124Y-109200723D01*
X188758429Y-109200089D01*
X188899564Y-109199961D01*
X189023677Y-109200311D01*
X189126915Y-109201112D01*
X189205426Y-109202340D01*
X189255357Y-109203967D01*
X189272857Y-109205967D01*
X189270618Y-109212305D01*
X189253917Y-109242356D01*
X189226255Y-109286057D01*
X189223495Y-109290235D01*
X189202048Y-109323977D01*
X189184065Y-109356806D01*
X189169242Y-109392105D01*
X189157274Y-109433255D01*
X189147856Y-109483638D01*
X189140683Y-109546634D01*
X189135450Y-109625627D01*
X189131852Y-109723997D01*
X189129584Y-109845126D01*
X189128342Y-109992396D01*
X189127821Y-110169188D01*
X189127714Y-110378884D01*
X189127905Y-110542603D01*
X189128487Y-110703339D01*
X189129419Y-110849083D01*
X189130659Y-110976286D01*
X189132164Y-111081400D01*
X189133893Y-111160875D01*
X189135802Y-111211163D01*
X189137850Y-111228714D01*
X189144455Y-111225990D01*
X189173490Y-111206807D01*
X189214957Y-111175303D01*
X189275072Y-111132936D01*
X189388021Y-111070511D01*
X189517116Y-111014828D01*
X189650309Y-110971525D01*
X189762215Y-110949444D01*
X189901587Y-110935368D01*
X190052426Y-110930492D01*
X190203093Y-110934820D01*
X190341946Y-110948359D01*
X190457345Y-110971115D01*
X190574847Y-111009447D01*
X190770869Y-111102371D01*
X190952371Y-111225908D01*
X191116004Y-111377212D01*
X191258419Y-111553440D01*
X191376270Y-111751746D01*
X191405528Y-111812556D01*
X191487518Y-112017670D01*
X191551619Y-112240285D01*
X191598642Y-112484325D01*
X191629395Y-112753713D01*
X191644690Y-113052374D01*
X191645400Y-113109440D01*
X191647105Y-113246537D01*
G36*
X191647105Y-113246537D02*
G01*
X191643255Y-113414433D01*
X191632247Y-113562502D01*
X191613229Y-113698798D01*
X191585349Y-113831375D01*
X191547754Y-113968286D01*
X191490743Y-114131936D01*
X191386036Y-114352857D01*
X191257598Y-114550734D01*
X191107393Y-114723697D01*
X190937387Y-114869876D01*
X190749545Y-114987401D01*
X190545832Y-115074402D01*
X190328212Y-115129009D01*
X190325593Y-115129447D01*
X190166553Y-115144750D01*
X189991809Y-115142707D01*
X189813820Y-115124579D01*
X189645046Y-115091624D01*
X189497948Y-115045101D01*
X189435161Y-115016791D01*
X189353387Y-114973761D01*
X189269359Y-114924546D01*
X189191845Y-114874563D01*
X189129612Y-114829229D01*
X189091429Y-114793960D01*
X189082663Y-114784277D01*
X189072214Y-114780892D01*
X189065229Y-114797696D01*
X189060082Y-114840045D01*
X189055143Y-114913295D01*
X189046072Y-115065929D01*
X187656360Y-115075433D01*
X187704439Y-114993393D01*
X187707305Y-114988543D01*
X187721285Y-114965772D01*
X187733969Y-114945487D01*
X187745423Y-114925925D01*
X187755715Y-114905324D01*
X187764915Y-114881920D01*
X187773090Y-114853953D01*
X187780309Y-114819660D01*
X187786640Y-114777278D01*
X187792151Y-114725046D01*
X187796910Y-114661200D01*
X187800985Y-114583979D01*
X187804446Y-114491620D01*
X187807359Y-114382361D01*
X187809794Y-114254440D01*
X187811818Y-114106094D01*
X187813452Y-113940556D01*
X189136786Y-113940556D01*
X189227500Y-114000057D01*
X189262386Y-114021491D01*
X189342265Y-114064311D01*
X189418000Y-114098410D01*
X189451168Y-114109955D01*
X189556705Y-114133004D01*
X189690143Y-114144773D01*
X189757996Y-114147222D01*
X189820980Y-114146666D01*
X189867866Y-114140375D01*
X189909920Y-114126626D01*
X189958409Y-114103692D01*
X190051595Y-114042259D01*
X190132324Y-113955358D01*
X190196945Y-113843369D01*
X190246073Y-113704539D01*
X190280321Y-113537111D01*
X190300306Y-113339329D01*
X190306641Y-113109440D01*
X190306333Y-113057175D01*
X190297225Y-112815015D01*
X190275109Y-112604302D01*
X190239447Y-112422814D01*
X190189701Y-112268327D01*
X190125333Y-112138619D01*
X190045805Y-112031466D01*
X190012812Y-111998763D01*
X189910560Y-111930632D01*
X189790526Y-111889173D01*
X189657910Y-111874622D01*
X189517913Y-111887214D01*
X189375733Y-111927185D01*
X189236572Y-111994771D01*
X189136786Y-112054584D01*
X189136786Y-113940556D01*
X187813452Y-113940556D01*
X187813501Y-113935562D01*
X187814909Y-113741081D01*
X187816112Y-113520888D01*
X187817177Y-113273221D01*
X187818173Y-112996318D01*
X187819168Y-112688417D01*
X187820231Y-112347756D01*
X187821429Y-111972572D01*
X187830500Y-109205786D01*
X188551679Y-109201042D01*
X188604124Y-109200723D01*
X188758429Y-109200089D01*
X188899564Y-109199961D01*
X189023677Y-109200311D01*
X189126915Y-109201112D01*
X189205426Y-109202340D01*
X189255357Y-109203967D01*
X189272857Y-109205967D01*
X189270618Y-109212305D01*
X189253917Y-109242356D01*
X189226255Y-109286057D01*
X189223495Y-109290235D01*
X189202048Y-109323977D01*
X189184065Y-109356806D01*
X189169242Y-109392105D01*
X189157274Y-109433255D01*
X189147856Y-109483638D01*
X189140683Y-109546634D01*
X189135450Y-109625627D01*
X189131852Y-109723997D01*
X189129584Y-109845126D01*
X189128342Y-109992396D01*
X189127821Y-110169188D01*
X189127714Y-110378884D01*
X189127905Y-110542603D01*
X189128487Y-110703339D01*
X189129419Y-110849083D01*
X189130659Y-110976286D01*
X189132164Y-111081400D01*
X189133893Y-111160875D01*
X189135802Y-111211163D01*
X189137850Y-111228714D01*
X189144455Y-111225990D01*
X189173490Y-111206807D01*
X189214957Y-111175303D01*
X189275072Y-111132936D01*
X189388021Y-111070511D01*
X189517116Y-111014828D01*
X189650309Y-110971525D01*
X189762215Y-110949444D01*
X189901587Y-110935368D01*
X190052426Y-110930492D01*
X190203093Y-110934820D01*
X190341946Y-110948359D01*
X190457345Y-110971115D01*
X190574847Y-111009447D01*
X190770869Y-111102371D01*
X190952371Y-111225908D01*
X191116004Y-111377212D01*
X191258419Y-111553440D01*
X191376270Y-111751746D01*
X191405528Y-111812556D01*
X191487518Y-112017670D01*
X191551619Y-112240285D01*
X191598642Y-112484325D01*
X191629395Y-112753713D01*
X191644690Y-113052374D01*
X191645400Y-113109440D01*
X191647105Y-113246537D01*
G37*
X195747990Y-113817437D02*
X195739842Y-113963722D01*
X195722232Y-114099833D01*
X195695659Y-114213214D01*
X195653259Y-114329867D01*
X195554976Y-114522110D01*
X195429350Y-114691247D01*
X195277681Y-114836126D01*
X195101271Y-114955594D01*
X194901420Y-115048499D01*
X194679429Y-115113689D01*
X194588907Y-115128392D01*
X194459552Y-115138611D01*
X194318675Y-115140909D01*
X194178050Y-115135472D01*
X194049449Y-115122485D01*
X193944643Y-115102133D01*
X193891979Y-115086109D01*
X193772369Y-115039219D01*
X193650783Y-114979688D01*
X193539765Y-114913971D01*
X193451859Y-114848524D01*
X193450778Y-114847579D01*
X193402607Y-114806736D01*
X193365545Y-114777653D01*
X193347537Y-114766572D01*
X193345568Y-114769217D01*
X193341113Y-114797794D01*
X193338018Y-114851094D01*
X193336857Y-114920786D01*
X193336857Y-115075000D01*
X192656500Y-115075000D01*
X192638389Y-115074997D01*
X192486490Y-115074731D01*
X192347078Y-115074070D01*
X192224118Y-115073062D01*
X192121579Y-115071758D01*
X192043426Y-115070205D01*
X191993625Y-115068454D01*
X191976143Y-115066553D01*
X191976550Y-115064893D01*
X191987988Y-115040377D01*
X192011962Y-114994317D01*
X192044179Y-114935018D01*
X192112215Y-114811929D01*
X192122190Y-113596689D01*
X193409429Y-113596689D01*
X193409935Y-113692703D01*
X193412387Y-113793587D01*
X193417190Y-113866507D01*
X193424695Y-113916212D01*
X193435250Y-113947449D01*
X193448828Y-113969755D01*
X193499962Y-114030561D01*
X193568475Y-114093863D01*
X193643568Y-114150265D01*
X193714440Y-114190370D01*
X193753761Y-114205085D01*
X193844302Y-114224677D01*
X193962555Y-114234694D01*
X194087232Y-114233177D01*
X194205627Y-114212574D01*
X194304449Y-114170011D01*
X194389948Y-114103571D01*
X194414000Y-114078995D01*
X194476622Y-113995185D01*
X194510504Y-113904850D01*
X194520679Y-113796151D01*
X194517922Y-113738725D01*
X194490661Y-113620507D01*
X194433390Y-113519039D01*
X194345068Y-113433179D01*
X194224651Y-113361784D01*
X194071097Y-113303714D01*
X194009193Y-113288475D01*
X193934251Y-113278041D01*
X193839937Y-113272246D01*
X193717857Y-113270298D01*
X193698026Y-113270299D01*
X193606696Y-113271414D01*
X193528244Y-113274108D01*
X193470471Y-113278029D01*
X193441179Y-113282824D01*
X193437808Y-113284380D01*
X193426910Y-113294154D01*
X193419192Y-113313794D01*
X193414119Y-113348585D01*
X193411157Y-113403809D01*
X193409772Y-113484750D01*
X193409429Y-113596689D01*
X192122190Y-113596689D01*
X192122714Y-113532857D01*
X192124275Y-113346561D01*
X192126458Y-113108965D01*
X192128750Y-112902698D01*
X192131335Y-112724842D01*
X192134400Y-112572481D01*
X192138128Y-112442696D01*
X192142705Y-112332572D01*
X192148316Y-112239190D01*
X192155147Y-112159635D01*
X192163383Y-112090988D01*
X192173208Y-112030333D01*
X192184808Y-111974752D01*
X192198368Y-111921329D01*
X192214073Y-111867146D01*
X192232109Y-111809286D01*
X192303161Y-111627898D01*
X192400464Y-111460258D01*
X192521641Y-111316732D01*
X192667803Y-111196570D01*
X192840057Y-111099020D01*
X193039515Y-111023331D01*
X193267285Y-110968753D01*
X193524477Y-110934535D01*
X193614368Y-110927730D01*
X193765760Y-110922755D01*
X193915814Y-110927235D01*
X194071554Y-110941927D01*
X194240005Y-110967584D01*
X194428193Y-111004962D01*
X194643143Y-111054818D01*
X194692828Y-111066881D01*
X194817601Y-111096565D01*
X194935861Y-111123898D01*
X195040436Y-111147263D01*
X195124154Y-111165047D01*
X195179845Y-111175636D01*
X195308333Y-111196740D01*
X195127695Y-111634549D01*
X195082512Y-111743859D01*
X195038061Y-111850969D01*
X194999923Y-111942418D01*
X194969969Y-112013733D01*
X194950071Y-112060437D01*
X194942103Y-112078058D01*
X194940850Y-112078310D01*
X194917758Y-112070443D01*
X194872353Y-112050283D01*
X194812824Y-112021417D01*
X194689096Y-111965203D01*
X194518837Y-111903740D01*
X194344578Y-111856670D01*
X194173133Y-111825177D01*
X194011317Y-111810443D01*
X193865944Y-111813650D01*
X193743829Y-111835979D01*
X193658601Y-111871409D01*
X193561809Y-111944017D01*
X193487297Y-112042518D01*
X193437199Y-112163883D01*
X193413649Y-112305080D01*
X193405355Y-112435215D01*
X193838285Y-112436400D01*
X193984285Y-112437624D01*
X194145771Y-112441972D01*
X194283725Y-112450178D01*
X194405281Y-112463039D01*
X194517577Y-112481354D01*
X194627747Y-112505919D01*
X194742929Y-112537533D01*
X194915268Y-112597709D01*
X195117975Y-112696806D01*
X195295876Y-112818190D01*
X195447217Y-112960155D01*
X195570243Y-113120993D01*
X195663199Y-113298997D01*
X195724330Y-113492460D01*
X195733904Y-113544565D01*
X195746177Y-113673533D01*
X195747722Y-113796151D01*
X195747990Y-113817437D01*
G36*
X195747990Y-113817437D02*
G01*
X195739842Y-113963722D01*
X195722232Y-114099833D01*
X195695659Y-114213214D01*
X195653259Y-114329867D01*
X195554976Y-114522110D01*
X195429350Y-114691247D01*
X195277681Y-114836126D01*
X195101271Y-114955594D01*
X194901420Y-115048499D01*
X194679429Y-115113689D01*
X194588907Y-115128392D01*
X194459552Y-115138611D01*
X194318675Y-115140909D01*
X194178050Y-115135472D01*
X194049449Y-115122485D01*
X193944643Y-115102133D01*
X193891979Y-115086109D01*
X193772369Y-115039219D01*
X193650783Y-114979688D01*
X193539765Y-114913971D01*
X193451859Y-114848524D01*
X193450778Y-114847579D01*
X193402607Y-114806736D01*
X193365545Y-114777653D01*
X193347537Y-114766572D01*
X193345568Y-114769217D01*
X193341113Y-114797794D01*
X193338018Y-114851094D01*
X193336857Y-114920786D01*
X193336857Y-115075000D01*
X192656500Y-115075000D01*
X192638389Y-115074997D01*
X192486490Y-115074731D01*
X192347078Y-115074070D01*
X192224118Y-115073062D01*
X192121579Y-115071758D01*
X192043426Y-115070205D01*
X191993625Y-115068454D01*
X191976143Y-115066553D01*
X191976550Y-115064893D01*
X191987988Y-115040377D01*
X192011962Y-114994317D01*
X192044179Y-114935018D01*
X192112215Y-114811929D01*
X192122190Y-113596689D01*
X193409429Y-113596689D01*
X193409935Y-113692703D01*
X193412387Y-113793587D01*
X193417190Y-113866507D01*
X193424695Y-113916212D01*
X193435250Y-113947449D01*
X193448828Y-113969755D01*
X193499962Y-114030561D01*
X193568475Y-114093863D01*
X193643568Y-114150265D01*
X193714440Y-114190370D01*
X193753761Y-114205085D01*
X193844302Y-114224677D01*
X193962555Y-114234694D01*
X194087232Y-114233177D01*
X194205627Y-114212574D01*
X194304449Y-114170011D01*
X194389948Y-114103571D01*
X194414000Y-114078995D01*
X194476622Y-113995185D01*
X194510504Y-113904850D01*
X194520679Y-113796151D01*
X194517922Y-113738725D01*
X194490661Y-113620507D01*
X194433390Y-113519039D01*
X194345068Y-113433179D01*
X194224651Y-113361784D01*
X194071097Y-113303714D01*
X194009193Y-113288475D01*
X193934251Y-113278041D01*
X193839937Y-113272246D01*
X193717857Y-113270298D01*
X193698026Y-113270299D01*
X193606696Y-113271414D01*
X193528244Y-113274108D01*
X193470471Y-113278029D01*
X193441179Y-113282824D01*
X193437808Y-113284380D01*
X193426910Y-113294154D01*
X193419192Y-113313794D01*
X193414119Y-113348585D01*
X193411157Y-113403809D01*
X193409772Y-113484750D01*
X193409429Y-113596689D01*
X192122190Y-113596689D01*
X192122714Y-113532857D01*
X192124275Y-113346561D01*
X192126458Y-113108965D01*
X192128750Y-112902698D01*
X192131335Y-112724842D01*
X192134400Y-112572481D01*
X192138128Y-112442696D01*
X192142705Y-112332572D01*
X192148316Y-112239190D01*
X192155147Y-112159635D01*
X192163383Y-112090988D01*
X192173208Y-112030333D01*
X192184808Y-111974752D01*
X192198368Y-111921329D01*
X192214073Y-111867146D01*
X192232109Y-111809286D01*
X192303161Y-111627898D01*
X192400464Y-111460258D01*
X192521641Y-111316732D01*
X192667803Y-111196570D01*
X192840057Y-111099020D01*
X193039515Y-111023331D01*
X193267285Y-110968753D01*
X193524477Y-110934535D01*
X193614368Y-110927730D01*
X193765760Y-110922755D01*
X193915814Y-110927235D01*
X194071554Y-110941927D01*
X194240005Y-110967584D01*
X194428193Y-111004962D01*
X194643143Y-111054818D01*
X194692828Y-111066881D01*
X194817601Y-111096565D01*
X194935861Y-111123898D01*
X195040436Y-111147263D01*
X195124154Y-111165047D01*
X195179845Y-111175636D01*
X195308333Y-111196740D01*
X195127695Y-111634549D01*
X195082512Y-111743859D01*
X195038061Y-111850969D01*
X194999923Y-111942418D01*
X194969969Y-112013733D01*
X194950071Y-112060437D01*
X194942103Y-112078058D01*
X194940850Y-112078310D01*
X194917758Y-112070443D01*
X194872353Y-112050283D01*
X194812824Y-112021417D01*
X194689096Y-111965203D01*
X194518837Y-111903740D01*
X194344578Y-111856670D01*
X194173133Y-111825177D01*
X194011317Y-111810443D01*
X193865944Y-111813650D01*
X193743829Y-111835979D01*
X193658601Y-111871409D01*
X193561809Y-111944017D01*
X193487297Y-112042518D01*
X193437199Y-112163883D01*
X193413649Y-112305080D01*
X193405355Y-112435215D01*
X193838285Y-112436400D01*
X193984285Y-112437624D01*
X194145771Y-112441972D01*
X194283725Y-112450178D01*
X194405281Y-112463039D01*
X194517577Y-112481354D01*
X194627747Y-112505919D01*
X194742929Y-112537533D01*
X194915268Y-112597709D01*
X195117975Y-112696806D01*
X195295876Y-112818190D01*
X195447217Y-112960155D01*
X195570243Y-113120993D01*
X195663199Y-113298997D01*
X195724330Y-113492460D01*
X195733904Y-113544565D01*
X195746177Y-113673533D01*
X195747722Y-113796151D01*
X195747990Y-113817437D01*
G37*
X207919428Y-115110860D02*
X207917560Y-115251553D01*
X207915241Y-115372746D01*
X207912425Y-115475940D01*
X207909064Y-115562635D01*
X207905110Y-115634332D01*
X207900517Y-115692530D01*
X207895238Y-115738730D01*
X207889225Y-115774433D01*
X207882430Y-115801137D01*
X207874808Y-115820345D01*
X207866309Y-115833555D01*
X207856889Y-115842268D01*
X207846498Y-115847985D01*
X207835090Y-115852206D01*
X207822618Y-115856430D01*
X207809034Y-115862159D01*
X207801391Y-115865030D01*
X207787371Y-115868165D01*
X207766538Y-115871037D01*
X207737421Y-115873659D01*
X207698544Y-115876040D01*
X207648434Y-115878194D01*
X207585617Y-115880130D01*
X207508620Y-115881862D01*
X207415969Y-115883400D01*
X207306190Y-115884756D01*
X207177810Y-115885941D01*
X207029354Y-115886968D01*
X206859350Y-115887846D01*
X206666323Y-115888589D01*
X206448800Y-115889207D01*
X206205308Y-115889713D01*
X205934371Y-115890116D01*
X205634517Y-115890430D01*
X205304273Y-115890665D01*
X204942164Y-115890834D01*
X204546716Y-115890947D01*
X204116456Y-115891016D01*
X203980108Y-115891029D01*
X203559186Y-115891038D01*
X203172647Y-115890985D01*
X202819034Y-115890860D01*
X202496890Y-115890652D01*
X202204761Y-115890351D01*
X201941188Y-115889946D01*
X201704716Y-115889426D01*
X201493890Y-115888782D01*
X201307251Y-115888002D01*
X201143345Y-115887076D01*
X201000715Y-115885993D01*
X200877905Y-115884743D01*
X200773458Y-115883315D01*
X200685919Y-115881698D01*
X200613830Y-115879883D01*
X200555736Y-115877858D01*
X200510180Y-115875613D01*
X200475707Y-115873137D01*
X200450859Y-115870420D01*
X200434181Y-115867451D01*
X200424217Y-115864220D01*
X200421046Y-115862782D01*
X200408067Y-115858058D01*
X200396165Y-115854608D01*
X200385292Y-115850930D01*
X200375398Y-115845521D01*
X200366437Y-115836879D01*
X200358359Y-115823502D01*
X200351116Y-115803886D01*
X200344661Y-115776531D01*
X200338945Y-115739933D01*
X200333919Y-115692590D01*
X200329536Y-115633000D01*
X200325747Y-115559659D01*
X200322504Y-115471067D01*
X200319759Y-115365720D01*
X200317463Y-115242117D01*
X200315568Y-115098754D01*
X200314946Y-115032367D01*
X200793373Y-115032367D01*
X200793898Y-115038725D01*
X200803521Y-115043877D01*
X200825264Y-115047950D01*
X200862148Y-115051070D01*
X200917193Y-115053365D01*
X200993419Y-115054959D01*
X201093848Y-115055979D01*
X201221501Y-115056551D01*
X201379398Y-115056802D01*
X201570559Y-115056857D01*
X202371314Y-115056857D01*
X202303621Y-114934393D01*
X202235929Y-114811929D01*
X202235929Y-111255929D01*
X202303621Y-111133465D01*
X202371314Y-111011000D01*
X200939993Y-111011000D01*
X200934818Y-112893322D01*
X200929643Y-114775643D01*
X200878903Y-114884008D01*
X200852151Y-114937719D01*
X200821860Y-114991524D01*
X200798984Y-115024615D01*
X200798926Y-115024679D01*
X200793373Y-115032367D01*
X200314946Y-115032367D01*
X200314026Y-114934129D01*
X200312789Y-114746740D01*
X200311808Y-114535085D01*
X200311035Y-114297661D01*
X200310422Y-114032966D01*
X200309921Y-113739498D01*
X200309484Y-113415753D01*
X200309061Y-113060230D01*
X200308605Y-112671426D01*
X200308068Y-112247840D01*
X200307999Y-112196560D01*
X200307400Y-111775657D01*
X200306827Y-111389362D01*
X200306323Y-111036172D01*
X200305930Y-110714584D01*
X200305690Y-110423094D01*
X200305646Y-110160200D01*
X200305840Y-109924398D01*
X200306314Y-109714186D01*
X200307112Y-109528060D01*
X200308274Y-109364517D01*
X200309844Y-109222055D01*
X200311864Y-109099170D01*
X200314377Y-108994359D01*
X200317424Y-108906119D01*
X200321049Y-108832947D01*
X200325293Y-108773340D01*
X200330198Y-108725795D01*
X200335808Y-108688808D01*
X200342165Y-108660878D01*
X200349311Y-108640500D01*
X200357288Y-108626171D01*
X200366139Y-108616390D01*
X200375906Y-108609651D01*
X200386632Y-108604454D01*
X200398358Y-108599293D01*
X200411128Y-108592667D01*
X200414865Y-108590556D01*
X200471405Y-108570118D01*
X200533300Y-108561717D01*
X200603072Y-108561720D01*
X200604234Y-108720467D01*
X200604529Y-108738735D01*
X200626706Y-108924427D01*
X200683188Y-109099147D01*
X200773192Y-109261043D01*
X200895932Y-109408265D01*
X200961798Y-109468311D01*
X201108454Y-109567838D01*
X201268470Y-109637242D01*
X201437185Y-109676487D01*
X201609939Y-109685537D01*
X201782072Y-109664353D01*
X201948922Y-109612899D01*
X202086080Y-109541429D01*
X202693127Y-109541429D01*
X202772957Y-109598862D01*
X202840470Y-109652841D01*
X202935603Y-109740886D01*
X203043507Y-109851230D01*
X203160097Y-109979670D01*
X203281285Y-110122000D01*
X203312494Y-110160062D01*
X203365629Y-110225343D01*
X203435083Y-110310988D01*
X203518556Y-110414140D01*
X203613746Y-110531939D01*
X203718354Y-110661528D01*
X203830077Y-110800047D01*
X203946615Y-110944639D01*
X204000067Y-111011000D01*
X204065667Y-111092444D01*
X204184932Y-111240603D01*
X204302109Y-111386260D01*
X204414896Y-111526554D01*
X204520994Y-111658627D01*
X204618101Y-111779621D01*
X204703916Y-111886678D01*
X204776138Y-111976938D01*
X204832466Y-112047543D01*
X204870599Y-112095635D01*
X204888237Y-112118355D01*
X204889692Y-112126893D01*
X204884850Y-112143132D01*
X204872302Y-112168679D01*
X204850797Y-112205347D01*
X204819080Y-112254949D01*
X204775900Y-112319295D01*
X204720005Y-112400198D01*
X204650141Y-112499471D01*
X204565057Y-112618926D01*
X204463499Y-112760374D01*
X204344216Y-112925629D01*
X204205954Y-113116501D01*
X204047462Y-113334804D01*
X203921177Y-113508571D01*
X203767105Y-113720407D01*
X203631580Y-113906440D01*
X203513024Y-114068734D01*
X203409861Y-114209354D01*
X203320515Y-114330365D01*
X203243411Y-114433832D01*
X203176972Y-114521818D01*
X203119623Y-114596390D01*
X203069786Y-114659610D01*
X203025886Y-114713545D01*
X202986347Y-114760258D01*
X202949593Y-114801814D01*
X202914047Y-114840279D01*
X202878135Y-114877715D01*
X202840278Y-114916189D01*
X202700771Y-115056857D01*
X204576357Y-115056933D01*
X204570464Y-114943275D01*
X204570179Y-114937564D01*
X204569060Y-114892127D01*
X204571181Y-114848593D01*
X204577958Y-114804576D01*
X204590812Y-114757693D01*
X204611160Y-114705558D01*
X204640420Y-114645786D01*
X204680012Y-114575994D01*
X204731353Y-114493797D01*
X204795862Y-114396809D01*
X204874957Y-114282647D01*
X204970057Y-114148925D01*
X205082581Y-113993260D01*
X205213946Y-113813265D01*
X205365572Y-113606557D01*
X205900786Y-112877911D01*
X205905501Y-113722755D01*
X205905919Y-113801562D01*
X205906656Y-114013832D01*
X205906321Y-114194381D01*
X205904519Y-114346628D01*
X205900856Y-114473988D01*
X205894936Y-114579878D01*
X205886367Y-114667715D01*
X205874751Y-114740916D01*
X205859697Y-114802898D01*
X205840807Y-114857076D01*
X205817689Y-114906869D01*
X205789947Y-114955693D01*
X205757187Y-115006964D01*
X205724256Y-115056857D01*
X207435704Y-115056857D01*
X207391496Y-114997893D01*
X207384572Y-114988565D01*
X207329221Y-114903070D01*
X207291064Y-114816644D01*
X207266008Y-114717613D01*
X207249959Y-114594304D01*
X207249518Y-114588929D01*
X207247189Y-114538067D01*
X207245087Y-114453206D01*
X207243219Y-114336286D01*
X207241596Y-114189246D01*
X207240227Y-114014026D01*
X207239120Y-113812563D01*
X207238285Y-113586798D01*
X207237732Y-113338669D01*
X207237468Y-113070115D01*
X207237503Y-112783077D01*
X207237847Y-112479492D01*
X207238508Y-112161300D01*
X207239209Y-111875881D01*
X207239958Y-111565196D01*
X207240696Y-111287226D01*
X207241515Y-111040022D01*
X207242507Y-110821637D01*
X207243766Y-110630125D01*
X207245383Y-110463537D01*
X207247452Y-110319925D01*
X207250065Y-110197344D01*
X207253315Y-110093844D01*
X207257293Y-110007479D01*
X207262094Y-109936301D01*
X207267809Y-109878363D01*
X207274532Y-109831717D01*
X207282354Y-109794416D01*
X207291368Y-109764512D01*
X207301667Y-109740058D01*
X207313344Y-109719106D01*
X207326492Y-109699709D01*
X207341202Y-109679920D01*
X207357567Y-109657791D01*
X207373396Y-109635615D01*
X207403991Y-109591769D01*
X207422317Y-109564107D01*
X207422759Y-109562949D01*
X207416360Y-109557718D01*
X207393779Y-109553353D01*
X207352502Y-109549788D01*
X207290017Y-109546954D01*
X207203812Y-109544787D01*
X207091373Y-109543217D01*
X206950188Y-109542179D01*
X206777745Y-109541605D01*
X206571530Y-109541429D01*
X205707060Y-109541429D01*
X205752621Y-109595574D01*
X205779026Y-109632763D01*
X205822978Y-109720446D01*
X205861495Y-109829499D01*
X205890893Y-109950468D01*
X205892766Y-109961952D01*
X205898341Y-110022492D01*
X205902563Y-110116056D01*
X205905443Y-110243292D01*
X205906992Y-110404846D01*
X205907221Y-110601368D01*
X205906143Y-110833504D01*
X205900786Y-111608508D01*
X205347429Y-110908742D01*
X205331579Y-110888698D01*
X205191253Y-110711052D01*
X205071453Y-110558914D01*
X204970270Y-110429698D01*
X204885800Y-110320817D01*
X204816135Y-110229685D01*
X204759368Y-110153714D01*
X204713594Y-110090317D01*
X204676906Y-110036908D01*
X204647396Y-109990901D01*
X204623159Y-109949707D01*
X204602288Y-109910741D01*
X204582877Y-109871415D01*
X204553015Y-109801805D01*
X204533724Y-109728372D01*
X204528592Y-109649165D01*
X204529108Y-109541429D01*
X202693127Y-109541429D01*
X202086080Y-109541429D01*
X202105830Y-109531138D01*
X202248136Y-109419032D01*
X202287695Y-109379510D01*
X202404620Y-109233175D01*
X202487588Y-109074367D01*
X202537043Y-108902063D01*
X202553429Y-108715238D01*
X202553429Y-108561715D01*
X205157830Y-108561714D01*
X205320540Y-108561707D01*
X205670089Y-108561660D01*
X205985856Y-108561626D01*
X206269588Y-108561673D01*
X206523031Y-108561872D01*
X206747931Y-108562291D01*
X206946034Y-108562998D01*
X207119087Y-108564065D01*
X207268835Y-108565558D01*
X207397025Y-108567547D01*
X207505403Y-108570102D01*
X207595715Y-108573291D01*
X207669707Y-108577183D01*
X207729125Y-108581848D01*
X207775716Y-108587354D01*
X207811226Y-108593771D01*
X207837400Y-108601167D01*
X207855986Y-108609611D01*
X207868728Y-108619173D01*
X207877374Y-108629922D01*
X207883670Y-108641926D01*
X207889360Y-108655255D01*
X207896193Y-108669978D01*
X207896316Y-108670218D01*
X207899633Y-108679856D01*
X207902676Y-108695993D01*
X207905456Y-108720121D01*
X207907985Y-108753727D01*
X207910274Y-108798301D01*
X207912334Y-108855333D01*
X207914179Y-108926311D01*
X207915817Y-109012725D01*
X207917263Y-109116064D01*
X207918526Y-109237818D01*
X207919619Y-109379475D01*
X207920553Y-109542526D01*
X207921340Y-109728458D01*
X207921991Y-109938762D01*
X207922517Y-110174927D01*
X207922931Y-110438442D01*
X207923244Y-110730797D01*
X207923467Y-111053480D01*
X207923612Y-111407981D01*
X207923691Y-111795789D01*
X207923714Y-112218393D01*
X207923715Y-112301414D01*
X207923755Y-112719614D01*
X207923817Y-113103313D01*
X207923854Y-113454009D01*
X207923817Y-113773204D01*
X207923662Y-114062398D01*
X207923339Y-114323091D01*
X207922801Y-114556784D01*
X207922001Y-114764976D01*
X207920892Y-114949168D01*
X207919916Y-115056857D01*
X207919428Y-115110860D01*
G36*
X207919428Y-115110860D02*
G01*
X207917560Y-115251553D01*
X207915241Y-115372746D01*
X207912425Y-115475940D01*
X207909064Y-115562635D01*
X207905110Y-115634332D01*
X207900517Y-115692530D01*
X207895238Y-115738730D01*
X207889225Y-115774433D01*
X207882430Y-115801137D01*
X207874808Y-115820345D01*
X207866309Y-115833555D01*
X207856889Y-115842268D01*
X207846498Y-115847985D01*
X207835090Y-115852206D01*
X207822618Y-115856430D01*
X207809034Y-115862159D01*
X207801391Y-115865030D01*
X207787371Y-115868165D01*
X207766538Y-115871037D01*
X207737421Y-115873659D01*
X207698544Y-115876040D01*
X207648434Y-115878194D01*
X207585617Y-115880130D01*
X207508620Y-115881862D01*
X207415969Y-115883400D01*
X207306190Y-115884756D01*
X207177810Y-115885941D01*
X207029354Y-115886968D01*
X206859350Y-115887846D01*
X206666323Y-115888589D01*
X206448800Y-115889207D01*
X206205308Y-115889713D01*
X205934371Y-115890116D01*
X205634517Y-115890430D01*
X205304273Y-115890665D01*
X204942164Y-115890834D01*
X204546716Y-115890947D01*
X204116456Y-115891016D01*
X203980108Y-115891029D01*
X203559186Y-115891038D01*
X203172647Y-115890985D01*
X202819034Y-115890860D01*
X202496890Y-115890652D01*
X202204761Y-115890351D01*
X201941188Y-115889946D01*
X201704716Y-115889426D01*
X201493890Y-115888782D01*
X201307251Y-115888002D01*
X201143345Y-115887076D01*
X201000715Y-115885993D01*
X200877905Y-115884743D01*
X200773458Y-115883315D01*
X200685919Y-115881698D01*
X200613830Y-115879883D01*
X200555736Y-115877858D01*
X200510180Y-115875613D01*
X200475707Y-115873137D01*
X200450859Y-115870420D01*
X200434181Y-115867451D01*
X200424217Y-115864220D01*
X200421046Y-115862782D01*
X200408067Y-115858058D01*
X200396165Y-115854608D01*
X200385292Y-115850930D01*
X200375398Y-115845521D01*
X200366437Y-115836879D01*
X200358359Y-115823502D01*
X200351116Y-115803886D01*
X200344661Y-115776531D01*
X200338945Y-115739933D01*
X200333919Y-115692590D01*
X200329536Y-115633000D01*
X200325747Y-115559659D01*
X200322504Y-115471067D01*
X200319759Y-115365720D01*
X200317463Y-115242117D01*
X200315568Y-115098754D01*
X200314946Y-115032367D01*
X200793373Y-115032367D01*
X200793898Y-115038725D01*
X200803521Y-115043877D01*
X200825264Y-115047950D01*
X200862148Y-115051070D01*
X200917193Y-115053365D01*
X200993419Y-115054959D01*
X201093848Y-115055979D01*
X201221501Y-115056551D01*
X201379398Y-115056802D01*
X201570559Y-115056857D01*
X202371314Y-115056857D01*
X202303621Y-114934393D01*
X202235929Y-114811929D01*
X202235929Y-111255929D01*
X202303621Y-111133465D01*
X202371314Y-111011000D01*
X200939993Y-111011000D01*
X200934818Y-112893322D01*
X200929643Y-114775643D01*
X200878903Y-114884008D01*
X200852151Y-114937719D01*
X200821860Y-114991524D01*
X200798984Y-115024615D01*
X200798926Y-115024679D01*
X200793373Y-115032367D01*
X200314946Y-115032367D01*
X200314026Y-114934129D01*
X200312789Y-114746740D01*
X200311808Y-114535085D01*
X200311035Y-114297661D01*
X200310422Y-114032966D01*
X200309921Y-113739498D01*
X200309484Y-113415753D01*
X200309061Y-113060230D01*
X200308605Y-112671426D01*
X200308068Y-112247840D01*
X200307999Y-112196560D01*
X200307400Y-111775657D01*
X200306827Y-111389362D01*
X200306323Y-111036172D01*
X200305930Y-110714584D01*
X200305690Y-110423094D01*
X200305646Y-110160200D01*
X200305840Y-109924398D01*
X200306314Y-109714186D01*
X200307112Y-109528060D01*
X200308274Y-109364517D01*
X200309844Y-109222055D01*
X200311864Y-109099170D01*
X200314377Y-108994359D01*
X200317424Y-108906119D01*
X200321049Y-108832947D01*
X200325293Y-108773340D01*
X200330198Y-108725795D01*
X200335808Y-108688808D01*
X200342165Y-108660878D01*
X200349311Y-108640500D01*
X200357288Y-108626171D01*
X200366139Y-108616390D01*
X200375906Y-108609651D01*
X200386632Y-108604454D01*
X200398358Y-108599293D01*
X200411128Y-108592667D01*
X200414865Y-108590556D01*
X200471405Y-108570118D01*
X200533300Y-108561717D01*
X200603072Y-108561720D01*
X200604234Y-108720467D01*
X200604529Y-108738735D01*
X200626706Y-108924427D01*
X200683188Y-109099147D01*
X200773192Y-109261043D01*
X200895932Y-109408265D01*
X200961798Y-109468311D01*
X201108454Y-109567838D01*
X201268470Y-109637242D01*
X201437185Y-109676487D01*
X201609939Y-109685537D01*
X201782072Y-109664353D01*
X201948922Y-109612899D01*
X202086080Y-109541429D01*
X202693127Y-109541429D01*
X202772957Y-109598862D01*
X202840470Y-109652841D01*
X202935603Y-109740886D01*
X203043507Y-109851230D01*
X203160097Y-109979670D01*
X203281285Y-110122000D01*
X203312494Y-110160062D01*
X203365629Y-110225343D01*
X203435083Y-110310988D01*
X203518556Y-110414140D01*
X203613746Y-110531939D01*
X203718354Y-110661528D01*
X203830077Y-110800047D01*
X203946615Y-110944639D01*
X204000067Y-111011000D01*
X204065667Y-111092444D01*
X204184932Y-111240603D01*
X204302109Y-111386260D01*
X204414896Y-111526554D01*
X204520994Y-111658627D01*
X204618101Y-111779621D01*
X204703916Y-111886678D01*
X204776138Y-111976938D01*
X204832466Y-112047543D01*
X204870599Y-112095635D01*
X204888237Y-112118355D01*
X204889692Y-112126893D01*
X204884850Y-112143132D01*
X204872302Y-112168679D01*
X204850797Y-112205347D01*
X204819080Y-112254949D01*
X204775900Y-112319295D01*
X204720005Y-112400198D01*
X204650141Y-112499471D01*
X204565057Y-112618926D01*
X204463499Y-112760374D01*
X204344216Y-112925629D01*
X204205954Y-113116501D01*
X204047462Y-113334804D01*
X203921177Y-113508571D01*
X203767105Y-113720407D01*
X203631580Y-113906440D01*
X203513024Y-114068734D01*
X203409861Y-114209354D01*
X203320515Y-114330365D01*
X203243411Y-114433832D01*
X203176972Y-114521818D01*
X203119623Y-114596390D01*
X203069786Y-114659610D01*
X203025886Y-114713545D01*
X202986347Y-114760258D01*
X202949593Y-114801814D01*
X202914047Y-114840279D01*
X202878135Y-114877715D01*
X202840278Y-114916189D01*
X202700771Y-115056857D01*
X204576357Y-115056933D01*
X204570464Y-114943275D01*
X204570179Y-114937564D01*
X204569060Y-114892127D01*
X204571181Y-114848593D01*
X204577958Y-114804576D01*
X204590812Y-114757693D01*
X204611160Y-114705558D01*
X204640420Y-114645786D01*
X204680012Y-114575994D01*
X204731353Y-114493797D01*
X204795862Y-114396809D01*
X204874957Y-114282647D01*
X204970057Y-114148925D01*
X205082581Y-113993260D01*
X205213946Y-113813265D01*
X205365572Y-113606557D01*
X205900786Y-112877911D01*
X205905501Y-113722755D01*
X205905919Y-113801562D01*
X205906656Y-114013832D01*
X205906321Y-114194381D01*
X205904519Y-114346628D01*
X205900856Y-114473988D01*
X205894936Y-114579878D01*
X205886367Y-114667715D01*
X205874751Y-114740916D01*
X205859697Y-114802898D01*
X205840807Y-114857076D01*
X205817689Y-114906869D01*
X205789947Y-114955693D01*
X205757187Y-115006964D01*
X205724256Y-115056857D01*
X207435704Y-115056857D01*
X207391496Y-114997893D01*
X207384572Y-114988565D01*
X207329221Y-114903070D01*
X207291064Y-114816644D01*
X207266008Y-114717613D01*
X207249959Y-114594304D01*
X207249518Y-114588929D01*
X207247189Y-114538067D01*
X207245087Y-114453206D01*
X207243219Y-114336286D01*
X207241596Y-114189246D01*
X207240227Y-114014026D01*
X207239120Y-113812563D01*
X207238285Y-113586798D01*
X207237732Y-113338669D01*
X207237468Y-113070115D01*
X207237503Y-112783077D01*
X207237847Y-112479492D01*
X207238508Y-112161300D01*
X207239209Y-111875881D01*
X207239958Y-111565196D01*
X207240696Y-111287226D01*
X207241515Y-111040022D01*
X207242507Y-110821637D01*
X207243766Y-110630125D01*
X207245383Y-110463537D01*
X207247452Y-110319925D01*
X207250065Y-110197344D01*
X207253315Y-110093844D01*
X207257293Y-110007479D01*
X207262094Y-109936301D01*
X207267809Y-109878363D01*
X207274532Y-109831717D01*
X207282354Y-109794416D01*
X207291368Y-109764512D01*
X207301667Y-109740058D01*
X207313344Y-109719106D01*
X207326492Y-109699709D01*
X207341202Y-109679920D01*
X207357567Y-109657791D01*
X207373396Y-109635615D01*
X207403991Y-109591769D01*
X207422317Y-109564107D01*
X207422759Y-109562949D01*
X207416360Y-109557718D01*
X207393779Y-109553353D01*
X207352502Y-109549788D01*
X207290017Y-109546954D01*
X207203812Y-109544787D01*
X207091373Y-109543217D01*
X206950188Y-109542179D01*
X206777745Y-109541605D01*
X206571530Y-109541429D01*
X205707060Y-109541429D01*
X205752621Y-109595574D01*
X205779026Y-109632763D01*
X205822978Y-109720446D01*
X205861495Y-109829499D01*
X205890893Y-109950468D01*
X205892766Y-109961952D01*
X205898341Y-110022492D01*
X205902563Y-110116056D01*
X205905443Y-110243292D01*
X205906992Y-110404846D01*
X205907221Y-110601368D01*
X205906143Y-110833504D01*
X205900786Y-111608508D01*
X205347429Y-110908742D01*
X205331579Y-110888698D01*
X205191253Y-110711052D01*
X205071453Y-110558914D01*
X204970270Y-110429698D01*
X204885800Y-110320817D01*
X204816135Y-110229685D01*
X204759368Y-110153714D01*
X204713594Y-110090317D01*
X204676906Y-110036908D01*
X204647396Y-109990901D01*
X204623159Y-109949707D01*
X204602288Y-109910741D01*
X204582877Y-109871415D01*
X204553015Y-109801805D01*
X204533724Y-109728372D01*
X204528592Y-109649165D01*
X204529108Y-109541429D01*
X202693127Y-109541429D01*
X202086080Y-109541429D01*
X202105830Y-109531138D01*
X202248136Y-109419032D01*
X202287695Y-109379510D01*
X202404620Y-109233175D01*
X202487588Y-109074367D01*
X202537043Y-108902063D01*
X202553429Y-108715238D01*
X202553429Y-108561715D01*
X205157830Y-108561714D01*
X205320540Y-108561707D01*
X205670089Y-108561660D01*
X205985856Y-108561626D01*
X206269588Y-108561673D01*
X206523031Y-108561872D01*
X206747931Y-108562291D01*
X206946034Y-108562998D01*
X207119087Y-108564065D01*
X207268835Y-108565558D01*
X207397025Y-108567547D01*
X207505403Y-108570102D01*
X207595715Y-108573291D01*
X207669707Y-108577183D01*
X207729125Y-108581848D01*
X207775716Y-108587354D01*
X207811226Y-108593771D01*
X207837400Y-108601167D01*
X207855986Y-108609611D01*
X207868728Y-108619173D01*
X207877374Y-108629922D01*
X207883670Y-108641926D01*
X207889360Y-108655255D01*
X207896193Y-108669978D01*
X207896316Y-108670218D01*
X207899633Y-108679856D01*
X207902676Y-108695993D01*
X207905456Y-108720121D01*
X207907985Y-108753727D01*
X207910274Y-108798301D01*
X207912334Y-108855333D01*
X207914179Y-108926311D01*
X207915817Y-109012725D01*
X207917263Y-109116064D01*
X207918526Y-109237818D01*
X207919619Y-109379475D01*
X207920553Y-109542526D01*
X207921340Y-109728458D01*
X207921991Y-109938762D01*
X207922517Y-110174927D01*
X207922931Y-110438442D01*
X207923244Y-110730797D01*
X207923467Y-111053480D01*
X207923612Y-111407981D01*
X207923691Y-111795789D01*
X207923714Y-112218393D01*
X207923715Y-112301414D01*
X207923755Y-112719614D01*
X207923817Y-113103313D01*
X207923854Y-113454009D01*
X207923817Y-113773204D01*
X207923662Y-114062398D01*
X207923339Y-114323091D01*
X207922801Y-114556784D01*
X207922001Y-114764976D01*
X207920892Y-114949168D01*
X207919916Y-115056857D01*
X207919428Y-115110860D01*
G37*
%TD*%
M02*
