%TF.GenerationSoftware,KiCad,Pcbnew,7.0.6-7.0.6~ubuntu22.10.1*%
%TF.CreationDate,2023-08-26T18:05:47+03:00*%
%TF.ProjectId,MCU Datalogger,4d435520-4461-4746-916c-6f676765722e,rev?*%
%TF.SameCoordinates,Original*%
%TF.FileFunction,Soldermask,Top*%
%TF.FilePolarity,Negative*%
%FSLAX46Y46*%
G04 Gerber Fmt 4.6, Leading zero omitted, Abs format (unit mm)*
G04 Created by KiCad (PCBNEW 7.0.6-7.0.6~ubuntu22.10.1) date 2023-08-26 18:05:47*
%MOMM*%
%LPD*%
G01*
G04 APERTURE LIST*
G04 Aperture macros list*
%AMRoundRect*
0 Rectangle with rounded corners*
0 $1 Rounding radius*
0 $2 $3 $4 $5 $6 $7 $8 $9 X,Y pos of 4 corners*
0 Add a 4 corners polygon primitive as box body*
4,1,4,$2,$3,$4,$5,$6,$7,$8,$9,$2,$3,0*
0 Add four circle primitives for the rounded corners*
1,1,$1+$1,$2,$3*
1,1,$1+$1,$4,$5*
1,1,$1+$1,$6,$7*
1,1,$1+$1,$8,$9*
0 Add four rect primitives between the rounded corners*
20,1,$1+$1,$2,$3,$4,$5,0*
20,1,$1+$1,$4,$5,$6,$7,0*
20,1,$1+$1,$6,$7,$8,$9,0*
20,1,$1+$1,$8,$9,$2,$3,0*%
G04 Aperture macros list end*
%ADD10RoundRect,0.250000X0.250000X0.475000X-0.250000X0.475000X-0.250000X-0.475000X0.250000X-0.475000X0*%
%ADD11R,1.700000X1.700000*%
%ADD12O,1.700000X1.700000*%
%ADD13C,2.100000*%
%ADD14RoundRect,0.250000X0.262500X0.450000X-0.262500X0.450000X-0.262500X-0.450000X0.262500X-0.450000X0*%
%ADD15R,2.400000X3.500000*%
%ADD16RoundRect,0.150000X-0.650000X-0.150000X0.650000X-0.150000X0.650000X0.150000X-0.650000X0.150000X0*%
%ADD17RoundRect,0.250000X-0.250000X-0.475000X0.250000X-0.475000X0.250000X0.475000X-0.250000X0.475000X0*%
%ADD18RoundRect,0.143300X-0.943700X-0.253700X0.943700X-0.253700X0.943700X0.253700X-0.943700X0.253700X0*%
%ADD19RoundRect,0.243750X-0.243750X-0.456250X0.243750X-0.456250X0.243750X0.456250X-0.243750X0.456250X0*%
%ADD20R,3.500000X2.400000*%
%ADD21RoundRect,0.250000X-0.262500X-0.450000X0.262500X-0.450000X0.262500X0.450000X-0.262500X0.450000X0*%
%ADD22RoundRect,0.140500X-0.696500X-0.236500X0.696500X-0.236500X0.696500X0.236500X-0.696500X0.236500X0*%
%ADD23RoundRect,0.201000X-0.176000X-0.636000X0.176000X-0.636000X0.176000X0.636000X-0.176000X0.636000X0*%
G04 APERTURE END LIST*
D10*
%TO.C,C2*%
X110575000Y-76000000D03*
X108675000Y-76000000D03*
%TD*%
D11*
%TO.C,J4*%
X118460000Y-62420000D03*
D12*
X121000000Y-62420000D03*
X118460000Y-64960000D03*
X121000000Y-64960000D03*
X118460000Y-67500000D03*
X121000000Y-67500000D03*
%TD*%
D13*
%TO.C,H3*%
X124500000Y-56000000D03*
%TD*%
D14*
%TO.C,R3*%
X110587500Y-72000000D03*
X108762500Y-72000000D03*
%TD*%
D15*
%TO.C,Y1*%
X78800000Y-78800000D03*
X78800000Y-73600000D03*
%TD*%
D14*
%TO.C,R2*%
X90412500Y-79500000D03*
X88587500Y-79500000D03*
%TD*%
D11*
%TO.C,J1*%
X121000000Y-72420000D03*
D12*
X121000000Y-74960000D03*
X121000000Y-77500000D03*
X121000000Y-80040000D03*
%TD*%
D13*
%TO.C,H4*%
X124500000Y-86750000D03*
%TD*%
D11*
%TO.C,J3*%
X108060000Y-83400000D03*
D12*
X110600000Y-83400000D03*
X113140000Y-83400000D03*
X115680000Y-83400000D03*
%TD*%
D16*
%TO.C,U3*%
X83800000Y-58495000D03*
X83800000Y-59765000D03*
X83800000Y-61035000D03*
X83800000Y-62305000D03*
X91000000Y-62305000D03*
X91000000Y-61035000D03*
X91000000Y-59765000D03*
X91000000Y-58495000D03*
%TD*%
D17*
%TO.C,C5*%
X103500000Y-58500000D03*
X105400000Y-58500000D03*
%TD*%
D11*
%TO.C,J2*%
X83060000Y-83400000D03*
D12*
X85600000Y-83400000D03*
X88140000Y-83400000D03*
X90680000Y-83400000D03*
X93220000Y-83400000D03*
X95760000Y-83400000D03*
X98300000Y-83400000D03*
X100840000Y-83400000D03*
X103380000Y-83400000D03*
%TD*%
D14*
%TO.C,R5*%
X114500000Y-63000000D03*
X112675000Y-63000000D03*
%TD*%
D17*
%TO.C,C1*%
X95500000Y-58500000D03*
X97400000Y-58500000D03*
%TD*%
D14*
%TO.C,R4*%
X110500000Y-67500000D03*
X108675000Y-67500000D03*
%TD*%
D10*
%TO.C,C4*%
X110575000Y-79500000D03*
X108675000Y-79500000D03*
%TD*%
D13*
%TO.C,H2*%
X75200000Y-86750000D03*
%TD*%
D18*
%TO.C,U2*%
X85025000Y-72595000D03*
X85025000Y-73865000D03*
X85025000Y-75135000D03*
X85025000Y-76405000D03*
X89975000Y-76405000D03*
X89975000Y-75135000D03*
X89975000Y-73865000D03*
X89975000Y-72595000D03*
%TD*%
D17*
%TO.C,C3*%
X99500000Y-58500000D03*
X101400000Y-58500000D03*
%TD*%
D19*
%TO.C,D1*%
X112675000Y-58500000D03*
X114550000Y-58500000D03*
%TD*%
%TO.C,D2*%
X108737500Y-58500000D03*
X110612500Y-58500000D03*
%TD*%
D16*
%TO.C,U1*%
X83900000Y-65595000D03*
X83900000Y-66865000D03*
X83900000Y-68135000D03*
X83900000Y-69405000D03*
X91100000Y-69405000D03*
X91100000Y-68135000D03*
X91100000Y-66865000D03*
X91100000Y-65595000D03*
%TD*%
D20*
%TO.C,Y2*%
X103100000Y-76500000D03*
X97900000Y-76500000D03*
%TD*%
D21*
%TO.C,R6*%
X112762500Y-67500000D03*
X114587500Y-67500000D03*
%TD*%
%TO.C,R1*%
X84587500Y-79500000D03*
X86412500Y-79500000D03*
%TD*%
D11*
%TO.C,BT1*%
X79000000Y-65400000D03*
D12*
X79000000Y-67940000D03*
%TD*%
D13*
%TO.C,H1*%
X75200000Y-56000000D03*
%TD*%
D22*
%TO.C,U4*%
X96330000Y-64700000D03*
X96330000Y-65500000D03*
X96330000Y-66300000D03*
X96330000Y-67100000D03*
X96330000Y-67900000D03*
X96330000Y-68700000D03*
X96330000Y-69500000D03*
X96330000Y-70300000D03*
D23*
X97700000Y-71670000D03*
X98500000Y-71670000D03*
X99300000Y-71670000D03*
X100100000Y-71670000D03*
X100900000Y-71670000D03*
X101700000Y-71670000D03*
X102500000Y-71670000D03*
X103300000Y-71670000D03*
D22*
X104670000Y-70300000D03*
X104670000Y-69500000D03*
X104670000Y-68700000D03*
X104670000Y-67900000D03*
X104670000Y-67100000D03*
X104670000Y-66300000D03*
X104670000Y-65500000D03*
X104670000Y-64700000D03*
D23*
X103300000Y-63330000D03*
X102500000Y-63330000D03*
X101700000Y-63330000D03*
X100900000Y-63330000D03*
X100100000Y-63330000D03*
X99300000Y-63330000D03*
X98500000Y-63330000D03*
X97700000Y-63330000D03*
%TD*%
D21*
%TO.C,R7*%
X108762500Y-63000000D03*
X110587500Y-63000000D03*
%TD*%
M02*
