%TF.GenerationSoftware,KiCad,Pcbnew,7.0.6-7.0.6~ubuntu22.10.1*%
%TF.CreationDate,2023-08-26T18:05:47+03:00*%
%TF.ProjectId,MCU Datalogger,4d435520-4461-4746-916c-6f676765722e,rev?*%
%TF.SameCoordinates,Original*%
%TF.FileFunction,Legend,Top*%
%TF.FilePolarity,Positive*%
%FSLAX46Y46*%
G04 Gerber Fmt 4.6, Leading zero omitted, Abs format (unit mm)*
G04 Created by KiCad (PCBNEW 7.0.6-7.0.6~ubuntu22.10.1) date 2023-08-26 18:05:47*
%MOMM*%
%LPD*%
G01*
G04 APERTURE LIST*
%ADD10C,0.150000*%
%ADD11C,0.125000*%
%ADD12C,0.120000*%
%ADD13C,0.127000*%
%ADD14C,0.200000*%
G04 APERTURE END LIST*
D10*
X109533333Y-74759580D02*
X109485714Y-74807200D01*
X109485714Y-74807200D02*
X109342857Y-74854819D01*
X109342857Y-74854819D02*
X109247619Y-74854819D01*
X109247619Y-74854819D02*
X109104762Y-74807200D01*
X109104762Y-74807200D02*
X109009524Y-74711961D01*
X109009524Y-74711961D02*
X108961905Y-74616723D01*
X108961905Y-74616723D02*
X108914286Y-74426247D01*
X108914286Y-74426247D02*
X108914286Y-74283390D01*
X108914286Y-74283390D02*
X108961905Y-74092914D01*
X108961905Y-74092914D02*
X109009524Y-73997676D01*
X109009524Y-73997676D02*
X109104762Y-73902438D01*
X109104762Y-73902438D02*
X109247619Y-73854819D01*
X109247619Y-73854819D02*
X109342857Y-73854819D01*
X109342857Y-73854819D02*
X109485714Y-73902438D01*
X109485714Y-73902438D02*
X109533333Y-73950057D01*
X109914286Y-73950057D02*
X109961905Y-73902438D01*
X109961905Y-73902438D02*
X110057143Y-73854819D01*
X110057143Y-73854819D02*
X110295238Y-73854819D01*
X110295238Y-73854819D02*
X110390476Y-73902438D01*
X110390476Y-73902438D02*
X110438095Y-73950057D01*
X110438095Y-73950057D02*
X110485714Y-74045295D01*
X110485714Y-74045295D02*
X110485714Y-74140533D01*
X110485714Y-74140533D02*
X110438095Y-74283390D01*
X110438095Y-74283390D02*
X109866667Y-74854819D01*
X109866667Y-74854819D02*
X110485714Y-74854819D01*
D11*
X108378572Y-77172428D02*
X108402381Y-77148619D01*
X108402381Y-77148619D02*
X108450000Y-77124809D01*
X108450000Y-77124809D02*
X108569048Y-77124809D01*
X108569048Y-77124809D02*
X108616667Y-77148619D01*
X108616667Y-77148619D02*
X108640476Y-77172428D01*
X108640476Y-77172428D02*
X108664286Y-77220047D01*
X108664286Y-77220047D02*
X108664286Y-77267666D01*
X108664286Y-77267666D02*
X108640476Y-77339095D01*
X108640476Y-77339095D02*
X108354762Y-77624809D01*
X108354762Y-77624809D02*
X108664286Y-77624809D01*
X108854762Y-77172428D02*
X108878571Y-77148619D01*
X108878571Y-77148619D02*
X108926190Y-77124809D01*
X108926190Y-77124809D02*
X109045238Y-77124809D01*
X109045238Y-77124809D02*
X109092857Y-77148619D01*
X109092857Y-77148619D02*
X109116666Y-77172428D01*
X109116666Y-77172428D02*
X109140476Y-77220047D01*
X109140476Y-77220047D02*
X109140476Y-77267666D01*
X109140476Y-77267666D02*
X109116666Y-77339095D01*
X109116666Y-77339095D02*
X108830952Y-77624809D01*
X108830952Y-77624809D02*
X109140476Y-77624809D01*
X109354761Y-77291476D02*
X109354761Y-77791476D01*
X109354761Y-77315285D02*
X109402380Y-77291476D01*
X109402380Y-77291476D02*
X109497618Y-77291476D01*
X109497618Y-77291476D02*
X109545237Y-77315285D01*
X109545237Y-77315285D02*
X109569047Y-77339095D01*
X109569047Y-77339095D02*
X109592856Y-77386714D01*
X109592856Y-77386714D02*
X109592856Y-77529571D01*
X109592856Y-77529571D02*
X109569047Y-77577190D01*
X109569047Y-77577190D02*
X109545237Y-77601000D01*
X109545237Y-77601000D02*
X109497618Y-77624809D01*
X109497618Y-77624809D02*
X109402380Y-77624809D01*
X109402380Y-77624809D02*
X109354761Y-77601000D01*
X109973809Y-77362904D02*
X109807142Y-77362904D01*
X109807142Y-77624809D02*
X109807142Y-77124809D01*
X109807142Y-77124809D02*
X110045237Y-77124809D01*
D10*
X123204819Y-65083333D02*
X123919104Y-65083333D01*
X123919104Y-65083333D02*
X124061961Y-65130952D01*
X124061961Y-65130952D02*
X124157200Y-65226190D01*
X124157200Y-65226190D02*
X124204819Y-65369047D01*
X124204819Y-65369047D02*
X124204819Y-65464285D01*
X123538152Y-64178571D02*
X124204819Y-64178571D01*
X123157200Y-64416666D02*
X123871485Y-64654761D01*
X123871485Y-64654761D02*
X123871485Y-64035714D01*
X109733333Y-70954819D02*
X109400000Y-70478628D01*
X109161905Y-70954819D02*
X109161905Y-69954819D01*
X109161905Y-69954819D02*
X109542857Y-69954819D01*
X109542857Y-69954819D02*
X109638095Y-70002438D01*
X109638095Y-70002438D02*
X109685714Y-70050057D01*
X109685714Y-70050057D02*
X109733333Y-70145295D01*
X109733333Y-70145295D02*
X109733333Y-70288152D01*
X109733333Y-70288152D02*
X109685714Y-70383390D01*
X109685714Y-70383390D02*
X109638095Y-70431009D01*
X109638095Y-70431009D02*
X109542857Y-70478628D01*
X109542857Y-70478628D02*
X109161905Y-70478628D01*
X110066667Y-69954819D02*
X110685714Y-69954819D01*
X110685714Y-69954819D02*
X110352381Y-70335771D01*
X110352381Y-70335771D02*
X110495238Y-70335771D01*
X110495238Y-70335771D02*
X110590476Y-70383390D01*
X110590476Y-70383390D02*
X110638095Y-70431009D01*
X110638095Y-70431009D02*
X110685714Y-70526247D01*
X110685714Y-70526247D02*
X110685714Y-70764342D01*
X110685714Y-70764342D02*
X110638095Y-70859580D01*
X110638095Y-70859580D02*
X110590476Y-70907200D01*
X110590476Y-70907200D02*
X110495238Y-70954819D01*
X110495238Y-70954819D02*
X110209524Y-70954819D01*
X110209524Y-70954819D02*
X110114286Y-70907200D01*
X110114286Y-70907200D02*
X110066667Y-70859580D01*
D11*
X111788096Y-72191476D02*
X111788096Y-72524809D01*
X111669048Y-72001000D02*
X111550001Y-72358142D01*
X111550001Y-72358142D02*
X111859524Y-72358142D01*
X112050000Y-72477190D02*
X112073810Y-72501000D01*
X112073810Y-72501000D02*
X112050000Y-72524809D01*
X112050000Y-72524809D02*
X112026191Y-72501000D01*
X112026191Y-72501000D02*
X112050000Y-72477190D01*
X112050000Y-72477190D02*
X112050000Y-72524809D01*
X112240476Y-72024809D02*
X112573809Y-72024809D01*
X112573809Y-72024809D02*
X112359524Y-72524809D01*
X112764285Y-72524809D02*
X112764285Y-72024809D01*
X113049999Y-72524809D02*
X112835714Y-72239095D01*
X113049999Y-72024809D02*
X112764285Y-72310523D01*
D10*
X78323809Y-81478628D02*
X78323809Y-81954819D01*
X77990476Y-80954819D02*
X78323809Y-81478628D01*
X78323809Y-81478628D02*
X78657142Y-80954819D01*
X79514285Y-81954819D02*
X78942857Y-81954819D01*
X79228571Y-81954819D02*
X79228571Y-80954819D01*
X79228571Y-80954819D02*
X79133333Y-81097676D01*
X79133333Y-81097676D02*
X79038095Y-81192914D01*
X79038095Y-81192914D02*
X78942857Y-81240533D01*
D11*
X80924809Y-81142855D02*
X80924809Y-80833331D01*
X80924809Y-80833331D02*
X81115285Y-80999998D01*
X81115285Y-80999998D02*
X81115285Y-80928569D01*
X81115285Y-80928569D02*
X81139095Y-80880950D01*
X81139095Y-80880950D02*
X81162904Y-80857141D01*
X81162904Y-80857141D02*
X81210523Y-80833331D01*
X81210523Y-80833331D02*
X81329571Y-80833331D01*
X81329571Y-80833331D02*
X81377190Y-80857141D01*
X81377190Y-80857141D02*
X81401000Y-80880950D01*
X81401000Y-80880950D02*
X81424809Y-80928569D01*
X81424809Y-80928569D02*
X81424809Y-81071426D01*
X81424809Y-81071426D02*
X81401000Y-81119045D01*
X81401000Y-81119045D02*
X81377190Y-81142855D01*
X80972428Y-80642855D02*
X80948619Y-80619046D01*
X80948619Y-80619046D02*
X80924809Y-80571427D01*
X80924809Y-80571427D02*
X80924809Y-80452379D01*
X80924809Y-80452379D02*
X80948619Y-80404760D01*
X80948619Y-80404760D02*
X80972428Y-80380951D01*
X80972428Y-80380951D02*
X81020047Y-80357141D01*
X81020047Y-80357141D02*
X81067666Y-80357141D01*
X81067666Y-80357141D02*
X81139095Y-80380951D01*
X81139095Y-80380951D02*
X81424809Y-80666665D01*
X81424809Y-80666665D02*
X81424809Y-80357141D01*
X81377190Y-80142856D02*
X81401000Y-80119046D01*
X81401000Y-80119046D02*
X81424809Y-80142856D01*
X81424809Y-80142856D02*
X81401000Y-80166665D01*
X81401000Y-80166665D02*
X81377190Y-80142856D01*
X81377190Y-80142856D02*
X81424809Y-80142856D01*
X80924809Y-79952380D02*
X80924809Y-79619047D01*
X80924809Y-79619047D02*
X81424809Y-79833332D01*
X80924809Y-79214285D02*
X80924809Y-79309523D01*
X80924809Y-79309523D02*
X80948619Y-79357142D01*
X80948619Y-79357142D02*
X80972428Y-79380952D01*
X80972428Y-79380952D02*
X81043857Y-79428571D01*
X81043857Y-79428571D02*
X81139095Y-79452380D01*
X81139095Y-79452380D02*
X81329571Y-79452380D01*
X81329571Y-79452380D02*
X81377190Y-79428571D01*
X81377190Y-79428571D02*
X81401000Y-79404761D01*
X81401000Y-79404761D02*
X81424809Y-79357142D01*
X81424809Y-79357142D02*
X81424809Y-79261904D01*
X81424809Y-79261904D02*
X81401000Y-79214285D01*
X81401000Y-79214285D02*
X81377190Y-79190476D01*
X81377190Y-79190476D02*
X81329571Y-79166666D01*
X81329571Y-79166666D02*
X81210523Y-79166666D01*
X81210523Y-79166666D02*
X81162904Y-79190476D01*
X81162904Y-79190476D02*
X81139095Y-79214285D01*
X81139095Y-79214285D02*
X81115285Y-79261904D01*
X81115285Y-79261904D02*
X81115285Y-79357142D01*
X81115285Y-79357142D02*
X81139095Y-79404761D01*
X81139095Y-79404761D02*
X81162904Y-79428571D01*
X81162904Y-79428571D02*
X81210523Y-79452380D01*
X81139095Y-78880952D02*
X81115285Y-78928571D01*
X81115285Y-78928571D02*
X81091476Y-78952381D01*
X81091476Y-78952381D02*
X81043857Y-78976190D01*
X81043857Y-78976190D02*
X81020047Y-78976190D01*
X81020047Y-78976190D02*
X80972428Y-78952381D01*
X80972428Y-78952381D02*
X80948619Y-78928571D01*
X80948619Y-78928571D02*
X80924809Y-78880952D01*
X80924809Y-78880952D02*
X80924809Y-78785714D01*
X80924809Y-78785714D02*
X80948619Y-78738095D01*
X80948619Y-78738095D02*
X80972428Y-78714286D01*
X80972428Y-78714286D02*
X81020047Y-78690476D01*
X81020047Y-78690476D02*
X81043857Y-78690476D01*
X81043857Y-78690476D02*
X81091476Y-78714286D01*
X81091476Y-78714286D02*
X81115285Y-78738095D01*
X81115285Y-78738095D02*
X81139095Y-78785714D01*
X81139095Y-78785714D02*
X81139095Y-78880952D01*
X81139095Y-78880952D02*
X81162904Y-78928571D01*
X81162904Y-78928571D02*
X81186714Y-78952381D01*
X81186714Y-78952381D02*
X81234333Y-78976190D01*
X81234333Y-78976190D02*
X81329571Y-78976190D01*
X81329571Y-78976190D02*
X81377190Y-78952381D01*
X81377190Y-78952381D02*
X81401000Y-78928571D01*
X81401000Y-78928571D02*
X81424809Y-78880952D01*
X81424809Y-78880952D02*
X81424809Y-78785714D01*
X81424809Y-78785714D02*
X81401000Y-78738095D01*
X81401000Y-78738095D02*
X81377190Y-78714286D01*
X81377190Y-78714286D02*
X81329571Y-78690476D01*
X81329571Y-78690476D02*
X81234333Y-78690476D01*
X81234333Y-78690476D02*
X81186714Y-78714286D01*
X81186714Y-78714286D02*
X81162904Y-78738095D01*
X81162904Y-78738095D02*
X81139095Y-78785714D01*
X81424809Y-78095239D02*
X80924809Y-78095239D01*
X81424809Y-77809525D02*
X81139095Y-78023810D01*
X80924809Y-77809525D02*
X81210523Y-78095239D01*
X81424809Y-77595239D02*
X80924809Y-77595239D01*
X81162904Y-77595239D02*
X81162904Y-77309525D01*
X81424809Y-77309525D02*
X80924809Y-77309525D01*
X81091476Y-77119048D02*
X81091476Y-76857143D01*
X81091476Y-76857143D02*
X81424809Y-77119048D01*
X81424809Y-77119048D02*
X81424809Y-76857143D01*
D10*
X89133333Y-81754819D02*
X88800000Y-81278628D01*
X88561905Y-81754819D02*
X88561905Y-80754819D01*
X88561905Y-80754819D02*
X88942857Y-80754819D01*
X88942857Y-80754819D02*
X89038095Y-80802438D01*
X89038095Y-80802438D02*
X89085714Y-80850057D01*
X89085714Y-80850057D02*
X89133333Y-80945295D01*
X89133333Y-80945295D02*
X89133333Y-81088152D01*
X89133333Y-81088152D02*
X89085714Y-81183390D01*
X89085714Y-81183390D02*
X89038095Y-81231009D01*
X89038095Y-81231009D02*
X88942857Y-81278628D01*
X88942857Y-81278628D02*
X88561905Y-81278628D01*
X89514286Y-80850057D02*
X89561905Y-80802438D01*
X89561905Y-80802438D02*
X89657143Y-80754819D01*
X89657143Y-80754819D02*
X89895238Y-80754819D01*
X89895238Y-80754819D02*
X89990476Y-80802438D01*
X89990476Y-80802438D02*
X90038095Y-80850057D01*
X90038095Y-80850057D02*
X90085714Y-80945295D01*
X90085714Y-80945295D02*
X90085714Y-81040533D01*
X90085714Y-81040533D02*
X90038095Y-81183390D01*
X90038095Y-81183390D02*
X89466667Y-81754819D01*
X89466667Y-81754819D02*
X90085714Y-81754819D01*
D11*
X90354762Y-78424809D02*
X90069048Y-78424809D01*
X90211905Y-78424809D02*
X90211905Y-77924809D01*
X90211905Y-77924809D02*
X90164286Y-77996238D01*
X90164286Y-77996238D02*
X90116667Y-78043857D01*
X90116667Y-78043857D02*
X90069048Y-78067666D01*
X90664285Y-77924809D02*
X90711904Y-77924809D01*
X90711904Y-77924809D02*
X90759523Y-77948619D01*
X90759523Y-77948619D02*
X90783333Y-77972428D01*
X90783333Y-77972428D02*
X90807142Y-78020047D01*
X90807142Y-78020047D02*
X90830952Y-78115285D01*
X90830952Y-78115285D02*
X90830952Y-78234333D01*
X90830952Y-78234333D02*
X90807142Y-78329571D01*
X90807142Y-78329571D02*
X90783333Y-78377190D01*
X90783333Y-78377190D02*
X90759523Y-78401000D01*
X90759523Y-78401000D02*
X90711904Y-78424809D01*
X90711904Y-78424809D02*
X90664285Y-78424809D01*
X90664285Y-78424809D02*
X90616666Y-78401000D01*
X90616666Y-78401000D02*
X90592857Y-78377190D01*
X90592857Y-78377190D02*
X90569047Y-78329571D01*
X90569047Y-78329571D02*
X90545238Y-78234333D01*
X90545238Y-78234333D02*
X90545238Y-78115285D01*
X90545238Y-78115285D02*
X90569047Y-78020047D01*
X90569047Y-78020047D02*
X90592857Y-77972428D01*
X90592857Y-77972428D02*
X90616666Y-77948619D01*
X90616666Y-77948619D02*
X90664285Y-77924809D01*
X91045237Y-78424809D02*
X91045237Y-77924809D01*
X91330951Y-78424809D02*
X91116666Y-78139095D01*
X91330951Y-77924809D02*
X91045237Y-78210523D01*
D10*
X123054819Y-75133333D02*
X123769104Y-75133333D01*
X123769104Y-75133333D02*
X123911961Y-75180952D01*
X123911961Y-75180952D02*
X124007200Y-75276190D01*
X124007200Y-75276190D02*
X124054819Y-75419047D01*
X124054819Y-75419047D02*
X124054819Y-75514285D01*
X124054819Y-74133333D02*
X124054819Y-74704761D01*
X124054819Y-74419047D02*
X123054819Y-74419047D01*
X123054819Y-74419047D02*
X123197676Y-74514285D01*
X123197676Y-74514285D02*
X123292914Y-74609523D01*
X123292914Y-74609523D02*
X123340533Y-74704761D01*
X112466666Y-85454819D02*
X112466666Y-86169104D01*
X112466666Y-86169104D02*
X112419047Y-86311961D01*
X112419047Y-86311961D02*
X112323809Y-86407200D01*
X112323809Y-86407200D02*
X112180952Y-86454819D01*
X112180952Y-86454819D02*
X112085714Y-86454819D01*
X112847619Y-85454819D02*
X113466666Y-85454819D01*
X113466666Y-85454819D02*
X113133333Y-85835771D01*
X113133333Y-85835771D02*
X113276190Y-85835771D01*
X113276190Y-85835771D02*
X113371428Y-85883390D01*
X113371428Y-85883390D02*
X113419047Y-85931009D01*
X113419047Y-85931009D02*
X113466666Y-86026247D01*
X113466666Y-86026247D02*
X113466666Y-86264342D01*
X113466666Y-86264342D02*
X113419047Y-86359580D01*
X113419047Y-86359580D02*
X113371428Y-86407200D01*
X113371428Y-86407200D02*
X113276190Y-86454819D01*
X113276190Y-86454819D02*
X112990476Y-86454819D01*
X112990476Y-86454819D02*
X112895238Y-86407200D01*
X112895238Y-86407200D02*
X112847619Y-86359580D01*
X82938095Y-56354819D02*
X82938095Y-57164342D01*
X82938095Y-57164342D02*
X82985714Y-57259580D01*
X82985714Y-57259580D02*
X83033333Y-57307200D01*
X83033333Y-57307200D02*
X83128571Y-57354819D01*
X83128571Y-57354819D02*
X83319047Y-57354819D01*
X83319047Y-57354819D02*
X83414285Y-57307200D01*
X83414285Y-57307200D02*
X83461904Y-57259580D01*
X83461904Y-57259580D02*
X83509523Y-57164342D01*
X83509523Y-57164342D02*
X83509523Y-56354819D01*
X83890476Y-56354819D02*
X84509523Y-56354819D01*
X84509523Y-56354819D02*
X84176190Y-56735771D01*
X84176190Y-56735771D02*
X84319047Y-56735771D01*
X84319047Y-56735771D02*
X84414285Y-56783390D01*
X84414285Y-56783390D02*
X84461904Y-56831009D01*
X84461904Y-56831009D02*
X84509523Y-56926247D01*
X84509523Y-56926247D02*
X84509523Y-57164342D01*
X84509523Y-57164342D02*
X84461904Y-57259580D01*
X84461904Y-57259580D02*
X84414285Y-57307200D01*
X84414285Y-57307200D02*
X84319047Y-57354819D01*
X84319047Y-57354819D02*
X84033333Y-57354819D01*
X84033333Y-57354819D02*
X83938095Y-57307200D01*
X83938095Y-57307200D02*
X83890476Y-57259580D01*
D11*
X88214287Y-56872428D02*
X88238096Y-56848619D01*
X88238096Y-56848619D02*
X88285715Y-56824809D01*
X88285715Y-56824809D02*
X88404763Y-56824809D01*
X88404763Y-56824809D02*
X88452382Y-56848619D01*
X88452382Y-56848619D02*
X88476191Y-56872428D01*
X88476191Y-56872428D02*
X88500001Y-56920047D01*
X88500001Y-56920047D02*
X88500001Y-56967666D01*
X88500001Y-56967666D02*
X88476191Y-57039095D01*
X88476191Y-57039095D02*
X88190477Y-57324809D01*
X88190477Y-57324809D02*
X88500001Y-57324809D01*
X88928572Y-56991476D02*
X88928572Y-57324809D01*
X88809524Y-56801000D02*
X88690477Y-57158142D01*
X88690477Y-57158142D02*
X89000000Y-57158142D01*
X89428571Y-57324809D02*
X89190476Y-57324809D01*
X89190476Y-57324809D02*
X89190476Y-56824809D01*
X89880952Y-57277190D02*
X89857143Y-57301000D01*
X89857143Y-57301000D02*
X89785714Y-57324809D01*
X89785714Y-57324809D02*
X89738095Y-57324809D01*
X89738095Y-57324809D02*
X89666667Y-57301000D01*
X89666667Y-57301000D02*
X89619048Y-57253380D01*
X89619048Y-57253380D02*
X89595238Y-57205761D01*
X89595238Y-57205761D02*
X89571429Y-57110523D01*
X89571429Y-57110523D02*
X89571429Y-57039095D01*
X89571429Y-57039095D02*
X89595238Y-56943857D01*
X89595238Y-56943857D02*
X89619048Y-56896238D01*
X89619048Y-56896238D02*
X89666667Y-56848619D01*
X89666667Y-56848619D02*
X89738095Y-56824809D01*
X89738095Y-56824809D02*
X89785714Y-56824809D01*
X89785714Y-56824809D02*
X89857143Y-56848619D01*
X89857143Y-56848619D02*
X89880952Y-56872428D01*
X90357143Y-57324809D02*
X90071429Y-57324809D01*
X90214286Y-57324809D02*
X90214286Y-56824809D01*
X90214286Y-56824809D02*
X90166667Y-56896238D01*
X90166667Y-56896238D02*
X90119048Y-56943857D01*
X90119048Y-56943857D02*
X90071429Y-56967666D01*
X90666666Y-56824809D02*
X90714285Y-56824809D01*
X90714285Y-56824809D02*
X90761904Y-56848619D01*
X90761904Y-56848619D02*
X90785714Y-56872428D01*
X90785714Y-56872428D02*
X90809523Y-56920047D01*
X90809523Y-56920047D02*
X90833333Y-57015285D01*
X90833333Y-57015285D02*
X90833333Y-57134333D01*
X90833333Y-57134333D02*
X90809523Y-57229571D01*
X90809523Y-57229571D02*
X90785714Y-57277190D01*
X90785714Y-57277190D02*
X90761904Y-57301000D01*
X90761904Y-57301000D02*
X90714285Y-57324809D01*
X90714285Y-57324809D02*
X90666666Y-57324809D01*
X90666666Y-57324809D02*
X90619047Y-57301000D01*
X90619047Y-57301000D02*
X90595238Y-57277190D01*
X90595238Y-57277190D02*
X90571428Y-57229571D01*
X90571428Y-57229571D02*
X90547619Y-57134333D01*
X90547619Y-57134333D02*
X90547619Y-57015285D01*
X90547619Y-57015285D02*
X90571428Y-56920047D01*
X90571428Y-56920047D02*
X90595238Y-56872428D01*
X90595238Y-56872428D02*
X90619047Y-56848619D01*
X90619047Y-56848619D02*
X90666666Y-56824809D01*
X91023809Y-56872428D02*
X91047618Y-56848619D01*
X91047618Y-56848619D02*
X91095237Y-56824809D01*
X91095237Y-56824809D02*
X91214285Y-56824809D01*
X91214285Y-56824809D02*
X91261904Y-56848619D01*
X91261904Y-56848619D02*
X91285713Y-56872428D01*
X91285713Y-56872428D02*
X91309523Y-56920047D01*
X91309523Y-56920047D02*
X91309523Y-56967666D01*
X91309523Y-56967666D02*
X91285713Y-57039095D01*
X91285713Y-57039095D02*
X90999999Y-57324809D01*
X90999999Y-57324809D02*
X91309523Y-57324809D01*
X91761903Y-56824809D02*
X91523808Y-56824809D01*
X91523808Y-56824809D02*
X91499999Y-57062904D01*
X91499999Y-57062904D02*
X91523808Y-57039095D01*
X91523808Y-57039095D02*
X91571427Y-57015285D01*
X91571427Y-57015285D02*
X91690475Y-57015285D01*
X91690475Y-57015285D02*
X91738094Y-57039095D01*
X91738094Y-57039095D02*
X91761903Y-57062904D01*
X91761903Y-57062904D02*
X91785713Y-57110523D01*
X91785713Y-57110523D02*
X91785713Y-57229571D01*
X91785713Y-57229571D02*
X91761903Y-57277190D01*
X91761903Y-57277190D02*
X91738094Y-57301000D01*
X91738094Y-57301000D02*
X91690475Y-57324809D01*
X91690475Y-57324809D02*
X91571427Y-57324809D01*
X91571427Y-57324809D02*
X91523808Y-57301000D01*
X91523808Y-57301000D02*
X91499999Y-57277190D01*
D10*
X104283333Y-57179580D02*
X104235714Y-57227200D01*
X104235714Y-57227200D02*
X104092857Y-57274819D01*
X104092857Y-57274819D02*
X103997619Y-57274819D01*
X103997619Y-57274819D02*
X103854762Y-57227200D01*
X103854762Y-57227200D02*
X103759524Y-57131961D01*
X103759524Y-57131961D02*
X103711905Y-57036723D01*
X103711905Y-57036723D02*
X103664286Y-56846247D01*
X103664286Y-56846247D02*
X103664286Y-56703390D01*
X103664286Y-56703390D02*
X103711905Y-56512914D01*
X103711905Y-56512914D02*
X103759524Y-56417676D01*
X103759524Y-56417676D02*
X103854762Y-56322438D01*
X103854762Y-56322438D02*
X103997619Y-56274819D01*
X103997619Y-56274819D02*
X104092857Y-56274819D01*
X104092857Y-56274819D02*
X104235714Y-56322438D01*
X104235714Y-56322438D02*
X104283333Y-56370057D01*
X105188095Y-56274819D02*
X104711905Y-56274819D01*
X104711905Y-56274819D02*
X104664286Y-56751009D01*
X104664286Y-56751009D02*
X104711905Y-56703390D01*
X104711905Y-56703390D02*
X104807143Y-56655771D01*
X104807143Y-56655771D02*
X105045238Y-56655771D01*
X105045238Y-56655771D02*
X105140476Y-56703390D01*
X105140476Y-56703390D02*
X105188095Y-56751009D01*
X105188095Y-56751009D02*
X105235714Y-56846247D01*
X105235714Y-56846247D02*
X105235714Y-57084342D01*
X105235714Y-57084342D02*
X105188095Y-57179580D01*
X105188095Y-57179580D02*
X105140476Y-57227200D01*
X105140476Y-57227200D02*
X105045238Y-57274819D01*
X105045238Y-57274819D02*
X104807143Y-57274819D01*
X104807143Y-57274819D02*
X104711905Y-57227200D01*
X104711905Y-57227200D02*
X104664286Y-57179580D01*
D11*
X104026191Y-60124809D02*
X103740477Y-60124809D01*
X103883334Y-60124809D02*
X103883334Y-59624809D01*
X103883334Y-59624809D02*
X103835715Y-59696238D01*
X103835715Y-59696238D02*
X103788096Y-59743857D01*
X103788096Y-59743857D02*
X103740477Y-59767666D01*
X104335714Y-59624809D02*
X104383333Y-59624809D01*
X104383333Y-59624809D02*
X104430952Y-59648619D01*
X104430952Y-59648619D02*
X104454762Y-59672428D01*
X104454762Y-59672428D02*
X104478571Y-59720047D01*
X104478571Y-59720047D02*
X104502381Y-59815285D01*
X104502381Y-59815285D02*
X104502381Y-59934333D01*
X104502381Y-59934333D02*
X104478571Y-60029571D01*
X104478571Y-60029571D02*
X104454762Y-60077190D01*
X104454762Y-60077190D02*
X104430952Y-60101000D01*
X104430952Y-60101000D02*
X104383333Y-60124809D01*
X104383333Y-60124809D02*
X104335714Y-60124809D01*
X104335714Y-60124809D02*
X104288095Y-60101000D01*
X104288095Y-60101000D02*
X104264286Y-60077190D01*
X104264286Y-60077190D02*
X104240476Y-60029571D01*
X104240476Y-60029571D02*
X104216667Y-59934333D01*
X104216667Y-59934333D02*
X104216667Y-59815285D01*
X104216667Y-59815285D02*
X104240476Y-59720047D01*
X104240476Y-59720047D02*
X104264286Y-59672428D01*
X104264286Y-59672428D02*
X104288095Y-59648619D01*
X104288095Y-59648619D02*
X104335714Y-59624809D01*
X104811904Y-59624809D02*
X104859523Y-59624809D01*
X104859523Y-59624809D02*
X104907142Y-59648619D01*
X104907142Y-59648619D02*
X104930952Y-59672428D01*
X104930952Y-59672428D02*
X104954761Y-59720047D01*
X104954761Y-59720047D02*
X104978571Y-59815285D01*
X104978571Y-59815285D02*
X104978571Y-59934333D01*
X104978571Y-59934333D02*
X104954761Y-60029571D01*
X104954761Y-60029571D02*
X104930952Y-60077190D01*
X104930952Y-60077190D02*
X104907142Y-60101000D01*
X104907142Y-60101000D02*
X104859523Y-60124809D01*
X104859523Y-60124809D02*
X104811904Y-60124809D01*
X104811904Y-60124809D02*
X104764285Y-60101000D01*
X104764285Y-60101000D02*
X104740476Y-60077190D01*
X104740476Y-60077190D02*
X104716666Y-60029571D01*
X104716666Y-60029571D02*
X104692857Y-59934333D01*
X104692857Y-59934333D02*
X104692857Y-59815285D01*
X104692857Y-59815285D02*
X104716666Y-59720047D01*
X104716666Y-59720047D02*
X104740476Y-59672428D01*
X104740476Y-59672428D02*
X104764285Y-59648619D01*
X104764285Y-59648619D02*
X104811904Y-59624809D01*
X105192856Y-59791476D02*
X105192856Y-60124809D01*
X105192856Y-59839095D02*
X105216666Y-59815285D01*
X105216666Y-59815285D02*
X105264285Y-59791476D01*
X105264285Y-59791476D02*
X105335713Y-59791476D01*
X105335713Y-59791476D02*
X105383332Y-59815285D01*
X105383332Y-59815285D02*
X105407142Y-59862904D01*
X105407142Y-59862904D02*
X105407142Y-60124809D01*
X105811904Y-59862904D02*
X105645237Y-59862904D01*
X105645237Y-60124809D02*
X105645237Y-59624809D01*
X105645237Y-59624809D02*
X105883332Y-59624809D01*
D10*
X90666666Y-85454819D02*
X90666666Y-86169104D01*
X90666666Y-86169104D02*
X90619047Y-86311961D01*
X90619047Y-86311961D02*
X90523809Y-86407200D01*
X90523809Y-86407200D02*
X90380952Y-86454819D01*
X90380952Y-86454819D02*
X90285714Y-86454819D01*
X91095238Y-85550057D02*
X91142857Y-85502438D01*
X91142857Y-85502438D02*
X91238095Y-85454819D01*
X91238095Y-85454819D02*
X91476190Y-85454819D01*
X91476190Y-85454819D02*
X91571428Y-85502438D01*
X91571428Y-85502438D02*
X91619047Y-85550057D01*
X91619047Y-85550057D02*
X91666666Y-85645295D01*
X91666666Y-85645295D02*
X91666666Y-85740533D01*
X91666666Y-85740533D02*
X91619047Y-85883390D01*
X91619047Y-85883390D02*
X91047619Y-86454819D01*
X91047619Y-86454819D02*
X91666666Y-86454819D01*
X113533333Y-61854819D02*
X113200000Y-61378628D01*
X112961905Y-61854819D02*
X112961905Y-60854819D01*
X112961905Y-60854819D02*
X113342857Y-60854819D01*
X113342857Y-60854819D02*
X113438095Y-60902438D01*
X113438095Y-60902438D02*
X113485714Y-60950057D01*
X113485714Y-60950057D02*
X113533333Y-61045295D01*
X113533333Y-61045295D02*
X113533333Y-61188152D01*
X113533333Y-61188152D02*
X113485714Y-61283390D01*
X113485714Y-61283390D02*
X113438095Y-61331009D01*
X113438095Y-61331009D02*
X113342857Y-61378628D01*
X113342857Y-61378628D02*
X112961905Y-61378628D01*
X114438095Y-60854819D02*
X113961905Y-60854819D01*
X113961905Y-60854819D02*
X113914286Y-61331009D01*
X113914286Y-61331009D02*
X113961905Y-61283390D01*
X113961905Y-61283390D02*
X114057143Y-61235771D01*
X114057143Y-61235771D02*
X114295238Y-61235771D01*
X114295238Y-61235771D02*
X114390476Y-61283390D01*
X114390476Y-61283390D02*
X114438095Y-61331009D01*
X114438095Y-61331009D02*
X114485714Y-61426247D01*
X114485714Y-61426247D02*
X114485714Y-61664342D01*
X114485714Y-61664342D02*
X114438095Y-61759580D01*
X114438095Y-61759580D02*
X114390476Y-61807200D01*
X114390476Y-61807200D02*
X114295238Y-61854819D01*
X114295238Y-61854819D02*
X114057143Y-61854819D01*
X114057143Y-61854819D02*
X113961905Y-61807200D01*
X113961905Y-61807200D02*
X113914286Y-61759580D01*
D11*
X113157143Y-64124809D02*
X113466667Y-64124809D01*
X113466667Y-64124809D02*
X113300000Y-64315285D01*
X113300000Y-64315285D02*
X113371429Y-64315285D01*
X113371429Y-64315285D02*
X113419048Y-64339095D01*
X113419048Y-64339095D02*
X113442857Y-64362904D01*
X113442857Y-64362904D02*
X113466667Y-64410523D01*
X113466667Y-64410523D02*
X113466667Y-64529571D01*
X113466667Y-64529571D02*
X113442857Y-64577190D01*
X113442857Y-64577190D02*
X113419048Y-64601000D01*
X113419048Y-64601000D02*
X113371429Y-64624809D01*
X113371429Y-64624809D02*
X113228572Y-64624809D01*
X113228572Y-64624809D02*
X113180953Y-64601000D01*
X113180953Y-64601000D02*
X113157143Y-64577190D01*
X113633333Y-64124809D02*
X113942857Y-64124809D01*
X113942857Y-64124809D02*
X113776190Y-64315285D01*
X113776190Y-64315285D02*
X113847619Y-64315285D01*
X113847619Y-64315285D02*
X113895238Y-64339095D01*
X113895238Y-64339095D02*
X113919047Y-64362904D01*
X113919047Y-64362904D02*
X113942857Y-64410523D01*
X113942857Y-64410523D02*
X113942857Y-64529571D01*
X113942857Y-64529571D02*
X113919047Y-64577190D01*
X113919047Y-64577190D02*
X113895238Y-64601000D01*
X113895238Y-64601000D02*
X113847619Y-64624809D01*
X113847619Y-64624809D02*
X113704762Y-64624809D01*
X113704762Y-64624809D02*
X113657143Y-64601000D01*
X113657143Y-64601000D02*
X113633333Y-64577190D01*
X114252380Y-64124809D02*
X114299999Y-64124809D01*
X114299999Y-64124809D02*
X114347618Y-64148619D01*
X114347618Y-64148619D02*
X114371428Y-64172428D01*
X114371428Y-64172428D02*
X114395237Y-64220047D01*
X114395237Y-64220047D02*
X114419047Y-64315285D01*
X114419047Y-64315285D02*
X114419047Y-64434333D01*
X114419047Y-64434333D02*
X114395237Y-64529571D01*
X114395237Y-64529571D02*
X114371428Y-64577190D01*
X114371428Y-64577190D02*
X114347618Y-64601000D01*
X114347618Y-64601000D02*
X114299999Y-64624809D01*
X114299999Y-64624809D02*
X114252380Y-64624809D01*
X114252380Y-64624809D02*
X114204761Y-64601000D01*
X114204761Y-64601000D02*
X114180952Y-64577190D01*
X114180952Y-64577190D02*
X114157142Y-64529571D01*
X114157142Y-64529571D02*
X114133333Y-64434333D01*
X114133333Y-64434333D02*
X114133333Y-64315285D01*
X114133333Y-64315285D02*
X114157142Y-64220047D01*
X114157142Y-64220047D02*
X114180952Y-64172428D01*
X114180952Y-64172428D02*
X114204761Y-64148619D01*
X114204761Y-64148619D02*
X114252380Y-64124809D01*
D10*
X96283333Y-57179580D02*
X96235714Y-57227200D01*
X96235714Y-57227200D02*
X96092857Y-57274819D01*
X96092857Y-57274819D02*
X95997619Y-57274819D01*
X95997619Y-57274819D02*
X95854762Y-57227200D01*
X95854762Y-57227200D02*
X95759524Y-57131961D01*
X95759524Y-57131961D02*
X95711905Y-57036723D01*
X95711905Y-57036723D02*
X95664286Y-56846247D01*
X95664286Y-56846247D02*
X95664286Y-56703390D01*
X95664286Y-56703390D02*
X95711905Y-56512914D01*
X95711905Y-56512914D02*
X95759524Y-56417676D01*
X95759524Y-56417676D02*
X95854762Y-56322438D01*
X95854762Y-56322438D02*
X95997619Y-56274819D01*
X95997619Y-56274819D02*
X96092857Y-56274819D01*
X96092857Y-56274819D02*
X96235714Y-56322438D01*
X96235714Y-56322438D02*
X96283333Y-56370057D01*
X97235714Y-57274819D02*
X96664286Y-57274819D01*
X96950000Y-57274819D02*
X96950000Y-56274819D01*
X96950000Y-56274819D02*
X96854762Y-56417676D01*
X96854762Y-56417676D02*
X96759524Y-56512914D01*
X96759524Y-56512914D02*
X96664286Y-56560533D01*
D11*
X96678572Y-59624809D02*
X96726191Y-59624809D01*
X96726191Y-59624809D02*
X96773810Y-59648619D01*
X96773810Y-59648619D02*
X96797620Y-59672428D01*
X96797620Y-59672428D02*
X96821429Y-59720047D01*
X96821429Y-59720047D02*
X96845239Y-59815285D01*
X96845239Y-59815285D02*
X96845239Y-59934333D01*
X96845239Y-59934333D02*
X96821429Y-60029571D01*
X96821429Y-60029571D02*
X96797620Y-60077190D01*
X96797620Y-60077190D02*
X96773810Y-60101000D01*
X96773810Y-60101000D02*
X96726191Y-60124809D01*
X96726191Y-60124809D02*
X96678572Y-60124809D01*
X96678572Y-60124809D02*
X96630953Y-60101000D01*
X96630953Y-60101000D02*
X96607144Y-60077190D01*
X96607144Y-60077190D02*
X96583334Y-60029571D01*
X96583334Y-60029571D02*
X96559525Y-59934333D01*
X96559525Y-59934333D02*
X96559525Y-59815285D01*
X96559525Y-59815285D02*
X96583334Y-59720047D01*
X96583334Y-59720047D02*
X96607144Y-59672428D01*
X96607144Y-59672428D02*
X96630953Y-59648619D01*
X96630953Y-59648619D02*
X96678572Y-59624809D01*
X97059524Y-60077190D02*
X97083334Y-60101000D01*
X97083334Y-60101000D02*
X97059524Y-60124809D01*
X97059524Y-60124809D02*
X97035715Y-60101000D01*
X97035715Y-60101000D02*
X97059524Y-60077190D01*
X97059524Y-60077190D02*
X97059524Y-60124809D01*
X97559524Y-60124809D02*
X97273810Y-60124809D01*
X97416667Y-60124809D02*
X97416667Y-59624809D01*
X97416667Y-59624809D02*
X97369048Y-59696238D01*
X97369048Y-59696238D02*
X97321429Y-59743857D01*
X97321429Y-59743857D02*
X97273810Y-59767666D01*
X97988095Y-59791476D02*
X97988095Y-60124809D01*
X97773809Y-59791476D02*
X97773809Y-60053380D01*
X97773809Y-60053380D02*
X97797619Y-60101000D01*
X97797619Y-60101000D02*
X97845238Y-60124809D01*
X97845238Y-60124809D02*
X97916666Y-60124809D01*
X97916666Y-60124809D02*
X97964285Y-60101000D01*
X97964285Y-60101000D02*
X97988095Y-60077190D01*
X98392857Y-59862904D02*
X98226190Y-59862904D01*
X98226190Y-60124809D02*
X98226190Y-59624809D01*
X98226190Y-59624809D02*
X98464285Y-59624809D01*
D10*
X109633333Y-66454819D02*
X109300000Y-65978628D01*
X109061905Y-66454819D02*
X109061905Y-65454819D01*
X109061905Y-65454819D02*
X109442857Y-65454819D01*
X109442857Y-65454819D02*
X109538095Y-65502438D01*
X109538095Y-65502438D02*
X109585714Y-65550057D01*
X109585714Y-65550057D02*
X109633333Y-65645295D01*
X109633333Y-65645295D02*
X109633333Y-65788152D01*
X109633333Y-65788152D02*
X109585714Y-65883390D01*
X109585714Y-65883390D02*
X109538095Y-65931009D01*
X109538095Y-65931009D02*
X109442857Y-65978628D01*
X109442857Y-65978628D02*
X109061905Y-65978628D01*
X110490476Y-65788152D02*
X110490476Y-66454819D01*
X110252381Y-65407200D02*
X110014286Y-66121485D01*
X110014286Y-66121485D02*
X110633333Y-66121485D01*
D11*
X108988096Y-68791476D02*
X108988096Y-69124809D01*
X108869048Y-68601000D02*
X108750001Y-68958142D01*
X108750001Y-68958142D02*
X109059524Y-68958142D01*
X109250000Y-69077190D02*
X109273810Y-69101000D01*
X109273810Y-69101000D02*
X109250000Y-69124809D01*
X109250000Y-69124809D02*
X109226191Y-69101000D01*
X109226191Y-69101000D02*
X109250000Y-69077190D01*
X109250000Y-69077190D02*
X109250000Y-69124809D01*
X109440476Y-68624809D02*
X109773809Y-68624809D01*
X109773809Y-68624809D02*
X109559524Y-69124809D01*
X109964285Y-69124809D02*
X109964285Y-68624809D01*
X110249999Y-69124809D02*
X110035714Y-68839095D01*
X110249999Y-68624809D02*
X109964285Y-68910523D01*
D10*
X109508333Y-81359580D02*
X109460714Y-81407200D01*
X109460714Y-81407200D02*
X109317857Y-81454819D01*
X109317857Y-81454819D02*
X109222619Y-81454819D01*
X109222619Y-81454819D02*
X109079762Y-81407200D01*
X109079762Y-81407200D02*
X108984524Y-81311961D01*
X108984524Y-81311961D02*
X108936905Y-81216723D01*
X108936905Y-81216723D02*
X108889286Y-81026247D01*
X108889286Y-81026247D02*
X108889286Y-80883390D01*
X108889286Y-80883390D02*
X108936905Y-80692914D01*
X108936905Y-80692914D02*
X108984524Y-80597676D01*
X108984524Y-80597676D02*
X109079762Y-80502438D01*
X109079762Y-80502438D02*
X109222619Y-80454819D01*
X109222619Y-80454819D02*
X109317857Y-80454819D01*
X109317857Y-80454819D02*
X109460714Y-80502438D01*
X109460714Y-80502438D02*
X109508333Y-80550057D01*
X110365476Y-80788152D02*
X110365476Y-81454819D01*
X110127381Y-80407200D02*
X109889286Y-81121485D01*
X109889286Y-81121485D02*
X110508333Y-81121485D01*
D11*
X111524809Y-80321427D02*
X111524809Y-80273808D01*
X111524809Y-80273808D02*
X111548619Y-80226189D01*
X111548619Y-80226189D02*
X111572428Y-80202379D01*
X111572428Y-80202379D02*
X111620047Y-80178570D01*
X111620047Y-80178570D02*
X111715285Y-80154760D01*
X111715285Y-80154760D02*
X111834333Y-80154760D01*
X111834333Y-80154760D02*
X111929571Y-80178570D01*
X111929571Y-80178570D02*
X111977190Y-80202379D01*
X111977190Y-80202379D02*
X112001000Y-80226189D01*
X112001000Y-80226189D02*
X112024809Y-80273808D01*
X112024809Y-80273808D02*
X112024809Y-80321427D01*
X112024809Y-80321427D02*
X112001000Y-80369046D01*
X112001000Y-80369046D02*
X111977190Y-80392855D01*
X111977190Y-80392855D02*
X111929571Y-80416665D01*
X111929571Y-80416665D02*
X111834333Y-80440474D01*
X111834333Y-80440474D02*
X111715285Y-80440474D01*
X111715285Y-80440474D02*
X111620047Y-80416665D01*
X111620047Y-80416665D02*
X111572428Y-80392855D01*
X111572428Y-80392855D02*
X111548619Y-80369046D01*
X111548619Y-80369046D02*
X111524809Y-80321427D01*
X111977190Y-79940475D02*
X112001000Y-79916665D01*
X112001000Y-79916665D02*
X112024809Y-79940475D01*
X112024809Y-79940475D02*
X112001000Y-79964284D01*
X112001000Y-79964284D02*
X111977190Y-79940475D01*
X111977190Y-79940475D02*
X112024809Y-79940475D01*
X112024809Y-79440475D02*
X112024809Y-79726189D01*
X112024809Y-79583332D02*
X111524809Y-79583332D01*
X111524809Y-79583332D02*
X111596238Y-79630951D01*
X111596238Y-79630951D02*
X111643857Y-79678570D01*
X111643857Y-79678570D02*
X111667666Y-79726189D01*
X111691476Y-79011904D02*
X112024809Y-79011904D01*
X111691476Y-79226190D02*
X111953380Y-79226190D01*
X111953380Y-79226190D02*
X112001000Y-79202380D01*
X112001000Y-79202380D02*
X112024809Y-79154761D01*
X112024809Y-79154761D02*
X112024809Y-79083333D01*
X112024809Y-79083333D02*
X112001000Y-79035714D01*
X112001000Y-79035714D02*
X111977190Y-79011904D01*
X111762904Y-78607142D02*
X111762904Y-78773809D01*
X112024809Y-78773809D02*
X111524809Y-78773809D01*
X111524809Y-78773809D02*
X111524809Y-78535714D01*
D10*
X83738095Y-70554819D02*
X83738095Y-71364342D01*
X83738095Y-71364342D02*
X83785714Y-71459580D01*
X83785714Y-71459580D02*
X83833333Y-71507200D01*
X83833333Y-71507200D02*
X83928571Y-71554819D01*
X83928571Y-71554819D02*
X84119047Y-71554819D01*
X84119047Y-71554819D02*
X84214285Y-71507200D01*
X84214285Y-71507200D02*
X84261904Y-71459580D01*
X84261904Y-71459580D02*
X84309523Y-71364342D01*
X84309523Y-71364342D02*
X84309523Y-70554819D01*
X84738095Y-70650057D02*
X84785714Y-70602438D01*
X84785714Y-70602438D02*
X84880952Y-70554819D01*
X84880952Y-70554819D02*
X85119047Y-70554819D01*
X85119047Y-70554819D02*
X85214285Y-70602438D01*
X85214285Y-70602438D02*
X85261904Y-70650057D01*
X85261904Y-70650057D02*
X85309523Y-70745295D01*
X85309523Y-70745295D02*
X85309523Y-70840533D01*
X85309523Y-70840533D02*
X85261904Y-70983390D01*
X85261904Y-70983390D02*
X84690476Y-71554819D01*
X84690476Y-71554819D02*
X85309523Y-71554819D01*
D11*
X92124809Y-74569046D02*
X91624809Y-74569046D01*
X91624809Y-74569046D02*
X91624809Y-74449998D01*
X91624809Y-74449998D02*
X91648619Y-74378570D01*
X91648619Y-74378570D02*
X91696238Y-74330951D01*
X91696238Y-74330951D02*
X91743857Y-74307141D01*
X91743857Y-74307141D02*
X91839095Y-74283332D01*
X91839095Y-74283332D02*
X91910523Y-74283332D01*
X91910523Y-74283332D02*
X92005761Y-74307141D01*
X92005761Y-74307141D02*
X92053380Y-74330951D01*
X92053380Y-74330951D02*
X92101000Y-74378570D01*
X92101000Y-74378570D02*
X92124809Y-74449998D01*
X92124809Y-74449998D02*
X92124809Y-74569046D01*
X92101000Y-74092855D02*
X92124809Y-74021427D01*
X92124809Y-74021427D02*
X92124809Y-73902379D01*
X92124809Y-73902379D02*
X92101000Y-73854760D01*
X92101000Y-73854760D02*
X92077190Y-73830951D01*
X92077190Y-73830951D02*
X92029571Y-73807141D01*
X92029571Y-73807141D02*
X91981952Y-73807141D01*
X91981952Y-73807141D02*
X91934333Y-73830951D01*
X91934333Y-73830951D02*
X91910523Y-73854760D01*
X91910523Y-73854760D02*
X91886714Y-73902379D01*
X91886714Y-73902379D02*
X91862904Y-73997617D01*
X91862904Y-73997617D02*
X91839095Y-74045236D01*
X91839095Y-74045236D02*
X91815285Y-74069046D01*
X91815285Y-74069046D02*
X91767666Y-74092855D01*
X91767666Y-74092855D02*
X91720047Y-74092855D01*
X91720047Y-74092855D02*
X91672428Y-74069046D01*
X91672428Y-74069046D02*
X91648619Y-74045236D01*
X91648619Y-74045236D02*
X91624809Y-73997617D01*
X91624809Y-73997617D02*
X91624809Y-73878570D01*
X91624809Y-73878570D02*
X91648619Y-73807141D01*
X92124809Y-73330951D02*
X92124809Y-73616665D01*
X92124809Y-73473808D02*
X91624809Y-73473808D01*
X91624809Y-73473808D02*
X91696238Y-73521427D01*
X91696238Y-73521427D02*
X91743857Y-73569046D01*
X91743857Y-73569046D02*
X91767666Y-73616665D01*
X91624809Y-73164285D02*
X91624809Y-72854761D01*
X91624809Y-72854761D02*
X91815285Y-73021428D01*
X91815285Y-73021428D02*
X91815285Y-72949999D01*
X91815285Y-72949999D02*
X91839095Y-72902380D01*
X91839095Y-72902380D02*
X91862904Y-72878571D01*
X91862904Y-72878571D02*
X91910523Y-72854761D01*
X91910523Y-72854761D02*
X92029571Y-72854761D01*
X92029571Y-72854761D02*
X92077190Y-72878571D01*
X92077190Y-72878571D02*
X92101000Y-72902380D01*
X92101000Y-72902380D02*
X92124809Y-72949999D01*
X92124809Y-72949999D02*
X92124809Y-73092856D01*
X92124809Y-73092856D02*
X92101000Y-73140475D01*
X92101000Y-73140475D02*
X92077190Y-73164285D01*
X91624809Y-72688095D02*
X91624809Y-72378571D01*
X91624809Y-72378571D02*
X91815285Y-72545238D01*
X91815285Y-72545238D02*
X91815285Y-72473809D01*
X91815285Y-72473809D02*
X91839095Y-72426190D01*
X91839095Y-72426190D02*
X91862904Y-72402381D01*
X91862904Y-72402381D02*
X91910523Y-72378571D01*
X91910523Y-72378571D02*
X92029571Y-72378571D01*
X92029571Y-72378571D02*
X92077190Y-72402381D01*
X92077190Y-72402381D02*
X92101000Y-72426190D01*
X92101000Y-72426190D02*
X92124809Y-72473809D01*
X92124809Y-72473809D02*
X92124809Y-72616666D01*
X92124809Y-72616666D02*
X92101000Y-72664285D01*
X92101000Y-72664285D02*
X92077190Y-72688095D01*
X91624809Y-72211905D02*
X91624809Y-71878572D01*
X91624809Y-71878572D02*
X92124809Y-72092857D01*
X92101000Y-71711905D02*
X92124809Y-71640477D01*
X92124809Y-71640477D02*
X92124809Y-71521429D01*
X92124809Y-71521429D02*
X92101000Y-71473810D01*
X92101000Y-71473810D02*
X92077190Y-71450001D01*
X92077190Y-71450001D02*
X92029571Y-71426191D01*
X92029571Y-71426191D02*
X91981952Y-71426191D01*
X91981952Y-71426191D02*
X91934333Y-71450001D01*
X91934333Y-71450001D02*
X91910523Y-71473810D01*
X91910523Y-71473810D02*
X91886714Y-71521429D01*
X91886714Y-71521429D02*
X91862904Y-71616667D01*
X91862904Y-71616667D02*
X91839095Y-71664286D01*
X91839095Y-71664286D02*
X91815285Y-71688096D01*
X91815285Y-71688096D02*
X91767666Y-71711905D01*
X91767666Y-71711905D02*
X91720047Y-71711905D01*
X91720047Y-71711905D02*
X91672428Y-71688096D01*
X91672428Y-71688096D02*
X91648619Y-71664286D01*
X91648619Y-71664286D02*
X91624809Y-71616667D01*
X91624809Y-71616667D02*
X91624809Y-71497620D01*
X91624809Y-71497620D02*
X91648619Y-71426191D01*
X91934333Y-71211906D02*
X91934333Y-70830954D01*
X92124809Y-71021430D02*
X91743857Y-71021430D01*
D10*
X100283333Y-57179580D02*
X100235714Y-57227200D01*
X100235714Y-57227200D02*
X100092857Y-57274819D01*
X100092857Y-57274819D02*
X99997619Y-57274819D01*
X99997619Y-57274819D02*
X99854762Y-57227200D01*
X99854762Y-57227200D02*
X99759524Y-57131961D01*
X99759524Y-57131961D02*
X99711905Y-57036723D01*
X99711905Y-57036723D02*
X99664286Y-56846247D01*
X99664286Y-56846247D02*
X99664286Y-56703390D01*
X99664286Y-56703390D02*
X99711905Y-56512914D01*
X99711905Y-56512914D02*
X99759524Y-56417676D01*
X99759524Y-56417676D02*
X99854762Y-56322438D01*
X99854762Y-56322438D02*
X99997619Y-56274819D01*
X99997619Y-56274819D02*
X100092857Y-56274819D01*
X100092857Y-56274819D02*
X100235714Y-56322438D01*
X100235714Y-56322438D02*
X100283333Y-56370057D01*
X100616667Y-56274819D02*
X101235714Y-56274819D01*
X101235714Y-56274819D02*
X100902381Y-56655771D01*
X100902381Y-56655771D02*
X101045238Y-56655771D01*
X101045238Y-56655771D02*
X101140476Y-56703390D01*
X101140476Y-56703390D02*
X101188095Y-56751009D01*
X101188095Y-56751009D02*
X101235714Y-56846247D01*
X101235714Y-56846247D02*
X101235714Y-57084342D01*
X101235714Y-57084342D02*
X101188095Y-57179580D01*
X101188095Y-57179580D02*
X101140476Y-57227200D01*
X101140476Y-57227200D02*
X101045238Y-57274819D01*
X101045238Y-57274819D02*
X100759524Y-57274819D01*
X100759524Y-57274819D02*
X100664286Y-57227200D01*
X100664286Y-57227200D02*
X100616667Y-57179580D01*
D11*
X99478572Y-59672428D02*
X99502381Y-59648619D01*
X99502381Y-59648619D02*
X99550000Y-59624809D01*
X99550000Y-59624809D02*
X99669048Y-59624809D01*
X99669048Y-59624809D02*
X99716667Y-59648619D01*
X99716667Y-59648619D02*
X99740476Y-59672428D01*
X99740476Y-59672428D02*
X99764286Y-59720047D01*
X99764286Y-59720047D02*
X99764286Y-59767666D01*
X99764286Y-59767666D02*
X99740476Y-59839095D01*
X99740476Y-59839095D02*
X99454762Y-60124809D01*
X99454762Y-60124809D02*
X99764286Y-60124809D01*
X99954762Y-59672428D02*
X99978571Y-59648619D01*
X99978571Y-59648619D02*
X100026190Y-59624809D01*
X100026190Y-59624809D02*
X100145238Y-59624809D01*
X100145238Y-59624809D02*
X100192857Y-59648619D01*
X100192857Y-59648619D02*
X100216666Y-59672428D01*
X100216666Y-59672428D02*
X100240476Y-59720047D01*
X100240476Y-59720047D02*
X100240476Y-59767666D01*
X100240476Y-59767666D02*
X100216666Y-59839095D01*
X100216666Y-59839095D02*
X99930952Y-60124809D01*
X99930952Y-60124809D02*
X100240476Y-60124809D01*
X100454761Y-59791476D02*
X100454761Y-60291476D01*
X100454761Y-59815285D02*
X100502380Y-59791476D01*
X100502380Y-59791476D02*
X100597618Y-59791476D01*
X100597618Y-59791476D02*
X100645237Y-59815285D01*
X100645237Y-59815285D02*
X100669047Y-59839095D01*
X100669047Y-59839095D02*
X100692856Y-59886714D01*
X100692856Y-59886714D02*
X100692856Y-60029571D01*
X100692856Y-60029571D02*
X100669047Y-60077190D01*
X100669047Y-60077190D02*
X100645237Y-60101000D01*
X100645237Y-60101000D02*
X100597618Y-60124809D01*
X100597618Y-60124809D02*
X100502380Y-60124809D01*
X100502380Y-60124809D02*
X100454761Y-60101000D01*
X101073809Y-59862904D02*
X100907142Y-59862904D01*
X100907142Y-60124809D02*
X100907142Y-59624809D01*
X100907142Y-59624809D02*
X101145237Y-59624809D01*
D10*
X112874405Y-57304819D02*
X112874405Y-56304819D01*
X112874405Y-56304819D02*
X113112500Y-56304819D01*
X113112500Y-56304819D02*
X113255357Y-56352438D01*
X113255357Y-56352438D02*
X113350595Y-56447676D01*
X113350595Y-56447676D02*
X113398214Y-56542914D01*
X113398214Y-56542914D02*
X113445833Y-56733390D01*
X113445833Y-56733390D02*
X113445833Y-56876247D01*
X113445833Y-56876247D02*
X113398214Y-57066723D01*
X113398214Y-57066723D02*
X113350595Y-57161961D01*
X113350595Y-57161961D02*
X113255357Y-57257200D01*
X113255357Y-57257200D02*
X113112500Y-57304819D01*
X113112500Y-57304819D02*
X112874405Y-57304819D01*
X114398214Y-57304819D02*
X113826786Y-57304819D01*
X114112500Y-57304819D02*
X114112500Y-56304819D01*
X114112500Y-56304819D02*
X114017262Y-56447676D01*
X114017262Y-56447676D02*
X113922024Y-56542914D01*
X113922024Y-56542914D02*
X113826786Y-56590533D01*
D11*
X113291071Y-60374809D02*
X113052976Y-60374809D01*
X113052976Y-60374809D02*
X113052976Y-59874809D01*
X113457738Y-60112904D02*
X113624405Y-60112904D01*
X113695833Y-60374809D02*
X113457738Y-60374809D01*
X113457738Y-60374809D02*
X113457738Y-59874809D01*
X113457738Y-59874809D02*
X113695833Y-59874809D01*
X113910119Y-60374809D02*
X113910119Y-59874809D01*
X113910119Y-59874809D02*
X114029167Y-59874809D01*
X114029167Y-59874809D02*
X114100595Y-59898619D01*
X114100595Y-59898619D02*
X114148214Y-59946238D01*
X114148214Y-59946238D02*
X114172024Y-59993857D01*
X114172024Y-59993857D02*
X114195833Y-60089095D01*
X114195833Y-60089095D02*
X114195833Y-60160523D01*
X114195833Y-60160523D02*
X114172024Y-60255761D01*
X114172024Y-60255761D02*
X114148214Y-60303380D01*
X114148214Y-60303380D02*
X114100595Y-60351000D01*
X114100595Y-60351000D02*
X114029167Y-60374809D01*
X114029167Y-60374809D02*
X113910119Y-60374809D01*
D10*
X109761905Y-57304819D02*
X109761905Y-56304819D01*
X109761905Y-56304819D02*
X110000000Y-56304819D01*
X110000000Y-56304819D02*
X110142857Y-56352438D01*
X110142857Y-56352438D02*
X110238095Y-56447676D01*
X110238095Y-56447676D02*
X110285714Y-56542914D01*
X110285714Y-56542914D02*
X110333333Y-56733390D01*
X110333333Y-56733390D02*
X110333333Y-56876247D01*
X110333333Y-56876247D02*
X110285714Y-57066723D01*
X110285714Y-57066723D02*
X110238095Y-57161961D01*
X110238095Y-57161961D02*
X110142857Y-57257200D01*
X110142857Y-57257200D02*
X110000000Y-57304819D01*
X110000000Y-57304819D02*
X109761905Y-57304819D01*
X110714286Y-56400057D02*
X110761905Y-56352438D01*
X110761905Y-56352438D02*
X110857143Y-56304819D01*
X110857143Y-56304819D02*
X111095238Y-56304819D01*
X111095238Y-56304819D02*
X111190476Y-56352438D01*
X111190476Y-56352438D02*
X111238095Y-56400057D01*
X111238095Y-56400057D02*
X111285714Y-56495295D01*
X111285714Y-56495295D02*
X111285714Y-56590533D01*
X111285714Y-56590533D02*
X111238095Y-56733390D01*
X111238095Y-56733390D02*
X110666667Y-57304819D01*
X110666667Y-57304819D02*
X111285714Y-57304819D01*
D11*
X109353571Y-60374809D02*
X109115476Y-60374809D01*
X109115476Y-60374809D02*
X109115476Y-59874809D01*
X109520238Y-60112904D02*
X109686905Y-60112904D01*
X109758333Y-60374809D02*
X109520238Y-60374809D01*
X109520238Y-60374809D02*
X109520238Y-59874809D01*
X109520238Y-59874809D02*
X109758333Y-59874809D01*
X109972619Y-60374809D02*
X109972619Y-59874809D01*
X109972619Y-59874809D02*
X110091667Y-59874809D01*
X110091667Y-59874809D02*
X110163095Y-59898619D01*
X110163095Y-59898619D02*
X110210714Y-59946238D01*
X110210714Y-59946238D02*
X110234524Y-59993857D01*
X110234524Y-59993857D02*
X110258333Y-60089095D01*
X110258333Y-60089095D02*
X110258333Y-60160523D01*
X110258333Y-60160523D02*
X110234524Y-60255761D01*
X110234524Y-60255761D02*
X110210714Y-60303380D01*
X110210714Y-60303380D02*
X110163095Y-60351000D01*
X110163095Y-60351000D02*
X110091667Y-60374809D01*
X110091667Y-60374809D02*
X109972619Y-60374809D01*
D10*
X86738095Y-63394819D02*
X86738095Y-64204342D01*
X86738095Y-64204342D02*
X86785714Y-64299580D01*
X86785714Y-64299580D02*
X86833333Y-64347200D01*
X86833333Y-64347200D02*
X86928571Y-64394819D01*
X86928571Y-64394819D02*
X87119047Y-64394819D01*
X87119047Y-64394819D02*
X87214285Y-64347200D01*
X87214285Y-64347200D02*
X87261904Y-64299580D01*
X87261904Y-64299580D02*
X87309523Y-64204342D01*
X87309523Y-64204342D02*
X87309523Y-63394819D01*
X88309523Y-64394819D02*
X87738095Y-64394819D01*
X88023809Y-64394819D02*
X88023809Y-63394819D01*
X88023809Y-63394819D02*
X87928571Y-63537676D01*
X87928571Y-63537676D02*
X87833333Y-63632914D01*
X87833333Y-63632914D02*
X87738095Y-63680533D01*
D11*
X86014287Y-70572428D02*
X86038096Y-70548619D01*
X86038096Y-70548619D02*
X86085715Y-70524809D01*
X86085715Y-70524809D02*
X86204763Y-70524809D01*
X86204763Y-70524809D02*
X86252382Y-70548619D01*
X86252382Y-70548619D02*
X86276191Y-70572428D01*
X86276191Y-70572428D02*
X86300001Y-70620047D01*
X86300001Y-70620047D02*
X86300001Y-70667666D01*
X86300001Y-70667666D02*
X86276191Y-70739095D01*
X86276191Y-70739095D02*
X85990477Y-71024809D01*
X85990477Y-71024809D02*
X86300001Y-71024809D01*
X86728572Y-70691476D02*
X86728572Y-71024809D01*
X86609524Y-70501000D02*
X86490477Y-70858142D01*
X86490477Y-70858142D02*
X86800000Y-70858142D01*
X87228571Y-71024809D02*
X86990476Y-71024809D01*
X86990476Y-71024809D02*
X86990476Y-70524809D01*
X87680952Y-70977190D02*
X87657143Y-71001000D01*
X87657143Y-71001000D02*
X87585714Y-71024809D01*
X87585714Y-71024809D02*
X87538095Y-71024809D01*
X87538095Y-71024809D02*
X87466667Y-71001000D01*
X87466667Y-71001000D02*
X87419048Y-70953380D01*
X87419048Y-70953380D02*
X87395238Y-70905761D01*
X87395238Y-70905761D02*
X87371429Y-70810523D01*
X87371429Y-70810523D02*
X87371429Y-70739095D01*
X87371429Y-70739095D02*
X87395238Y-70643857D01*
X87395238Y-70643857D02*
X87419048Y-70596238D01*
X87419048Y-70596238D02*
X87466667Y-70548619D01*
X87466667Y-70548619D02*
X87538095Y-70524809D01*
X87538095Y-70524809D02*
X87585714Y-70524809D01*
X87585714Y-70524809D02*
X87657143Y-70548619D01*
X87657143Y-70548619D02*
X87680952Y-70572428D01*
X88157143Y-71024809D02*
X87871429Y-71024809D01*
X88014286Y-71024809D02*
X88014286Y-70524809D01*
X88014286Y-70524809D02*
X87966667Y-70596238D01*
X87966667Y-70596238D02*
X87919048Y-70643857D01*
X87919048Y-70643857D02*
X87871429Y-70667666D01*
X88466666Y-70524809D02*
X88514285Y-70524809D01*
X88514285Y-70524809D02*
X88561904Y-70548619D01*
X88561904Y-70548619D02*
X88585714Y-70572428D01*
X88585714Y-70572428D02*
X88609523Y-70620047D01*
X88609523Y-70620047D02*
X88633333Y-70715285D01*
X88633333Y-70715285D02*
X88633333Y-70834333D01*
X88633333Y-70834333D02*
X88609523Y-70929571D01*
X88609523Y-70929571D02*
X88585714Y-70977190D01*
X88585714Y-70977190D02*
X88561904Y-71001000D01*
X88561904Y-71001000D02*
X88514285Y-71024809D01*
X88514285Y-71024809D02*
X88466666Y-71024809D01*
X88466666Y-71024809D02*
X88419047Y-71001000D01*
X88419047Y-71001000D02*
X88395238Y-70977190D01*
X88395238Y-70977190D02*
X88371428Y-70929571D01*
X88371428Y-70929571D02*
X88347619Y-70834333D01*
X88347619Y-70834333D02*
X88347619Y-70715285D01*
X88347619Y-70715285D02*
X88371428Y-70620047D01*
X88371428Y-70620047D02*
X88395238Y-70572428D01*
X88395238Y-70572428D02*
X88419047Y-70548619D01*
X88419047Y-70548619D02*
X88466666Y-70524809D01*
X88823809Y-70572428D02*
X88847618Y-70548619D01*
X88847618Y-70548619D02*
X88895237Y-70524809D01*
X88895237Y-70524809D02*
X89014285Y-70524809D01*
X89014285Y-70524809D02*
X89061904Y-70548619D01*
X89061904Y-70548619D02*
X89085713Y-70572428D01*
X89085713Y-70572428D02*
X89109523Y-70620047D01*
X89109523Y-70620047D02*
X89109523Y-70667666D01*
X89109523Y-70667666D02*
X89085713Y-70739095D01*
X89085713Y-70739095D02*
X88799999Y-71024809D01*
X88799999Y-71024809D02*
X89109523Y-71024809D01*
X89561903Y-70524809D02*
X89323808Y-70524809D01*
X89323808Y-70524809D02*
X89299999Y-70762904D01*
X89299999Y-70762904D02*
X89323808Y-70739095D01*
X89323808Y-70739095D02*
X89371427Y-70715285D01*
X89371427Y-70715285D02*
X89490475Y-70715285D01*
X89490475Y-70715285D02*
X89538094Y-70739095D01*
X89538094Y-70739095D02*
X89561903Y-70762904D01*
X89561903Y-70762904D02*
X89585713Y-70810523D01*
X89585713Y-70810523D02*
X89585713Y-70929571D01*
X89585713Y-70929571D02*
X89561903Y-70977190D01*
X89561903Y-70977190D02*
X89538094Y-71001000D01*
X89538094Y-71001000D02*
X89490475Y-71024809D01*
X89490475Y-71024809D02*
X89371427Y-71024809D01*
X89371427Y-71024809D02*
X89323808Y-71001000D01*
X89323808Y-71001000D02*
X89299999Y-70977190D01*
D10*
X101223809Y-73878628D02*
X101223809Y-74354819D01*
X100890476Y-73354819D02*
X101223809Y-73878628D01*
X101223809Y-73878628D02*
X101557142Y-73354819D01*
X101842857Y-73450057D02*
X101890476Y-73402438D01*
X101890476Y-73402438D02*
X101985714Y-73354819D01*
X101985714Y-73354819D02*
X102223809Y-73354819D01*
X102223809Y-73354819D02*
X102319047Y-73402438D01*
X102319047Y-73402438D02*
X102366666Y-73450057D01*
X102366666Y-73450057D02*
X102414285Y-73545295D01*
X102414285Y-73545295D02*
X102414285Y-73640533D01*
X102414285Y-73640533D02*
X102366666Y-73783390D01*
X102366666Y-73783390D02*
X101795238Y-74354819D01*
X101795238Y-74354819D02*
X102414285Y-74354819D01*
D11*
X99864286Y-79024809D02*
X99578572Y-79024809D01*
X99721429Y-79024809D02*
X99721429Y-78524809D01*
X99721429Y-78524809D02*
X99673810Y-78596238D01*
X99673810Y-78596238D02*
X99626191Y-78643857D01*
X99626191Y-78643857D02*
X99578572Y-78667666D01*
X100292857Y-78524809D02*
X100197619Y-78524809D01*
X100197619Y-78524809D02*
X100150000Y-78548619D01*
X100150000Y-78548619D02*
X100126190Y-78572428D01*
X100126190Y-78572428D02*
X100078571Y-78643857D01*
X100078571Y-78643857D02*
X100054762Y-78739095D01*
X100054762Y-78739095D02*
X100054762Y-78929571D01*
X100054762Y-78929571D02*
X100078571Y-78977190D01*
X100078571Y-78977190D02*
X100102381Y-79001000D01*
X100102381Y-79001000D02*
X100150000Y-79024809D01*
X100150000Y-79024809D02*
X100245238Y-79024809D01*
X100245238Y-79024809D02*
X100292857Y-79001000D01*
X100292857Y-79001000D02*
X100316666Y-78977190D01*
X100316666Y-78977190D02*
X100340476Y-78929571D01*
X100340476Y-78929571D02*
X100340476Y-78810523D01*
X100340476Y-78810523D02*
X100316666Y-78762904D01*
X100316666Y-78762904D02*
X100292857Y-78739095D01*
X100292857Y-78739095D02*
X100245238Y-78715285D01*
X100245238Y-78715285D02*
X100150000Y-78715285D01*
X100150000Y-78715285D02*
X100102381Y-78739095D01*
X100102381Y-78739095D02*
X100078571Y-78762904D01*
X100078571Y-78762904D02*
X100054762Y-78810523D01*
X100935713Y-79024809D02*
X100935713Y-78524809D01*
X100935713Y-78524809D02*
X101102380Y-78881952D01*
X101102380Y-78881952D02*
X101269046Y-78524809D01*
X101269046Y-78524809D02*
X101269046Y-79024809D01*
X101507142Y-79024809D02*
X101507142Y-78524809D01*
X101507142Y-78762904D02*
X101792856Y-78762904D01*
X101792856Y-79024809D02*
X101792856Y-78524809D01*
X101983333Y-78691476D02*
X102245238Y-78691476D01*
X102245238Y-78691476D02*
X101983333Y-79024809D01*
X101983333Y-79024809D02*
X102245238Y-79024809D01*
D10*
X114333333Y-66354819D02*
X114000000Y-65878628D01*
X113761905Y-66354819D02*
X113761905Y-65354819D01*
X113761905Y-65354819D02*
X114142857Y-65354819D01*
X114142857Y-65354819D02*
X114238095Y-65402438D01*
X114238095Y-65402438D02*
X114285714Y-65450057D01*
X114285714Y-65450057D02*
X114333333Y-65545295D01*
X114333333Y-65545295D02*
X114333333Y-65688152D01*
X114333333Y-65688152D02*
X114285714Y-65783390D01*
X114285714Y-65783390D02*
X114238095Y-65831009D01*
X114238095Y-65831009D02*
X114142857Y-65878628D01*
X114142857Y-65878628D02*
X113761905Y-65878628D01*
X115190476Y-65354819D02*
X115000000Y-65354819D01*
X115000000Y-65354819D02*
X114904762Y-65402438D01*
X114904762Y-65402438D02*
X114857143Y-65450057D01*
X114857143Y-65450057D02*
X114761905Y-65592914D01*
X114761905Y-65592914D02*
X114714286Y-65783390D01*
X114714286Y-65783390D02*
X114714286Y-66164342D01*
X114714286Y-66164342D02*
X114761905Y-66259580D01*
X114761905Y-66259580D02*
X114809524Y-66307200D01*
X114809524Y-66307200D02*
X114904762Y-66354819D01*
X114904762Y-66354819D02*
X115095238Y-66354819D01*
X115095238Y-66354819D02*
X115190476Y-66307200D01*
X115190476Y-66307200D02*
X115238095Y-66259580D01*
X115238095Y-66259580D02*
X115285714Y-66164342D01*
X115285714Y-66164342D02*
X115285714Y-65926247D01*
X115285714Y-65926247D02*
X115238095Y-65831009D01*
X115238095Y-65831009D02*
X115190476Y-65783390D01*
X115190476Y-65783390D02*
X115095238Y-65735771D01*
X115095238Y-65735771D02*
X114904762Y-65735771D01*
X114904762Y-65735771D02*
X114809524Y-65783390D01*
X114809524Y-65783390D02*
X114761905Y-65831009D01*
X114761905Y-65831009D02*
X114714286Y-65926247D01*
D11*
X113329762Y-69124809D02*
X113044048Y-69124809D01*
X113186905Y-69124809D02*
X113186905Y-68624809D01*
X113186905Y-68624809D02*
X113139286Y-68696238D01*
X113139286Y-68696238D02*
X113091667Y-68743857D01*
X113091667Y-68743857D02*
X113044048Y-68767666D01*
X113639285Y-68624809D02*
X113686904Y-68624809D01*
X113686904Y-68624809D02*
X113734523Y-68648619D01*
X113734523Y-68648619D02*
X113758333Y-68672428D01*
X113758333Y-68672428D02*
X113782142Y-68720047D01*
X113782142Y-68720047D02*
X113805952Y-68815285D01*
X113805952Y-68815285D02*
X113805952Y-68934333D01*
X113805952Y-68934333D02*
X113782142Y-69029571D01*
X113782142Y-69029571D02*
X113758333Y-69077190D01*
X113758333Y-69077190D02*
X113734523Y-69101000D01*
X113734523Y-69101000D02*
X113686904Y-69124809D01*
X113686904Y-69124809D02*
X113639285Y-69124809D01*
X113639285Y-69124809D02*
X113591666Y-69101000D01*
X113591666Y-69101000D02*
X113567857Y-69077190D01*
X113567857Y-69077190D02*
X113544047Y-69029571D01*
X113544047Y-69029571D02*
X113520238Y-68934333D01*
X113520238Y-68934333D02*
X113520238Y-68815285D01*
X113520238Y-68815285D02*
X113544047Y-68720047D01*
X113544047Y-68720047D02*
X113567857Y-68672428D01*
X113567857Y-68672428D02*
X113591666Y-68648619D01*
X113591666Y-68648619D02*
X113639285Y-68624809D01*
X114020237Y-69124809D02*
X114020237Y-68624809D01*
X114305951Y-69124809D02*
X114091666Y-68839095D01*
X114305951Y-68624809D02*
X114020237Y-68910523D01*
D10*
X84033333Y-78454819D02*
X83700000Y-77978628D01*
X83461905Y-78454819D02*
X83461905Y-77454819D01*
X83461905Y-77454819D02*
X83842857Y-77454819D01*
X83842857Y-77454819D02*
X83938095Y-77502438D01*
X83938095Y-77502438D02*
X83985714Y-77550057D01*
X83985714Y-77550057D02*
X84033333Y-77645295D01*
X84033333Y-77645295D02*
X84033333Y-77788152D01*
X84033333Y-77788152D02*
X83985714Y-77883390D01*
X83985714Y-77883390D02*
X83938095Y-77931009D01*
X83938095Y-77931009D02*
X83842857Y-77978628D01*
X83842857Y-77978628D02*
X83461905Y-77978628D01*
X84985714Y-78454819D02*
X84414286Y-78454819D01*
X84700000Y-78454819D02*
X84700000Y-77454819D01*
X84700000Y-77454819D02*
X84604762Y-77597676D01*
X84604762Y-77597676D02*
X84509524Y-77692914D01*
X84509524Y-77692914D02*
X84414286Y-77740533D01*
D11*
X83624809Y-79745237D02*
X83624809Y-80030951D01*
X83624809Y-79888094D02*
X83124809Y-79888094D01*
X83124809Y-79888094D02*
X83196238Y-79935713D01*
X83196238Y-79935713D02*
X83243857Y-79983332D01*
X83243857Y-79983332D02*
X83267666Y-80030951D01*
X83124809Y-79435714D02*
X83124809Y-79388095D01*
X83124809Y-79388095D02*
X83148619Y-79340476D01*
X83148619Y-79340476D02*
X83172428Y-79316666D01*
X83172428Y-79316666D02*
X83220047Y-79292857D01*
X83220047Y-79292857D02*
X83315285Y-79269047D01*
X83315285Y-79269047D02*
X83434333Y-79269047D01*
X83434333Y-79269047D02*
X83529571Y-79292857D01*
X83529571Y-79292857D02*
X83577190Y-79316666D01*
X83577190Y-79316666D02*
X83601000Y-79340476D01*
X83601000Y-79340476D02*
X83624809Y-79388095D01*
X83624809Y-79388095D02*
X83624809Y-79435714D01*
X83624809Y-79435714D02*
X83601000Y-79483333D01*
X83601000Y-79483333D02*
X83577190Y-79507142D01*
X83577190Y-79507142D02*
X83529571Y-79530952D01*
X83529571Y-79530952D02*
X83434333Y-79554761D01*
X83434333Y-79554761D02*
X83315285Y-79554761D01*
X83315285Y-79554761D02*
X83220047Y-79530952D01*
X83220047Y-79530952D02*
X83172428Y-79507142D01*
X83172428Y-79507142D02*
X83148619Y-79483333D01*
X83148619Y-79483333D02*
X83124809Y-79435714D01*
X83624809Y-79054762D02*
X83124809Y-79054762D01*
X83624809Y-78769048D02*
X83339095Y-78983333D01*
X83124809Y-78769048D02*
X83410523Y-79054762D01*
D10*
X78614285Y-63001009D02*
X78757142Y-63048628D01*
X78757142Y-63048628D02*
X78804761Y-63096247D01*
X78804761Y-63096247D02*
X78852380Y-63191485D01*
X78852380Y-63191485D02*
X78852380Y-63334342D01*
X78852380Y-63334342D02*
X78804761Y-63429580D01*
X78804761Y-63429580D02*
X78757142Y-63477200D01*
X78757142Y-63477200D02*
X78661904Y-63524819D01*
X78661904Y-63524819D02*
X78280952Y-63524819D01*
X78280952Y-63524819D02*
X78280952Y-62524819D01*
X78280952Y-62524819D02*
X78614285Y-62524819D01*
X78614285Y-62524819D02*
X78709523Y-62572438D01*
X78709523Y-62572438D02*
X78757142Y-62620057D01*
X78757142Y-62620057D02*
X78804761Y-62715295D01*
X78804761Y-62715295D02*
X78804761Y-62810533D01*
X78804761Y-62810533D02*
X78757142Y-62905771D01*
X78757142Y-62905771D02*
X78709523Y-62953390D01*
X78709523Y-62953390D02*
X78614285Y-63001009D01*
X78614285Y-63001009D02*
X78280952Y-63001009D01*
X79138095Y-62524819D02*
X79709523Y-62524819D01*
X79423809Y-63524819D02*
X79423809Y-62524819D01*
X80566666Y-63524819D02*
X79995238Y-63524819D01*
X80280952Y-63524819D02*
X80280952Y-62524819D01*
X80280952Y-62524819D02*
X80185714Y-62667676D01*
X80185714Y-62667676D02*
X80090476Y-62762914D01*
X80090476Y-62762914D02*
X79995238Y-62810533D01*
D11*
X77964286Y-70232904D02*
X78035714Y-70256714D01*
X78035714Y-70256714D02*
X78059524Y-70280523D01*
X78059524Y-70280523D02*
X78083333Y-70328142D01*
X78083333Y-70328142D02*
X78083333Y-70399571D01*
X78083333Y-70399571D02*
X78059524Y-70447190D01*
X78059524Y-70447190D02*
X78035714Y-70471000D01*
X78035714Y-70471000D02*
X77988095Y-70494809D01*
X77988095Y-70494809D02*
X77797619Y-70494809D01*
X77797619Y-70494809D02*
X77797619Y-69994809D01*
X77797619Y-69994809D02*
X77964286Y-69994809D01*
X77964286Y-69994809D02*
X78011905Y-70018619D01*
X78011905Y-70018619D02*
X78035714Y-70042428D01*
X78035714Y-70042428D02*
X78059524Y-70090047D01*
X78059524Y-70090047D02*
X78059524Y-70137666D01*
X78059524Y-70137666D02*
X78035714Y-70185285D01*
X78035714Y-70185285D02*
X78011905Y-70209095D01*
X78011905Y-70209095D02*
X77964286Y-70232904D01*
X77964286Y-70232904D02*
X77797619Y-70232904D01*
X78511905Y-70494809D02*
X78511905Y-70232904D01*
X78511905Y-70232904D02*
X78488095Y-70185285D01*
X78488095Y-70185285D02*
X78440476Y-70161476D01*
X78440476Y-70161476D02*
X78345238Y-70161476D01*
X78345238Y-70161476D02*
X78297619Y-70185285D01*
X78511905Y-70471000D02*
X78464286Y-70494809D01*
X78464286Y-70494809D02*
X78345238Y-70494809D01*
X78345238Y-70494809D02*
X78297619Y-70471000D01*
X78297619Y-70471000D02*
X78273810Y-70423380D01*
X78273810Y-70423380D02*
X78273810Y-70375761D01*
X78273810Y-70375761D02*
X78297619Y-70328142D01*
X78297619Y-70328142D02*
X78345238Y-70304333D01*
X78345238Y-70304333D02*
X78464286Y-70304333D01*
X78464286Y-70304333D02*
X78511905Y-70280523D01*
X78678572Y-70161476D02*
X78869048Y-70161476D01*
X78750000Y-69994809D02*
X78750000Y-70423380D01*
X78750000Y-70423380D02*
X78773810Y-70471000D01*
X78773810Y-70471000D02*
X78821429Y-70494809D01*
X78821429Y-70494809D02*
X78869048Y-70494809D01*
X78964286Y-70161476D02*
X79154762Y-70161476D01*
X79035714Y-69994809D02*
X79035714Y-70423380D01*
X79035714Y-70423380D02*
X79059524Y-70471000D01*
X79059524Y-70471000D02*
X79107143Y-70494809D01*
X79107143Y-70494809D02*
X79154762Y-70494809D01*
X79511904Y-70471000D02*
X79464285Y-70494809D01*
X79464285Y-70494809D02*
X79369047Y-70494809D01*
X79369047Y-70494809D02*
X79321428Y-70471000D01*
X79321428Y-70471000D02*
X79297619Y-70423380D01*
X79297619Y-70423380D02*
X79297619Y-70232904D01*
X79297619Y-70232904D02*
X79321428Y-70185285D01*
X79321428Y-70185285D02*
X79369047Y-70161476D01*
X79369047Y-70161476D02*
X79464285Y-70161476D01*
X79464285Y-70161476D02*
X79511904Y-70185285D01*
X79511904Y-70185285D02*
X79535714Y-70232904D01*
X79535714Y-70232904D02*
X79535714Y-70280523D01*
X79535714Y-70280523D02*
X79297619Y-70328142D01*
X79749999Y-70494809D02*
X79749999Y-70161476D01*
X79749999Y-70256714D02*
X79773809Y-70209095D01*
X79773809Y-70209095D02*
X79797618Y-70185285D01*
X79797618Y-70185285D02*
X79845237Y-70161476D01*
X79845237Y-70161476D02*
X79892856Y-70161476D01*
X80011904Y-70161476D02*
X80130952Y-70494809D01*
X80249999Y-70161476D02*
X80130952Y-70494809D01*
X80130952Y-70494809D02*
X80083333Y-70613857D01*
X80083333Y-70613857D02*
X80059523Y-70637666D01*
X80059523Y-70637666D02*
X80011904Y-70661476D01*
D10*
X95538095Y-62854819D02*
X95538095Y-63664342D01*
X95538095Y-63664342D02*
X95585714Y-63759580D01*
X95585714Y-63759580D02*
X95633333Y-63807200D01*
X95633333Y-63807200D02*
X95728571Y-63854819D01*
X95728571Y-63854819D02*
X95919047Y-63854819D01*
X95919047Y-63854819D02*
X96014285Y-63807200D01*
X96014285Y-63807200D02*
X96061904Y-63759580D01*
X96061904Y-63759580D02*
X96109523Y-63664342D01*
X96109523Y-63664342D02*
X96109523Y-62854819D01*
X97014285Y-63188152D02*
X97014285Y-63854819D01*
X96776190Y-62807200D02*
X96538095Y-63521485D01*
X96538095Y-63521485D02*
X97157142Y-63521485D01*
D11*
X106681952Y-71435712D02*
X106681952Y-71197617D01*
X106824809Y-71483331D02*
X106324809Y-71316665D01*
X106324809Y-71316665D02*
X106824809Y-71149998D01*
X106324809Y-71054760D02*
X106324809Y-70769046D01*
X106824809Y-70911903D02*
X106324809Y-70911903D01*
X106824809Y-70602380D02*
X106324809Y-70602380D01*
X106324809Y-70602380D02*
X106681952Y-70435713D01*
X106681952Y-70435713D02*
X106324809Y-70269047D01*
X106324809Y-70269047D02*
X106824809Y-70269047D01*
X106562904Y-70030951D02*
X106562904Y-69864284D01*
X106824809Y-69792856D02*
X106824809Y-70030951D01*
X106824809Y-70030951D02*
X106324809Y-70030951D01*
X106324809Y-70030951D02*
X106324809Y-69792856D01*
X106348619Y-69316665D02*
X106324809Y-69364284D01*
X106324809Y-69364284D02*
X106324809Y-69435713D01*
X106324809Y-69435713D02*
X106348619Y-69507141D01*
X106348619Y-69507141D02*
X106396238Y-69554760D01*
X106396238Y-69554760D02*
X106443857Y-69578570D01*
X106443857Y-69578570D02*
X106539095Y-69602379D01*
X106539095Y-69602379D02*
X106610523Y-69602379D01*
X106610523Y-69602379D02*
X106705761Y-69578570D01*
X106705761Y-69578570D02*
X106753380Y-69554760D01*
X106753380Y-69554760D02*
X106801000Y-69507141D01*
X106801000Y-69507141D02*
X106824809Y-69435713D01*
X106824809Y-69435713D02*
X106824809Y-69388094D01*
X106824809Y-69388094D02*
X106801000Y-69316665D01*
X106801000Y-69316665D02*
X106777190Y-69292856D01*
X106777190Y-69292856D02*
X106610523Y-69292856D01*
X106610523Y-69292856D02*
X106610523Y-69388094D01*
X106681952Y-69102379D02*
X106681952Y-68864284D01*
X106824809Y-69149998D02*
X106324809Y-68983332D01*
X106324809Y-68983332D02*
X106824809Y-68816665D01*
X106324809Y-68697618D02*
X106324809Y-68388094D01*
X106324809Y-68388094D02*
X106515285Y-68554761D01*
X106515285Y-68554761D02*
X106515285Y-68483332D01*
X106515285Y-68483332D02*
X106539095Y-68435713D01*
X106539095Y-68435713D02*
X106562904Y-68411904D01*
X106562904Y-68411904D02*
X106610523Y-68388094D01*
X106610523Y-68388094D02*
X106729571Y-68388094D01*
X106729571Y-68388094D02*
X106777190Y-68411904D01*
X106777190Y-68411904D02*
X106801000Y-68435713D01*
X106801000Y-68435713D02*
X106824809Y-68483332D01*
X106824809Y-68483332D02*
X106824809Y-68626189D01*
X106824809Y-68626189D02*
X106801000Y-68673808D01*
X106801000Y-68673808D02*
X106777190Y-68697618D01*
X106372428Y-68197618D02*
X106348619Y-68173809D01*
X106348619Y-68173809D02*
X106324809Y-68126190D01*
X106324809Y-68126190D02*
X106324809Y-68007142D01*
X106324809Y-68007142D02*
X106348619Y-67959523D01*
X106348619Y-67959523D02*
X106372428Y-67935714D01*
X106372428Y-67935714D02*
X106420047Y-67911904D01*
X106420047Y-67911904D02*
X106467666Y-67911904D01*
X106467666Y-67911904D02*
X106539095Y-67935714D01*
X106539095Y-67935714D02*
X106824809Y-68221428D01*
X106824809Y-68221428D02*
X106824809Y-67911904D01*
X106539095Y-67626190D02*
X106515285Y-67673809D01*
X106515285Y-67673809D02*
X106491476Y-67697619D01*
X106491476Y-67697619D02*
X106443857Y-67721428D01*
X106443857Y-67721428D02*
X106420047Y-67721428D01*
X106420047Y-67721428D02*
X106372428Y-67697619D01*
X106372428Y-67697619D02*
X106348619Y-67673809D01*
X106348619Y-67673809D02*
X106324809Y-67626190D01*
X106324809Y-67626190D02*
X106324809Y-67530952D01*
X106324809Y-67530952D02*
X106348619Y-67483333D01*
X106348619Y-67483333D02*
X106372428Y-67459524D01*
X106372428Y-67459524D02*
X106420047Y-67435714D01*
X106420047Y-67435714D02*
X106443857Y-67435714D01*
X106443857Y-67435714D02*
X106491476Y-67459524D01*
X106491476Y-67459524D02*
X106515285Y-67483333D01*
X106515285Y-67483333D02*
X106539095Y-67530952D01*
X106539095Y-67530952D02*
X106539095Y-67626190D01*
X106539095Y-67626190D02*
X106562904Y-67673809D01*
X106562904Y-67673809D02*
X106586714Y-67697619D01*
X106586714Y-67697619D02*
X106634333Y-67721428D01*
X106634333Y-67721428D02*
X106729571Y-67721428D01*
X106729571Y-67721428D02*
X106777190Y-67697619D01*
X106777190Y-67697619D02*
X106801000Y-67673809D01*
X106801000Y-67673809D02*
X106824809Y-67626190D01*
X106824809Y-67626190D02*
X106824809Y-67530952D01*
X106824809Y-67530952D02*
X106801000Y-67483333D01*
X106801000Y-67483333D02*
X106777190Y-67459524D01*
X106777190Y-67459524D02*
X106729571Y-67435714D01*
X106729571Y-67435714D02*
X106634333Y-67435714D01*
X106634333Y-67435714D02*
X106586714Y-67459524D01*
X106586714Y-67459524D02*
X106562904Y-67483333D01*
X106562904Y-67483333D02*
X106539095Y-67530952D01*
X106824809Y-67221429D02*
X106324809Y-67221429D01*
X106324809Y-67221429D02*
X106324809Y-67030953D01*
X106324809Y-67030953D02*
X106348619Y-66983334D01*
X106348619Y-66983334D02*
X106372428Y-66959524D01*
X106372428Y-66959524D02*
X106420047Y-66935715D01*
X106420047Y-66935715D02*
X106491476Y-66935715D01*
X106491476Y-66935715D02*
X106539095Y-66959524D01*
X106539095Y-66959524D02*
X106562904Y-66983334D01*
X106562904Y-66983334D02*
X106586714Y-67030953D01*
X106586714Y-67030953D02*
X106586714Y-67221429D01*
X106634333Y-66721429D02*
X106634333Y-66340477D01*
X106681952Y-66126190D02*
X106681952Y-65888095D01*
X106824809Y-66173809D02*
X106324809Y-66007143D01*
X106324809Y-66007143D02*
X106824809Y-65840476D01*
X106324809Y-65673810D02*
X106729571Y-65673810D01*
X106729571Y-65673810D02*
X106777190Y-65650000D01*
X106777190Y-65650000D02*
X106801000Y-65626191D01*
X106801000Y-65626191D02*
X106824809Y-65578572D01*
X106824809Y-65578572D02*
X106824809Y-65483334D01*
X106824809Y-65483334D02*
X106801000Y-65435715D01*
X106801000Y-65435715D02*
X106777190Y-65411905D01*
X106777190Y-65411905D02*
X106729571Y-65388096D01*
X106729571Y-65388096D02*
X106324809Y-65388096D01*
D10*
X109508333Y-61804819D02*
X109175000Y-61328628D01*
X108936905Y-61804819D02*
X108936905Y-60804819D01*
X108936905Y-60804819D02*
X109317857Y-60804819D01*
X109317857Y-60804819D02*
X109413095Y-60852438D01*
X109413095Y-60852438D02*
X109460714Y-60900057D01*
X109460714Y-60900057D02*
X109508333Y-60995295D01*
X109508333Y-60995295D02*
X109508333Y-61138152D01*
X109508333Y-61138152D02*
X109460714Y-61233390D01*
X109460714Y-61233390D02*
X109413095Y-61281009D01*
X109413095Y-61281009D02*
X109317857Y-61328628D01*
X109317857Y-61328628D02*
X108936905Y-61328628D01*
X109841667Y-60804819D02*
X110508333Y-60804819D01*
X110508333Y-60804819D02*
X110079762Y-61804819D01*
D11*
X108757143Y-64124809D02*
X109066667Y-64124809D01*
X109066667Y-64124809D02*
X108900000Y-64315285D01*
X108900000Y-64315285D02*
X108971429Y-64315285D01*
X108971429Y-64315285D02*
X109019048Y-64339095D01*
X109019048Y-64339095D02*
X109042857Y-64362904D01*
X109042857Y-64362904D02*
X109066667Y-64410523D01*
X109066667Y-64410523D02*
X109066667Y-64529571D01*
X109066667Y-64529571D02*
X109042857Y-64577190D01*
X109042857Y-64577190D02*
X109019048Y-64601000D01*
X109019048Y-64601000D02*
X108971429Y-64624809D01*
X108971429Y-64624809D02*
X108828572Y-64624809D01*
X108828572Y-64624809D02*
X108780953Y-64601000D01*
X108780953Y-64601000D02*
X108757143Y-64577190D01*
X109233333Y-64124809D02*
X109542857Y-64124809D01*
X109542857Y-64124809D02*
X109376190Y-64315285D01*
X109376190Y-64315285D02*
X109447619Y-64315285D01*
X109447619Y-64315285D02*
X109495238Y-64339095D01*
X109495238Y-64339095D02*
X109519047Y-64362904D01*
X109519047Y-64362904D02*
X109542857Y-64410523D01*
X109542857Y-64410523D02*
X109542857Y-64529571D01*
X109542857Y-64529571D02*
X109519047Y-64577190D01*
X109519047Y-64577190D02*
X109495238Y-64601000D01*
X109495238Y-64601000D02*
X109447619Y-64624809D01*
X109447619Y-64624809D02*
X109304762Y-64624809D01*
X109304762Y-64624809D02*
X109257143Y-64601000D01*
X109257143Y-64601000D02*
X109233333Y-64577190D01*
X109852380Y-64124809D02*
X109899999Y-64124809D01*
X109899999Y-64124809D02*
X109947618Y-64148619D01*
X109947618Y-64148619D02*
X109971428Y-64172428D01*
X109971428Y-64172428D02*
X109995237Y-64220047D01*
X109995237Y-64220047D02*
X110019047Y-64315285D01*
X110019047Y-64315285D02*
X110019047Y-64434333D01*
X110019047Y-64434333D02*
X109995237Y-64529571D01*
X109995237Y-64529571D02*
X109971428Y-64577190D01*
X109971428Y-64577190D02*
X109947618Y-64601000D01*
X109947618Y-64601000D02*
X109899999Y-64624809D01*
X109899999Y-64624809D02*
X109852380Y-64624809D01*
X109852380Y-64624809D02*
X109804761Y-64601000D01*
X109804761Y-64601000D02*
X109780952Y-64577190D01*
X109780952Y-64577190D02*
X109757142Y-64529571D01*
X109757142Y-64529571D02*
X109733333Y-64434333D01*
X109733333Y-64434333D02*
X109733333Y-64315285D01*
X109733333Y-64315285D02*
X109757142Y-64220047D01*
X109757142Y-64220047D02*
X109780952Y-64172428D01*
X109780952Y-64172428D02*
X109804761Y-64148619D01*
X109804761Y-64148619D02*
X109852380Y-64124809D01*
D12*
%TO.C,C2*%
X109886252Y-76735000D02*
X109363748Y-76735000D01*
X109886252Y-75265000D02*
X109363748Y-75265000D01*
%TO.C,J4*%
X117130000Y-61090000D02*
X118460000Y-61090000D01*
X117130000Y-62420000D02*
X117130000Y-61090000D01*
X117130000Y-63690000D02*
X117130000Y-68830000D01*
X117130000Y-63690000D02*
X119730000Y-63690000D01*
X117130000Y-68830000D02*
X122330000Y-68830000D01*
X119730000Y-61090000D02*
X122330000Y-61090000D01*
X119730000Y-63690000D02*
X119730000Y-61090000D01*
X122330000Y-61090000D02*
X122330000Y-68830000D01*
%TO.C,R3*%
X109902064Y-72735000D02*
X109447936Y-72735000D01*
X109902064Y-71265000D02*
X109447936Y-71265000D01*
%TO.C,Y1*%
X77000000Y-80750000D02*
X80600000Y-80750000D01*
X80600000Y-80750000D02*
X80600000Y-73500000D01*
X77000000Y-73500000D02*
X77000000Y-80750000D01*
%TO.C,R2*%
X89727064Y-80235000D02*
X89272936Y-80235000D01*
X89727064Y-78765000D02*
X89272936Y-78765000D01*
%TO.C,J1*%
X119670000Y-71090000D02*
X121000000Y-71090000D01*
X119670000Y-72420000D02*
X119670000Y-71090000D01*
X119670000Y-73690000D02*
X119670000Y-81370000D01*
X119670000Y-73690000D02*
X122330000Y-73690000D01*
X119670000Y-81370000D02*
X122330000Y-81370000D01*
X122330000Y-73690000D02*
X122330000Y-81370000D01*
%TO.C,J3*%
X106730000Y-84730000D02*
X106730000Y-83400000D01*
X108060000Y-84730000D02*
X106730000Y-84730000D01*
X109330000Y-84730000D02*
X117010000Y-84730000D01*
X109330000Y-84730000D02*
X109330000Y-82070000D01*
X117010000Y-84730000D02*
X117010000Y-82070000D01*
X109330000Y-82070000D02*
X117010000Y-82070000D01*
%TO.C,U3*%
X84675000Y-57675000D02*
X84675000Y-57935000D01*
X84675000Y-57935000D02*
X83000000Y-57935000D01*
X84675000Y-63125000D02*
X84675000Y-62865000D01*
X87400000Y-57675000D02*
X84675000Y-57675000D01*
X87400000Y-57675000D02*
X90125000Y-57675000D01*
X87400000Y-63125000D02*
X84675000Y-63125000D01*
X87400000Y-63125000D02*
X90125000Y-63125000D01*
X90125000Y-57675000D02*
X90125000Y-57935000D01*
X90125000Y-63125000D02*
X90125000Y-62865000D01*
%TO.C,C5*%
X104188748Y-57765000D02*
X104711252Y-57765000D01*
X104188748Y-59235000D02*
X104711252Y-59235000D01*
%TO.C,J2*%
X81730000Y-84730000D02*
X81730000Y-83400000D01*
X83060000Y-84730000D02*
X81730000Y-84730000D01*
X84330000Y-84730000D02*
X104710000Y-84730000D01*
X84330000Y-84730000D02*
X84330000Y-82070000D01*
X104710000Y-84730000D02*
X104710000Y-82070000D01*
X84330000Y-82070000D02*
X104710000Y-82070000D01*
%TO.C,R5*%
X113814564Y-63735000D02*
X113360436Y-63735000D01*
X113814564Y-62265000D02*
X113360436Y-62265000D01*
%TO.C,C1*%
X96188748Y-57765000D02*
X96711252Y-57765000D01*
X96188748Y-59235000D02*
X96711252Y-59235000D01*
%TO.C,R4*%
X109814564Y-68235000D02*
X109360436Y-68235000D01*
X109814564Y-66765000D02*
X109360436Y-66765000D01*
%TO.C,C4*%
X109886252Y-80235000D02*
X109363748Y-80235000D01*
X109886252Y-78765000D02*
X109363748Y-78765000D01*
D13*
%TO.C,U2*%
X85500000Y-71980000D02*
X89500000Y-71980000D01*
X85500000Y-77020000D02*
X89500000Y-77020000D01*
D14*
X83155000Y-72005000D02*
G75*
G03*
X83155000Y-72005000I-100000J0D01*
G01*
D12*
%TO.C,C3*%
X100188748Y-57765000D02*
X100711252Y-57765000D01*
X100188748Y-59235000D02*
X100711252Y-59235000D01*
%TO.C,D1*%
X111927500Y-57540000D02*
X111927500Y-59460000D01*
X111927500Y-59460000D02*
X114612500Y-59460000D01*
X114612500Y-57540000D02*
X111927500Y-57540000D01*
%TO.C,D2*%
X107990000Y-57540000D02*
X107990000Y-59460000D01*
X107990000Y-59460000D02*
X110675000Y-59460000D01*
X110675000Y-57540000D02*
X107990000Y-57540000D01*
%TO.C,U1*%
X84775000Y-64775000D02*
X84775000Y-65035000D01*
X84775000Y-65035000D02*
X83100000Y-65035000D01*
X84775000Y-70225000D02*
X84775000Y-69965000D01*
X87500000Y-64775000D02*
X84775000Y-64775000D01*
X87500000Y-64775000D02*
X90225000Y-64775000D01*
X87500000Y-70225000D02*
X84775000Y-70225000D01*
X87500000Y-70225000D02*
X90225000Y-70225000D01*
X90225000Y-64775000D02*
X90225000Y-65035000D01*
X90225000Y-70225000D02*
X90225000Y-69965000D01*
%TO.C,Y2*%
X105050000Y-78300000D02*
X105050000Y-74700000D01*
X105050000Y-74700000D02*
X97800000Y-74700000D01*
X97800000Y-78300000D02*
X105050000Y-78300000D01*
%TO.C,R6*%
X113447936Y-66765000D02*
X113902064Y-66765000D01*
X113447936Y-68235000D02*
X113902064Y-68235000D01*
%TO.C,R1*%
X85272936Y-78765000D02*
X85727064Y-78765000D01*
X85272936Y-80235000D02*
X85727064Y-80235000D01*
%TO.C,BT1*%
X77670000Y-64070000D02*
X79000000Y-64070000D01*
X77670000Y-65400000D02*
X77670000Y-64070000D01*
X77670000Y-66670000D02*
X77670000Y-69270000D01*
X77670000Y-66670000D02*
X80330000Y-66670000D01*
X77670000Y-69270000D02*
X80330000Y-69270000D01*
X80330000Y-66670000D02*
X80330000Y-69270000D01*
D13*
%TO.C,U4*%
X97000000Y-64000000D02*
X97000000Y-64105000D01*
X97000000Y-64000000D02*
X97105000Y-64000000D01*
X97000000Y-71000000D02*
X97000000Y-70895000D01*
X97000000Y-71000000D02*
X97105000Y-71000000D01*
X104000000Y-64000000D02*
X103895000Y-64000000D01*
X104000000Y-64000000D02*
X104000000Y-64105000D01*
X104000000Y-71000000D02*
X103895000Y-71000000D01*
X104000000Y-71000000D02*
X104000000Y-70895000D01*
D14*
X94760000Y-64700000D02*
G75*
G03*
X94760000Y-64700000I-100000J0D01*
G01*
D12*
%TO.C,R7*%
X109447936Y-62265000D02*
X109902064Y-62265000D01*
X109447936Y-63735000D02*
X109902064Y-63735000D01*
%TD*%
M02*
