%TF.GenerationSoftware,KiCad,Pcbnew,7.0.6-7.0.6~ubuntu22.10.1*%
%TF.CreationDate,2023-08-26T18:05:47+03:00*%
%TF.ProjectId,MCU Datalogger,4d435520-4461-4746-916c-6f676765722e,rev?*%
%TF.SameCoordinates,Original*%
%TF.FileFunction,Copper,L2,Bot*%
%TF.FilePolarity,Positive*%
%FSLAX46Y46*%
G04 Gerber Fmt 4.6, Leading zero omitted, Abs format (unit mm)*
G04 Created by KiCad (PCBNEW 7.0.6-7.0.6~ubuntu22.10.1) date 2023-08-26 18:05:47*
%MOMM*%
%LPD*%
G01*
G04 APERTURE LIST*
%TA.AperFunction,ComponentPad*%
%ADD10R,1.700000X1.700000*%
%TD*%
%TA.AperFunction,ComponentPad*%
%ADD11O,1.700000X1.700000*%
%TD*%
%TA.AperFunction,ViaPad*%
%ADD12C,0.800000*%
%TD*%
%TA.AperFunction,Conductor*%
%ADD13C,0.250000*%
%TD*%
G04 APERTURE END LIST*
D10*
%TO.P,J4,1,Pin_1*%
%TO.N,/MISO*%
X118460000Y-62420000D03*
D11*
%TO.P,J4,2,Pin_2*%
%TO.N,/Vcc*%
X121000000Y-62420000D03*
%TO.P,J4,3,Pin_3*%
%TO.N,/SCK*%
X118460000Y-64960000D03*
%TO.P,J4,4,Pin_4*%
%TO.N,/MOSI*%
X121000000Y-64960000D03*
%TO.P,J4,5,Pin_5*%
%TO.N,/RESET*%
X118460000Y-67500000D03*
%TO.P,J4,6,Pin_6*%
%TO.N,GND*%
X121000000Y-67500000D03*
%TD*%
D10*
%TO.P,J1,1,Pin_1*%
%TO.N,GND*%
X121000000Y-72420000D03*
D11*
%TO.P,J1,2,Pin_2*%
%TO.N,/Vcc*%
X121000000Y-74960000D03*
%TO.P,J1,3,Pin_3*%
%TO.N,/SDA*%
X121000000Y-77500000D03*
%TO.P,J1,4,Pin_4*%
%TO.N,/SCK*%
X121000000Y-80040000D03*
%TD*%
D10*
%TO.P,J3,1,Pin_1*%
%TO.N,GND*%
X108060000Y-83400000D03*
D11*
%TO.P,J3,2,Pin_2*%
%TO.N,/Vcc*%
X110600000Y-83400000D03*
%TO.P,J3,3,Pin_3*%
%TO.N,/RX*%
X113140000Y-83400000D03*
%TO.P,J3,4,Pin_4*%
%TO.N,/TX*%
X115680000Y-83400000D03*
%TD*%
D10*
%TO.P,J2,1,Pin_1*%
%TO.N,/D2*%
X83060000Y-83400000D03*
D11*
%TO.P,J2,2,Pin_2*%
%TO.N,/D3*%
X85600000Y-83400000D03*
%TO.P,J2,3,Pin_3*%
%TO.N,/D4*%
X88140000Y-83400000D03*
%TO.P,J2,4,Pin_4*%
%TO.N,/D5*%
X90680000Y-83400000D03*
%TO.P,J2,5,Pin_5*%
%TO.N,/D6*%
X93220000Y-83400000D03*
%TO.P,J2,6,Pin_6*%
%TO.N,/D7*%
X95760000Y-83400000D03*
%TO.P,J2,7,Pin_7*%
%TO.N,/D8*%
X98300000Y-83400000D03*
%TO.P,J2,8,Pin_8*%
%TO.N,GND*%
X100840000Y-83400000D03*
%TO.P,J2,9,Pin_9*%
%TO.N,/Vcc*%
X103380000Y-83400000D03*
%TD*%
D10*
%TO.P,BT1,1,+*%
%TO.N,Net-(BT1-+)*%
X79000000Y-65400000D03*
D11*
%TO.P,BT1,2,-*%
%TO.N,GND*%
X79000000Y-67940000D03*
%TD*%
D12*
%TO.N,Net-(BT1-+)*%
X102900000Y-69200000D03*
X105400000Y-62000000D03*
X100900000Y-67800000D03*
%TO.N,GND*%
X115100000Y-61400000D03*
X111100000Y-61600000D03*
X86609500Y-75100000D03*
X106004351Y-64950292D03*
X92424732Y-64672803D03*
X110587500Y-64400000D03*
X112500000Y-76000000D03*
X106600000Y-58500000D03*
X89200000Y-68200000D03*
X94900000Y-67000000D03*
%TO.N,/Vcc*%
X114900000Y-70200000D03*
X87800000Y-68100000D03*
X88400000Y-70000000D03*
%TO.N,Net-(U4-PB6)*%
X97800000Y-60925500D03*
X94658589Y-68075500D03*
X93874232Y-64824500D03*
X94900000Y-63099000D03*
%TO.N,Net-(U4-AREF)*%
X101800000Y-69200000D03*
X106100000Y-78200000D03*
%TO.N,/SCK*%
X94000000Y-62374500D03*
X108500000Y-69900000D03*
X115900000Y-63900000D03*
X91800000Y-63300000D03*
%TO.N,/SDA*%
X107500000Y-70300000D03*
X114400000Y-74200000D03*
%TO.N,/D2*%
X98406018Y-66353009D03*
%TO.N,/D5*%
X97054500Y-72900000D03*
%TO.N,/D6*%
X98019866Y-73158985D03*
%TO.N,/D7*%
X98800000Y-73875500D03*
%TO.N,/D8*%
X100100000Y-73875500D03*
%TO.N,/RX*%
X99300000Y-66800000D03*
%TO.N,/TX*%
X98500000Y-65200000D03*
%TO.N,/MISO*%
X105200000Y-72500000D03*
X117600000Y-59500000D03*
%TO.N,/RESET*%
X102400000Y-67100000D03*
X108150000Y-64950000D03*
X100900000Y-65500000D03*
X102912299Y-64887701D03*
%TO.N,Net-(U2-SQW{slash}~INT)*%
X87500000Y-77500000D03*
X88200000Y-75400000D03*
%TD*%
D13*
%TO.N,Net-(BT1-+)*%
X103400000Y-66400000D02*
X101500000Y-64500000D01*
X104000000Y-62000000D02*
X101500000Y-64500000D01*
X105400000Y-62000000D02*
X104000000Y-62000000D01*
X95200305Y-63824000D02*
X94599695Y-63824000D01*
X102900000Y-69200000D02*
X101500000Y-67800000D01*
X80375000Y-64025000D02*
X79000000Y-65400000D01*
X101500000Y-64500000D02*
X100600000Y-63600000D01*
X92525000Y-63600305D02*
X92100305Y-64025000D01*
X92525000Y-63600000D02*
X92525000Y-63600305D01*
X103400000Y-68700000D02*
X103400000Y-66400000D01*
X101500000Y-67800000D02*
X100900000Y-67800000D01*
X92100305Y-64025000D02*
X80375000Y-64025000D01*
X95424305Y-63600000D02*
X95200305Y-63824000D01*
X100600000Y-63600000D02*
X95424305Y-63600000D01*
X94375695Y-63600000D02*
X92525000Y-63600000D01*
X94599695Y-63824000D02*
X94375695Y-63600000D01*
X102900000Y-69200000D02*
X103400000Y-68700000D01*
%TO.N,GND*%
X109312500Y-65675000D02*
X110587500Y-64400000D01*
X94175037Y-64100000D02*
X92997535Y-64100000D01*
X94413299Y-65310738D02*
X94599232Y-65124805D01*
X94900000Y-67000000D02*
X94413299Y-66513299D01*
X92997535Y-64100000D02*
X92424732Y-64672803D01*
X106729059Y-65675000D02*
X109312500Y-65675000D01*
X106004351Y-64950292D02*
X106729059Y-65675000D01*
X94599232Y-64524195D02*
X94175037Y-64100000D01*
X94413299Y-66513299D02*
X94413299Y-65310738D01*
X94599232Y-65124805D02*
X94599232Y-64524195D01*
%TO.N,/Vcc*%
X116700000Y-61400000D02*
X116700000Y-61700000D01*
X119825000Y-61225000D02*
X119100000Y-60500000D01*
X121000000Y-62420000D02*
X119825000Y-61245000D01*
X116700000Y-61700000D02*
X116700000Y-68500000D01*
X112000000Y-84800000D02*
X119400000Y-84800000D01*
X119100000Y-60500000D02*
X117600000Y-60500000D01*
X117600000Y-60500000D02*
X116700000Y-61400000D01*
X123500000Y-80700000D02*
X123500000Y-77460000D01*
X116700000Y-68500000D02*
X115000000Y-70200000D01*
X114900000Y-70200000D02*
X119660000Y-74960000D01*
X114900000Y-70300000D02*
X115000000Y-70200000D01*
X119660000Y-74960000D02*
X121000000Y-74960000D01*
X110600000Y-83400000D02*
X112000000Y-84800000D01*
X123500000Y-77460000D02*
X121000000Y-74960000D01*
X119400000Y-84800000D02*
X123500000Y-80700000D01*
X87800000Y-68100000D02*
X87800000Y-69400000D01*
X119825000Y-61245000D02*
X119825000Y-61225000D01*
X115000000Y-70200000D02*
X114900000Y-70200000D01*
X114900000Y-70200000D02*
X114900000Y-70300000D01*
X87800000Y-69400000D02*
X88400000Y-70000000D01*
%TO.N,Net-(U4-PB6)*%
X93874232Y-66525768D02*
X93800000Y-66600000D01*
X97299000Y-60925500D02*
X97800000Y-60925500D01*
X95125500Y-63099000D02*
X97299000Y-60925500D01*
X93800000Y-66600000D02*
X93800000Y-67216911D01*
X94900000Y-63099000D02*
X95125500Y-63099000D01*
X93874232Y-64824500D02*
X93874232Y-66525768D01*
X93800000Y-67216911D02*
X94658589Y-68075500D01*
%TO.N,Net-(U4-AREF)*%
X101800000Y-72000000D02*
X101800000Y-69200000D01*
X106100000Y-76300000D02*
X101800000Y-72000000D01*
X106100000Y-78200000D02*
X106100000Y-76300000D01*
%TO.N,/SCK*%
X92725500Y-62374500D02*
X91800000Y-63300000D01*
X115900000Y-64400000D02*
X115900000Y-63900000D01*
X94000000Y-62374500D02*
X92725500Y-62374500D01*
X108500000Y-69900000D02*
X110400000Y-69900000D01*
X110400000Y-69900000D02*
X115900000Y-64400000D01*
%TO.N,/SDA*%
X107500000Y-70300000D02*
X111400000Y-74200000D01*
X111400000Y-74200000D02*
X114400000Y-74200000D01*
%TO.N,/D2*%
X94600000Y-68800000D02*
X91300000Y-72100000D01*
X91300000Y-75160000D02*
X83060000Y-83400000D01*
X91300000Y-72100000D02*
X91300000Y-75160000D01*
X98406018Y-67193982D02*
X96800000Y-68800000D01*
X98406018Y-66353009D02*
X98406018Y-67193982D01*
X96800000Y-68800000D02*
X94600000Y-68800000D01*
%TO.N,/D5*%
X95300000Y-72900000D02*
X94500000Y-73700000D01*
X94500000Y-73700000D02*
X94500000Y-79580000D01*
X97054500Y-72900000D02*
X95300000Y-72900000D01*
X94500000Y-79580000D02*
X90680000Y-83400000D01*
%TO.N,/D6*%
X95800000Y-74000000D02*
X95300000Y-74500000D01*
X98019866Y-73158985D02*
X97178851Y-74000000D01*
X95300000Y-74500000D02*
X95300000Y-81320000D01*
X97178851Y-74000000D02*
X95800000Y-74000000D01*
X95300000Y-81320000D02*
X93220000Y-83400000D01*
%TO.N,/D7*%
X95760000Y-83400000D02*
X95760000Y-75340000D01*
X97775500Y-74900000D02*
X98800000Y-73875500D01*
X96200000Y-74900000D02*
X97775500Y-74900000D01*
X95760000Y-75340000D02*
X96200000Y-74900000D01*
%TO.N,/D8*%
X98300000Y-83400000D02*
X98300000Y-75800000D01*
X100100000Y-74000000D02*
X100100000Y-73875500D01*
X98300000Y-75800000D02*
X100100000Y-74000000D01*
%TO.N,/RX*%
X100900000Y-76500000D02*
X106100000Y-81700000D01*
X99300000Y-68361701D02*
X100900000Y-69961701D01*
X106100000Y-81700000D02*
X111440000Y-81700000D01*
X111440000Y-81700000D02*
X113140000Y-83400000D01*
X100900000Y-69961701D02*
X100900000Y-76500000D01*
X99300000Y-66800000D02*
X99300000Y-68361701D01*
%TO.N,/TX*%
X106500000Y-80200000D02*
X101350000Y-75050000D01*
X100025000Y-67100305D02*
X100025000Y-66025000D01*
X115680000Y-83400000D02*
X112480000Y-80200000D01*
X100025000Y-66025000D02*
X99200000Y-65200000D01*
X100000000Y-67125305D02*
X100025000Y-67100305D01*
X98500000Y-65200000D02*
X98500000Y-65400000D01*
X101350000Y-69775305D02*
X100000000Y-68425305D01*
X99200000Y-65200000D02*
X98500000Y-65200000D01*
X100000000Y-68425305D02*
X100000000Y-67125305D01*
X112480000Y-80200000D02*
X106500000Y-80200000D01*
X101350000Y-75050000D02*
X101350000Y-69775305D01*
%TO.N,/MISO*%
X106300000Y-72500000D02*
X106775000Y-72025000D01*
X112900000Y-63600000D02*
X114800000Y-63600000D01*
X115825000Y-61275000D02*
X117600000Y-59500000D01*
X106775000Y-69999695D02*
X108874695Y-67900000D01*
X108874695Y-67900000D02*
X110000000Y-67900000D01*
X114800000Y-63600000D02*
X115825000Y-62575000D01*
X112800000Y-63500000D02*
X112900000Y-63600000D01*
X105200000Y-72500000D02*
X106300000Y-72500000D01*
X111200000Y-66700000D02*
X111200000Y-65100000D01*
X111200000Y-65100000D02*
X112800000Y-63500000D01*
X115825000Y-62575000D02*
X115825000Y-61275000D01*
X106775000Y-72025000D02*
X106775000Y-69999695D01*
X110000000Y-67900000D02*
X111200000Y-66700000D01*
%TO.N,/RESET*%
X103574302Y-64225698D02*
X102912299Y-64887701D01*
X100900000Y-66000000D02*
X102000000Y-67100000D01*
X108150000Y-64950000D02*
X107425698Y-64225698D01*
X107425698Y-64225698D02*
X103574302Y-64225698D01*
X102000000Y-67100000D02*
X102400000Y-67100000D01*
X100900000Y-65500000D02*
X100900000Y-66000000D01*
%TO.N,Net-(U2-SQW{slash}~INT)*%
X88200000Y-76800000D02*
X87500000Y-77500000D01*
X88200000Y-75400000D02*
X88200000Y-76800000D01*
%TD*%
%TA.AperFunction,Conductor*%
%TO.N,GND*%
G36*
X97994669Y-64245185D02*
G01*
X98040424Y-64297989D01*
X98050368Y-64367147D01*
X98021343Y-64430703D01*
X98000515Y-64449818D01*
X97894129Y-64527111D01*
X97767466Y-64667785D01*
X97672821Y-64831715D01*
X97672818Y-64831722D01*
X97614327Y-65011740D01*
X97614326Y-65011744D01*
X97594540Y-65200000D01*
X97614326Y-65388256D01*
X97614327Y-65388259D01*
X97672818Y-65568277D01*
X97672820Y-65568281D01*
X97672821Y-65568284D01*
X97712973Y-65637830D01*
X97716863Y-65644567D01*
X97733335Y-65712467D01*
X97710482Y-65778494D01*
X97701628Y-65789535D01*
X97673486Y-65820791D01*
X97673482Y-65820796D01*
X97578839Y-65984724D01*
X97578836Y-65984731D01*
X97525264Y-66149610D01*
X97520344Y-66164753D01*
X97500558Y-66353009D01*
X97520344Y-66541265D01*
X97520345Y-66541268D01*
X97578836Y-66721286D01*
X97578839Y-66721293D01*
X97673483Y-66885223D01*
X97677177Y-66890307D01*
X97700654Y-66956114D01*
X97684826Y-67024168D01*
X97664537Y-67050870D01*
X96577228Y-68138181D01*
X96515905Y-68171666D01*
X96489547Y-68174500D01*
X95686104Y-68174500D01*
X95619065Y-68154815D01*
X95573310Y-68102011D01*
X95562784Y-68063465D01*
X95544263Y-67887244D01*
X95485768Y-67707216D01*
X95391122Y-67543284D01*
X95264460Y-67402612D01*
X95263384Y-67401830D01*
X95111323Y-67291351D01*
X95111318Y-67291348D01*
X94938396Y-67214357D01*
X94938391Y-67214355D01*
X94792589Y-67183365D01*
X94753235Y-67175000D01*
X94753234Y-67175000D01*
X94694042Y-67175000D01*
X94627003Y-67155315D01*
X94606361Y-67138681D01*
X94461819Y-66994139D01*
X94428334Y-66932816D01*
X94425500Y-66906458D01*
X94425500Y-66853233D01*
X94440839Y-66793494D01*
X94460427Y-66757864D01*
X94460427Y-66757863D01*
X94460429Y-66757860D01*
X94465409Y-66738459D01*
X94471710Y-66720056D01*
X94479670Y-66701664D01*
X94486962Y-66655617D01*
X94488143Y-66649920D01*
X94491202Y-66638007D01*
X94499732Y-66604787D01*
X94499732Y-66584751D01*
X94501259Y-66565350D01*
X94502444Y-66557873D01*
X94504392Y-66545572D01*
X94503961Y-66541016D01*
X94503254Y-66533536D01*
X94500004Y-66499162D01*
X94499731Y-66493367D01*
X94499731Y-65523185D01*
X94519416Y-65456147D01*
X94531583Y-65440212D01*
X94546484Y-65423664D01*
X94578366Y-65388256D01*
X94606762Y-65356720D01*
X94606763Y-65356717D01*
X94606765Y-65356716D01*
X94701411Y-65192784D01*
X94759906Y-65012756D01*
X94779692Y-64824500D01*
X94759906Y-64636244D01*
X94751969Y-64611819D01*
X94749973Y-64541979D01*
X94786053Y-64482145D01*
X94848753Y-64451316D01*
X94869900Y-64449500D01*
X95117562Y-64449500D01*
X95133182Y-64451224D01*
X95133209Y-64450939D01*
X95140965Y-64451671D01*
X95140972Y-64451673D01*
X95210119Y-64449500D01*
X95239655Y-64449500D01*
X95246533Y-64448630D01*
X95252346Y-64448172D01*
X95298932Y-64446709D01*
X95318174Y-64441117D01*
X95337217Y-64437174D01*
X95357097Y-64434664D01*
X95400427Y-64417507D01*
X95405951Y-64415617D01*
X95409701Y-64414527D01*
X95450695Y-64402618D01*
X95467934Y-64392422D01*
X95485408Y-64383862D01*
X95504032Y-64376488D01*
X95504032Y-64376487D01*
X95504037Y-64376486D01*
X95541754Y-64349082D01*
X95546610Y-64345892D01*
X95586725Y-64322170D01*
X95600894Y-64307999D01*
X95615684Y-64295368D01*
X95631892Y-64283594D01*
X95639698Y-64274158D01*
X95642755Y-64270463D01*
X95700653Y-64231353D01*
X95738301Y-64225500D01*
X97927630Y-64225500D01*
X97994669Y-64245185D01*
G37*
%TD.AperFunction*%
%TA.AperFunction,Conductor*%
G36*
X120726606Y-56219685D02*
G01*
X120732661Y-56223834D01*
X124349094Y-58862852D01*
X124391645Y-58918271D01*
X124400000Y-58963018D01*
X124400000Y-83150824D01*
X124380315Y-83217863D01*
X124366297Y-83235809D01*
X121236838Y-86560859D01*
X121176557Y-86596186D01*
X121146251Y-86599874D01*
X78550006Y-86500117D01*
X78483012Y-86480275D01*
X78464068Y-86465227D01*
X76650133Y-84709806D01*
X75862934Y-83948000D01*
X78148000Y-83948000D01*
X78148000Y-84595206D01*
X78955918Y-85377064D01*
X79650000Y-85378689D01*
X79650000Y-83948000D01*
X78148000Y-83948000D01*
X75862934Y-83948000D01*
X75437768Y-83536549D01*
X75403282Y-83475783D01*
X75400000Y-83447442D01*
X75400000Y-81448000D01*
X76524000Y-81448000D01*
X76524000Y-82950000D01*
X77150000Y-82950000D01*
X77150000Y-81448000D01*
X78148000Y-81448000D01*
X78148000Y-82950000D01*
X79650000Y-82950000D01*
X79650000Y-81448000D01*
X78148000Y-81448000D01*
X77150000Y-81448000D01*
X76524000Y-81448000D01*
X75400000Y-81448000D01*
X75400000Y-78948000D01*
X76524000Y-78948000D01*
X76524000Y-80450000D01*
X77150000Y-80450000D01*
X77150000Y-78948000D01*
X78148000Y-78948000D01*
X78148000Y-80450000D01*
X79650000Y-80450000D01*
X79650000Y-78948000D01*
X80648000Y-78948000D01*
X80648000Y-80450000D01*
X82150000Y-80450000D01*
X82150000Y-78948000D01*
X83148000Y-78948000D01*
X83148000Y-80450000D01*
X83714022Y-80450000D01*
X84650000Y-79514022D01*
X84650000Y-78948000D01*
X83148000Y-78948000D01*
X82150000Y-78948000D01*
X80648000Y-78948000D01*
X79650000Y-78948000D01*
X78148000Y-78948000D01*
X77150000Y-78948000D01*
X76524000Y-78948000D01*
X75400000Y-78948000D01*
X75400000Y-76448000D01*
X76524000Y-76448000D01*
X76524000Y-77950000D01*
X77150000Y-77950000D01*
X77150000Y-76448000D01*
X78148000Y-76448000D01*
X78148000Y-77950000D01*
X79650000Y-77950000D01*
X79650000Y-76448000D01*
X80648000Y-76448000D01*
X80648000Y-77950000D01*
X82150000Y-77950000D01*
X82150000Y-76448000D01*
X83148000Y-76448000D01*
X83148000Y-77950000D01*
X84650000Y-77950000D01*
X84650000Y-76448000D01*
X83148000Y-76448000D01*
X82150000Y-76448000D01*
X80648000Y-76448000D01*
X79650000Y-76448000D01*
X78148000Y-76448000D01*
X77150000Y-76448000D01*
X76524000Y-76448000D01*
X75400000Y-76448000D01*
X75400000Y-73948000D01*
X76524000Y-73948000D01*
X76524000Y-75450000D01*
X77150000Y-75450000D01*
X77150000Y-73948000D01*
X78148000Y-73948000D01*
X78148000Y-75450000D01*
X79650000Y-75450000D01*
X79650000Y-73948000D01*
X80648000Y-73948000D01*
X80648000Y-75450000D01*
X82150000Y-75450000D01*
X82150000Y-73948000D01*
X83148000Y-73948000D01*
X83148000Y-75450000D01*
X84650000Y-75450000D01*
X84650000Y-73948000D01*
X83148000Y-73948000D01*
X82150000Y-73948000D01*
X80648000Y-73948000D01*
X79650000Y-73948000D01*
X78148000Y-73948000D01*
X77150000Y-73948000D01*
X76524000Y-73948000D01*
X75400000Y-73948000D01*
X75400000Y-71448000D01*
X76524000Y-71448000D01*
X76524000Y-72950000D01*
X77150000Y-72950000D01*
X77150000Y-71448000D01*
X78148000Y-71448000D01*
X78148000Y-72950000D01*
X79650000Y-72950000D01*
X79650000Y-71448000D01*
X80648000Y-71448000D01*
X80648000Y-72950000D01*
X82150000Y-72950000D01*
X82150000Y-71448000D01*
X83148000Y-71448000D01*
X83148000Y-72950000D01*
X84650000Y-72950000D01*
X84650000Y-71448000D01*
X85648000Y-71448000D01*
X85648000Y-72950000D01*
X87150000Y-72950000D01*
X88148000Y-72950000D01*
X89650000Y-72950000D01*
X89650000Y-71448000D01*
X89634796Y-71448000D01*
X89617517Y-71461993D01*
X89614940Y-71463970D01*
X89416873Y-71607873D01*
X89414196Y-71609713D01*
X89378516Y-71632882D01*
X89375748Y-71634578D01*
X89327664Y-71662338D01*
X89324810Y-71663887D01*
X89286938Y-71683182D01*
X89284010Y-71684579D01*
X89060367Y-71784153D01*
X89057367Y-71785396D01*
X89017654Y-71800641D01*
X89014591Y-71801725D01*
X88961783Y-71818882D01*
X88958672Y-71819803D01*
X88917604Y-71830807D01*
X88914447Y-71831565D01*
X88674992Y-71882462D01*
X88671800Y-71883053D01*
X88629816Y-71889703D01*
X88626601Y-71890126D01*
X88571385Y-71895933D01*
X88568146Y-71896188D01*
X88525662Y-71898415D01*
X88522416Y-71898500D01*
X88277584Y-71898500D01*
X88274338Y-71898415D01*
X88231854Y-71896188D01*
X88228615Y-71895933D01*
X88173399Y-71890126D01*
X88170184Y-71889703D01*
X88148000Y-71886189D01*
X88148000Y-72950000D01*
X87150000Y-72950000D01*
X87150000Y-71448000D01*
X85648000Y-71448000D01*
X84650000Y-71448000D01*
X83148000Y-71448000D01*
X82150000Y-71448000D01*
X80648000Y-71448000D01*
X79650000Y-71448000D01*
X78148000Y-71448000D01*
X77150000Y-71448000D01*
X76524000Y-71448000D01*
X75400000Y-71448000D01*
X75400000Y-68948000D01*
X76524000Y-68948000D01*
X76524000Y-70450000D01*
X77150000Y-70450000D01*
X80648000Y-70450000D01*
X82150000Y-70450000D01*
X82150000Y-68948000D01*
X83148000Y-68948000D01*
X83148000Y-70450000D01*
X84650000Y-70450000D01*
X84650000Y-68948000D01*
X85648000Y-68948000D01*
X85648000Y-70450000D01*
X86551078Y-70450000D01*
X86548904Y-70441887D01*
X86536155Y-70427426D01*
X86533671Y-70424423D01*
X86492829Y-70371767D01*
X86490539Y-70368615D01*
X86461861Y-70326416D01*
X86459774Y-70323128D01*
X86441562Y-70292332D01*
X86420528Y-70263383D01*
X86418338Y-70260160D01*
X86390999Y-70217079D01*
X86389017Y-70213728D01*
X86356918Y-70155343D01*
X86355149Y-70151872D01*
X86338307Y-70116083D01*
X86320353Y-70080845D01*
X86318695Y-70077321D01*
X86292232Y-70016169D01*
X86290798Y-70012548D01*
X86273511Y-69964533D01*
X86272306Y-69960827D01*
X86262321Y-69926458D01*
X86249151Y-69893192D01*
X86247832Y-69889527D01*
X86232069Y-69841015D01*
X86230983Y-69837276D01*
X86214408Y-69772732D01*
X86213558Y-69768928D01*
X86206143Y-69730060D01*
X86197524Y-69691501D01*
X86196794Y-69687676D01*
X86186367Y-69621858D01*
X86185879Y-69617992D01*
X86181075Y-69567182D01*
X86180830Y-69563295D01*
X86179337Y-69515827D01*
X86177361Y-69484402D01*
X86176500Y-69456968D01*
X86176500Y-69425493D01*
X86173773Y-69338718D01*
X86173773Y-69334823D01*
X86175375Y-69283820D01*
X86175620Y-69279933D01*
X86176500Y-69270619D01*
X86176500Y-69085014D01*
X86097394Y-68948000D01*
X85648000Y-68948000D01*
X84650000Y-68948000D01*
X83148000Y-68948000D01*
X82150000Y-68948000D01*
X81120693Y-68948000D01*
X81067750Y-69061537D01*
X81050145Y-69095357D01*
X81025661Y-69137766D01*
X81005161Y-69169948D01*
X80841581Y-69403561D01*
X80818370Y-69433812D01*
X80786894Y-69471325D01*
X80761119Y-69499454D01*
X80648000Y-69612572D01*
X80648000Y-70450000D01*
X77150000Y-70450000D01*
X77150000Y-69391536D01*
X76994839Y-69169948D01*
X76974339Y-69137766D01*
X76949855Y-69095357D01*
X76932250Y-69061537D01*
X76879307Y-68948000D01*
X76524000Y-68948000D01*
X75400000Y-68948000D01*
X75400000Y-66297870D01*
X77649500Y-66297870D01*
X77649501Y-66297876D01*
X77655908Y-66357483D01*
X77706202Y-66492328D01*
X77706206Y-66492335D01*
X77792452Y-66607544D01*
X77792455Y-66607547D01*
X77907664Y-66693793D01*
X77907671Y-66693797D01*
X77907674Y-66693798D01*
X78039598Y-66743002D01*
X78095531Y-66784873D01*
X78119949Y-66850337D01*
X78105098Y-66918610D01*
X78083947Y-66946865D01*
X77961886Y-67068926D01*
X77826400Y-67262420D01*
X77826399Y-67262422D01*
X77726570Y-67476507D01*
X77726567Y-67476513D01*
X77669364Y-67689999D01*
X77669364Y-67690000D01*
X78566314Y-67690000D01*
X78540507Y-67730156D01*
X78500000Y-67868111D01*
X78500000Y-68011889D01*
X78540507Y-68149844D01*
X78566314Y-68190000D01*
X77669364Y-68190000D01*
X77726567Y-68403486D01*
X77726570Y-68403492D01*
X77826399Y-68617578D01*
X77961894Y-68811082D01*
X78128917Y-68978105D01*
X78322421Y-69113600D01*
X78536507Y-69213429D01*
X78536516Y-69213433D01*
X78750000Y-69270634D01*
X78750000Y-68375501D01*
X78857685Y-68424680D01*
X78964237Y-68440000D01*
X79035763Y-68440000D01*
X79142315Y-68424680D01*
X79250000Y-68375501D01*
X79250000Y-69270633D01*
X79463483Y-69213433D01*
X79463492Y-69213429D01*
X79677578Y-69113600D01*
X79871082Y-68978105D01*
X80038105Y-68811082D01*
X80173600Y-68617578D01*
X80273429Y-68403492D01*
X80273432Y-68403486D01*
X80330636Y-68190000D01*
X79433686Y-68190000D01*
X79459493Y-68149844D01*
X79474128Y-68100000D01*
X86894540Y-68100000D01*
X86914326Y-68288256D01*
X86914327Y-68288259D01*
X86972818Y-68468277D01*
X86972821Y-68468284D01*
X87067467Y-68632216D01*
X87105121Y-68674035D01*
X87142650Y-68715715D01*
X87172880Y-68778706D01*
X87174500Y-68798687D01*
X87174500Y-69317255D01*
X87172775Y-69332872D01*
X87173061Y-69332899D01*
X87172326Y-69340665D01*
X87174500Y-69409814D01*
X87174500Y-69439343D01*
X87174501Y-69439360D01*
X87175368Y-69446231D01*
X87175826Y-69452050D01*
X87177290Y-69498624D01*
X87177531Y-69499454D01*
X87182880Y-69517867D01*
X87186824Y-69536911D01*
X87189336Y-69556792D01*
X87206490Y-69600119D01*
X87208382Y-69605647D01*
X87215200Y-69629115D01*
X87221382Y-69650390D01*
X87224238Y-69655220D01*
X87231580Y-69667634D01*
X87240136Y-69685100D01*
X87241579Y-69688742D01*
X87247514Y-69703732D01*
X87274898Y-69741423D01*
X87278106Y-69746307D01*
X87301827Y-69786416D01*
X87301833Y-69786424D01*
X87315990Y-69800580D01*
X87328628Y-69815376D01*
X87339378Y-69830173D01*
X87340406Y-69831587D01*
X87369573Y-69855716D01*
X87376303Y-69861283D01*
X87380626Y-69865216D01*
X87461039Y-69945630D01*
X87494524Y-70006953D01*
X87496678Y-70020343D01*
X87514326Y-70188256D01*
X87514327Y-70188259D01*
X87572818Y-70368277D01*
X87572821Y-70368284D01*
X87667467Y-70532216D01*
X87794128Y-70672887D01*
X87794129Y-70672888D01*
X87947265Y-70784148D01*
X87947270Y-70784151D01*
X88120192Y-70861142D01*
X88120197Y-70861144D01*
X88305354Y-70900500D01*
X88305355Y-70900500D01*
X88494644Y-70900500D01*
X88494646Y-70900500D01*
X88679803Y-70861144D01*
X88852730Y-70784151D01*
X89005871Y-70672888D01*
X89132533Y-70532216D01*
X89227179Y-70368284D01*
X89285674Y-70188256D01*
X89305460Y-70000000D01*
X89285674Y-69811744D01*
X89227179Y-69631716D01*
X89132533Y-69467784D01*
X89005871Y-69327112D01*
X89003099Y-69325098D01*
X88852734Y-69215851D01*
X88852729Y-69215848D01*
X88679807Y-69138857D01*
X88679802Y-69138855D01*
X88523719Y-69105679D01*
X88462237Y-69072487D01*
X88428461Y-69011323D01*
X88425500Y-68984389D01*
X88425500Y-68948000D01*
X90648000Y-68948000D01*
X90648000Y-70450000D01*
X90654022Y-70450000D01*
X92150000Y-68954021D01*
X92150000Y-68948000D01*
X90648000Y-68948000D01*
X88425500Y-68948000D01*
X88425500Y-68798687D01*
X88445185Y-68731648D01*
X88457350Y-68715715D01*
X88476650Y-68694280D01*
X88532533Y-68632216D01*
X88627179Y-68468284D01*
X88685674Y-68288256D01*
X88705460Y-68100000D01*
X88685674Y-67911744D01*
X88627179Y-67731716D01*
X88532533Y-67567784D01*
X88405871Y-67427112D01*
X88399603Y-67422558D01*
X88252734Y-67315851D01*
X88252729Y-67315848D01*
X88079807Y-67238857D01*
X88079802Y-67238855D01*
X87934000Y-67207865D01*
X87894646Y-67199500D01*
X87705354Y-67199500D01*
X87672897Y-67206398D01*
X87520197Y-67238855D01*
X87520192Y-67238857D01*
X87347270Y-67315848D01*
X87347265Y-67315851D01*
X87194129Y-67427111D01*
X87067466Y-67567785D01*
X86972821Y-67731715D01*
X86972818Y-67731722D01*
X86914327Y-67911740D01*
X86914326Y-67911744D01*
X86894540Y-68100000D01*
X79474128Y-68100000D01*
X79500000Y-68011889D01*
X79500000Y-67868111D01*
X79459493Y-67730156D01*
X79433686Y-67690000D01*
X80330636Y-67690000D01*
X80330635Y-67689999D01*
X80273432Y-67476513D01*
X80273429Y-67476507D01*
X80173600Y-67262422D01*
X80173599Y-67262420D01*
X80038113Y-67068926D01*
X80038108Y-67068920D01*
X79970449Y-67001261D01*
X81152989Y-67001261D01*
X81188269Y-67076917D01*
X81202857Y-67112133D01*
X81219608Y-67158148D01*
X81231085Y-67194545D01*
X81355719Y-67659682D01*
X81357561Y-67715968D01*
X81312997Y-67939999D01*
X81314987Y-67950000D01*
X82150000Y-67950000D01*
X82150000Y-66448000D01*
X83148000Y-66448000D01*
X83148000Y-67950000D01*
X84650000Y-67950000D01*
X84650000Y-66448000D01*
X85648000Y-66448000D01*
X85648000Y-67950000D01*
X85906809Y-67950000D01*
X85924695Y-67779823D01*
X85925119Y-67776605D01*
X85931768Y-67734616D01*
X85932359Y-67731426D01*
X85943901Y-67677115D01*
X85944659Y-67673957D01*
X85955669Y-67632867D01*
X85956591Y-67629753D01*
X86032249Y-67396903D01*
X86033333Y-67393841D01*
X86048583Y-67354119D01*
X86049826Y-67351119D01*
X86072411Y-67300398D01*
X86073808Y-67297469D01*
X86093104Y-67259602D01*
X86094652Y-67256750D01*
X86217055Y-67044739D01*
X86218752Y-67041971D01*
X86241920Y-67006296D01*
X86243760Y-67003619D01*
X86276397Y-66958701D01*
X86278373Y-66956126D01*
X86305130Y-66923085D01*
X86307237Y-66920618D01*
X86471048Y-66738687D01*
X86473283Y-66736333D01*
X86503355Y-66706261D01*
X86505710Y-66704025D01*
X86546971Y-66666875D01*
X86549438Y-66664768D01*
X86582483Y-66638007D01*
X86585060Y-66636030D01*
X86783127Y-66492127D01*
X86785804Y-66490287D01*
X86821484Y-66467118D01*
X86824252Y-66465422D01*
X86854429Y-66448000D01*
X90648000Y-66448000D01*
X90648000Y-67950000D01*
X92150000Y-67950000D01*
X92150000Y-66448000D01*
X90648000Y-66448000D01*
X86854429Y-66448000D01*
X85648000Y-66448000D01*
X84650000Y-66448000D01*
X83148000Y-66448000D01*
X82150000Y-66448000D01*
X81338110Y-66448000D01*
X81332831Y-66497100D01*
X81332298Y-66500935D01*
X81323737Y-66550938D01*
X81322964Y-66554734D01*
X81307729Y-66619215D01*
X81306721Y-66622955D01*
X81291988Y-66671526D01*
X81290748Y-66675196D01*
X81215639Y-66876576D01*
X81213945Y-66880667D01*
X81189847Y-66933432D01*
X81187866Y-66937391D01*
X81152989Y-67001261D01*
X79970449Y-67001261D01*
X79916053Y-66946865D01*
X79882568Y-66885542D01*
X79887552Y-66815850D01*
X79929424Y-66759917D01*
X79960400Y-66743002D01*
X80092331Y-66693796D01*
X80207546Y-66607546D01*
X80293796Y-66492331D01*
X80344091Y-66357483D01*
X80350500Y-66297873D01*
X80350499Y-64985451D01*
X80370184Y-64918413D01*
X80386818Y-64897771D01*
X80597771Y-64686819D01*
X80659094Y-64653334D01*
X80685452Y-64650500D01*
X92017562Y-64650500D01*
X92033182Y-64652224D01*
X92033209Y-64651939D01*
X92040965Y-64652671D01*
X92040972Y-64652673D01*
X92110119Y-64650500D01*
X92139655Y-64650500D01*
X92146533Y-64649630D01*
X92152346Y-64649172D01*
X92198932Y-64647709D01*
X92218174Y-64642117D01*
X92237217Y-64638174D01*
X92257097Y-64635664D01*
X92300427Y-64618507D01*
X92305951Y-64616617D01*
X92314222Y-64614214D01*
X92350695Y-64603618D01*
X92367934Y-64593422D01*
X92385408Y-64584862D01*
X92404032Y-64577488D01*
X92404032Y-64577487D01*
X92404037Y-64577486D01*
X92441754Y-64550082D01*
X92446610Y-64546892D01*
X92486725Y-64523170D01*
X92500894Y-64508999D01*
X92515684Y-64496368D01*
X92531892Y-64484594D01*
X92561600Y-64448681D01*
X92565512Y-64444381D01*
X92717611Y-64292284D01*
X92748078Y-64261818D01*
X92809402Y-64228334D01*
X92835759Y-64225500D01*
X92965483Y-64225500D01*
X93032522Y-64245185D01*
X93078277Y-64297989D01*
X93088221Y-64367147D01*
X93072870Y-64411500D01*
X93047053Y-64456215D01*
X93047050Y-64456222D01*
X92988559Y-64636240D01*
X92988558Y-64636244D01*
X92968772Y-64824500D01*
X92988558Y-65012756D01*
X92988559Y-65012759D01*
X93047050Y-65192777D01*
X93047053Y-65192784D01*
X93141699Y-65356716D01*
X93141703Y-65356720D01*
X93216882Y-65440215D01*
X93247112Y-65503206D01*
X93248732Y-65523187D01*
X93248732Y-66272533D01*
X93233395Y-66332269D01*
X93213803Y-66367907D01*
X93208822Y-66387307D01*
X93202521Y-66405710D01*
X93194562Y-66424102D01*
X93194561Y-66424105D01*
X93187271Y-66470127D01*
X93186087Y-66475846D01*
X93174501Y-66520972D01*
X93174500Y-66520982D01*
X93174500Y-66541016D01*
X93172973Y-66560415D01*
X93169840Y-66580194D01*
X93169840Y-66580195D01*
X93174225Y-66626583D01*
X93174500Y-66632421D01*
X93174499Y-67134166D01*
X93172776Y-67149783D01*
X93173061Y-67149810D01*
X93172326Y-67157576D01*
X93174500Y-67226725D01*
X93174500Y-67256254D01*
X93174501Y-67256271D01*
X93175368Y-67263142D01*
X93175826Y-67268961D01*
X93177290Y-67315535D01*
X93177291Y-67315538D01*
X93182880Y-67334778D01*
X93186824Y-67353822D01*
X93189336Y-67373703D01*
X93200472Y-67401830D01*
X93206490Y-67417030D01*
X93208382Y-67422558D01*
X93221381Y-67467299D01*
X93231580Y-67484545D01*
X93240138Y-67502014D01*
X93247514Y-67520643D01*
X93274898Y-67558334D01*
X93278106Y-67563218D01*
X93301827Y-67603327D01*
X93301833Y-67603335D01*
X93315990Y-67617491D01*
X93328627Y-67632286D01*
X93340406Y-67648498D01*
X93374998Y-67677115D01*
X93376309Y-67678199D01*
X93380620Y-67682121D01*
X93638497Y-67939999D01*
X93719627Y-68021129D01*
X93753112Y-68082452D01*
X93755267Y-68095848D01*
X93761465Y-68154815D01*
X93772915Y-68263756D01*
X93772916Y-68263759D01*
X93831407Y-68443777D01*
X93831409Y-68443781D01*
X93831410Y-68443784D01*
X93863069Y-68498619D01*
X93871761Y-68513674D01*
X93888233Y-68581574D01*
X93865380Y-68647601D01*
X93852054Y-68663354D01*
X90916208Y-71599199D01*
X90903951Y-71609020D01*
X90904134Y-71609241D01*
X90898123Y-71614213D01*
X90850772Y-71664636D01*
X90829889Y-71685519D01*
X90829877Y-71685532D01*
X90825621Y-71691017D01*
X90821837Y-71695447D01*
X90789937Y-71729418D01*
X90789936Y-71729420D01*
X90780284Y-71746976D01*
X90769610Y-71763226D01*
X90757329Y-71779061D01*
X90757324Y-71779068D01*
X90738815Y-71821838D01*
X90736245Y-71827084D01*
X90713803Y-71867906D01*
X90708822Y-71887307D01*
X90702521Y-71905710D01*
X90694562Y-71924102D01*
X90694561Y-71924105D01*
X90687271Y-71970127D01*
X90686087Y-71975846D01*
X90674501Y-72020972D01*
X90674500Y-72020982D01*
X90674500Y-72041016D01*
X90672973Y-72060415D01*
X90669840Y-72080194D01*
X90669840Y-72080195D01*
X90674225Y-72126583D01*
X90674500Y-72132421D01*
X90674500Y-74849547D01*
X90654815Y-74916586D01*
X90638181Y-74937228D01*
X89037181Y-76538228D01*
X88975858Y-76571713D01*
X88906166Y-76566729D01*
X88850233Y-76524857D01*
X88825816Y-76459393D01*
X88825500Y-76450547D01*
X88825500Y-76098687D01*
X88845185Y-76031648D01*
X88857350Y-76015715D01*
X88875891Y-75995122D01*
X88932533Y-75932216D01*
X89027179Y-75768284D01*
X89085674Y-75588256D01*
X89105460Y-75400000D01*
X89085674Y-75211744D01*
X89027179Y-75031716D01*
X88932533Y-74867784D01*
X88805871Y-74727112D01*
X88802403Y-74724592D01*
X88652734Y-74615851D01*
X88652729Y-74615848D01*
X88479807Y-74538857D01*
X88479802Y-74538855D01*
X88334000Y-74507865D01*
X88294646Y-74499500D01*
X88105354Y-74499500D01*
X88072897Y-74506398D01*
X87920197Y-74538855D01*
X87920192Y-74538857D01*
X87747270Y-74615848D01*
X87747265Y-74615851D01*
X87594129Y-74727111D01*
X87467466Y-74867785D01*
X87372821Y-75031715D01*
X87372818Y-75031722D01*
X87315144Y-75209226D01*
X87314326Y-75211744D01*
X87305712Y-75293704D01*
X87295371Y-75392098D01*
X87294540Y-75400000D01*
X87314326Y-75588256D01*
X87314327Y-75588259D01*
X87372818Y-75768277D01*
X87372821Y-75768284D01*
X87467467Y-75932216D01*
X87491196Y-75958569D01*
X87542650Y-76015715D01*
X87572880Y-76078706D01*
X87574500Y-76098687D01*
X87574500Y-76475500D01*
X87554815Y-76542539D01*
X87502011Y-76588294D01*
X87450500Y-76599500D01*
X87405354Y-76599500D01*
X87374910Y-76605971D01*
X87220197Y-76638855D01*
X87220192Y-76638857D01*
X87047270Y-76715848D01*
X87047265Y-76715851D01*
X86894129Y-76827111D01*
X86767466Y-76967785D01*
X86672821Y-77131715D01*
X86672818Y-77131722D01*
X86614327Y-77311740D01*
X86614326Y-77311744D01*
X86594540Y-77500000D01*
X86614326Y-77688256D01*
X86614327Y-77688259D01*
X86672818Y-77868277D01*
X86672821Y-77868284D01*
X86767467Y-78032216D01*
X86894128Y-78172887D01*
X86894129Y-78172888D01*
X87047265Y-78284148D01*
X87047267Y-78284149D01*
X87047270Y-78284151D01*
X87051271Y-78285932D01*
X87104508Y-78331183D01*
X87124828Y-78398033D01*
X87105782Y-78465256D01*
X87088515Y-78486892D01*
X83562226Y-82013181D01*
X83500903Y-82046666D01*
X83474545Y-82049500D01*
X82162129Y-82049500D01*
X82162123Y-82049501D01*
X82102516Y-82055908D01*
X81967671Y-82106202D01*
X81967664Y-82106206D01*
X81852455Y-82192452D01*
X81852452Y-82192455D01*
X81766206Y-82307664D01*
X81766202Y-82307671D01*
X81715908Y-82442517D01*
X81709501Y-82502116D01*
X81709500Y-82502135D01*
X81709500Y-84297870D01*
X81709501Y-84297876D01*
X81715908Y-84357483D01*
X81766202Y-84492328D01*
X81766206Y-84492335D01*
X81852452Y-84607544D01*
X81852455Y-84607547D01*
X81967664Y-84693793D01*
X81967671Y-84693797D01*
X82102517Y-84744091D01*
X82102516Y-84744091D01*
X82109444Y-84744835D01*
X82162127Y-84750500D01*
X83957872Y-84750499D01*
X84017483Y-84744091D01*
X84152331Y-84693796D01*
X84267546Y-84607546D01*
X84353796Y-84492331D01*
X84402810Y-84360916D01*
X84444681Y-84304984D01*
X84510145Y-84280566D01*
X84578418Y-84295417D01*
X84606673Y-84316569D01*
X84728599Y-84438495D01*
X84825384Y-84506265D01*
X84922165Y-84574032D01*
X84922167Y-84574033D01*
X84922170Y-84574035D01*
X85136337Y-84673903D01*
X85364592Y-84735063D01*
X85541034Y-84750500D01*
X85599999Y-84755659D01*
X85600000Y-84755659D01*
X85600001Y-84755659D01*
X85658966Y-84750500D01*
X85835408Y-84735063D01*
X86063663Y-84673903D01*
X86277830Y-84574035D01*
X86471401Y-84438495D01*
X86638495Y-84271401D01*
X86768426Y-84085840D01*
X86823001Y-84042217D01*
X86892499Y-84035023D01*
X86954854Y-84066546D01*
X86971574Y-84085841D01*
X87008223Y-84138181D01*
X87101505Y-84271401D01*
X87268599Y-84438495D01*
X87365384Y-84506265D01*
X87462165Y-84574032D01*
X87462167Y-84574033D01*
X87462170Y-84574035D01*
X87676337Y-84673903D01*
X87904592Y-84735063D01*
X88081034Y-84750500D01*
X88139999Y-84755659D01*
X88140000Y-84755659D01*
X88140001Y-84755659D01*
X88198966Y-84750500D01*
X88375408Y-84735063D01*
X88603663Y-84673903D01*
X88817830Y-84574035D01*
X89011401Y-84438495D01*
X89178495Y-84271401D01*
X89308426Y-84085840D01*
X89363001Y-84042217D01*
X89432499Y-84035023D01*
X89494854Y-84066546D01*
X89511574Y-84085841D01*
X89548223Y-84138181D01*
X89641505Y-84271401D01*
X89808599Y-84438495D01*
X89905384Y-84506264D01*
X90002165Y-84574032D01*
X90002167Y-84574033D01*
X90002170Y-84574035D01*
X90216337Y-84673903D01*
X90444592Y-84735063D01*
X90621034Y-84750500D01*
X90679999Y-84755659D01*
X90680000Y-84755659D01*
X90680001Y-84755659D01*
X90738966Y-84750500D01*
X90915408Y-84735063D01*
X91143663Y-84673903D01*
X91357830Y-84574035D01*
X91551401Y-84438495D01*
X91718495Y-84271401D01*
X91848426Y-84085840D01*
X91903001Y-84042217D01*
X91972499Y-84035023D01*
X92034854Y-84066546D01*
X92051574Y-84085841D01*
X92088223Y-84138181D01*
X92181505Y-84271401D01*
X92348599Y-84438495D01*
X92445384Y-84506264D01*
X92542165Y-84574032D01*
X92542167Y-84574033D01*
X92542170Y-84574035D01*
X92756337Y-84673903D01*
X92984592Y-84735063D01*
X93161034Y-84750500D01*
X93219999Y-84755659D01*
X93220000Y-84755659D01*
X93220001Y-84755659D01*
X93278966Y-84750500D01*
X93455408Y-84735063D01*
X93683663Y-84673903D01*
X93897830Y-84574035D01*
X94091401Y-84438495D01*
X94258495Y-84271401D01*
X94388426Y-84085840D01*
X94443001Y-84042217D01*
X94512499Y-84035023D01*
X94574854Y-84066546D01*
X94591574Y-84085841D01*
X94628223Y-84138181D01*
X94721505Y-84271401D01*
X94888599Y-84438495D01*
X94985384Y-84506264D01*
X95082165Y-84574032D01*
X95082167Y-84574033D01*
X95082170Y-84574035D01*
X95296337Y-84673903D01*
X95524592Y-84735063D01*
X95701034Y-84750500D01*
X95759999Y-84755659D01*
X95760000Y-84755659D01*
X95760001Y-84755659D01*
X95818966Y-84750500D01*
X95995408Y-84735063D01*
X96223663Y-84673903D01*
X96437830Y-84574035D01*
X96631401Y-84438495D01*
X96798495Y-84271401D01*
X96928426Y-84085840D01*
X96983001Y-84042217D01*
X97052499Y-84035023D01*
X97114854Y-84066546D01*
X97131574Y-84085841D01*
X97168223Y-84138181D01*
X97261505Y-84271401D01*
X97428599Y-84438495D01*
X97525384Y-84506264D01*
X97622165Y-84574032D01*
X97622167Y-84574033D01*
X97622170Y-84574035D01*
X97836337Y-84673903D01*
X98064592Y-84735063D01*
X98241034Y-84750500D01*
X98299999Y-84755659D01*
X98300000Y-84755659D01*
X98300001Y-84755659D01*
X98358966Y-84750500D01*
X98535408Y-84735063D01*
X98763663Y-84673903D01*
X98977830Y-84574035D01*
X99171401Y-84438495D01*
X99338495Y-84271401D01*
X99468730Y-84085405D01*
X99523307Y-84041781D01*
X99592805Y-84034587D01*
X99655160Y-84066110D01*
X99671879Y-84085405D01*
X99801890Y-84271078D01*
X99968917Y-84438105D01*
X100162421Y-84573600D01*
X100376507Y-84673429D01*
X100376516Y-84673433D01*
X100590000Y-84730634D01*
X100590000Y-83835501D01*
X100697685Y-83884680D01*
X100804237Y-83900000D01*
X100875763Y-83900000D01*
X100982315Y-83884680D01*
X101090000Y-83835501D01*
X101090000Y-84730633D01*
X101303483Y-84673433D01*
X101303492Y-84673429D01*
X101517578Y-84573600D01*
X101711082Y-84438105D01*
X101878105Y-84271082D01*
X102008119Y-84085405D01*
X102062696Y-84041781D01*
X102132195Y-84034588D01*
X102194549Y-84066110D01*
X102211269Y-84085405D01*
X102341505Y-84271401D01*
X102508599Y-84438495D01*
X102605384Y-84506264D01*
X102702165Y-84574032D01*
X102702167Y-84574033D01*
X102702170Y-84574035D01*
X102916337Y-84673903D01*
X103144592Y-84735063D01*
X103321034Y-84750500D01*
X103379999Y-84755659D01*
X103380000Y-84755659D01*
X103380001Y-84755659D01*
X103438966Y-84750500D01*
X103615408Y-84735063D01*
X103843663Y-84673903D01*
X104057830Y-84574035D01*
X104251401Y-84438495D01*
X104418495Y-84271401D01*
X104554035Y-84077830D01*
X104653903Y-83863663D01*
X104715063Y-83635408D01*
X104735659Y-83400000D01*
X104715063Y-83164592D01*
X104653903Y-82936337D01*
X104554035Y-82722171D01*
X104548731Y-82714595D01*
X104418494Y-82528597D01*
X104251402Y-82361506D01*
X104251395Y-82361501D01*
X104057834Y-82225967D01*
X104057830Y-82225965D01*
X104005500Y-82201563D01*
X103843663Y-82126097D01*
X103843659Y-82126096D01*
X103843655Y-82126094D01*
X103615413Y-82064938D01*
X103615403Y-82064936D01*
X103380001Y-82044341D01*
X103379999Y-82044341D01*
X103144596Y-82064936D01*
X103144586Y-82064938D01*
X102916344Y-82126094D01*
X102916335Y-82126098D01*
X102702171Y-82225964D01*
X102702169Y-82225965D01*
X102508597Y-82361505D01*
X102341508Y-82528594D01*
X102211269Y-82714595D01*
X102156692Y-82758219D01*
X102087193Y-82765412D01*
X102024839Y-82733890D01*
X102008119Y-82714594D01*
X101878113Y-82528926D01*
X101878108Y-82528920D01*
X101711082Y-82361894D01*
X101517578Y-82226399D01*
X101303492Y-82126570D01*
X101303486Y-82126567D01*
X101090000Y-82069364D01*
X101090000Y-82964498D01*
X100982315Y-82915320D01*
X100875763Y-82900000D01*
X100804237Y-82900000D01*
X100697685Y-82915320D01*
X100590000Y-82964498D01*
X100590000Y-82069364D01*
X100589999Y-82069364D01*
X100376513Y-82126567D01*
X100376507Y-82126570D01*
X100162422Y-82226399D01*
X100162420Y-82226400D01*
X99968926Y-82361886D01*
X99968920Y-82361891D01*
X99801891Y-82528920D01*
X99801890Y-82528922D01*
X99671880Y-82714595D01*
X99617303Y-82758219D01*
X99547804Y-82765412D01*
X99485450Y-82733890D01*
X99468730Y-82714594D01*
X99338494Y-82528597D01*
X99171402Y-82361506D01*
X99171401Y-82361505D01*
X99029783Y-82262343D01*
X98978376Y-82226347D01*
X98934751Y-82171770D01*
X98925500Y-82124772D01*
X98925500Y-78948000D01*
X100648000Y-78948000D01*
X100648000Y-80450000D01*
X102150000Y-80450000D01*
X102150000Y-80045974D01*
X101052026Y-78948000D01*
X100648000Y-78948000D01*
X98925500Y-78948000D01*
X98925500Y-76110451D01*
X98945185Y-76043412D01*
X98961814Y-76022775D01*
X100062819Y-74921769D01*
X100124142Y-74888285D01*
X100193834Y-74893269D01*
X100249767Y-74935141D01*
X100274184Y-75000605D01*
X100274500Y-75009451D01*
X100274500Y-76417255D01*
X100272775Y-76432872D01*
X100273061Y-76432899D01*
X100272326Y-76440665D01*
X100274500Y-76509814D01*
X100274500Y-76539343D01*
X100274501Y-76539360D01*
X100275368Y-76546231D01*
X100275826Y-76552050D01*
X100277290Y-76598624D01*
X100277291Y-76598627D01*
X100282880Y-76617867D01*
X100286824Y-76636911D01*
X100289336Y-76656791D01*
X100306490Y-76700119D01*
X100308382Y-76705647D01*
X100321381Y-76750388D01*
X100331580Y-76767634D01*
X100340138Y-76785103D01*
X100347514Y-76803732D01*
X100374898Y-76841423D01*
X100378106Y-76846307D01*
X100401827Y-76886416D01*
X100401833Y-76886424D01*
X100415990Y-76900580D01*
X100428628Y-76915376D01*
X100440405Y-76931586D01*
X100440406Y-76931587D01*
X100476309Y-76961288D01*
X100480620Y-76965210D01*
X103053591Y-79538181D01*
X105599194Y-82083784D01*
X105609019Y-82096048D01*
X105609240Y-82095866D01*
X105614210Y-82101873D01*
X105614213Y-82101876D01*
X105614214Y-82101877D01*
X105664651Y-82149241D01*
X105685530Y-82170120D01*
X105691004Y-82174366D01*
X105695442Y-82178156D01*
X105729418Y-82210062D01*
X105729422Y-82210064D01*
X105746973Y-82219713D01*
X105763231Y-82230392D01*
X105779064Y-82242674D01*
X105801015Y-82252172D01*
X105821837Y-82261183D01*
X105827081Y-82263752D01*
X105867908Y-82286197D01*
X105887312Y-82291179D01*
X105905710Y-82297478D01*
X105924105Y-82305438D01*
X105970129Y-82312726D01*
X105975832Y-82313907D01*
X106020981Y-82325500D01*
X106041016Y-82325500D01*
X106060413Y-82327026D01*
X106080196Y-82330160D01*
X106126583Y-82325775D01*
X106132422Y-82325500D01*
X106590948Y-82325500D01*
X106657987Y-82345185D01*
X106703742Y-82397989D01*
X106714237Y-82462756D01*
X106710000Y-82502155D01*
X106710000Y-82502172D01*
X106709999Y-83150000D01*
X107626314Y-83150000D01*
X107600507Y-83190156D01*
X107560000Y-83328111D01*
X107560000Y-83471889D01*
X107600507Y-83609844D01*
X107626314Y-83650000D01*
X106710000Y-83650000D01*
X106710000Y-84297844D01*
X106716401Y-84357372D01*
X106716403Y-84357379D01*
X106766645Y-84492086D01*
X106766649Y-84492093D01*
X106852809Y-84607187D01*
X106852812Y-84607190D01*
X106967906Y-84693350D01*
X106967913Y-84693354D01*
X107102620Y-84743596D01*
X107102627Y-84743598D01*
X107162155Y-84749999D01*
X107162172Y-84750000D01*
X107810000Y-84750000D01*
X107810000Y-83835501D01*
X107917685Y-83884680D01*
X108024237Y-83900000D01*
X108095763Y-83900000D01*
X108202315Y-83884680D01*
X108309999Y-83835501D01*
X108310000Y-84750000D01*
X108957828Y-84750000D01*
X108957844Y-84749999D01*
X109017372Y-84743598D01*
X109017379Y-84743596D01*
X109152086Y-84693354D01*
X109152093Y-84693350D01*
X109267187Y-84607190D01*
X109267190Y-84607187D01*
X109353350Y-84492093D01*
X109353354Y-84492086D01*
X109402422Y-84360529D01*
X109444293Y-84304595D01*
X109509757Y-84280178D01*
X109578030Y-84295030D01*
X109606285Y-84316181D01*
X109728599Y-84438495D01*
X109825384Y-84506264D01*
X109922165Y-84574032D01*
X109922167Y-84574033D01*
X109922170Y-84574035D01*
X110136337Y-84673903D01*
X110364592Y-84735063D01*
X110541034Y-84750500D01*
X110599999Y-84755659D01*
X110600000Y-84755659D01*
X110600001Y-84755659D01*
X110658966Y-84750500D01*
X110835408Y-84735063D01*
X110935873Y-84708143D01*
X111005722Y-84709806D01*
X111055647Y-84740237D01*
X111499197Y-85183788D01*
X111509022Y-85196051D01*
X111509243Y-85195869D01*
X111514214Y-85201878D01*
X111535043Y-85221437D01*
X111564635Y-85249226D01*
X111585529Y-85270120D01*
X111591011Y-85274373D01*
X111595443Y-85278157D01*
X111629418Y-85310062D01*
X111646976Y-85319714D01*
X111663233Y-85330393D01*
X111679064Y-85342673D01*
X111698737Y-85351186D01*
X111721833Y-85361182D01*
X111727077Y-85363750D01*
X111767908Y-85386197D01*
X111780523Y-85389435D01*
X111787305Y-85391177D01*
X111805719Y-85397481D01*
X111824104Y-85405438D01*
X111870157Y-85412732D01*
X111875826Y-85413906D01*
X111920981Y-85425500D01*
X111941016Y-85425500D01*
X111960413Y-85427026D01*
X111980196Y-85430160D01*
X112026583Y-85425775D01*
X112032422Y-85425500D01*
X119317257Y-85425500D01*
X119332877Y-85427224D01*
X119332904Y-85426939D01*
X119340660Y-85427671D01*
X119340667Y-85427673D01*
X119409814Y-85425500D01*
X119439350Y-85425500D01*
X119446228Y-85424630D01*
X119452041Y-85424172D01*
X119498627Y-85422709D01*
X119517869Y-85417117D01*
X119536912Y-85413174D01*
X119556792Y-85410664D01*
X119600122Y-85393507D01*
X119605646Y-85391617D01*
X119609396Y-85390527D01*
X119650390Y-85378618D01*
X119667629Y-85368422D01*
X119685103Y-85359862D01*
X119703727Y-85352488D01*
X119703727Y-85352487D01*
X119703732Y-85352486D01*
X119741449Y-85325082D01*
X119746305Y-85321892D01*
X119786420Y-85298170D01*
X119800589Y-85283999D01*
X119815379Y-85271368D01*
X119831587Y-85259594D01*
X119861299Y-85223676D01*
X119865212Y-85219376D01*
X123883786Y-81200802D01*
X123896048Y-81190980D01*
X123895865Y-81190759D01*
X123901867Y-81185792D01*
X123901877Y-81185786D01*
X123949241Y-81135348D01*
X123970120Y-81114470D01*
X123974373Y-81108986D01*
X123978150Y-81104563D01*
X124010062Y-81070582D01*
X124019714Y-81053023D01*
X124030389Y-81036772D01*
X124042674Y-81020936D01*
X124061186Y-80978152D01*
X124063742Y-80972935D01*
X124086197Y-80932092D01*
X124091180Y-80912680D01*
X124097477Y-80894291D01*
X124105438Y-80875895D01*
X124112729Y-80829853D01*
X124113908Y-80824162D01*
X124125500Y-80779019D01*
X124125500Y-80758982D01*
X124127027Y-80739582D01*
X124130160Y-80719804D01*
X124125775Y-80673415D01*
X124125500Y-80667577D01*
X124125500Y-77542742D01*
X124127224Y-77527122D01*
X124126939Y-77527096D01*
X124127671Y-77519340D01*
X124127673Y-77519333D01*
X124125500Y-77450185D01*
X124125500Y-77420650D01*
X124124631Y-77413772D01*
X124124172Y-77407943D01*
X124122709Y-77361372D01*
X124117122Y-77342144D01*
X124113174Y-77323084D01*
X124111742Y-77311744D01*
X124110664Y-77303208D01*
X124110663Y-77303206D01*
X124110663Y-77303204D01*
X124093512Y-77259887D01*
X124091619Y-77254358D01*
X124078618Y-77209609D01*
X124078616Y-77209606D01*
X124068423Y-77192371D01*
X124059861Y-77174894D01*
X124052487Y-77156270D01*
X124050272Y-77153221D01*
X124025079Y-77118545D01*
X124021888Y-77113686D01*
X123998172Y-77073583D01*
X123998165Y-77073574D01*
X123984006Y-77059415D01*
X123971368Y-77044619D01*
X123965351Y-77036337D01*
X123959594Y-77028413D01*
X123923688Y-76998709D01*
X123919376Y-76994786D01*
X122340237Y-75415646D01*
X122306752Y-75354324D01*
X122308143Y-75295872D01*
X122308724Y-75293704D01*
X122335063Y-75195408D01*
X122355659Y-74960000D01*
X122335063Y-74724592D01*
X122273903Y-74496337D01*
X122174035Y-74282171D01*
X122170210Y-74276709D01*
X122038496Y-74088600D01*
X121977595Y-74027699D01*
X121916179Y-73966283D01*
X121882696Y-73904963D01*
X121887680Y-73835271D01*
X121929551Y-73779337D01*
X121960529Y-73762422D01*
X122092086Y-73713354D01*
X122092093Y-73713350D01*
X122207187Y-73627190D01*
X122207190Y-73627187D01*
X122293350Y-73512093D01*
X122293354Y-73512086D01*
X122343596Y-73377379D01*
X122343598Y-73377372D01*
X122349999Y-73317844D01*
X122350000Y-73317827D01*
X122350000Y-72670000D01*
X121433686Y-72670000D01*
X121459493Y-72629844D01*
X121500000Y-72491889D01*
X121500000Y-72348111D01*
X121459493Y-72210156D01*
X121433686Y-72170000D01*
X122350000Y-72170000D01*
X122350000Y-71522172D01*
X122349999Y-71522155D01*
X122343598Y-71462627D01*
X122343596Y-71462620D01*
X122293354Y-71327913D01*
X122293350Y-71327906D01*
X122207190Y-71212812D01*
X122207187Y-71212809D01*
X122092093Y-71126649D01*
X122092086Y-71126645D01*
X121957379Y-71076403D01*
X121957372Y-71076401D01*
X121897844Y-71070000D01*
X121250000Y-71070000D01*
X121250000Y-71984498D01*
X121142315Y-71935320D01*
X121035763Y-71920000D01*
X120964237Y-71920000D01*
X120857685Y-71935320D01*
X120750000Y-71984498D01*
X120750000Y-71070000D01*
X120102155Y-71070000D01*
X120042627Y-71076401D01*
X120042620Y-71076403D01*
X119907913Y-71126645D01*
X119907906Y-71126649D01*
X119792812Y-71212809D01*
X119792809Y-71212812D01*
X119706649Y-71327906D01*
X119706645Y-71327913D01*
X119656403Y-71462620D01*
X119656401Y-71462627D01*
X119650000Y-71522155D01*
X119650000Y-72170000D01*
X120566314Y-72170000D01*
X120540507Y-72210156D01*
X120500000Y-72348111D01*
X120500000Y-72491889D01*
X120540507Y-72629844D01*
X120566314Y-72670000D01*
X119650000Y-72670000D01*
X119650000Y-73317844D01*
X119656401Y-73377372D01*
X119656403Y-73377379D01*
X119706645Y-73512086D01*
X119706649Y-73512093D01*
X119792809Y-73627187D01*
X119792812Y-73627190D01*
X119907906Y-73713350D01*
X119907913Y-73713354D01*
X120039470Y-73762421D01*
X120095403Y-73804292D01*
X120119821Y-73869756D01*
X120104970Y-73938029D01*
X120083819Y-73966284D01*
X119961501Y-74088603D01*
X119961498Y-74088606D01*
X119927526Y-74137124D01*
X119872949Y-74180749D01*
X119803450Y-74187941D01*
X119741096Y-74156418D01*
X119738271Y-74153681D01*
X117832083Y-72247493D01*
X116034591Y-70450000D01*
X118148000Y-70450000D01*
X119148670Y-70450000D01*
X119160965Y-70439346D01*
X119164412Y-70436569D01*
X119340139Y-70305018D01*
X119343776Y-70302493D01*
X119392567Y-70271136D01*
X119396375Y-70268876D01*
X119462851Y-70232577D01*
X119466809Y-70230596D01*
X119519573Y-70206499D01*
X119523664Y-70204804D01*
X119650000Y-70157684D01*
X119650000Y-70072000D01*
X120648000Y-70072000D01*
X120950546Y-70072000D01*
X120997999Y-70081439D01*
X120999999Y-70082267D01*
X121002003Y-70081438D01*
X121049454Y-70072000D01*
X121912834Y-70072000D01*
X121936198Y-70072625D01*
X121966201Y-70074231D01*
X121989563Y-70076111D01*
X122096994Y-70087662D01*
X122100830Y-70088196D01*
X122150000Y-70096613D01*
X122150000Y-69552933D01*
X122121537Y-69567750D01*
X121863083Y-69688269D01*
X121827867Y-69702857D01*
X121781850Y-69719609D01*
X121745449Y-69731086D01*
X121280315Y-69855716D01*
X121224031Y-69857558D01*
X120999999Y-69812995D01*
X120775970Y-69857558D01*
X120719685Y-69855716D01*
X120648000Y-69836508D01*
X120648000Y-70072000D01*
X119650000Y-70072000D01*
X119650000Y-69530725D01*
X119615607Y-69550580D01*
X119581788Y-69568185D01*
X119323256Y-69688742D01*
X119288039Y-69703329D01*
X119242023Y-69720081D01*
X119205623Y-69731558D01*
X118930053Y-69805395D01*
X118892811Y-69813651D01*
X118844587Y-69822154D01*
X118806779Y-69827131D01*
X118522593Y-69851995D01*
X118484486Y-69853659D01*
X118435514Y-69853659D01*
X118397407Y-69851995D01*
X118148000Y-69830173D01*
X118148000Y-70450000D01*
X116034591Y-70450000D01*
X115922271Y-70337680D01*
X115888786Y-70276357D01*
X115893770Y-70206665D01*
X115922271Y-70162318D01*
X116462731Y-69621858D01*
X117083787Y-69000802D01*
X117096042Y-68990986D01*
X117095859Y-68990764D01*
X117101866Y-68985792D01*
X117101877Y-68985786D01*
X117137360Y-68948000D01*
X117149227Y-68935364D01*
X117159671Y-68924918D01*
X117170120Y-68914471D01*
X117174379Y-68908978D01*
X117178152Y-68904561D01*
X117210062Y-68870582D01*
X117219715Y-68853020D01*
X117230389Y-68836770D01*
X117242673Y-68820936D01*
X117261180Y-68778167D01*
X117263749Y-68772924D01*
X117276777Y-68749226D01*
X117286197Y-68732092D01*
X117291177Y-68712691D01*
X117297478Y-68694288D01*
X117305438Y-68675896D01*
X117312730Y-68629849D01*
X117313911Y-68624152D01*
X117317008Y-68612091D01*
X117325500Y-68579019D01*
X117325500Y-68574758D01*
X117326444Y-68571541D01*
X117326478Y-68571276D01*
X117326520Y-68571281D01*
X117345185Y-68507719D01*
X117397989Y-68461964D01*
X117467147Y-68452020D01*
X117530703Y-68481045D01*
X117537180Y-68487076D01*
X117588599Y-68538495D01*
X117650122Y-68581574D01*
X117782165Y-68674032D01*
X117782167Y-68674033D01*
X117782170Y-68674035D01*
X117996337Y-68773903D01*
X117996343Y-68773904D01*
X117996344Y-68773905D01*
X118014262Y-68778706D01*
X118224592Y-68835063D01*
X118412918Y-68851539D01*
X118459999Y-68855659D01*
X118460000Y-68855659D01*
X118460001Y-68855659D01*
X118499234Y-68852226D01*
X118695408Y-68835063D01*
X118923663Y-68773903D01*
X119137830Y-68674035D01*
X119331401Y-68538495D01*
X119498495Y-68371401D01*
X119628730Y-68185405D01*
X119683307Y-68141781D01*
X119752805Y-68134587D01*
X119815160Y-68166110D01*
X119831879Y-68185405D01*
X119961890Y-68371078D01*
X120128917Y-68538105D01*
X120322421Y-68673600D01*
X120536507Y-68773429D01*
X120536516Y-68773433D01*
X120750000Y-68830634D01*
X120749999Y-67935501D01*
X120857685Y-67984680D01*
X120964237Y-68000000D01*
X121035763Y-68000000D01*
X121142315Y-67984680D01*
X121250000Y-67935501D01*
X121250000Y-68830633D01*
X121463483Y-68773433D01*
X121463492Y-68773429D01*
X121677578Y-68673600D01*
X121871082Y-68538105D01*
X122038105Y-68371082D01*
X122173600Y-68177578D01*
X122273429Y-67963492D01*
X122273432Y-67963486D01*
X122330636Y-67750000D01*
X121433686Y-67750000D01*
X121459493Y-67709844D01*
X121500000Y-67571889D01*
X121500000Y-67428111D01*
X121459493Y-67290156D01*
X121433686Y-67250000D01*
X122330636Y-67250000D01*
X122330635Y-67249999D01*
X122273432Y-67036513D01*
X122273429Y-67036507D01*
X122173600Y-66822422D01*
X122173599Y-66822420D01*
X122038113Y-66628926D01*
X122038108Y-66628920D01*
X121871078Y-66461890D01*
X121685405Y-66331879D01*
X121641780Y-66277302D01*
X121634588Y-66207804D01*
X121666110Y-66145449D01*
X121685406Y-66128730D01*
X121685842Y-66128425D01*
X121871401Y-65998495D01*
X122038495Y-65831401D01*
X122174035Y-65637830D01*
X122273903Y-65423663D01*
X122335063Y-65195408D01*
X122355659Y-64960000D01*
X122335063Y-64724592D01*
X122281093Y-64523170D01*
X122273905Y-64496344D01*
X122273904Y-64496343D01*
X122273903Y-64496337D01*
X122174035Y-64282171D01*
X122168425Y-64274158D01*
X122038494Y-64088597D01*
X121871402Y-63921506D01*
X121871401Y-63921505D01*
X121685842Y-63791575D01*
X121685841Y-63791574D01*
X121642216Y-63736997D01*
X121635024Y-63667498D01*
X121666546Y-63605144D01*
X121685836Y-63588428D01*
X121871401Y-63458495D01*
X122038495Y-63291401D01*
X122174035Y-63097830D01*
X122273903Y-62883663D01*
X122335063Y-62655408D01*
X122355659Y-62420000D01*
X122353617Y-62396666D01*
X122342058Y-62264547D01*
X122335063Y-62184592D01*
X122285602Y-62000000D01*
X122273905Y-61956344D01*
X122273904Y-61956343D01*
X122273903Y-61956337D01*
X122174035Y-61742171D01*
X122162518Y-61725722D01*
X122038494Y-61548597D01*
X121871402Y-61381506D01*
X121871395Y-61381501D01*
X121863290Y-61375826D01*
X121793720Y-61327112D01*
X121677834Y-61245967D01*
X121677830Y-61245965D01*
X121677829Y-61245965D01*
X121463663Y-61146097D01*
X121463659Y-61146096D01*
X121463655Y-61146094D01*
X121235413Y-61084938D01*
X121235403Y-61084936D01*
X121000001Y-61064341D01*
X120999999Y-61064341D01*
X120764590Y-61084937D01*
X120764589Y-61084937D01*
X120664124Y-61111855D01*
X120594274Y-61110191D01*
X120544352Y-61079761D01*
X120363193Y-60898602D01*
X120344142Y-60874041D01*
X120323174Y-60838585D01*
X120323165Y-60838574D01*
X120309006Y-60824415D01*
X120296368Y-60809619D01*
X120284594Y-60793413D01*
X120279518Y-60789214D01*
X120248688Y-60763709D01*
X120244376Y-60759786D01*
X119600803Y-60116212D01*
X119590980Y-60103950D01*
X119590759Y-60104134D01*
X119585786Y-60098123D01*
X119568883Y-60082250D01*
X119535364Y-60050773D01*
X119524919Y-60040328D01*
X119514475Y-60029883D01*
X119508986Y-60025625D01*
X119504561Y-60021847D01*
X119470582Y-59989938D01*
X119470580Y-59989936D01*
X119470577Y-59989935D01*
X119453029Y-59980288D01*
X119436763Y-59969604D01*
X119420933Y-59957325D01*
X119378168Y-59938818D01*
X119372922Y-59936248D01*
X119332093Y-59913803D01*
X119332092Y-59913802D01*
X119312693Y-59908822D01*
X119294281Y-59902518D01*
X119275898Y-59894562D01*
X119275892Y-59894560D01*
X119229874Y-59887272D01*
X119224152Y-59886087D01*
X119179021Y-59874500D01*
X119179019Y-59874500D01*
X119158984Y-59874500D01*
X119139586Y-59872973D01*
X119132162Y-59871797D01*
X119119805Y-59869840D01*
X119119804Y-59869840D01*
X119073416Y-59874225D01*
X119067578Y-59874500D01*
X118595831Y-59874500D01*
X118528792Y-59854815D01*
X118483037Y-59802011D01*
X118473093Y-59732853D01*
X118477900Y-59712182D01*
X118479645Y-59706811D01*
X118485674Y-59688256D01*
X118505460Y-59500000D01*
X118485674Y-59311744D01*
X118427179Y-59131716D01*
X118332533Y-58967784D01*
X118314719Y-58948000D01*
X120648000Y-58948000D01*
X120648000Y-59752025D01*
X120918841Y-60022867D01*
X120946411Y-60045674D01*
X120949333Y-60048250D01*
X120968905Y-60066629D01*
X120975514Y-60066341D01*
X121024486Y-60066341D01*
X121062593Y-60068005D01*
X121346779Y-60092869D01*
X121384587Y-60097846D01*
X121432811Y-60106349D01*
X121470053Y-60114605D01*
X121745623Y-60188442D01*
X121782023Y-60199919D01*
X121828039Y-60216671D01*
X121863256Y-60231258D01*
X122121788Y-60351815D01*
X122150000Y-60366501D01*
X122150000Y-58948000D01*
X120648000Y-58948000D01*
X118314719Y-58948000D01*
X118205871Y-58827112D01*
X118205870Y-58827111D01*
X118052734Y-58715851D01*
X118052729Y-58715848D01*
X117879807Y-58638857D01*
X117879802Y-58638855D01*
X117734001Y-58607865D01*
X117694646Y-58599500D01*
X117505354Y-58599500D01*
X117472897Y-58606398D01*
X117320197Y-58638855D01*
X117320192Y-58638857D01*
X117147270Y-58715848D01*
X117147265Y-58715851D01*
X116994129Y-58827111D01*
X116867466Y-58967785D01*
X116772821Y-59131715D01*
X116772818Y-59131722D01*
X116720540Y-59292618D01*
X116714326Y-59311744D01*
X116698375Y-59463509D01*
X116696679Y-59479649D01*
X116670094Y-59544263D01*
X116661039Y-59554368D01*
X115441208Y-60774199D01*
X115428951Y-60784020D01*
X115429134Y-60784241D01*
X115423123Y-60789213D01*
X115375772Y-60839636D01*
X115354889Y-60860519D01*
X115354877Y-60860532D01*
X115350621Y-60866017D01*
X115346837Y-60870447D01*
X115314937Y-60904418D01*
X115314936Y-60904420D01*
X115305284Y-60921976D01*
X115294610Y-60938226D01*
X115282329Y-60954061D01*
X115282324Y-60954068D01*
X115263815Y-60996838D01*
X115261245Y-61002084D01*
X115238803Y-61042906D01*
X115233822Y-61062307D01*
X115227521Y-61080710D01*
X115219562Y-61099102D01*
X115219561Y-61099105D01*
X115212271Y-61145127D01*
X115211087Y-61150846D01*
X115199501Y-61195972D01*
X115199500Y-61195982D01*
X115199500Y-61216016D01*
X115197973Y-61235415D01*
X115194840Y-61255194D01*
X115194840Y-61255195D01*
X115199225Y-61301583D01*
X115199500Y-61307421D01*
X115199499Y-62264547D01*
X115179814Y-62331587D01*
X115163180Y-62352228D01*
X114577228Y-62938181D01*
X114515905Y-62971666D01*
X114489547Y-62974500D01*
X113183896Y-62974500D01*
X113128555Y-62959360D01*
X113128095Y-62960425D01*
X113104004Y-62950000D01*
X113068241Y-62934524D01*
X113064723Y-62932868D01*
X113013565Y-62906802D01*
X113013560Y-62906800D01*
X113005587Y-62905018D01*
X112983396Y-62897807D01*
X112975896Y-62894562D01*
X112975894Y-62894561D01*
X112975893Y-62894561D01*
X112919196Y-62885582D01*
X112915370Y-62884852D01*
X112859331Y-62872326D01*
X112851158Y-62872583D01*
X112827877Y-62871118D01*
X112819806Y-62869840D01*
X112819802Y-62869840D01*
X112762655Y-62875241D01*
X112758768Y-62875486D01*
X112701372Y-62877289D01*
X112701371Y-62877290D01*
X112693508Y-62879574D01*
X112670596Y-62883944D01*
X112662472Y-62884712D01*
X112662468Y-62884712D01*
X112662467Y-62884713D01*
X112662464Y-62884713D01*
X112662460Y-62884715D01*
X112608461Y-62904154D01*
X112604761Y-62905357D01*
X112549613Y-62921381D01*
X112549605Y-62921384D01*
X112542568Y-62925546D01*
X112521468Y-62935474D01*
X112513772Y-62938245D01*
X112466274Y-62970523D01*
X112462987Y-62972609D01*
X112413577Y-63001831D01*
X112407798Y-63007610D01*
X112389825Y-63022479D01*
X112383065Y-63027073D01*
X112383060Y-63027077D01*
X112345081Y-63070155D01*
X112342415Y-63072993D01*
X110816208Y-64599199D01*
X110803951Y-64609020D01*
X110804134Y-64609241D01*
X110798123Y-64614213D01*
X110750772Y-64664636D01*
X110729889Y-64685519D01*
X110729877Y-64685532D01*
X110725621Y-64691017D01*
X110721837Y-64695447D01*
X110689937Y-64729418D01*
X110689936Y-64729420D01*
X110680284Y-64746976D01*
X110669610Y-64763226D01*
X110657329Y-64779061D01*
X110657324Y-64779068D01*
X110638815Y-64821838D01*
X110636245Y-64827084D01*
X110613803Y-64867906D01*
X110608822Y-64887307D01*
X110602521Y-64905710D01*
X110594562Y-64924102D01*
X110594561Y-64924105D01*
X110587271Y-64970127D01*
X110586087Y-64975846D01*
X110574501Y-65020972D01*
X110574500Y-65020982D01*
X110574500Y-65041016D01*
X110572973Y-65060415D01*
X110569840Y-65080194D01*
X110569840Y-65080195D01*
X110574225Y-65126583D01*
X110574500Y-65132421D01*
X110574500Y-66389547D01*
X110554815Y-66456586D01*
X110538181Y-66477228D01*
X109777228Y-67238181D01*
X109715905Y-67271666D01*
X109689547Y-67274500D01*
X108957433Y-67274500D01*
X108941816Y-67272776D01*
X108941789Y-67273062D01*
X108934027Y-67272327D01*
X108864899Y-67274500D01*
X108835345Y-67274500D01*
X108834624Y-67274590D01*
X108828452Y-67275369D01*
X108822640Y-67275826D01*
X108776068Y-67277290D01*
X108776067Y-67277290D01*
X108756824Y-67282881D01*
X108737774Y-67286825D01*
X108717906Y-67289334D01*
X108717904Y-67289335D01*
X108674579Y-67306488D01*
X108669052Y-67308380D01*
X108624305Y-67321381D01*
X108624304Y-67321382D01*
X108607062Y-67331579D01*
X108589594Y-67340137D01*
X108570964Y-67347513D01*
X108570962Y-67347514D01*
X108533271Y-67374898D01*
X108528389Y-67378105D01*
X108488274Y-67401830D01*
X108474103Y-67416000D01*
X108459318Y-67428628D01*
X108443107Y-67440407D01*
X108413404Y-67476310D01*
X108409472Y-67480631D01*
X106391208Y-69498894D01*
X106378951Y-69508715D01*
X106379134Y-69508936D01*
X106373123Y-69513908D01*
X106325772Y-69564331D01*
X106304889Y-69585214D01*
X106304877Y-69585227D01*
X106300621Y-69590712D01*
X106296837Y-69595142D01*
X106264937Y-69629113D01*
X106264936Y-69629115D01*
X106255284Y-69646671D01*
X106244610Y-69662921D01*
X106232329Y-69678756D01*
X106232324Y-69678763D01*
X106213815Y-69721533D01*
X106211245Y-69726779D01*
X106188803Y-69767601D01*
X106183822Y-69787002D01*
X106177521Y-69805405D01*
X106169562Y-69823797D01*
X106169561Y-69823801D01*
X106162271Y-69869822D01*
X106161087Y-69875541D01*
X106149499Y-69920678D01*
X106149499Y-69940714D01*
X106147973Y-69960102D01*
X106144840Y-69979887D01*
X106144840Y-69979890D01*
X106144840Y-69979891D01*
X106145243Y-69984151D01*
X106149225Y-70026278D01*
X106149500Y-70032116D01*
X106149500Y-71714546D01*
X106129815Y-71781585D01*
X106113182Y-71802226D01*
X106077229Y-71838180D01*
X106015907Y-71871666D01*
X105989547Y-71874500D01*
X105903748Y-71874500D01*
X105836709Y-71854815D01*
X105811600Y-71833474D01*
X105805873Y-71827114D01*
X105805869Y-71827110D01*
X105652734Y-71715851D01*
X105652729Y-71715848D01*
X105479807Y-71638857D01*
X105479802Y-71638855D01*
X105334001Y-71607865D01*
X105294646Y-71599500D01*
X105105354Y-71599500D01*
X105072897Y-71606398D01*
X104920197Y-71638855D01*
X104920192Y-71638857D01*
X104747270Y-71715848D01*
X104747265Y-71715851D01*
X104594129Y-71827111D01*
X104467466Y-71967785D01*
X104372821Y-72131715D01*
X104372818Y-72131722D01*
X104314796Y-72310297D01*
X104314326Y-72311744D01*
X104294540Y-72500000D01*
X104314326Y-72688256D01*
X104314327Y-72688259D01*
X104372818Y-72868277D01*
X104372821Y-72868284D01*
X104467467Y-73032216D01*
X104588401Y-73166526D01*
X104594129Y-73172888D01*
X104747265Y-73284148D01*
X104747270Y-73284151D01*
X104920192Y-73361142D01*
X104920197Y-73361144D01*
X105105354Y-73400500D01*
X105105355Y-73400500D01*
X105294644Y-73400500D01*
X105294646Y-73400500D01*
X105479803Y-73361144D01*
X105652730Y-73284151D01*
X105805871Y-73172888D01*
X105808788Y-73169647D01*
X105811600Y-73166526D01*
X105871087Y-73129879D01*
X105903748Y-73125500D01*
X106217257Y-73125500D01*
X106232877Y-73127224D01*
X106232904Y-73126939D01*
X106240660Y-73127671D01*
X106240667Y-73127673D01*
X106309814Y-73125500D01*
X106339350Y-73125500D01*
X106346228Y-73124630D01*
X106352041Y-73124172D01*
X106398627Y-73122709D01*
X106417869Y-73117117D01*
X106436912Y-73113174D01*
X106456792Y-73110664D01*
X106500122Y-73093507D01*
X106505646Y-73091617D01*
X106509396Y-73090527D01*
X106550390Y-73078618D01*
X106567629Y-73068422D01*
X106585103Y-73059862D01*
X106603727Y-73052488D01*
X106603727Y-73052487D01*
X106603732Y-73052486D01*
X106641449Y-73025082D01*
X106646305Y-73021892D01*
X106686420Y-72998170D01*
X106700589Y-72983999D01*
X106715379Y-72971368D01*
X106731587Y-72959594D01*
X106761299Y-72923676D01*
X106765212Y-72919376D01*
X107158785Y-72525803D01*
X107171041Y-72515987D01*
X107170858Y-72515765D01*
X107176875Y-72510787D01*
X107176874Y-72510787D01*
X107176877Y-72510786D01*
X107209253Y-72476309D01*
X107224227Y-72460364D01*
X107234671Y-72449918D01*
X107245120Y-72439471D01*
X107249379Y-72433978D01*
X107253152Y-72429561D01*
X107285062Y-72395582D01*
X107294713Y-72378024D01*
X107305396Y-72361761D01*
X107317673Y-72345936D01*
X107336185Y-72303153D01*
X107338738Y-72297941D01*
X107361197Y-72257092D01*
X107366180Y-72237680D01*
X107372481Y-72219280D01*
X107380437Y-72200896D01*
X107387729Y-72154852D01*
X107388906Y-72149171D01*
X107400500Y-72104019D01*
X107400500Y-72083982D01*
X107402027Y-72064582D01*
X107402687Y-72060415D01*
X107405160Y-72044804D01*
X107400985Y-72000641D01*
X107400775Y-71998415D01*
X107400500Y-71992577D01*
X107400500Y-71384452D01*
X107420185Y-71317413D01*
X107472989Y-71271658D01*
X107542147Y-71261714D01*
X107605703Y-71290739D01*
X107612180Y-71296770D01*
X109265409Y-72950000D01*
X110899197Y-74583788D01*
X110909022Y-74596051D01*
X110909243Y-74595869D01*
X110914214Y-74601878D01*
X110936585Y-74622885D01*
X110964635Y-74649226D01*
X110985529Y-74670120D01*
X110991011Y-74674373D01*
X110995443Y-74678157D01*
X111029418Y-74710062D01*
X111046976Y-74719714D01*
X111063233Y-74730393D01*
X111079064Y-74742673D01*
X111098737Y-74751186D01*
X111121833Y-74761182D01*
X111127077Y-74763750D01*
X111167908Y-74786197D01*
X111180523Y-74789435D01*
X111187305Y-74791177D01*
X111205719Y-74797481D01*
X111224104Y-74805438D01*
X111270157Y-74812732D01*
X111275826Y-74813906D01*
X111320981Y-74825500D01*
X111341016Y-74825500D01*
X111360413Y-74827026D01*
X111380196Y-74830160D01*
X111426583Y-74825775D01*
X111432422Y-74825500D01*
X113696252Y-74825500D01*
X113763291Y-74845185D01*
X113788400Y-74866526D01*
X113794126Y-74872885D01*
X113794130Y-74872889D01*
X113947265Y-74984148D01*
X113947270Y-74984151D01*
X114120192Y-75061142D01*
X114120197Y-75061144D01*
X114305354Y-75100500D01*
X114305355Y-75100500D01*
X114494644Y-75100500D01*
X114494646Y-75100500D01*
X114679803Y-75061144D01*
X114852730Y-74984151D01*
X115005871Y-74872888D01*
X115132533Y-74732216D01*
X115227179Y-74568284D01*
X115285674Y-74388256D01*
X115305460Y-74200000D01*
X115285674Y-74011744D01*
X115227179Y-73831716D01*
X115132533Y-73667784D01*
X115005871Y-73527112D01*
X115005870Y-73527111D01*
X114852734Y-73415851D01*
X114852729Y-73415848D01*
X114679807Y-73338857D01*
X114679802Y-73338855D01*
X114534000Y-73307865D01*
X114494646Y-73299500D01*
X114305354Y-73299500D01*
X114272897Y-73306398D01*
X114120197Y-73338855D01*
X114120192Y-73338857D01*
X113947270Y-73415848D01*
X113947265Y-73415851D01*
X113794130Y-73527110D01*
X113794126Y-73527114D01*
X113788400Y-73533474D01*
X113728913Y-73570121D01*
X113696252Y-73574500D01*
X111710452Y-73574500D01*
X111643413Y-73554815D01*
X111622771Y-73538181D01*
X109532591Y-71448000D01*
X110943975Y-71448000D01*
X112072474Y-72576500D01*
X112150000Y-72576500D01*
X112150000Y-71448000D01*
X113148000Y-71448000D01*
X113148000Y-72576500D01*
X113407036Y-72576500D01*
X113421484Y-72567118D01*
X113424252Y-72565422D01*
X113472336Y-72537662D01*
X113475190Y-72536113D01*
X113513062Y-72516818D01*
X113515990Y-72515421D01*
X113739633Y-72415847D01*
X113742633Y-72414604D01*
X113782346Y-72399359D01*
X113785409Y-72398275D01*
X113838217Y-72381118D01*
X113841328Y-72380197D01*
X113882396Y-72369193D01*
X113885553Y-72368435D01*
X114125008Y-72317538D01*
X114128200Y-72316947D01*
X114170184Y-72310297D01*
X114173399Y-72309874D01*
X114228615Y-72304067D01*
X114231854Y-72303812D01*
X114274338Y-72301585D01*
X114277584Y-72301500D01*
X114522416Y-72301500D01*
X114525662Y-72301585D01*
X114568146Y-72303812D01*
X114571385Y-72304067D01*
X114626601Y-72309874D01*
X114629816Y-72310297D01*
X114650000Y-72313494D01*
X114650000Y-72245974D01*
X114449097Y-72045071D01*
X114385553Y-72031565D01*
X114382396Y-72030807D01*
X114341328Y-72019803D01*
X114338217Y-72018882D01*
X114285409Y-72001725D01*
X114282346Y-72000641D01*
X114242633Y-71985396D01*
X114239633Y-71984153D01*
X114015990Y-71884579D01*
X114013062Y-71883182D01*
X113975190Y-71863887D01*
X113972336Y-71862338D01*
X113924252Y-71834578D01*
X113921484Y-71832882D01*
X113885804Y-71809713D01*
X113883127Y-71807873D01*
X113685060Y-71663970D01*
X113682483Y-71661993D01*
X113649438Y-71635232D01*
X113646971Y-71633125D01*
X113605710Y-71595975D01*
X113603355Y-71593739D01*
X113573283Y-71563667D01*
X113571048Y-71561313D01*
X113469021Y-71448000D01*
X113148000Y-71448000D01*
X112150000Y-71448000D01*
X110943975Y-71448000D01*
X109532591Y-71448000D01*
X108948827Y-70864236D01*
X108915342Y-70802913D01*
X108920326Y-70733221D01*
X108962198Y-70677288D01*
X108963623Y-70676237D01*
X108980514Y-70663964D01*
X109105871Y-70572888D01*
X109108788Y-70569647D01*
X109111600Y-70566526D01*
X109171087Y-70529879D01*
X109203748Y-70525500D01*
X110317257Y-70525500D01*
X110332877Y-70527224D01*
X110332904Y-70526939D01*
X110340660Y-70527671D01*
X110340667Y-70527673D01*
X110409814Y-70525500D01*
X110439350Y-70525500D01*
X110446228Y-70524630D01*
X110452041Y-70524172D01*
X110498627Y-70522709D01*
X110517869Y-70517117D01*
X110536912Y-70513174D01*
X110556792Y-70510664D01*
X110600122Y-70493507D01*
X110605646Y-70491617D01*
X110609396Y-70490527D01*
X110650390Y-70478618D01*
X110667629Y-70468422D01*
X110685103Y-70459862D01*
X110703727Y-70452488D01*
X110703727Y-70452487D01*
X110703732Y-70452486D01*
X110741449Y-70425082D01*
X110746305Y-70421892D01*
X110786420Y-70398170D01*
X110800589Y-70383999D01*
X110815379Y-70371368D01*
X110831587Y-70359594D01*
X110861299Y-70323676D01*
X110865212Y-70319376D01*
X115862821Y-65321768D01*
X115924142Y-65288285D01*
X115993834Y-65293269D01*
X116049767Y-65335141D01*
X116074184Y-65400605D01*
X116074500Y-65409451D01*
X116074500Y-68189546D01*
X116054815Y-68256585D01*
X116038181Y-68277227D01*
X115052227Y-69263181D01*
X114990904Y-69296666D01*
X114964546Y-69299500D01*
X114805354Y-69299500D01*
X114787820Y-69303227D01*
X114620197Y-69338855D01*
X114620192Y-69338857D01*
X114447270Y-69415848D01*
X114447265Y-69415851D01*
X114294129Y-69527111D01*
X114167466Y-69667785D01*
X114072821Y-69831715D01*
X114072818Y-69831722D01*
X114014327Y-70011740D01*
X114014326Y-70011744D01*
X113994540Y-70200000D01*
X114014326Y-70388256D01*
X114014327Y-70388259D01*
X114072818Y-70568277D01*
X114072821Y-70568284D01*
X114167467Y-70732216D01*
X114214227Y-70784148D01*
X114294129Y-70872888D01*
X114447265Y-70984148D01*
X114447270Y-70984151D01*
X114620192Y-71061142D01*
X114620197Y-71061144D01*
X114805354Y-71100500D01*
X114864548Y-71100500D01*
X114931587Y-71120185D01*
X114952229Y-71136819D01*
X119159194Y-75343784D01*
X119169019Y-75356048D01*
X119169240Y-75355866D01*
X119174210Y-75361873D01*
X119174213Y-75361876D01*
X119174214Y-75361877D01*
X119224651Y-75409241D01*
X119245530Y-75430120D01*
X119251004Y-75434366D01*
X119255442Y-75438156D01*
X119289418Y-75470062D01*
X119289422Y-75470064D01*
X119306973Y-75479713D01*
X119323231Y-75490392D01*
X119339064Y-75502674D01*
X119361015Y-75512172D01*
X119381837Y-75521183D01*
X119387081Y-75523752D01*
X119427908Y-75546197D01*
X119447312Y-75551179D01*
X119465710Y-75557478D01*
X119484105Y-75565438D01*
X119530129Y-75572726D01*
X119535832Y-75573907D01*
X119580981Y-75585500D01*
X119601016Y-75585500D01*
X119620413Y-75587026D01*
X119640196Y-75590160D01*
X119686583Y-75585775D01*
X119692422Y-75585500D01*
X119724773Y-75585500D01*
X119791812Y-75605185D01*
X119826348Y-75638377D01*
X119961501Y-75831396D01*
X119961506Y-75831402D01*
X120128597Y-75998493D01*
X120128603Y-75998498D01*
X120314158Y-76128425D01*
X120357783Y-76183002D01*
X120364977Y-76252500D01*
X120333454Y-76314855D01*
X120314158Y-76331575D01*
X120128597Y-76461505D01*
X119961505Y-76628597D01*
X119825965Y-76822169D01*
X119825964Y-76822171D01*
X119726098Y-77036335D01*
X119726094Y-77036344D01*
X119664938Y-77264586D01*
X119664936Y-77264596D01*
X119644341Y-77499999D01*
X119644341Y-77500000D01*
X119664936Y-77735403D01*
X119664938Y-77735413D01*
X119726094Y-77963655D01*
X119726096Y-77963659D01*
X119726097Y-77963663D01*
X119748516Y-78011740D01*
X119825965Y-78177830D01*
X119825967Y-78177834D01*
X119961501Y-78371395D01*
X119961506Y-78371402D01*
X120128597Y-78538493D01*
X120128603Y-78538498D01*
X120314158Y-78668425D01*
X120357783Y-78723002D01*
X120364977Y-78792500D01*
X120333454Y-78854855D01*
X120314158Y-78871575D01*
X120128597Y-79001505D01*
X119961505Y-79168597D01*
X119825965Y-79362169D01*
X119825964Y-79362171D01*
X119726098Y-79576335D01*
X119726094Y-79576344D01*
X119664938Y-79804586D01*
X119664936Y-79804596D01*
X119644341Y-80039999D01*
X119644341Y-80040000D01*
X119664936Y-80275403D01*
X119664938Y-80275413D01*
X119726094Y-80503655D01*
X119726096Y-80503659D01*
X119726097Y-80503663D01*
X119803898Y-80670507D01*
X119825965Y-80717830D01*
X119825967Y-80717834D01*
X119901356Y-80825500D01*
X119961505Y-80911401D01*
X120128599Y-81078495D01*
X120214749Y-81138818D01*
X120322165Y-81214032D01*
X120322167Y-81214033D01*
X120322170Y-81214035D01*
X120536337Y-81313903D01*
X120764592Y-81375063D01*
X120952918Y-81391539D01*
X120999999Y-81395659D01*
X121000000Y-81395659D01*
X121000001Y-81395659D01*
X121039234Y-81392226D01*
X121235408Y-81375063D01*
X121463663Y-81313903D01*
X121677830Y-81214035D01*
X121871401Y-81078495D01*
X122038495Y-80911401D01*
X122174035Y-80717830D01*
X122273903Y-80503663D01*
X122335063Y-80275408D01*
X122355659Y-80040000D01*
X122335063Y-79804592D01*
X122276710Y-79586814D01*
X122273905Y-79576344D01*
X122273904Y-79576343D01*
X122273903Y-79576337D01*
X122174035Y-79362171D01*
X122170574Y-79357227D01*
X122038494Y-79168597D01*
X121871402Y-79001506D01*
X121871396Y-79001501D01*
X121685842Y-78871575D01*
X121642217Y-78816998D01*
X121635023Y-78747500D01*
X121666546Y-78685145D01*
X121685842Y-78668425D01*
X121708026Y-78652891D01*
X121871401Y-78538495D01*
X122038495Y-78371401D01*
X122174035Y-78177830D01*
X122273903Y-77963663D01*
X122335063Y-77735408D01*
X122355659Y-77500000D01*
X122355658Y-77499988D01*
X122355658Y-77499632D01*
X122355705Y-77499470D01*
X122356131Y-77494606D01*
X122357107Y-77494691D01*
X122375331Y-77432590D01*
X122428127Y-77386826D01*
X122497284Y-77376870D01*
X122560845Y-77405884D01*
X122567339Y-77411930D01*
X122838181Y-77682771D01*
X122871666Y-77744094D01*
X122874500Y-77770452D01*
X122874500Y-80389547D01*
X122854815Y-80456586D01*
X122838181Y-80477228D01*
X119177228Y-84138181D01*
X119115905Y-84171666D01*
X119089547Y-84174500D01*
X117003598Y-84174500D01*
X116936559Y-84154815D01*
X116890804Y-84102011D01*
X116880860Y-84032853D01*
X116891216Y-83998095D01*
X116953903Y-83863663D01*
X117015063Y-83635408D01*
X117035659Y-83400000D01*
X117015063Y-83164592D01*
X116953903Y-82936337D01*
X116854035Y-82722171D01*
X116848731Y-82714595D01*
X116718494Y-82528597D01*
X116551402Y-82361506D01*
X116551395Y-82361501D01*
X116357834Y-82225967D01*
X116357830Y-82225965D01*
X116305500Y-82201563D01*
X116143663Y-82126097D01*
X116143659Y-82126096D01*
X116143655Y-82126094D01*
X115915413Y-82064938D01*
X115915403Y-82064936D01*
X115680001Y-82044341D01*
X115679999Y-82044341D01*
X115444590Y-82064937D01*
X115444589Y-82064937D01*
X115344124Y-82091855D01*
X115274274Y-82090191D01*
X115224352Y-82059761D01*
X114612591Y-81448000D01*
X118148000Y-81448000D01*
X118148000Y-82950000D01*
X118954025Y-82950000D01*
X119649999Y-82254024D01*
X119650000Y-81961709D01*
X119536105Y-81881959D01*
X119505830Y-81858727D01*
X119468319Y-81827248D01*
X119440213Y-81801495D01*
X119238505Y-81599787D01*
X119212752Y-81571681D01*
X119181273Y-81534170D01*
X119158041Y-81503895D01*
X119118903Y-81448000D01*
X118148000Y-81448000D01*
X114612591Y-81448000D01*
X112980803Y-79816212D01*
X112970980Y-79803950D01*
X112970759Y-79804134D01*
X112965786Y-79798123D01*
X112915364Y-79750773D01*
X112904919Y-79740328D01*
X112894475Y-79729883D01*
X112888986Y-79725625D01*
X112884561Y-79721847D01*
X112850582Y-79689938D01*
X112850580Y-79689936D01*
X112850577Y-79689935D01*
X112833029Y-79680288D01*
X112816763Y-79669604D01*
X112800933Y-79657325D01*
X112758168Y-79638818D01*
X112752922Y-79636248D01*
X112712093Y-79613803D01*
X112712092Y-79613802D01*
X112692693Y-79608822D01*
X112674281Y-79602518D01*
X112655898Y-79594562D01*
X112655892Y-79594560D01*
X112609874Y-79587272D01*
X112604152Y-79586087D01*
X112559021Y-79574500D01*
X112559019Y-79574500D01*
X112538984Y-79574500D01*
X112519586Y-79572973D01*
X112512162Y-79571797D01*
X112499805Y-79569840D01*
X112499804Y-79569840D01*
X112453416Y-79574225D01*
X112447578Y-79574500D01*
X106810452Y-79574500D01*
X106743413Y-79554815D01*
X106722771Y-79538181D01*
X106414612Y-79230022D01*
X106381127Y-79168699D01*
X106386111Y-79099007D01*
X106427983Y-79043074D01*
X106451846Y-79029067D01*
X106552730Y-78984151D01*
X106602488Y-78948000D01*
X113518397Y-78948000D01*
X113544060Y-78972099D01*
X113567679Y-78992922D01*
X113587710Y-79011733D01*
X113609978Y-79034002D01*
X113673255Y-79093422D01*
X113676010Y-79096178D01*
X113710951Y-79133386D01*
X113713527Y-79136309D01*
X113719479Y-79143504D01*
X114650000Y-80074025D01*
X114650000Y-78948000D01*
X115648000Y-78948000D01*
X115648000Y-80450000D01*
X117150000Y-80450000D01*
X117150000Y-78948000D01*
X118148000Y-78948000D01*
X118148000Y-80450000D01*
X118682327Y-80450000D01*
X118677846Y-80424587D01*
X118672869Y-80386779D01*
X118648005Y-80102593D01*
X118646341Y-80064486D01*
X118646341Y-80015514D01*
X118648005Y-79977407D01*
X118672869Y-79693221D01*
X118677846Y-79655413D01*
X118686349Y-79607189D01*
X118694605Y-79569947D01*
X118768442Y-79294377D01*
X118779919Y-79257977D01*
X118796671Y-79211961D01*
X118811258Y-79176744D01*
X118917925Y-78948000D01*
X118148000Y-78948000D01*
X117150000Y-78948000D01*
X115648000Y-78948000D01*
X114650000Y-78948000D01*
X113518397Y-78948000D01*
X106602488Y-78948000D01*
X106705871Y-78872888D01*
X106832533Y-78732216D01*
X106927179Y-78568284D01*
X106985674Y-78388256D01*
X107005460Y-78200000D01*
X106985674Y-78011744D01*
X106927179Y-77831716D01*
X106832533Y-77667784D01*
X106757350Y-77584284D01*
X106727120Y-77521292D01*
X106725500Y-77501312D01*
X106725500Y-76448000D01*
X108148000Y-76448000D01*
X108148000Y-77950000D01*
X109650000Y-77950000D01*
X109650000Y-76448000D01*
X110648000Y-76448000D01*
X110648000Y-77950000D01*
X112150000Y-77950000D01*
X112150000Y-77281508D01*
X112147414Y-77281025D01*
X112125404Y-77274763D01*
X111918028Y-77194425D01*
X111897544Y-77184225D01*
X111852000Y-77156025D01*
X113147999Y-77156025D01*
X113148000Y-77950000D01*
X114650000Y-77950000D01*
X114650000Y-76448000D01*
X115648000Y-76448000D01*
X115648000Y-77950000D01*
X117150000Y-77950000D01*
X117150000Y-76448000D01*
X118148000Y-76448000D01*
X118148000Y-77950000D01*
X118690160Y-77950000D01*
X118686349Y-77932811D01*
X118677846Y-77884587D01*
X118672869Y-77846779D01*
X118648005Y-77562593D01*
X118646341Y-77524486D01*
X118646341Y-77475514D01*
X118648005Y-77437407D01*
X118672869Y-77153221D01*
X118677846Y-77115413D01*
X118686349Y-77067189D01*
X118694605Y-77029947D01*
X118768442Y-76754377D01*
X118779919Y-76717977D01*
X118796671Y-76671961D01*
X118811258Y-76636744D01*
X118899272Y-76448000D01*
X118148000Y-76448000D01*
X117150000Y-76448000D01*
X115648000Y-76448000D01*
X114650000Y-76448000D01*
X113749082Y-76448000D01*
X113743027Y-76469281D01*
X113734761Y-76490619D01*
X113635632Y-76689697D01*
X113623586Y-76709152D01*
X113489564Y-76886625D01*
X113474148Y-76903535D01*
X113309798Y-77053360D01*
X113291538Y-77067150D01*
X113147999Y-77156025D01*
X111852000Y-77156025D01*
X111708462Y-77067150D01*
X111690202Y-77053360D01*
X111525852Y-76903535D01*
X111510436Y-76886625D01*
X111376414Y-76709152D01*
X111364368Y-76689697D01*
X111265239Y-76490619D01*
X111256973Y-76469281D01*
X111250918Y-76448000D01*
X110648000Y-76448000D01*
X109650000Y-76448000D01*
X108148000Y-76448000D01*
X106725500Y-76448000D01*
X106725500Y-76382737D01*
X106727224Y-76367123D01*
X106726938Y-76367096D01*
X106727672Y-76359333D01*
X106725500Y-76290203D01*
X106725500Y-76260651D01*
X106725500Y-76260650D01*
X106724629Y-76253759D01*
X106724172Y-76247945D01*
X106723608Y-76230000D01*
X106722709Y-76201373D01*
X106717121Y-76182139D01*
X106713174Y-76163081D01*
X106710664Y-76143208D01*
X106693507Y-76099875D01*
X106691614Y-76094346D01*
X106678618Y-76049614D01*
X106678617Y-76049610D01*
X106668420Y-76032368D01*
X106659863Y-76014902D01*
X106652486Y-75996268D01*
X106625083Y-75958550D01*
X106621900Y-75953705D01*
X106598170Y-75913579D01*
X106598165Y-75913573D01*
X106584005Y-75899413D01*
X106571370Y-75884620D01*
X106559593Y-75868412D01*
X106523693Y-75838713D01*
X106519381Y-75834790D01*
X104810408Y-74125817D01*
X106221792Y-74125817D01*
X107150000Y-75054025D01*
X107150000Y-73948000D01*
X108148000Y-73948000D01*
X108148000Y-75450000D01*
X109650000Y-75450000D01*
X115829178Y-75450000D01*
X117150000Y-75450000D01*
X117150000Y-74745973D01*
X116352026Y-73948000D01*
X116282471Y-73948000D01*
X116300894Y-74123291D01*
X116301149Y-74126527D01*
X116303375Y-74168994D01*
X116303460Y-74172240D01*
X116303460Y-74227760D01*
X116303375Y-74231006D01*
X116301149Y-74273473D01*
X116300894Y-74276709D01*
X116275305Y-74520177D01*
X116274881Y-74523395D01*
X116268232Y-74565384D01*
X116267641Y-74568574D01*
X116256099Y-74622885D01*
X116255341Y-74626043D01*
X116244331Y-74667133D01*
X116243409Y-74670247D01*
X116167751Y-74903097D01*
X116166667Y-74906159D01*
X116151417Y-74945881D01*
X116150174Y-74948881D01*
X116127589Y-74999602D01*
X116126192Y-75002531D01*
X116106896Y-75040398D01*
X116105348Y-75043250D01*
X115982945Y-75255261D01*
X115981248Y-75258029D01*
X115958080Y-75293704D01*
X115956240Y-75296381D01*
X115923603Y-75341299D01*
X115921627Y-75343874D01*
X115894870Y-75376915D01*
X115892763Y-75379382D01*
X115829178Y-75450000D01*
X109650000Y-75450000D01*
X109650000Y-74745975D01*
X108852025Y-73948000D01*
X108148000Y-73948000D01*
X107150000Y-73948000D01*
X107045180Y-73948000D01*
X107016054Y-73961706D01*
X106980852Y-73979644D01*
X106977323Y-73981305D01*
X106916154Y-74007774D01*
X106912532Y-74009208D01*
X106864515Y-74026495D01*
X106860809Y-74027699D01*
X106826466Y-74037675D01*
X106793206Y-74050845D01*
X106789540Y-74052165D01*
X106740996Y-74067938D01*
X106737253Y-74069025D01*
X106672690Y-74085601D01*
X106668885Y-74086452D01*
X106630034Y-74093860D01*
X106591540Y-74102469D01*
X106587711Y-74103199D01*
X106521872Y-74113631D01*
X106518003Y-74114120D01*
X106467164Y-74118926D01*
X106463273Y-74119171D01*
X106415843Y-74120659D01*
X106384458Y-74122636D01*
X106356988Y-74123500D01*
X106325492Y-74123500D01*
X106238704Y-74126227D01*
X106234807Y-74126227D01*
X106221792Y-74125817D01*
X104810408Y-74125817D01*
X102461818Y-71777227D01*
X102428333Y-71715904D01*
X102425499Y-71689546D01*
X102425499Y-70861142D01*
X102425499Y-70165398D01*
X102445184Y-70098363D01*
X102497988Y-70052608D01*
X102567146Y-70042664D01*
X102599935Y-70052122D01*
X102620197Y-70061144D01*
X102805354Y-70100500D01*
X102805355Y-70100500D01*
X102994644Y-70100500D01*
X102994646Y-70100500D01*
X103179803Y-70061144D01*
X103352730Y-69984151D01*
X103505871Y-69872888D01*
X103632533Y-69732216D01*
X103727179Y-69568284D01*
X103785674Y-69388256D01*
X103803232Y-69221195D01*
X103829815Y-69156584D01*
X103836147Y-69149290D01*
X103849241Y-69135348D01*
X103870120Y-69114470D01*
X103874370Y-69108989D01*
X103878151Y-69104561D01*
X103910062Y-69070582D01*
X103919713Y-69053024D01*
X103930396Y-69036761D01*
X103942673Y-69020936D01*
X103961183Y-68978158D01*
X103963743Y-68972932D01*
X103986197Y-68932092D01*
X103991178Y-68912687D01*
X103997482Y-68894279D01*
X104002009Y-68883818D01*
X104005438Y-68875895D01*
X104012729Y-68829853D01*
X104013908Y-68824162D01*
X104025500Y-68779019D01*
X104025500Y-68758982D01*
X104027027Y-68739582D01*
X104030160Y-68719804D01*
X104026009Y-68675896D01*
X104025775Y-68673415D01*
X104025500Y-68667577D01*
X104025500Y-66482742D01*
X104027224Y-66467122D01*
X104026939Y-66467095D01*
X104027673Y-66459333D01*
X104027317Y-66448000D01*
X105648000Y-66448000D01*
X105648000Y-67950000D01*
X106528717Y-67950000D01*
X107150000Y-67328716D01*
X107150000Y-66568930D01*
X107135804Y-66559713D01*
X107133127Y-66557873D01*
X106981900Y-66448000D01*
X105648000Y-66448000D01*
X104027317Y-66448000D01*
X104025500Y-66390172D01*
X104025500Y-66360653D01*
X104025500Y-66360650D01*
X104024631Y-66353779D01*
X104024173Y-66347952D01*
X104022710Y-66301373D01*
X104017119Y-66282130D01*
X104013173Y-66263078D01*
X104010664Y-66243208D01*
X103993504Y-66199867D01*
X103991624Y-66194379D01*
X103978618Y-66149610D01*
X103975977Y-66145145D01*
X103968423Y-66132371D01*
X103959861Y-66114894D01*
X103952487Y-66096270D01*
X103952486Y-66096268D01*
X103925079Y-66058545D01*
X103921888Y-66053686D01*
X103910694Y-66034758D01*
X103898170Y-66013580D01*
X103898168Y-66013578D01*
X103898165Y-66013574D01*
X103884006Y-65999415D01*
X103871368Y-65984619D01*
X103859594Y-65968413D01*
X103858755Y-65967719D01*
X103823688Y-65938709D01*
X103819376Y-65934786D01*
X103566793Y-65682203D01*
X103533308Y-65620880D01*
X103538292Y-65551188D01*
X103562323Y-65511552D01*
X103644832Y-65419917D01*
X103739478Y-65255985D01*
X103797973Y-65075957D01*
X103809925Y-64962235D01*
X103836510Y-64897622D01*
X103893807Y-64857637D01*
X103933246Y-64851198D01*
X107115246Y-64851198D01*
X107182285Y-64870883D01*
X107202927Y-64887517D01*
X107211038Y-64895628D01*
X107244523Y-64956951D01*
X107246678Y-64970347D01*
X107246959Y-64973018D01*
X107264326Y-65138256D01*
X107264327Y-65138259D01*
X107322818Y-65318277D01*
X107322821Y-65318284D01*
X107417467Y-65482216D01*
X107515691Y-65591304D01*
X107544129Y-65622888D01*
X107697265Y-65734148D01*
X107697270Y-65734151D01*
X107870192Y-65811142D01*
X107870197Y-65811144D01*
X108055354Y-65850500D01*
X108055355Y-65850500D01*
X108244644Y-65850500D01*
X108244646Y-65850500D01*
X108429803Y-65811144D01*
X108602730Y-65734151D01*
X108755871Y-65622888D01*
X108882533Y-65482216D01*
X108977179Y-65318284D01*
X109035674Y-65138256D01*
X109055460Y-64950000D01*
X109035674Y-64761744D01*
X108977179Y-64581716D01*
X108882533Y-64417784D01*
X108755871Y-64277112D01*
X108751807Y-64274159D01*
X108602734Y-64165851D01*
X108602729Y-64165848D01*
X108429807Y-64088857D01*
X108429802Y-64088855D01*
X108274798Y-64055909D01*
X108244646Y-64049500D01*
X108244645Y-64049500D01*
X108185453Y-64049500D01*
X108118414Y-64029815D01*
X108097772Y-64013181D01*
X107926501Y-63841910D01*
X107916678Y-63829648D01*
X107916457Y-63829832D01*
X107911484Y-63823821D01*
X107911483Y-63823821D01*
X107861062Y-63776471D01*
X107847401Y-63762810D01*
X107840173Y-63755581D01*
X107834684Y-63751323D01*
X107830259Y-63747545D01*
X107796280Y-63715636D01*
X107796278Y-63715634D01*
X107796275Y-63715633D01*
X107778727Y-63705986D01*
X107762461Y-63695302D01*
X107746631Y-63683023D01*
X107703866Y-63664516D01*
X107698620Y-63661946D01*
X107657791Y-63639501D01*
X107657790Y-63639500D01*
X107638391Y-63634520D01*
X107619979Y-63628216D01*
X107601596Y-63620260D01*
X107601590Y-63620258D01*
X107555572Y-63612970D01*
X107549850Y-63611785D01*
X107504719Y-63600198D01*
X107504717Y-63600198D01*
X107484682Y-63600198D01*
X107465284Y-63598671D01*
X107457860Y-63597495D01*
X107445503Y-63595538D01*
X107445502Y-63595538D01*
X107399114Y-63599923D01*
X107393276Y-63600198D01*
X103657045Y-63600198D01*
X103641424Y-63598473D01*
X103641397Y-63598759D01*
X103633635Y-63598024D01*
X103588337Y-63599448D01*
X103520712Y-63581878D01*
X103473322Y-63530537D01*
X103461212Y-63461725D01*
X103488227Y-63397289D01*
X103496762Y-63387828D01*
X103584025Y-63300566D01*
X104222771Y-62661819D01*
X104284095Y-62628334D01*
X104310453Y-62625500D01*
X104696252Y-62625500D01*
X104763291Y-62645185D01*
X104788400Y-62666526D01*
X104794126Y-62672885D01*
X104794130Y-62672889D01*
X104947265Y-62784148D01*
X104947270Y-62784151D01*
X105120192Y-62861142D01*
X105120197Y-62861144D01*
X105305354Y-62900500D01*
X105305355Y-62900500D01*
X105494644Y-62900500D01*
X105494646Y-62900500D01*
X105679803Y-62861144D01*
X105852730Y-62784151D01*
X106005871Y-62672888D01*
X106132533Y-62532216D01*
X106227179Y-62368284D01*
X106285674Y-62188256D01*
X106305460Y-62000000D01*
X106285674Y-61811744D01*
X106227179Y-61631716D01*
X106132533Y-61467784D01*
X106114719Y-61448000D01*
X108148000Y-61448000D01*
X108148000Y-62769274D01*
X108173586Y-62780348D01*
X108177111Y-62782006D01*
X108222585Y-62805178D01*
X108225999Y-62807055D01*
X108283353Y-62840976D01*
X108286641Y-62843062D01*
X108319303Y-62865260D01*
X108352706Y-62886459D01*
X108355927Y-62888648D01*
X108409845Y-62927820D01*
X108412923Y-62930209D01*
X108436847Y-62950000D01*
X109650000Y-62950000D01*
X109650000Y-61448000D01*
X108148000Y-61448000D01*
X106114719Y-61448000D01*
X106005871Y-61327112D01*
X106005870Y-61327111D01*
X105852734Y-61215851D01*
X105852729Y-61215848D01*
X105679807Y-61138857D01*
X105679802Y-61138855D01*
X105534000Y-61107865D01*
X105494646Y-61099500D01*
X105305354Y-61099500D01*
X105272897Y-61106398D01*
X105120197Y-61138855D01*
X105120192Y-61138857D01*
X104947270Y-61215848D01*
X104947265Y-61215851D01*
X104794130Y-61327110D01*
X104794126Y-61327114D01*
X104788400Y-61333474D01*
X104728913Y-61370121D01*
X104696252Y-61374500D01*
X104082743Y-61374500D01*
X104067122Y-61372775D01*
X104067096Y-61373061D01*
X104059334Y-61372327D01*
X104059333Y-61372327D01*
X103990186Y-61374500D01*
X103960649Y-61374500D01*
X103953766Y-61375369D01*
X103947949Y-61375826D01*
X103901373Y-61377290D01*
X103882129Y-61382881D01*
X103863079Y-61386825D01*
X103843211Y-61389334D01*
X103799884Y-61406488D01*
X103794358Y-61408379D01*
X103749614Y-61421379D01*
X103749610Y-61421381D01*
X103732366Y-61431579D01*
X103714905Y-61440133D01*
X103696274Y-61447510D01*
X103696262Y-61447517D01*
X103658570Y-61474902D01*
X103653687Y-61478109D01*
X103613580Y-61501829D01*
X103599414Y-61515995D01*
X103584624Y-61528627D01*
X103568414Y-61540404D01*
X103568411Y-61540407D01*
X103538710Y-61576309D01*
X103534777Y-61580631D01*
X101587681Y-63527728D01*
X101526358Y-63561213D01*
X101456666Y-63556229D01*
X101412319Y-63527728D01*
X101100803Y-63216212D01*
X101090980Y-63203950D01*
X101090759Y-63204134D01*
X101085786Y-63198123D01*
X101085785Y-63198122D01*
X101035364Y-63150773D01*
X101024919Y-63140328D01*
X101014475Y-63129883D01*
X101008986Y-63125625D01*
X101004561Y-63121847D01*
X100970582Y-63089938D01*
X100970580Y-63089936D01*
X100970577Y-63089935D01*
X100953029Y-63080288D01*
X100936763Y-63069604D01*
X100920936Y-63057327D01*
X100920935Y-63057326D01*
X100920933Y-63057325D01*
X100878168Y-63038818D01*
X100872922Y-63036248D01*
X100832093Y-63013803D01*
X100832092Y-63013802D01*
X100812693Y-63008822D01*
X100794281Y-63002518D01*
X100775898Y-62994562D01*
X100775892Y-62994560D01*
X100729874Y-62987272D01*
X100724152Y-62986087D01*
X100679021Y-62974500D01*
X100679019Y-62974500D01*
X100658984Y-62974500D01*
X100639586Y-62972973D01*
X100631005Y-62971614D01*
X100619805Y-62969840D01*
X100619804Y-62969840D01*
X100573416Y-62974225D01*
X100567578Y-62974500D01*
X96433952Y-62974500D01*
X96366913Y-62954815D01*
X96321158Y-62902011D01*
X96311214Y-62832853D01*
X96340239Y-62769297D01*
X96346271Y-62762819D01*
X96576876Y-62532214D01*
X97323106Y-61785982D01*
X97384427Y-61752499D01*
X97454118Y-61757483D01*
X97461220Y-61760385D01*
X97520197Y-61786644D01*
X97705354Y-61826000D01*
X97705355Y-61826000D01*
X97894644Y-61826000D01*
X97894646Y-61826000D01*
X98079803Y-61786644D01*
X98252730Y-61709651D01*
X98405871Y-61598388D01*
X98532533Y-61457716D01*
X98538143Y-61448000D01*
X100648000Y-61448000D01*
X100648000Y-61972233D01*
X100684452Y-61973378D01*
X100688340Y-61973623D01*
X100727718Y-61977345D01*
X100767149Y-61979826D01*
X100771025Y-61980192D01*
X100837135Y-61988541D01*
X100840983Y-61989151D01*
X100891122Y-61998714D01*
X100894924Y-61999564D01*
X100929589Y-62008463D01*
X100964938Y-62014063D01*
X100968764Y-62014793D01*
X101018575Y-62025928D01*
X101022349Y-62026897D01*
X101086343Y-62045491D01*
X101090046Y-62046694D01*
X101127270Y-62060095D01*
X101164824Y-62072297D01*
X101168489Y-62073616D01*
X101230442Y-62098144D01*
X101234018Y-62099691D01*
X101280196Y-62121420D01*
X101283666Y-62123188D01*
X101315034Y-62140431D01*
X101347888Y-62154650D01*
X101351413Y-62156308D01*
X101396887Y-62179480D01*
X101400301Y-62181357D01*
X101457655Y-62215278D01*
X101460943Y-62217364D01*
X101476254Y-62227769D01*
X102150000Y-61554023D01*
X102150000Y-61448000D01*
X100648000Y-61448000D01*
X98538143Y-61448000D01*
X98627179Y-61293784D01*
X98685674Y-61113756D01*
X98705460Y-60925500D01*
X98685674Y-60737244D01*
X98627179Y-60557216D01*
X98532533Y-60393284D01*
X98405871Y-60252612D01*
X98364292Y-60222403D01*
X98252734Y-60141351D01*
X98252729Y-60141348D01*
X98079807Y-60064357D01*
X98079802Y-60064355D01*
X97934001Y-60033365D01*
X97894646Y-60025000D01*
X97705354Y-60025000D01*
X97682381Y-60029883D01*
X97520197Y-60064355D01*
X97520192Y-60064357D01*
X97347270Y-60141348D01*
X97347265Y-60141351D01*
X97194135Y-60252606D01*
X97194128Y-60252612D01*
X97155288Y-60295748D01*
X97108787Y-60328067D01*
X97098883Y-60331988D01*
X97093355Y-60333881D01*
X97048611Y-60346881D01*
X97048609Y-60346882D01*
X97031367Y-60357079D01*
X97013899Y-60365637D01*
X96995269Y-60373013D01*
X96995267Y-60373014D01*
X96957576Y-60400398D01*
X96952694Y-60403605D01*
X96912579Y-60427330D01*
X96898408Y-60441500D01*
X96883623Y-60454128D01*
X96867412Y-60465907D01*
X96837709Y-60501810D01*
X96833777Y-60506131D01*
X95163289Y-62176618D01*
X95101966Y-62210103D01*
X95049829Y-62210228D01*
X94994648Y-62198500D01*
X94994646Y-62198500D01*
X94979747Y-62198500D01*
X94912708Y-62178815D01*
X94866953Y-62126011D01*
X94861816Y-62112818D01*
X94827181Y-62006221D01*
X94827178Y-62006215D01*
X94823338Y-61999564D01*
X94732533Y-61842284D01*
X94605871Y-61701612D01*
X94605870Y-61701611D01*
X94452734Y-61590351D01*
X94452729Y-61590348D01*
X94279807Y-61513357D01*
X94279802Y-61513355D01*
X94113977Y-61478109D01*
X94094646Y-61474000D01*
X93905354Y-61474000D01*
X93886023Y-61478109D01*
X93720197Y-61513355D01*
X93720192Y-61513357D01*
X93547270Y-61590348D01*
X93547265Y-61590351D01*
X93394130Y-61701610D01*
X93394126Y-61701614D01*
X93388400Y-61707974D01*
X93328913Y-61744621D01*
X93296252Y-61749000D01*
X92808243Y-61749000D01*
X92792622Y-61747275D01*
X92792595Y-61747561D01*
X92784833Y-61746826D01*
X92715672Y-61749000D01*
X92686149Y-61749000D01*
X92679278Y-61749867D01*
X92673459Y-61750325D01*
X92626874Y-61751789D01*
X92626868Y-61751790D01*
X92607626Y-61757380D01*
X92588587Y-61761323D01*
X92568717Y-61763834D01*
X92568703Y-61763837D01*
X92525383Y-61780988D01*
X92519858Y-61782880D01*
X92475113Y-61795880D01*
X92475110Y-61795881D01*
X92457866Y-61806079D01*
X92440405Y-61814633D01*
X92421774Y-61822010D01*
X92421762Y-61822017D01*
X92384070Y-61849402D01*
X92379187Y-61852609D01*
X92339080Y-61876329D01*
X92324914Y-61890495D01*
X92310124Y-61903127D01*
X92293914Y-61914904D01*
X92293911Y-61914907D01*
X92264210Y-61950809D01*
X92260277Y-61955131D01*
X91852228Y-62363181D01*
X91790905Y-62396666D01*
X91764547Y-62399500D01*
X91705354Y-62399500D01*
X91695945Y-62401500D01*
X91520197Y-62438855D01*
X91520192Y-62438857D01*
X91347270Y-62515848D01*
X91347265Y-62515851D01*
X91194129Y-62627111D01*
X91067466Y-62767785D01*
X90972821Y-62931715D01*
X90972818Y-62931722D01*
X90914327Y-63111740D01*
X90914326Y-63111744D01*
X90895753Y-63288462D01*
X90869168Y-63353076D01*
X90811871Y-63393061D01*
X90772432Y-63399500D01*
X80457743Y-63399500D01*
X80442122Y-63397775D01*
X80442095Y-63398061D01*
X80434333Y-63397326D01*
X80365172Y-63399500D01*
X80335649Y-63399500D01*
X80328778Y-63400367D01*
X80322959Y-63400825D01*
X80276374Y-63402289D01*
X80276368Y-63402290D01*
X80257126Y-63407880D01*
X80238087Y-63411823D01*
X80218217Y-63414334D01*
X80218203Y-63414337D01*
X80174883Y-63431488D01*
X80169358Y-63433380D01*
X80124613Y-63446380D01*
X80124610Y-63446381D01*
X80107366Y-63456579D01*
X80089905Y-63465133D01*
X80071274Y-63472510D01*
X80071262Y-63472517D01*
X80033570Y-63499902D01*
X80028687Y-63503109D01*
X79988580Y-63526829D01*
X79974414Y-63540995D01*
X79959624Y-63553627D01*
X79943414Y-63565404D01*
X79943411Y-63565407D01*
X79913710Y-63601309D01*
X79909777Y-63605631D01*
X79502227Y-64013181D01*
X79440904Y-64046666D01*
X79414546Y-64049500D01*
X78102129Y-64049500D01*
X78102123Y-64049501D01*
X78042516Y-64055908D01*
X77907671Y-64106202D01*
X77907664Y-64106206D01*
X77792455Y-64192452D01*
X77792452Y-64192455D01*
X77706206Y-64307664D01*
X77706202Y-64307671D01*
X77655908Y-64442517D01*
X77649501Y-64502116D01*
X77649500Y-64502135D01*
X77649500Y-66297870D01*
X75400000Y-66297870D01*
X75400000Y-61448000D01*
X76524000Y-61448000D01*
X76524000Y-62950000D01*
X77150000Y-62950000D01*
X77150000Y-61448000D01*
X78148000Y-61448000D01*
X78148000Y-62950000D01*
X79154023Y-62950000D01*
X79172870Y-62931152D01*
X79195690Y-62903570D01*
X79198267Y-62900647D01*
X79233214Y-62863436D01*
X79235969Y-62860681D01*
X79284538Y-62815075D01*
X79287458Y-62812501D01*
X79317913Y-62787305D01*
X79347578Y-62761153D01*
X79350578Y-62758671D01*
X79403222Y-62717837D01*
X79406373Y-62715547D01*
X79448574Y-62686867D01*
X79451861Y-62684781D01*
X79482666Y-62666560D01*
X79511625Y-62645522D01*
X79514846Y-62643334D01*
X79557934Y-62615990D01*
X79561287Y-62614007D01*
X79619665Y-62581914D01*
X79623134Y-62580146D01*
X79650000Y-62567502D01*
X79650000Y-61448000D01*
X80648000Y-61448000D01*
X80648000Y-62401500D01*
X82150000Y-62401500D01*
X82150000Y-61448000D01*
X83148000Y-61448000D01*
X83148000Y-62401500D01*
X84650000Y-62401500D01*
X84650000Y-61448000D01*
X85648000Y-61448000D01*
X85648000Y-62401500D01*
X87150000Y-62401500D01*
X87150000Y-61448000D01*
X88148000Y-61448000D01*
X88148000Y-62401500D01*
X89650000Y-62401500D01*
X89650000Y-61448000D01*
X88148000Y-61448000D01*
X87150000Y-61448000D01*
X85648000Y-61448000D01*
X84650000Y-61448000D01*
X83148000Y-61448000D01*
X82150000Y-61448000D01*
X80648000Y-61448000D01*
X79650000Y-61448000D01*
X78148000Y-61448000D01*
X77150000Y-61448000D01*
X76524000Y-61448000D01*
X75400000Y-61448000D01*
X75400000Y-60450000D01*
X76524000Y-60450000D01*
X77150000Y-60450000D01*
X77150000Y-58989231D01*
X76524000Y-59520382D01*
X76524000Y-60450000D01*
X75400000Y-60450000D01*
X75400000Y-59057408D01*
X75419685Y-58990369D01*
X75443773Y-58962859D01*
X75461285Y-58948000D01*
X78148000Y-58948000D01*
X78148000Y-60450000D01*
X79650000Y-60450000D01*
X79650000Y-58948000D01*
X80648000Y-58948000D01*
X80648000Y-60450000D01*
X82150000Y-60450000D01*
X82150000Y-58948000D01*
X83148000Y-58948000D01*
X83148000Y-60450000D01*
X84650000Y-60450000D01*
X84650000Y-58948000D01*
X85648000Y-58948000D01*
X85648000Y-60450000D01*
X87150000Y-60450000D01*
X87150000Y-58948000D01*
X88148000Y-58948000D01*
X88148000Y-60450000D01*
X89650000Y-60450000D01*
X89650000Y-58948000D01*
X90648000Y-58948000D01*
X90648000Y-60450000D01*
X92150000Y-60450000D01*
X92150000Y-58948000D01*
X93148000Y-58948000D01*
X93148000Y-60450000D01*
X94650000Y-60450000D01*
X94650000Y-58948000D01*
X95648000Y-58948000D01*
X95648000Y-60280522D01*
X96096879Y-59831642D01*
X96119699Y-59804062D01*
X96122274Y-59801142D01*
X96157200Y-59763952D01*
X96159954Y-59761198D01*
X96208513Y-59715598D01*
X96211432Y-59713024D01*
X96241907Y-59687810D01*
X96271576Y-59661655D01*
X96274575Y-59659174D01*
X96327215Y-59618341D01*
X96330366Y-59616052D01*
X96372571Y-59587367D01*
X96375859Y-59585280D01*
X96406682Y-59567049D01*
X96435633Y-59546018D01*
X96438854Y-59543829D01*
X96481941Y-59516487D01*
X96485294Y-59514504D01*
X96543678Y-59482408D01*
X96547146Y-59480641D01*
X96580994Y-59464712D01*
X96582480Y-59463509D01*
X96585054Y-59461533D01*
X96783129Y-59317625D01*
X96785806Y-59315785D01*
X96821484Y-59292617D01*
X96824254Y-59290920D01*
X96872338Y-59263162D01*
X96875190Y-59261613D01*
X96913062Y-59242318D01*
X96915990Y-59240921D01*
X97139633Y-59141347D01*
X97142633Y-59140104D01*
X97150000Y-59137275D01*
X97150000Y-58948000D01*
X98148000Y-58948000D01*
X98148000Y-59058556D01*
X98314447Y-59093935D01*
X98317604Y-59094693D01*
X98358672Y-59105697D01*
X98361783Y-59106618D01*
X98414591Y-59123775D01*
X98417654Y-59124859D01*
X98457367Y-59140104D01*
X98460367Y-59141347D01*
X98684010Y-59240921D01*
X98686938Y-59242318D01*
X98724810Y-59261613D01*
X98727664Y-59263162D01*
X98775748Y-59290922D01*
X98778516Y-59292618D01*
X98814196Y-59315787D01*
X98816873Y-59317627D01*
X99014940Y-59461530D01*
X99017517Y-59463507D01*
X99050562Y-59490268D01*
X99053029Y-59492375D01*
X99094290Y-59529525D01*
X99096645Y-59531761D01*
X99126717Y-59561833D01*
X99128952Y-59564187D01*
X99292763Y-59746118D01*
X99294870Y-59748585D01*
X99321627Y-59781626D01*
X99323603Y-59784201D01*
X99356240Y-59829119D01*
X99358080Y-59831796D01*
X99381248Y-59867471D01*
X99382945Y-59870239D01*
X99505348Y-60082250D01*
X99506896Y-60085102D01*
X99526192Y-60122969D01*
X99527589Y-60125898D01*
X99550174Y-60176619D01*
X99551417Y-60179619D01*
X99566667Y-60219341D01*
X99567751Y-60222403D01*
X99641702Y-60450000D01*
X99650000Y-60450000D01*
X99650000Y-58948000D01*
X100648000Y-58948000D01*
X100648000Y-60450000D01*
X102150000Y-60450000D01*
X102150000Y-58948000D01*
X103148000Y-58948000D01*
X103148000Y-60450000D01*
X103504662Y-60450000D01*
X103506817Y-60449147D01*
X103510480Y-60447829D01*
X103559003Y-60432062D01*
X103562745Y-60430975D01*
X103627284Y-60414404D01*
X103631086Y-60413554D01*
X103669937Y-60406143D01*
X103708513Y-60397521D01*
X103712337Y-60396792D01*
X103778143Y-60386367D01*
X103782009Y-60385879D01*
X103832818Y-60381075D01*
X103836706Y-60380830D01*
X103884206Y-60379336D01*
X103915586Y-60377362D01*
X103943027Y-60376500D01*
X103974508Y-60376500D01*
X104061296Y-60373773D01*
X104065193Y-60373773D01*
X104116218Y-60375377D01*
X104120107Y-60375622D01*
X104129389Y-60376500D01*
X104407036Y-60376500D01*
X104421484Y-60367118D01*
X104424252Y-60365422D01*
X104472336Y-60337662D01*
X104475190Y-60336113D01*
X104513062Y-60316818D01*
X104515990Y-60315422D01*
X104650000Y-60255754D01*
X104650000Y-59423725D01*
X105648000Y-59423725D01*
X105648000Y-60113177D01*
X105671800Y-60116947D01*
X105674992Y-60117538D01*
X105914447Y-60168435D01*
X105917604Y-60169193D01*
X105958672Y-60180197D01*
X105961783Y-60181118D01*
X106014591Y-60198275D01*
X106017654Y-60199359D01*
X106057367Y-60214604D01*
X106060367Y-60215847D01*
X106284010Y-60315421D01*
X106286938Y-60316818D01*
X106324810Y-60336113D01*
X106327664Y-60337662D01*
X106375748Y-60365422D01*
X106378516Y-60367118D01*
X106414196Y-60390287D01*
X106416873Y-60392127D01*
X106496528Y-60450000D01*
X107150000Y-60450000D01*
X107150000Y-59706811D01*
X106974596Y-59774763D01*
X106952587Y-59781025D01*
X106733981Y-59821889D01*
X106711196Y-59824000D01*
X106488804Y-59824000D01*
X106466019Y-59821889D01*
X106247413Y-59781025D01*
X106225404Y-59774763D01*
X106018028Y-59694425D01*
X105997544Y-59684225D01*
X105808462Y-59567150D01*
X105790202Y-59553360D01*
X105648000Y-59423725D01*
X104650000Y-59423725D01*
X104650000Y-58948000D01*
X108148000Y-58948000D01*
X108148000Y-60450000D01*
X109650000Y-60450000D01*
X109650000Y-58948000D01*
X110648000Y-58948000D01*
X110648000Y-60355223D01*
X110725404Y-60325237D01*
X110747413Y-60318975D01*
X110966019Y-60278111D01*
X110988804Y-60276000D01*
X111211196Y-60276000D01*
X111233981Y-60278111D01*
X111452587Y-60318975D01*
X111474596Y-60325237D01*
X111681972Y-60405575D01*
X111702456Y-60415775D01*
X111757731Y-60450000D01*
X112150000Y-60450000D01*
X112150000Y-58948000D01*
X113148000Y-58948000D01*
X113148000Y-60450000D01*
X114176822Y-60450000D01*
X114290202Y-60346640D01*
X114308462Y-60332850D01*
X114497544Y-60215775D01*
X114518027Y-60205576D01*
X114649306Y-60154717D01*
X114650000Y-60154023D01*
X114650000Y-58948000D01*
X113148000Y-58948000D01*
X112150000Y-58948000D01*
X110648000Y-58948000D01*
X109650000Y-58948000D01*
X108148000Y-58948000D01*
X104650000Y-58948000D01*
X103148000Y-58948000D01*
X102150000Y-58948000D01*
X100648000Y-58948000D01*
X99650000Y-58948000D01*
X98148000Y-58948000D01*
X97150000Y-58948000D01*
X95648000Y-58948000D01*
X94650000Y-58948000D01*
X93148000Y-58948000D01*
X92150000Y-58948000D01*
X90648000Y-58948000D01*
X89650000Y-58948000D01*
X88148000Y-58948000D01*
X87150000Y-58948000D01*
X85648000Y-58948000D01*
X84650000Y-58948000D01*
X83148000Y-58948000D01*
X82150000Y-58948000D01*
X80648000Y-58948000D01*
X79650000Y-58948000D01*
X78148000Y-58948000D01*
X75461285Y-58948000D01*
X76637499Y-57950000D01*
X78374808Y-57950000D01*
X79650000Y-57950000D01*
X79650000Y-57324000D01*
X80648000Y-57324000D01*
X80648000Y-57950000D01*
X82150000Y-57950000D01*
X82150000Y-57324000D01*
X83148000Y-57324000D01*
X83148000Y-57950000D01*
X84650000Y-57950000D01*
X84650000Y-57324000D01*
X85648000Y-57324000D01*
X85648000Y-57950000D01*
X87150000Y-57950000D01*
X87150000Y-57324000D01*
X88148000Y-57324000D01*
X88148000Y-57950000D01*
X89650000Y-57950000D01*
X89650000Y-57324000D01*
X90648000Y-57324000D01*
X90648000Y-57950000D01*
X92150000Y-57950000D01*
X92150000Y-57324000D01*
X93148000Y-57324000D01*
X93148000Y-57950000D01*
X94650000Y-57950000D01*
X94650000Y-57324000D01*
X95648000Y-57324000D01*
X95648000Y-57950000D01*
X97150000Y-57950000D01*
X97150000Y-57324000D01*
X98148000Y-57324000D01*
X98148000Y-57950000D01*
X99650000Y-57950000D01*
X99650000Y-57324000D01*
X100648000Y-57324000D01*
X100648000Y-57950000D01*
X102150000Y-57950000D01*
X102150000Y-57324000D01*
X103148000Y-57324000D01*
X103148000Y-57950000D01*
X104650000Y-57950000D01*
X104650000Y-57324000D01*
X108148000Y-57324000D01*
X108148000Y-57950000D01*
X109650000Y-57950000D01*
X109650000Y-57324000D01*
X110648000Y-57324000D01*
X110648000Y-57950000D01*
X112150000Y-57950000D01*
X112150000Y-57324000D01*
X113148000Y-57324000D01*
X113148000Y-57950000D01*
X114650000Y-57950000D01*
X114650000Y-57324000D01*
X115648000Y-57324000D01*
X115648000Y-57950000D01*
X116503472Y-57950000D01*
X116583127Y-57892127D01*
X116585804Y-57890287D01*
X116621484Y-57867118D01*
X116624252Y-57865422D01*
X116672336Y-57837662D01*
X116675190Y-57836113D01*
X116713062Y-57816818D01*
X116715990Y-57815421D01*
X116939633Y-57715847D01*
X116942633Y-57714604D01*
X116982346Y-57699359D01*
X116985409Y-57698275D01*
X117038217Y-57681118D01*
X117041328Y-57680197D01*
X117082396Y-57669193D01*
X117085552Y-57668435D01*
X117149999Y-57654736D01*
X117150000Y-57324000D01*
X118148000Y-57324000D01*
X118148000Y-57677337D01*
X118158672Y-57680197D01*
X118161783Y-57681118D01*
X118214591Y-57698275D01*
X118217654Y-57699359D01*
X118257367Y-57714604D01*
X118260367Y-57715847D01*
X118484010Y-57815421D01*
X118486938Y-57816818D01*
X118524810Y-57836113D01*
X118527664Y-57837662D01*
X118575748Y-57865422D01*
X118578516Y-57867118D01*
X118614196Y-57890287D01*
X118616873Y-57892127D01*
X118696528Y-57950000D01*
X119650000Y-57950000D01*
X119650000Y-57324000D01*
X118148000Y-57324000D01*
X117150000Y-57324000D01*
X115648000Y-57324000D01*
X114650000Y-57324000D01*
X113148000Y-57324000D01*
X112150000Y-57324000D01*
X110648000Y-57324000D01*
X109650000Y-57324000D01*
X108148000Y-57324000D01*
X104650000Y-57324000D01*
X103148000Y-57324000D01*
X102150000Y-57324000D01*
X100648000Y-57324000D01*
X99650000Y-57324000D01*
X98148000Y-57324000D01*
X97150000Y-57324000D01*
X95648000Y-57324000D01*
X94650000Y-57324000D01*
X93148000Y-57324000D01*
X92150000Y-57324000D01*
X90648000Y-57324000D01*
X89650000Y-57324000D01*
X88148000Y-57324000D01*
X87150000Y-57324000D01*
X85648000Y-57324000D01*
X84650000Y-57324000D01*
X83148000Y-57324000D01*
X82150000Y-57324000D01*
X80648000Y-57324000D01*
X79650000Y-57324000D01*
X79112594Y-57324000D01*
X78374808Y-57950000D01*
X76637499Y-57950000D01*
X78665292Y-56229448D01*
X78729145Y-56201086D01*
X78745517Y-56200000D01*
X120659567Y-56200000D01*
X120726606Y-56219685D01*
G37*
%TD.AperFunction*%
%TD*%
M02*
